<svg width="500" height="244" viewBox="0 0 500 244" fill="none" xmlns="http://www.w3.org/2000/svg">
<path d="M270.871 214L159.635 214C153.783 214 148.768 209.708 147.709 203.798L133.203 122.699C131.836 115.052 137.554 108 145.129 108L256.365 108C262.217 108 267.232 112.292 268.287 118.202L282.797 199.301C284.164 206.948 278.446 214 270.871 214Z" fill="#34379E"/>
<path d="M276.294 199.751L261.293 120.29C260.199 114.5 255.011 110.296 248.959 110.296L134.422 110.296C132.017 113.087 130.812 116.91 131.546 120.888L146.76 203.734C147.871 209.77 153.132 214.154 159.27 214.154L263.964 214.154C271.795 214.154 277.708 207.246 276.294 199.751Z" fill="#595CDC"/>
<path d="M249.119 225.016L227.721 225.016C223.906 225.016 220.812 221.619 220.812 217.427L220.812 178.307C220.812 171.637 215.887 166.228 209.814 166.228L198.64 166.228C192.563 166.228 187.642 171.637 187.642 178.307L187.642 222.119C187.642 229.61 193.19 235.67 200.013 235.621L258.404 235.219C258.404 229.585 254.245 225.016 249.119 225.016Z" fill="#34379E"/>
<path d="M188.49 179.185L188.49 222.325C188.49 229.348 193.936 235.089 200.824 235.585L257.81 235.228C257.806 234.294 253.315 232.594 247.762 232.594L224.619 232.594C220.493 232.594 217.145 229.246 217.145 225.12L217.145 179.185C217.145 172.617 211.818 167.29 205.25 167.29L200.39 167.29C193.817 167.29 188.49 172.617 188.49 179.185Z" fill="#595CDC"/>
<path d="M258.115 51.0898L149.353 51.0898C148.166 51.0898 147.207 50.1309 147.207 48.9438L147.207 2.14112C147.207 0.958721 148.166 -0.000236511 149.353 -0.000236511L258.115 -0.00023651C259.302 -0.00023651 260.261 0.958721 260.261 2.14112L260.261 48.9438C260.261 50.1309 259.302 51.0898 258.115 51.0898Z" fill="#898DFF"/>
<path d="M255.439 48.6924L152.03 48.6924C151.075 48.6924 150.298 47.915 150.298 46.9607L150.298 15.1521C150.298 14.1978 151.075 13.4204 152.03 13.4204L255.439 13.4204C256.393 13.4204 257.17 14.1978 257.17 15.1521L257.17 46.9607C257.17 47.915 256.393 48.6924 255.439 48.6924Z" fill="#D4D5FF"/>
<path d="M155.339 7.74707L152.83 7.74707C152.3 7.74707 151.867 7.31409 151.867 6.7834L151.867 4.71651C151.867 4.19048 152.3 3.75757 152.83 3.75757L155.339 3.75757C155.865 3.75757 156.298 4.19048 156.298 4.71651L156.298 6.7834C156.298 7.31409 155.865 7.74707 155.339 7.74707Z" fill="#D4D5FF"/>
<path d="M163.388 7.74707L160.879 7.74707C160.353 7.74707 159.92 7.31409 159.92 6.7834L159.92 4.71651C159.92 4.19048 160.353 3.75757 160.879 3.75757L163.388 3.75757C163.919 3.75757 164.352 4.19048 164.352 4.71651L164.352 6.7834C164.352 7.31409 163.919 7.74707 163.388 7.74707Z" fill="#D4D5FF"/>
<path d="M171.442 7.74707L168.932 7.74707C168.402 7.74707 167.973 7.31409 167.973 6.7834L167.973 4.71651C167.973 4.19048 168.402 3.75757 168.932 3.75757L171.442 3.75757C171.972 3.75757 172.405 4.19048 172.405 4.71651L172.405 6.7834C172.405 7.31409 171.972 7.74707 171.442 7.74707Z" fill="#D4D5FF"/>
<path d="M252.823 21.1523L196.291 21.1523C195.364 21.1523 194.601 20.3889 194.601 19.4625C194.601 18.5315 195.364 17.768 196.291 17.768L252.823 17.768C253.754 17.768 254.512 18.5315 254.512 19.4625C254.512 20.3889 253.754 21.1523 252.823 21.1523Z" fill="#898DFF"/>
<path d="M210.303 47.2402L153.775 47.2402C152.844 47.2402 152.081 46.4815 152.081 45.5504C152.081 44.6194 152.844 43.8606 153.775 43.8606L210.303 43.8606C211.234 43.8606 211.992 44.6194 211.992 45.5504C211.992 46.4815 211.234 47.2402 210.303 47.2402Z" fill="#898DFF"/>
<path d="M220.716 47.2402L214.869 47.2402C214.548 47.2402 214.292 46.9842 214.292 46.663L214.292 44.4378C214.292 44.1213 214.548 43.8606 214.869 43.8606L220.716 43.8606C221.037 43.8606 221.293 44.1213 221.293 44.4378L221.293 46.663C221.293 46.9842 221.037 47.2402 220.716 47.2402Z" fill="#898DFF"/>
<path d="M229.533 47.2402L223.686 47.2402C223.369 47.2402 223.109 46.9842 223.109 46.663L223.109 44.4378C223.109 44.1213 223.369 43.8606 223.686 43.8606L229.533 43.8606C229.854 43.8606 230.115 44.1213 230.115 44.4378L230.115 46.663C230.115 46.9842 229.854 47.2402 229.533 47.2402Z" fill="#898DFF"/>
<path d="M253.363 28.5215L159.752 28.5215C159.124 28.5215 158.607 28.0048 158.607 27.3717C158.607 26.7433 159.124 26.2266 159.752 26.2266L253.363 26.2266C253.996 26.2266 254.512 26.7433 254.512 27.3717C254.512 28.0048 253.996 28.5215 253.363 28.5215Z" fill="#898DFF"/>
<path d="M253.363 33.4707L159.752 33.4707C159.124 33.4707 158.607 32.954 158.607 32.3256C158.607 31.6925 159.124 31.1757 159.752 31.1757L253.363 31.1757C253.996 31.1757 254.512 31.6925 254.512 32.3256C254.512 32.954 253.996 33.4707 253.363 33.4707Z" fill="#898DFF"/>
<path d="M283.663 86.9629L174.896 86.9629C173.713 86.9629 172.754 86.0039 172.754 84.8215L172.754 38.0142C172.754 36.8318 173.713 35.8728 174.896 35.8728L283.663 35.8728C284.845 35.8728 285.809 36.8318 285.809 38.0142L285.809 84.8215C285.809 86.0039 284.845 86.9629 283.663 86.9629Z" fill="#898DFF"/>
<path d="M280.986 84.5654L177.577 84.5654C176.618 84.5654 175.845 83.788 175.845 82.8337L175.845 51.0252C175.845 50.0709 176.618 49.2935 177.577 49.2935L280.986 49.2935C281.94 49.2935 282.718 50.0709 282.718 51.0252L282.718 82.8337C282.718 83.788 281.94 84.5654 280.986 84.5654Z" fill="#D4D5FF"/>
<path d="M180.882 43.6182L178.373 43.6182C177.842 43.6182 177.414 43.1853 177.414 42.6592L177.414 40.5923C177.414 40.0616 177.842 39.6287 178.373 39.6287L180.882 39.6287C181.413 39.6287 181.841 40.0616 181.841 40.5923L181.841 42.6592C181.841 43.1853 181.413 43.6182 180.882 43.6182Z" fill="#D4D5FF"/>
<path d="M188.936 43.6182L186.426 43.6182C185.896 43.6182 185.467 43.1853 185.467 42.6592L185.467 40.5923C185.467 40.0616 185.896 39.6287 186.426 39.6287L188.936 39.6287C189.466 39.6287 189.894 40.0616 189.894 40.5923L189.894 42.6592C189.894 43.1853 189.466 43.6182 188.936 43.6182Z" fill="#D4D5FF"/>
<path d="M196.989 43.6182L194.48 43.6182C193.949 43.6182 193.521 43.1853 193.521 42.6592L193.521 40.5923C193.521 40.0616 193.949 39.6287 194.48 39.6287L196.989 39.6287C197.52 39.6287 197.948 40.0616 197.948 40.5923L197.948 42.6592C197.948 43.1853 197.52 43.6182 196.989 43.6182Z" fill="#D4D5FF"/>
<path d="M278.365 57.0254L221.838 57.0254C220.907 57.0254 220.148 56.2619 220.148 55.3355C220.148 54.4045 220.907 53.6411 221.838 53.6411L278.365 53.6411C279.296 53.6411 280.06 54.4045 280.06 55.3355C280.06 56.2619 279.296 57.0254 278.365 57.0254Z" fill="#898DFF"/>
<path d="M235.85 83.1133L179.318 83.1133C178.392 83.1133 177.628 82.3545 177.628 81.4235C177.628 80.4971 178.392 79.7337 179.318 79.7337L235.85 79.7337C236.781 79.7337 237.54 80.4971 237.54 81.4235C237.54 82.3545 236.781 83.1133 235.85 83.1133Z" fill="#898DFF"/>
<path d="M246.263 83.1133L240.412 83.1133C240.095 83.1133 239.835 82.8573 239.835 82.5361L239.835 80.3109C239.835 79.9943 240.095 79.7337 240.412 79.7337L246.263 79.7337C246.58 79.7337 246.841 79.9943 246.841 80.3109L246.841 82.5361C246.841 82.8573 246.58 83.1133 246.263 83.1133Z" fill="#898DFF"/>
<path d="M255.08 83.1133L249.233 83.1133C248.912 83.1133 248.651 82.8573 248.651 82.5361L248.651 80.3109C248.651 79.9943 248.912 79.7337 249.233 79.7337L255.08 79.7337C255.397 79.7337 255.657 79.9943 255.657 80.3109L255.657 82.5361C255.657 82.8573 255.397 83.1133 255.08 83.1133Z" fill="#898DFF"/>
<path d="M278.91 64.3945L185.3 64.3945C184.667 64.3945 184.15 63.8778 184.15 63.2447C184.15 62.6163 184.667 62.0996 185.3 62.0996L278.91 62.0996C279.543 62.0996 280.06 62.6163 280.06 63.2447C280.06 63.8778 279.543 64.3945 278.91 64.3945Z" fill="#898DFF"/>
<path d="M278.91 69.3467L185.3 69.3467C184.667 69.3467 184.15 68.83 184.15 68.1969C184.15 67.5638 184.667 67.0517 185.3 67.0517L278.91 67.0517C279.543 67.0517 280.06 67.5638 280.06 68.1969C280.06 68.83 279.543 69.3467 278.91 69.3467Z" fill="#898DFF"/>
<path d="M496.197 243.013L42.7482 243.013C40.6506 243.013 38.9497 241.312 38.9497 239.214C38.9497 237.116 40.6506 235.416 42.7482 235.416L496.197 235.416C498.295 235.416 500 237.116 500 239.214C500 241.312 498.295 243.013 496.197 243.013Z" fill="#D4D5FF" fill-opacity="0.8"/>
<path d="M79.7779 87.1223C69.542 96.469 73.9925 105.816 81.5579 123.173C89.1237 140.531 90.4591 204.613 90.4591 204.613L84.2283 203.724C84.2283 203.724 85.1183 137.859 76.6629 120.059C68.207 102.255 64.6466 93.3548 57.0812 99.1406C49.5153 104.926 79.7779 87.1223 79.7779 87.1223Z" fill="#5494A4"/>
<path d="M85.4012 75.0225C84.158 69.4866 76.7757 63.4917 66.9037 58.4107C68.3715 66.5773 73.0776 79.9355 68.2072 82.6727C61.6387 86.3687 67.5667 67.7205 65.0323 57.4724C55.7627 52.9445 44.6123 49.2444 34.3428 47.4045C34.3576 47.4414 34.369 47.4783 34.3842 47.5151C40.1696 62.201 47.7351 67.9868 44.6201 70.2118C42.2762 71.8878 34.6424 54.9236 24.5618 46.2285C16.9952 45.8228 10.5943 46.8472 6.80725 49.8467C0.954211 54.4811 -2.97459 58.591 2.91246 72.7032C6.27537 75.1044 10.6311 76.8295 15.6925 77.3335C29.0438 78.6693 35.2742 79.116 25.9284 83.566C21.3517 85.7418 13.681 83.443 7.46123 82.0376C9.47889 85.7582 11.9584 89.9664 14.9726 94.7566C16.8841 97.797 18.9907 100.436 21.2276 102.718C25.5309 103.542 29.2823 103.554 31.2688 102.702C37.4992 100.03 53.5209 91.5768 57.5259 95.1336C61.4465 98.6206 27.8542 100.825 30.1821 109.684C46.4644 119.064 65.0963 114.601 68.3895 105.984C72.8125 94.4165 89.1439 91.6957 85.4012 75.0225Z" fill="#70B6C8"/>
<path d="M51.7404 138.306C69.5421 124.952 87.7888 137.413 97.1346 151.656C106.48 165.895 99.805 197.938 99.805 197.938C99.805 197.938 96.2446 197.938 96.2446 196.603C96.2446 195.271 106.035 158.778 82.8934 142.309C68.4161 132.008 57.9708 136.97 56.6362 141.863C55.3008 146.759 62.4217 155.659 62.4217 155.659L51.7404 138.306Z" fill="#5494A4"/>
<path d="M92.6842 110.861C74.8825 110.861 69.0971 138.454 73.9925 154.476C78.8879 170.497 85.5637 200.312 85.5637 200.312L90.0142 195.862C90.0142 195.862 73.1025 154.029 77.1079 135.336C81.1133 116.646 90.9038 113.532 92.6842 113.532C94.4646 113.532 92.6842 110.861 92.6842 110.861Z" fill="#70B6C8"/>
<path d="M77.7538 154.598C76.502 152.938 74.9551 151.57 73.0677 150.66C73.3148 151.983 73.623 153.262 73.9926 154.475C76.2229 161.773 78.8228 171.935 80.9929 180.839C81.19 179.7 81.4941 177.942 81.9633 175.233C82.0739 174.59 82.1608 173.897 82.2214 173.16C80.4783 167.231 78.8306 160.773 77.7538 154.598Z" fill="#5494A4"/>
<path d="M72.8866 154.733C39.0636 140.49 56.8833 120.949 27.0658 133.852C24.9653 134.762 22.4056 137.056 19.8429 140.216C22.4986 140.97 25.7144 141.51 29.2908 140.974C38.1916 139.638 35.0762 146.76 20.3899 148.542C17.6216 148.878 15.3757 149.337 13.508 149.993C6.51131 163.429 3.35819 181.114 18.1645 187.26C21.082 188.469 24.6883 189.162 28.7024 189.42C33.2716 185.789 27.5874 164.777 34.6312 167.678C41.3939 170.46 32.5123 185.691 33.7293 189.526C40.4047 189.408 47.7948 188.318 54.8575 186.568C57.6524 184.998 59.7861 182.901 60.4437 180.139C62.6687 170.792 47.9825 165.006 47.5375 156.995C47.1281 149.632 52.9201 173.197 68.2649 176.668C82.1406 170.186 88.6968 161.388 72.8866 154.733Z" fill="#70B6C8"/>
<path d="M96.9863 129.549C93.4263 121.985 102.772 120.207 102.327 125.993C101.932 131.119 101.889 143.58 107.147 146.972C116.214 145.989 128.551 142.338 137.878 136.765C137.995 136.015 137.881 135.241 137.485 134.446C133.48 126.435 107.668 119.76 115.678 117.089C122.058 114.962 133.237 127.517 142.246 133.84C147.657 129.734 151.281 124.841 151.281 119.379C151.281 111.983 142.298 103.616 130.68 99.6163C125.451 100.141 120.594 103.001 113.008 107.299C101.801 113.651 104.393 103.382 114.989 97.2888C105.842 97.7601 96.7215 101.669 89.9949 111.008C89.9949 111.008 90.6309 114.999 86.4074 121.174C74.8841 138.015 88.1825 147.845 104.08 147.206C103.181 142.768 99.4465 134.778 96.9863 129.549Z" fill="#70B6C8"/>
<path d="M52.8116 137.548C44.1083 144.276 34.4403 152.14 22.5724 157.479C10.7037 162.818 13.0774 180.225 13.0774 180.225C13.0774 180.225 11.2974 165.195 21.1874 160.048C31.0778 154.905 37.6053 148.775 45.122 147.587C52.6387 146.403 56.7924 145.215 56.7924 145.215C56.7924 145.215 54.4187 140.465 55.8033 138.687C57.1883 136.909 52.8116 137.548 52.8116 137.548Z" fill="#5494A4"/>
<path d="M9.91276 58.575C41.759 67.0817 65.1003 87.455 69.452 92.4009C73.8036 97.3467 73.8036 98.7317 73.8036 98.7317L70.4411 105.063L68.8586 104.268C68.8586 104.268 71.4299 98.9284 64.7049 92.0075C53.1066 80.0671 38.9899 70.6425 29.2974 66.4875C19.6053 62.3326 9.91276 58.575 9.91276 58.575Z" fill="#5494A4"/>
<path d="M97.8198 234.854L85.6528 234.854C77.0011 234.854 69.9872 227.838 69.9872 219.188L69.9872 191.234L113.485 191.234L113.485 219.188C113.485 227.838 106.472 234.854 97.8198 234.854Z" fill="#FF8181"/>
<path d="M330.92 227.703L257.464 215.8C257.319 215.776 257.173 215.765 257.027 215.765C253.932 215.765 253.223 220.099 256.157 221.085L297.314 234.917C297.725 235.056 298.155 235.126 298.588 235.126L330.323 235.126C332.386 235.126 334.058 233.453 334.058 231.39C334.058 229.558 332.729 227.996 330.92 227.703Z" fill="#34379E"/>
<path d="M331.291 59.5722C330.015 90.1937 330.335 106.781 341.499 119.537C352.662 132.297 383.921 129.109 383.921 129.109C383.921 129.109 387.005 174.187 430.703 176.1C474.402 178.014 480.675 119.963 446.439 105.076C413.849 90.9067 403.485 86.7886 392.215 51.7048C381.919 19.6491 349.791 25.7587 342.136 39.1579C334.481 52.553 331.291 59.5722 331.291 59.5722Z" fill="#161836"/>
<path d="M345.645 215.867C345.645 215.867 325.018 219.907 323.955 219.694C322.892 219.481 300.351 209.487 298.012 210.975C295.673 212.462 282.064 218.207 279.087 219.481C276.11 220.756 280.788 221.182 283.127 221.182C285.466 221.182 298.863 215.654 300.351 216.715C301.84 217.781 288.656 219.907 288.656 220.756C288.656 221.608 323.955 229.688 326.081 229.688C328.208 229.688 344.582 228.201 344.582 228.201L345.645 215.867Z" fill="#F3B5AA"/>
<path d="M362.763 103.215C351.652 105.395 345.113 117.155 342.987 127.453C340.861 137.754 362.763 103.215 362.763 103.215Z" fill="#D58642"/>
<path d="M381.37 95.2936C381.37 95.2936 402.74 109.648 414.223 116.667C425.706 123.682 410.077 199.279 406.249 227.347C402.421 255.416 336.076 229.9 336.076 229.9C336.076 229.9 340.541 206.294 334.8 168.338C330.687 141.15 345.751 124.108 354.363 112.307C376.1 82.5213 381.37 95.2936 381.37 95.2936Z" fill="#FBA356"/>
<path d="M402.422 116.983C377.861 146.969 369.559 152.575 375.628 172.805C380.412 188.753 382.008 194.493 382.964 199.919C383.921 205.34 337.352 196.407 337.352 196.407L337.671 213.953C337.671 213.953 374.352 231.495 392.215 235.003C410.077 238.514 421.241 234.367 421.241 234.367L402.422 116.983Z" fill="#D58642"/>
<path d="M373.502 65.0997L384.559 97.8478C384.559 97.8478 372.439 130.703 362.231 123.364C358.747 120.86 363.507 101.036 363.507 101.036L356.065 74.4545L373.502 65.0997Z" fill="#FBBFB4"/>
<path d="M408.801 115.709C424.071 117.405 425.387 138.037 432.405 172.486C439.422 206.934 437.313 229.672 433.999 234.048C426.025 244.575 336.395 207.893 325.231 208.213C317.526 208.43 323.955 195.453 323.955 195.453L409.439 208.528C409.439 208.528 397.318 168.658 397.318 148.244C397.318 127.83 403.06 115.07 408.801 115.709Z" fill="#FBBFB4"/>
<path d="M329.377 196.087C320.446 193.858 307.369 188.753 304.817 190.986C302.265 193.219 291.739 209.167 288.23 213.633C284.722 218.1 289.825 214.588 293.653 211.081C297.48 207.573 300.67 205.659 300.67 205.659C300.67 205.659 305.455 210.126 309.92 212.675C314.386 215.227 315.981 210.126 323.636 208.847C331.291 207.573 350.429 214.273 350.429 214.273L329.377 196.087Z" fill="#FBBFB4"/>
<path d="M407.1 113.156C416.456 113.582 423.686 121.449 426.238 133.57C428.79 145.691 436.233 184.179 436.233 184.179C436.233 184.179 437.721 185.245 422.198 188.011C406.675 190.773 393.916 187.585 393.916 187.585C393.916 187.585 390.726 165.679 391.577 150.583C392.427 135.483 395.83 121.236 401.358 116.348C406.887 111.455 407.1 113.156 407.1 113.156Z" fill="#FBA356"/>
<path d="M363.507 101.035L356.065 74.454L373.502 65.0991L376.165 72.9871C376.745 99.3962 369.98 108.227 365.421 111.455C363.997 112.463 362.773 111.685 361.747 110.038C362.496 105.252 363.507 101.035 363.507 101.035Z" fill="#F3B5AA"/>
<path d="M328.101 68.1845C328.101 82.4074 329.8 99.8509 342.136 99.4412C361.275 98.806 373.334 83.9276 373.334 69.7007C373.334 55.4737 363.328 43.9389 350.984 43.9389C338.641 43.9389 328.101 53.9576 328.101 68.1845Z" fill="#FBBFB4"/>
<path d="M349.154 38.9974C335.597 38.0386 327.57 50.4257 325.231 61.2721C323.543 69.0985 324.38 70.627 324.38 70.627C324.38 70.627 325.869 72.7536 336.501 73.3929C347.134 74.0321 348.409 73.819 348.409 73.819L349.047 61.4852L352.237 73.3929C352.237 73.3929 353.938 75.7326 360.53 72.5405C367.122 69.3526 370.1 58.7193 370.1 58.7193C370.1 58.7193 371.588 51.7042 366.484 47.0247C361.381 42.3452 349.154 38.9974 349.154 38.9974Z" fill="#161836"/>
<path d="M468.98 128.321L469.027 128.321C469.297 128.293 469.495 128.055 469.469 127.784C468.911 121.937 465.988 115.926 461.239 110.857C455.87 105.129 448.229 100.613 439.142 97.8022C418.894 91.5411 401.23 83.5794 390.131 49.4258C390.047 49.1676 389.769 49.0242 389.511 49.1102C389.253 49.1922 389.111 49.4709 389.195 49.729C394.296 65.4229 401.24 76.8511 410.423 84.6653C418.522 91.5575 427.645 95.274 438.851 98.7406C447.775 101.502 455.269 105.924 460.522 111.529C465.122 116.438 467.952 122.244 468.49 127.879C468.515 128.133 468.729 128.321 468.98 128.321Z" fill="#161836"/>
<path d="M459.836 104.719C459.982 104.719 460.128 104.653 460.225 104.526C460.391 104.313 460.352 104.006 460.137 103.838C460.051 103.772 451.4 97.1463 438.89 94.3886C414.873 89.0986 398.749 74.6545 392.261 52.6257C392.184 52.3676 391.912 52.216 391.651 52.2938C391.39 52.3717 391.241 52.6462 391.317 52.9044C395.326 66.5126 402.867 77.2524 413.73 84.8248C420.725 89.7051 429.119 93.2454 438.679 95.3516C450.962 98.056 459.451 104.551 459.535 104.616C459.624 104.686 459.731 104.719 459.836 104.719Z" fill="#161836"/>
</svg>
