<svg width="774" height="343" viewBox="0 0 774 343" fill="none" xmlns="http://www.w3.org/2000/svg">
<g opacity="0.5">
<path d="M85.1056 98.7237C76.4207 96.5849 68.0633 96.0259 60.6127 97.075L58.6201 82.9007C67.8764 81.6014 78.0722 82.2521 88.5325 84.8285L85.1056 98.7237ZM22.9991 124.408L10.4427 117.523C15.4314 108.442 22.131 100.768 30.3555 94.7169L38.8455 106.243C32.3079 111.053 26.9757 117.164 22.9991 124.408ZM129.759 123.023C123.437 117.303 116.386 112.292 108.804 108.128L115.702 95.5838C124.261 100.284 132.223 105.946 139.371 112.412L129.759 123.023ZM154.211 164.852C153.526 157.56 150.8 149.988 146.103 142.343L158.31 134.856C164.162 144.384 167.58 154.025 168.469 163.515L154.211 164.852ZM1.21649 175.136C0.728494 171.306 0.424332 167.476 0.309767 163.748C0.11975 157.635 0.432792 151.631 1.2425 145.906L15.4219 147.905C14.7295 152.824 14.4595 158.006 14.6243 163.307C14.7247 166.581 14.994 169.953 15.4226 173.33L1.21649 175.136ZM514.723 213.012L502.271 205.939C506.604 198.33 510.704 190.316 514.488 182.119L527.489 188.108C523.548 196.671 519.252 205.05 514.723 213.012ZM19.4099 229.314C14.7434 220.734 10.8547 211.942 7.84724 203.18L21.3956 198.538C24.1427 206.544 27.7082 214.599 31.9944 222.478L19.4099 229.314ZM482.586 258.954L471.696 249.66C477.417 242.974 482.904 235.87 488.01 228.542L499.759 236.73C494.381 244.438 488.607 251.915 482.586 258.954ZM53.3007 274.692C46.6099 267.869 40.3907 260.644 34.8137 253.215L46.2692 244.624C51.4708 251.553 57.2777 258.297 63.5299 264.672L53.3007 274.692ZM441.89 297.705L433.137 286.374C440.14 280.976 446.936 275.136 453.36 269.016L463.248 279.374C456.472 285.835 449.285 292.003 441.89 297.705ZM97.3323 309.916C89.3044 304.886 81.5537 299.402 74.3023 293.616L83.2358 282.431C90.0677 287.879 97.3671 293.047 104.938 297.788L97.3323 309.916ZM136.007 329.918C127.147 326.645 130.268 327.607 121.967 323.563L128.239 310.697C136.119 314.535 132.558 313.385 140.973 316.493L136.007 329.918ZM394.033 327.246L387.808 314.359C395.804 310.494 403.682 306.179 411.201 301.537L418.725 313.715C410.787 318.615 402.476 323.167 394.033 327.246ZM201.938 349.137C192.649 347.486 183.446 345.446 174.583 343.073L178.287 329.248C186.757 331.514 195.558 333.466 204.446 335.046L201.938 349.137ZM341.198 346.514L337.66 332.645C346.252 330.457 354.842 327.802 363.2 324.755L368.11 338.203C359.304 341.41 350.252 344.208 341.198 346.514ZM257.523 354.612C248.119 354.381 238.74 353.815 229.649 352.928L231.039 338.683C239.788 339.536 248.818 340.081 257.877 340.304L257.523 354.612ZM285.405 354.365L284.818 340.066C287.921 339.938 291.048 339.773 294.214 339.572L294.782 339.543C299.926 339.284 305.539 338.722 311.493 337.871L313.526 352.037C307.134 352.953 301.082 353.556 295.498 353.837L295.111 353.857C291.855 354.063 288.611 354.233 285.405 354.365Z" fill="#2A2D90"/>
<path d="M146.907 210.694C141.259 205.732 136.683 202.001 131.824 195.34L143.397 186.907C144.323 188.175 145.335 189.426 146.428 190.654C147.405 189.408 148.292 188.14 149.083 186.857L161.276 194.365C156.861 201.52 152.291 205.531 146.907 210.694Z" fill="#2A2D90"/>
<path d="M199.914 94.0154L196.294 80.1684C206.927 77.393 217.411 76.7579 226.966 78.3186L224.655 92.443C217.077 91.2051 208.606 91.7465 199.914 94.0154ZM155.86 120.472L145.54 110.549C152.396 103.43 160.217 97.1859 168.789 91.9907L176.215 104.228C168.704 108.781 161.855 114.247 155.86 120.472ZM262.583 121.144C258.62 113.586 253.297 107.247 246.779 102.301L255.443 90.8987C263.649 97.1259 270.316 105.067 275.27 114.503L262.583 121.144ZM135.588 164.951L121.27 165.326L121.262 165.12C120.957 155.286 123.268 145.187 128.136 135.104L141.034 141.322C137.179 149.309 135.344 157.167 135.577 164.676L135.588 164.951ZM284.198 173.121L269.996 171.383C270.675 165.73 270.954 160.151 270.788 154.804C270.688 151.586 270.421 148.403 270.015 145.343L284.208 143.438C284.68 146.979 284.976 150.655 285.091 154.359C285.279 160.434 284.984 166.746 284.198 173.121ZM266.333 228.454L253.632 221.827C257.876 213.717 261.398 205.437 264.107 197.215L277.708 201.694C274.751 210.653 270.927 219.657 266.333 228.454ZM232.693 275.304L222.258 265.501C228.495 258.87 234.285 251.868 239.461 244.692L251.08 253.062C245.538 260.738 239.353 268.223 232.693 275.304ZM188.661 312.171L180.769 300.228C188.378 295.206 195.705 289.765 202.547 284.053L211.728 295.037C204.477 301.092 196.716 306.856 188.661 312.171ZM147.833 334.385L142.515 321.095C151.02 317.695 149.387 318.086 157.319 313.974L163.913 326.68C155.567 331.006 156.772 330.812 147.833 334.385ZM83.1894 354.939L80.2672 340.928C89.2777 339.05 98.1964 336.801 106.773 334.249L110.861 347.965C101.901 350.633 92.5921 352.978 83.1894 354.939ZM26.7688 362.281L25.9428 347.991C35.1776 347.46 44.3664 346.608 53.2586 345.462L55.0913 359.655C45.8678 360.845 36.3384 361.73 26.7688 362.281Z" fill="#2A2D90"/>
<path d="M482.113 236.936L445.457 235.538L440.635 242.014L472.017 255.284L482.113 236.936Z" fill="#FBA356"/>
<path d="M491.229 243.709L503.118 278.404L498.309 284.883L476.559 258.657L491.229 243.709Z" fill="#FBA356"/>
<path d="M440.441 183.392C439.378 184.808 437.374 185.105 435.95 184.048C434.538 182.996 434.243 180.99 435.294 179.569L445.713 165.575C446.764 164.153 448.768 163.857 450.193 164.911C451.617 165.97 451.912 167.976 450.848 169.393L440.441 183.392Z" fill="#FF902C"/>
<path d="M464.36 193.543C463.297 194.96 461.293 195.256 459.869 194.199C458.457 193.145 458.162 191.141 459.213 189.72L469.633 175.725C470.684 174.303 472.688 174.007 474.112 175.062C475.536 176.121 475.831 178.127 474.767 179.545L464.36 193.543Z" fill="#FF902C"/>
<path d="M488.28 203.692C487.229 205.114 485.212 205.407 483.801 204.353C482.376 203.296 482.069 201.286 483.134 199.867L493.54 185.869C494.604 184.45 496.607 184.155 498.032 185.212C499.456 186.269 499.75 188.277 498.698 189.699L488.28 203.692Z" fill="#FF902C"/>
<path d="M554.521 268.193C553.47 269.614 553.765 271.619 555.189 272.676C556.601 273.729 558.605 273.432 559.668 272.016L570.075 258.017C571.139 256.599 570.844 254.592 569.42 253.537C567.995 252.48 565.992 252.776 564.94 254.198L554.521 268.193Z" fill="#FF902C"/>
<path d="M537.91 248.217C536.859 249.638 537.153 251.642 538.578 252.7C539.989 253.753 542.005 253.462 543.056 252.041L553.463 238.042C554.527 236.624 554.232 234.618 552.808 233.561C551.384 232.503 549.38 232.799 548.329 234.222L537.91 248.217Z" fill="#FF902C"/>
<path d="M521.298 228.238C520.247 229.66 520.541 231.666 521.966 232.723C523.39 233.78 525.393 233.487 526.444 232.064L536.863 218.07C537.914 216.648 537.621 214.639 536.197 213.582C534.785 212.528 532.768 212.823 531.717 214.245L521.298 228.238Z" fill="#FF902C"/>
<path d="M477.235 149.037L470.997 157.425C469.773 159.059 469.417 161.183 470.059 163.126L471.358 167.141L478.836 167.305L487.011 156.306L477.235 149.037Z" fill="#FFB16D"/>
<path d="M502.258 153.806L496.006 162.194C494.795 163.831 494.44 165.952 495.069 167.891L496.369 171.904L503.846 172.069L512.034 161.074L502.258 153.806Z" fill="#FFB16D"/>
<path d="M526.35 172.275L503.093 203.53L489.774 193.629L417.43 164.32C424.084 157.943 427.23 153.381 433.797 154.633L526.35 172.275Z" fill="#FBA356"/>
<path d="M576.852 223.086L570.614 231.474C569.39 233.109 567.454 234.056 565.414 234.011L561.199 233.921L558.888 226.812L567.063 215.813L576.852 223.086Z" fill="#FFB16D"/>
<path d="M565.077 200.505L558.839 208.896C557.615 210.529 555.691 211.478 553.652 211.433L549.424 211.339L547.113 204.23L555.301 193.235L565.077 200.505Z" fill="#FFB16D"/>
<path d="M540.443 182.753L517.198 214.013L530.518 223.913L579.419 284.732C583.607 276.519 587.078 272.2 583.991 266.277L540.443 182.753Z" fill="#FBA356"/>
<path d="M570.214 128.02L472.297 259.646C469.578 253.91 475.572 243.301 491.974 218.639C500.958 205.145 513.053 187.44 528.551 164.026C546.695 137.275 558.181 124.669 570.214 128.02Z" fill="#FFB16D"/>
<path d="M570.214 128.019L472.297 259.646C478.571 260.593 487.02 251.807 505.923 229.002C516.262 216.521 529.748 199.847 547.712 178.27C568.133 153.208 576.903 138.592 570.214 128.019Z" fill="#FFB16D"/>
<path d="M469.302 268.495C468.349 269.771 466.546 270.038 465.268 269.087C463.989 268.139 463.731 266.333 464.671 265.054L479.894 244.599C480.847 243.323 482.651 243.057 483.929 244.006C485.207 244.956 485.478 246.765 484.525 248.039L469.302 268.495Z" fill="#F78929"/>
</g>
</svg>
