<svg id="ePNTJuR2F7H1" xmlns="http://www.w3.org/2000/svg" xmlns:xlink="http://www.w3.org/1999/xlink" viewBox="0 0 540 333" shape-rendering="geometricPrecision" text-rendering="geometricPrecision" project-id="0a1750e85ac94d1ca2363acd1700e9e0" export-id="ef93526d90db474fbd45d6e8dba042bd" cached="false"><defs><linearGradient id="ePNTJuR2F7H4-fill" x1="7.77674" y1="164.269" x2="448.801" y2="164.269" spreadMethod="pad" gradientUnits="userSpaceOnUse" gradientTransform="translate(0 0)"><stop id="ePNTJuR2F7H4-fill-0" offset="0%" stop-color="#d5d6ff"/><stop id="ePNTJuR2F7H4-fill-1" offset="100%" stop-color="#363ba6"/></linearGradient><linearGradient id="ePNTJuR2F7H25-stroke" x1="123.732" y1="146.45" x2="164.274" y2="146.45" spreadMethod="pad" gradientUnits="userSpaceOnUse" gradientTransform="translate(0 0)"><stop id="ePNTJuR2F7H25-stroke-0" offset="0%" stop-color="#e6832c"/><stop id="ePNTJuR2F7H25-stroke-1" offset="100%" stop-color="#e9a347"/></linearGradient><linearGradient id="ePNTJuR2F7H28-fill" x1="379.337" y1="232.303" x2="379.337" y2="318.148" spreadMethod="pad" gradientUnits="userSpaceOnUse" gradientTransform="translate(0 0)"><stop id="ePNTJuR2F7H28-fill-0" offset="0%" stop-color="#e4816f"/><stop id="ePNTJuR2F7H28-fill-1" offset="100%" stop-color="#e25e52"/></linearGradient><linearGradient id="ePNTJuR2F7H38-fill" x1="228.264" y1="262.014" x2="223.93" y2="297.001" spreadMethod="pad" gradientUnits="userSpaceOnUse" gradientTransform="translate(0 0)"><stop id="ePNTJuR2F7H38-fill-0" offset="0%" stop-color="#ffcbca"/><stop id="ePNTJuR2F7H38-fill-1" offset="100%" stop-color="#e994a8"/></linearGradient><linearGradient id="ePNTJuR2F7H42-fill" x1="149.995" y1="250.64" x2="149.995" y2="289.157" spreadMethod="pad" gradientUnits="userSpaceOnUse" gradientTransform="translate(0 0)"><stop id="ePNTJuR2F7H42-fill-0" offset="0%" stop-color="#ffcbca"/><stop id="ePNTJuR2F7H42-fill-1" offset="100%" stop-color="#e994a8"/></linearGradient><linearGradient id="ePNTJuR2F7H64-fill" x1="246.892" y1="94.8731" x2="251.537" y2="94.8731" spreadMethod="pad" gradientUnits="userSpaceOnUse" gradientTransform="translate(0 0)"><stop id="ePNTJuR2F7H64-fill-0" offset="0%" stop-color="#ffcbca"/><stop id="ePNTJuR2F7H64-fill-1" offset="100%" stop-color="#e994a8"/></linearGradient><linearGradient id="ePNTJuR2F7H76-fill" x1="294.6" y1="138.002" x2="301.734" y2="138.002" spreadMethod="pad" gradientUnits="userSpaceOnUse" gradientTransform="translate(0 0)"><stop id="ePNTJuR2F7H76-fill-0" offset="0%" stop-color="#ffcbca"/><stop id="ePNTJuR2F7H76-fill-1" offset="100%" stop-color="#e994a8"/></linearGradient><linearGradient id="ePNTJuR2F7H91-fill" x1="354.992" y1="180.852" x2="381.501" y2="95.0235" spreadMethod="pad" gradientUnits="userSpaceOnUse" gradientTransform="translate(0 0)"><stop id="ePNTJuR2F7H91-fill-0" offset="0%" stop-color="#e6832c"/><stop id="ePNTJuR2F7H91-fill-1" offset="100%" stop-color="#e9a347"/></linearGradient><linearGradient id="ePNTJuR2F7H93-fill" x1="374.465" y1="104.719" x2="366.28" y2="174.051" spreadMethod="pad" gradientUnits="userSpaceOnUse" gradientTransform="translate(0 0)"><stop id="ePNTJuR2F7H93-fill-0" offset="0%" stop-color="#ffcbca"/><stop id="ePNTJuR2F7H93-fill-1" offset="100%" stop-color="#e994a8"/></linearGradient><linearGradient id="ePNTJuR2F7H95-fill" x1="386.222" y1="106.107" x2="378.037" y2="175.439" spreadMethod="pad" gradientUnits="userSpaceOnUse" gradientTransform="translate(0 0)"><stop id="ePNTJuR2F7H95-fill-0" offset="0%" stop-color="#ffcbca"/><stop id="ePNTJuR2F7H95-fill-1" offset="100%" stop-color="#e994a8"/></linearGradient><linearGradient id="ePNTJuR2F7H108-fill" x1="362.398" y1="267.705" x2="368.149" y2="308.515" spreadMethod="pad" gradientUnits="userSpaceOnUse" gradientTransform="translate(0 0)"><stop id="ePNTJuR2F7H108-fill-0" offset="0%" stop-color="#ffcbca"/><stop id="ePNTJuR2F7H108-fill-1" offset="100%" stop-color="#e994a8"/></linearGradient><linearGradient id="ePNTJuR2F7H112-fill" x1="365.214" y1="311.716" x2="365.864" y2="315.403" spreadMethod="pad" gradientUnits="userSpaceOnUse" gradientTransform="translate(0 0)"><stop id="ePNTJuR2F7H112-fill-0" offset="0%" stop-color="#e6832c"/><stop id="ePNTJuR2F7H112-fill-1" offset="100%" stop-color="#e9a347"/></linearGradient><linearGradient id="ePNTJuR2F7H128-fill" x1="0.5" y1="0" x2="0.5" y2="1" spreadMethod="pad" gradientUnits="objectBoundingBox" gradientTransform="translate(0 0)"><stop id="ePNTJuR2F7H128-fill-0" offset="0%" stop-color="rgba(255,255,255,0)"/><stop id="ePNTJuR2F7H128-fill-1" offset="100%" stop-color="#010022"/></linearGradient></defs><g transform="translate(.419014 0)" clip-path="url(#ePNTJuR2F7H126)"><g><path d="M48.8623,269.623C-18.271,217.659,6.87258,123.287,52.8015,99.9876C88.673,81.8004,108.285,79.4537,126.975,70.4858c53.137-21.8749,83.56-60.76364,142.48-54.3939c97.809,10.5603,66.631,83.3928,130.914,134.3501c17.769,15.086,68.056,46.767,40.23,112.141-28.496,67.049-134.602,54.813-196.706,34.279-99.066-36.039-106.944,40.984-195.0307-27.239Z" opacity="0.18" fill="url(#ePNTJuR2F7H4-fill)"/><path id="ePNTJuR2F7H5" d="M43.3307,326.364c0,0,8.3812-6.37,20.7854-6.538c0,0-34.7819-3.771-34.2791-10.812.5029-6.956,22.0426-3.687,35.8715,5.7c0,0-15.6728-11.65-12.8232-16.847c2.7658-5.112,25.0598,5.783,28.9151,28.58l-38.4697-.083Z" fill="#88d0e2"/><path id="ePNTJuR2F7H6" d="M417.216,313.121c0,0,26.736-60.512,40.9-60.763c19.193-.336-26.569,53.22-26.569,53.22s34.866-42.241,47.857-33.525c12.488,8.382-33.944,34.615-33.944,34.615s37.213-18.104,42.158-7.208c3.603,8.13-24.054,11.734-41.068,13.661c0,0,36.626-3.771,34.195,5.113-1.341,4.945-29.083,3.017-29.083,3.017s17.014,1.425,18.774,5.364h-53.137v-13.494h-.083Z" fill="#88d0e2"/><path d="M185.979,192.348c0-7.291-2.85-13.242-6.286-13.326-.084,0-.168,0-.252,0-2.766.252-24.305,1.844-42.241,1.844-25.563,0-45.7612-1.928-45.7612-1.928-6.705,15.003,0,26.653,0,26.653h88.3372c3.353,0,6.203-5.951,6.203-13.243Z" fill="#fd6969"/><path d="M91.5226,205.674c3.5179,0,6.3697-5.966,6.3697-13.326s-2.8518-13.326-6.3697-13.326-6.3697,5.966-6.3697,13.326s2.8518,13.326,6.3697,13.326Z" fill="#b43737"/><path d="M118.594,205.674c0,0,2.011-3.604,2.011-12.991c0-9.303-3.52-12.571-3.52-12.571h-4.19c0,0,3.771,3.268,3.771,12.571c0,9.304-2.179,12.991-2.179,12.991h4.107Z" fill="#fff"/><path d="M157.315,205.674c0,0,2.011-3.604,2.011-12.991c0-9.303-3.52-12.571-3.52-12.571h-4.19c0,0,3.771,3.268,3.771,12.571c0,9.304-2.179,12.991-2.179,12.991h4.107Z" fill="#fff"/><path d="M154.633,314.63h-62.3561c-3.2687,0-5.9507-2.682-5.9507-5.951v-97.054c0-3.269,2.682-5.951,5.9507-5.951h62.3561c3.269,0,5.951,2.682,5.951,5.951v97.054c0,3.269-2.682,5.951-5.951,5.951Z" fill="#b97840"/><path d="M102.921,314.63c-3.2687,0-5.9506-2.682-5.9506-5.951v-97.054c0-3.269,2.6819-5.951,5.9506-5.951" opacity="0.6" fill="none" stroke="#000" stroke-width="0.5" stroke-linecap="round" stroke-miterlimit="10"/><path d="M175.167,314.63h-62.356c-3.269,0-5.951-2.682-5.951-5.951v-97.054c0-3.269,2.682-5.951,5.951-5.951h62.356c3.269,0,5.951,2.682,5.951,5.951v97.054c0,3.269-2.682,5.951-5.951,5.951Z" fill="#fba356"/><path d="M96.9704,316.893c-.2515,0-.5029,0-.6705.084v-2.347h-4.1068v7.04c0,2.598,2.0953,4.693,4.6934,4.693c2.5982,0,4.6935-2.095,4.6935-4.693s-2.0115-4.777-4.6096-4.777Z" fill="#161836"/><path d="M120.27,316.893c-.251,0-.503,0-.67.084v-2.347h-4.023v7.04c0,2.598,2.095,4.693,4.693,4.693s4.694-2.095,4.694-4.693-2.012-4.777-4.694-4.777Z" fill="#161836"/><path d="M152.035,316.893c-.252,0-.503,0-.671.084v-2.347h-4.023v7.04c0,2.598,2.096,4.693,4.694,4.693s4.693-2.095,4.693-4.693-2.095-4.777-4.693-4.777Z" fill="#161836"/><path d="M175.418,316.893c-.251,0-.503,0-.67.084v-2.347h-4.023v7.04c0,2.598,2.095,4.693,4.693,4.693s4.694-2.095,4.694-4.693-2.096-4.777-4.694-4.777Z" fill="#161836"/><g opacity="0.5"><path d="M119.013,305.075h-5.196c-1.006,0-1.928-.838-1.928-1.927v-84.399c0-1.006.838-1.928,1.928-1.928h5.196c1.006,0,1.928.838,1.928,1.928v84.482c0,1.006-.839,1.844-1.928,1.844Z" fill="none" stroke="#000" stroke-width="0.5" stroke-linecap="round" stroke-miterlimit="10"/><path d="M137.451,305.075h-5.196c-1.006,0-1.928-.838-1.928-1.927v-84.399c0-1.006.839-1.928,1.928-1.928h5.196c1.006,0,1.928.838,1.928,1.928v84.482c-.084,1.006-.922,1.844-1.928,1.844Z" fill="none" stroke="#000" stroke-width="0.5" stroke-linecap="round" stroke-miterlimit="10"/><path d="M155.806,305.075h-5.196c-1.006,0-1.928-.838-1.928-1.927v-84.399c0-1.006.838-1.928,1.928-1.928h5.196c1.006,0,1.928.838,1.928,1.928v84.482c-.084,1.006-.922,1.844-1.928,1.844Z" fill="none" stroke="#000" stroke-width="0.5" stroke-linecap="round" stroke-miterlimit="10"/><path d="M174.161,305.075h-5.196c-1.006,0-1.928-.838-1.928-1.927v-84.399c0-1.006.838-1.928,1.928-1.928h5.196c1.006,0,1.928.838,1.928,1.928v84.482c0,1.006-.838,1.844-1.928,1.844Z" fill="none" stroke="#000" stroke-width="0.5" stroke-linecap="round" stroke-miterlimit="10"/></g><path d="M126.975,148.347h-2.347v61.602h2.347v-61.602Z" fill="#161836"/><path d="M163.349,148.347h-2.346v61.602h2.346v-61.602Z" fill="#161836"/><path d="M125.802,151.029v-7.04h36.374v7.04" fill="none" stroke="url(#ePNTJuR2F7H25-stroke)" stroke-width="5" stroke-linejoin="round" stroke-miterlimit="10"/><path d="M414.617,326.531h-111.888c-3.604,0-6.538-2.933-6.538-6.537v-81.884c0-3.604,2.934-6.538,6.538-6.538h111.972c3.604,0,6.538,2.934,6.538,6.538v81.884c-.084,3.604-3.018,6.537-6.622,6.537Z" fill="#161848"/><path d="M312.115,326.531c-3.603,0-6.537-2.933-6.537-6.537v-81.884c0-3.604,2.934-6.538,6.537-6.538" fill="none" stroke="#fff" stroke-width="0.5" stroke-linecap="round" stroke-miterlimit="10"/><path d="M435.319,326.531h-111.973c-3.604,0-6.537-2.933-6.537-6.537v-81.884c0-3.604,2.933-6.538,6.537-6.538h111.973c3.604,0,6.537,2.934,6.537,6.538v81.884c0,3.604-2.933,6.537-6.537,6.537Z" fill="url(#ePNTJuR2F7H28-fill)"/><path d="M435.319,326.531h-111.973c-3.604,0-6.537-2.933-6.537-6.537v-81.884c0-3.604,2.933-6.538,6.537-6.538h111.973c3.604,0,6.537,2.934,6.537,6.538v81.884c0,3.604-2.933,6.537-6.537,6.537Z" fill="#34379e"/><path d="M323.346,322.341c-1.257,0-2.346-1.09-2.346-2.347v-81.884c0-1.258,1.089-2.347,2.346-2.347h111.973c1.257,0,2.347,1.089,2.347,2.347v81.884c0,1.257-1.09,2.347-2.347,2.347h-111.973Z" fill="none" stroke="#fff" stroke-width="0.75" stroke-linecap="round" stroke-linejoin="round" stroke-dasharray="5,5"/><path d="M311.194,238.361l-1.341-.419c-.671-.168-1.006-.922-.755-1.592l1.928-4.275c.251-.503.838-.754,1.341-.67.587.167.922.67.838,1.257l-.587,4.693c-.083.755-.754,1.174-1.424,1.006Z" fill="#fff"/><path d="M421.909,293.928l-26.401,11.063-.503-1.341c.671-.251,1.006-1.005.671-1.676-.251-.67-1.006-1.006-1.676-.67l-.587-1.425c.671-.252,1.006-1.006.671-1.676-.252-.671-1.006-1.006-1.677-.671l-.586-1.425c.67-.251,1.005-1.005.67-1.676-.251-.67-1.006-1.006-1.676-.67l-.587-1.425c.671-.252,1.006-1.006.671-1.676-.252-.671-1.006-1.006-1.677-.671l-.502-1.341l26.4-11.063.503,1.341c-.67.251-1.006,1.006-.67,1.676.251.671,1.005,1.006,1.676.671l.587,1.424c-.671.252-1.006,1.006-.671,1.677.252.67,1.006,1.005,1.676.67l.587,1.425c-.67.251-1.006,1.006-.67,1.676.251.671,1.005,1.006,1.676.671l.586,1.425c-.67.251-1.005,1.005-.67,1.676.251.67,1.006,1.006,1.676.67l.503,1.341Z" fill="#fba356"/><path d="M418.915,293.494l-5.722-13.687-21.496,8.987l5.722,13.686l21.496-8.986Z" fill="none" stroke="#000" stroke-width="0.25" stroke-linecap="round" stroke-linejoin="round" stroke-miterlimit="10"/><path d="M357.877,267.528l-2.431,1.927l1.76,2.515-2.933,1.089.838,2.934-3.017.083-.084,3.018-2.933-.839-1.09,2.934-2.514-1.76-1.844,2.43-1.928-2.43-2.514,1.76-1.09-2.934-2.933.839-.084-3.018-3.017-.083.838-2.934-2.934-1.089l1.76-2.515-2.43-1.927l2.43-1.844-1.76-2.515l2.934-1.089-.838-2.934l3.017-.083.084-3.101l2.933.838l1.09-2.85l2.514,1.76l1.928-2.43l1.844,2.43l2.514-1.76l1.09,2.85l2.933-.838.084,3.101l3.017.083-.838,2.934l2.933,1.089-1.76,2.515l2.431,1.844Z" opacity="0.5" fill="#fff"/><path d="M404.979,264.846l-17.517-3.018l1.09-6.369l17.517,3.017-1.09,6.37Z" fill="#8cd2e4"/><path d="M235.763,143.989c0,0,14.583,4.358,16.93,5.951c2.43,1.592,7.208,23.634,6.705,29.92-.503,6.202-17.768,11.818-17.768,11.818l-5.867-47.689Z" fill="#fba356"/><path id="ePNTJuR2F7H37" d="M259.063,65.8762l2.43-9.4707c0,0-13.745,1.6762-15.757,1.3409-2.011-.419-3.436-.419-4.525-.2514-1.09.1676-2.431,1.341-1.509,2.3467.922.922,6.286,1.8439,6.621,2.3468s2.598,4.2744,2.598,4.2744l-2.095,28.6636-16.008-8.884-2.85,19.8635c0,0,25.731,11.817,31.514,6.453c6.034-5.699-.419-46.6828-.419-46.6828Z" fill="#fbbfb4"/><path d="M214.391,279.764l1.508,28.831l18.439-1.005l3.101-27.826h-23.048Z" fill="url(#ePNTJuR2F7H38-fill)"/><path d="M214.391,303.567c0,0,11.398-7.292,26.401-6.873l-5.783,15.002c0,0,8.884-2.262,16.427-2.598c11.733-.503,7.543,17.349,7.543,17.349h-46.516c0,0-1.089-5.531,2.431-12.488c0-3.352-.503-8.548-.503-10.392Z" fill="#fd6969"/><path d="M259.565,322.76c-.167,2.179-.586,3.687-.586,3.687h-46.516c0,0-.419-1.927,0-4.944c2.347.167,9.303.67,12.488,2.598l34.614-1.341Z"/><path d="M232.578,312.367c0,0-6.034-3.939-3.855-6.789c2.346-3.101,5.615,1.257,5.364,6.286c0,0,.335-8.968,3.771-8.968c4.107,0-2.179,9.052-2.179,9.052s1.425-2.095,5.196-3.353c3.772-1.341,6.621,3.604,9.136,4.275" fill="none" stroke="#fff" stroke-width="0.5" stroke-linecap="round" stroke-linejoin="round" stroke-miterlimit="10"/><path d="M149.939,259.146l-17.684,23.216l14.919,11.147l20.534-19.36-17.769-15.003Z" fill="url(#ePNTJuR2F7H42-fill)"/><path d="M132.674,280.686c0,0,16.008-.419,24.809,10.309l-13.578,5.783l3.269,11.901c0,0,8.548-.922,12.488,4.526c4.358,6.035-2.179,13.242-2.179,13.242h-20.618l-22.881-30.423c0,0,6.202-8.633,12.907-9.471l5.783-5.867Z" fill="#fd6969"/><path d="M143.486,296.61c0,0,10.057-.083,9.555,3.772-.587,3.855-9.555-2.85-9.555-2.85s7.04,5.951,5.448,7.543c-1.844,1.844-5.867-5.867-5.867-5.867s1.089,2.096,1.006,6.37c-.084,4.275-3.101,9.136-3.101,9.136" fill="none" stroke="#fff" stroke-width="0.5" stroke-linecap="round" stroke-linejoin="round" stroke-miterlimit="10"/><path d="M237.355,139.882c0,0,4.023,10.477,7.46,37.464c3.017,23.551,3.017,75.515-2.096,95.797-.754,2.933-2.347,4.693-3.604,5.448-.503,2.598-2.179,10.392-2.179,10.392l-23.132-3.52c0,0-.503-4.358-.67-6.537-8.214-8.716-.168-39.224,1.173-52.885-4.442-26.652-2.263-84.064-2.263-84.064l25.311-2.095Z" fill="#34379e"/><path d="M222.94,174.832L219,180.531c0,0-.754,28.999-5.028,42.995-1.509-10.308-2.096-24.389-2.347-37.883c1.928-4.274,3.436-7.626,3.436-7.626l7.879-3.185Z"/><path d="M190.504,142.815c0,0-5.447,5.783-6.788,11.902-2.096,9.387,0,21.037,0,21.037l-3.939,35.703c0,0-19.361,20.115-27.407,32.519-6.286,9.723-3.436,14.165-3.436,14.165l-7.124,9.806l20.031,12.739l5.699-3.772c0,0,4.526-.083,8.465-3.184s30.675-37.297,36.207-53.808c6.286-18.69,5.448-78.867,5.448-78.867l-27.156,1.76Z" fill="#34379e"/><path d="M221.263,80.7947c0,0,9.806,4.0229,11.818,8.0459c3.017,5.8668-1.425,20.8694-.587,27.7414.838,6.873,6.035,23.719,5.197,24.557-.839.838-19.78,8.13-47.354,1.844c0,0,1.173-9.219,1.006-14.583-1.258-7.962-8.465-32.9382-9.304-41.4032c4.191-3.7716,23.133-9.0517,23.133-9.0517l16.091,2.8496Z" fill="#8cd3e4"/><path d="M192.6,100.407c0,0-1.844,7.543-4.275,14.331-1.676-6.537-3.52-13.996-4.777-19.9467l9.052,5.6157Z"/><path d="M159.41,323.514c-1.006,1.76-2.011,2.933-2.011,2.933h-20.618l-22.797-30.423c0,0,2.012-2.766,4.526-4.945c0,0,2.85,4.526,4.358,10.309l15.422,22.126h21.12Z"/><path d="M149.52,259.146c0,0,6.622,8.382,17.433,16.511" fill="none" stroke="#000" stroke-width="0.5" stroke-linecap="round" stroke-linejoin="round" stroke-miterlimit="10"/><path d="M213.888,278.926c0,0,14.918,1.844,23.886,0" fill="none" stroke="#000" stroke-width="0.5" stroke-linecap="round" stroke-linejoin="round" stroke-miterlimit="10"/><path d="M196.706,155.555l-17.851-32.016c0,0,10.392-16.26,12.99-21.372c4.442-8.5491-2.346-18.6903-9.722-15.2541c0,0-2.766,2.263-7.459,10.3089-5.448,9.3872-14.08,27.1552-12.488,30.1722c2.514,4.945,26.82,33.525,26.82,33.525-.084,3.855,2.598,9.219,2.598,9.219l9.974-11.985c-1.341-1.09-4.862-2.598-4.862-2.598Z" fill="#fbbfb4"/><path d="M202.322,156.393l-12.823,15.086l2.514,2.431l12.32-16.092-2.011-1.425Z" fill="#161836"/><g id="ePNTJuR2F7H55" transform="translate(.000001 0.000001)"><path d="M203.663,49.449c0,0-8.549,11.4823-5.951,16.0081c1.76,3.1849,13.243.7543,16.344-.7543c4.19-2.0115,6.453-9.1355,6.453-9.1355" fill="#161836"/><path d="M201.819,49.7005c0,0-2.179,3.2687-4.023,7.8783-2.011,5.0287-2.514,8.8003,2.347,9.3031c6.286.1677,11.566-3.4363,11.566-3.4363l4.274-11.985" fill="#999bcf"/><path d="M219.587,71.9107c0,0,4.358,1.0057,7.292-.5867c4.19-2.3468,8.549-26.4846-.755-31.2619-9.303-4.6934-23.299,0-21.623,12.2366.419,3.1848,2.431,12.5718,2.431,12.5718l-1.677,13.0746c0,0,4.694,4.6097,16.008,2.9334l-1.676-8.9678Z" fill="#fbbfb4"/><path d="M213.385,47.6052c0,0,9.219-4.3583,16.846-1.5925c0,0,1.006,2.682,1.174,5.0287c0,0,6.705-5.0287,5.364-7.8783-.922-2.0115-3.437-1.1733-3.437-1.1733s5.28-6.9564,1.257-10.3089c-3.855-3.101-9.554,1.8439-9.554,1.8439s-10.477-.6705-17.601,2.6819c-7.04,3.2687-4.693,14.2481-4.693,14.2481l3.101,6.7049l4.61-1.1734-.252-1.8438c.168,0,3.688-1.2572,3.185-6.5373Z" fill="#161836"/><path d="M225.203,33.6086c0,0-11.064,1.1734-22.881,17.8519c0,0-10.896-9.4707.251-20.3663c4.191-4.1067,15.17-7.7945,22.63,2.5144Z" fill="#999bcf"/><path d="M209.53,54.6454c-.503-1.4248-2.347-5.1963-5.867-3.3525-4.107,2.1791-.168,11.147,3.771,10.6441c3.856-.5028,2.682-5.5315,2.096-7.2916Z" fill="#fbbfb4"/><path d="M215.983,32.6867c-.167.0838-.335.1676-.419.2514-1.592.9219-2.095,3.0172-1.006,4.5258c0,0,3.772-2.7658,6.873-3.6039-1.341-1.5924-3.604-2.1791-5.448-1.1733Z"/><path d="M219.587,71.9106c0,0-5.364-1.4248-8.213-5.783c0,0,.838,7.4593,8.967,9.7222l-.754-3.9392Z"/></g><path d="M246.91,95.0427l4.609,2.682-4.442-5.6992-.167,3.0172Z" fill="url(#ePNTJuR2F7H64-fill)"/><path d="M190.923,82.5547c0,0,37.129,17.4329,54.562,72.6653l5.28-1.677c0,0-12.907-47.689-52.466-74.676l-7.376,3.6877Z" fill="#343434"/><path d="M244.312,154.382l6.872-1.928l1.425,4.526-6.789,2.011-1.508-4.609Z" fill="#161836"/><path d="M248.586,185.895c-.838-6.873-3.101-19.696-3.855-23.803l10.057-3.185c0,0,2.347,12.321,2.85,17.433.754,6.37-6.789,8.884-9.052,9.555Z" fill="none" stroke="#000" stroke-width="0.25" stroke-linecap="round" stroke-linejoin="round" stroke-miterlimit="10" stroke-dasharray="2,2"/><g id="ePNTJuR2F7H68" transform="translate(.000001 0)"><path d="M266.857,41.1517c-.168,0-.335.0838-.503.0838l-28.161,6.5373c-1.676.2514-2.682,2.682-2.346,5.4478.335,2.8496,2.011,4.9449,3.687,4.6934l28.832-.7543c.167,0,.335,0,.503,0c2.598-.3352,4.274-4.1906,3.687-8.6326-.503-4.3582-3.101-7.7107-5.699-7.3754Z" fill="#fd6969"/><path d="M271.718,48.6947c.503,3.7715-.922,6.9564-3.185,7.2916-2.263.2515-4.442-2.5143-4.945-6.2858-.502-3.7716.922-6.9564,3.185-7.2917c2.263-.2514,4.526,2.5982,4.945,6.2859Z" fill="#313490"/><path d="M253.363,42.9117c-.167,0-.335.0838-.503.0838L224.784,49.449c-1.677.2515-2.682,2.682-2.347,5.4478.335,2.8496,2.011,4.9449,3.687,4.6935l28.832-.7543c.167,0,.335,0,.503,0c2.598-.3353,4.274-4.1906,3.687-8.6327-.586-4.442-3.184-7.6268-5.783-7.2916Z" fill="#ff8181"/><path d="M258.308,50.4548c.503,3.7715-.922,6.9564-3.185,7.2916-2.263.2514-4.442-2.5144-4.945-6.2859-.502-3.7715.922-6.9564,3.185-7.2916c2.263-.2515,4.442,2.5143,4.945,6.2859Z" fill="#313490"/><path id="ePNTJuR2F7H73" d="M231.237,54.2263c0,0,1.592,5.364,1.592,24.8083c0,8.6327-2.598,24.4734,8.549,23.4674c11.65-1.09,15.003-27.2389,11.985-43.4146l-1.76.0838c0,0,1.928,9.0517.755,18.4386-1.09,9.387-1.844,23.2162-10.896,24.2212-8.633,1.006-6.37-17.8515-6.202-22.6287.168-6.4535.503-19.8635-.838-25.4789l-3.185.5029Z"/></g><g id="ePNTJuR2F7H74" transform="translate(.000001 0)"><path d="M342.707,147.76c-3.101,4.191-10.644,12.153-10.644,12.153-1.425.587-20.618-19.109-20.031-19.78c0-2.43-1.258-4.944-2.096-7.375-.67-1.844-1.089-4.945-2.095-6.286-.67-.838-2.179-.922-2.766,1.844-.251,1.257.084,3.52-.084,4.191-.167.67-1.173-.671-2.598-2.347s-6.118-7.711-7.04-8.298c-1.509-1.005-2.933,1.341-.503,4.694c1.509,2.095,3.353,4.191,4.275,5.532-2.263-.252-2.515,1.843-2.599,2.011-.921.084-1.424.503-1.76.754-.335.336-.67,1.09-.167,1.76-1.509,1.006-.922,2.599-.671,3.101.252.503,2.096,2.18,3.437,1.928c2.095,3.772,3.101,4.61,6.369,5.448c1.09.251,8.13,16.678,23.551,29.083c1.258,1.005,4.023,3.603,6.873,2.598c7.124-2.431,23.3-18.271,23.3-18.271-5.197-4.778-11.483-10.141-14.751-12.74Z" fill="#ffcbca"/><path d="M299.711,134.602c.503.754,1.425,1.844,1.593,2.85.084.67-.503,1.341-1.174,1.173-.838-.168-1.676-1.173-2.263-1.676-.67-.671-1.341-1.425-1.508-2.347c0,1.006.67,1.844,1.257,2.598.503.587,1.341,1.425,2.095,1.844.084.587.168,2.011-1.341,1.425-1.844-.671-3.855-3.52-3.855-3.52.168.503,1.425,2.346,2.85,3.352.167.252.335.922-.168,1.341c0,0,.587-.168.587-1.089.335.167.67.335,1.005.335c1.509.167,1.425-1.174,1.341-1.76.503.084.922,0,1.258-.587.922-1.425-.755-3.017-1.677-3.939Z" fill="url(#ePNTJuR2F7H76-fill)"/></g><path d="M371.538,136.613c0,0-12.739-3.352-15.589-2.598-2.514.587-10.309,9.639-17.936,18.523c2.012,2.43,9.555,10.392,13.913,14.583l19.612-30.508Z" fill="#34379e"/><path d="M346.981,204.333c22.462,8.214,46.516-2.263,46.516-2.263s-3.772-8.297-4.107-9.638c-.251-1.006,1.341-27.406,1.341-27.406s-5.699-16.008-10.309-19.78c-4.609-3.772-15.589-4.442-15.589-4.442s-13.326,12.32-14.918,16.511c-1.509,4.19-1.341,9.722-2.263,21.456-1.257,15.673-.671,25.562-.671,25.562Z" fill="#34379e"/><path d="M381.679,159.829l3.772,20.199l8.549-.503-.503-8.549-11.818-11.147Z" fill="#1c1c23"/><g id="ePNTJuR2F7H80" transform="translate(0 0.000001)"><path d="M353.854,139.882L331.56,154.214l-24.808-1.173-19.361,11.23l21.959,44.924l16.343-11.734l22.294.335l20.953-14.164-15.086-43.75Z" fill="#fff"/><path d="M290.66,165.277l17.181-9.806l24.641,1.341l20.031-13.075l13.41,38.889-18.858,12.656-22.378-.252-14.415,10.393-19.612-40.146Z" opacity="0.3" fill="#6e74ff"/><path d="M306.752,153.041l18.941,44.42" fill="none" stroke="#fff" stroke-width="0.5" stroke-linecap="round" stroke-linejoin="round" stroke-miterlimit="10"/><path d="M331.56,154.214l16.427,43.582" fill="none" stroke="#fff" stroke-width="0.5" stroke-linecap="round" stroke-linejoin="round" stroke-miterlimit="10"/></g><g id="ePNTJuR2F7H85" transform="translate(0 0.000001)"><path d="M405.733,168.713c-7.291,1.76-13.242,2.096-18.019,2.012c0,0,2.095,4.861,2.682,6.705-3.017-1.006-13.913-5.951-20.367-8.968-.083-1.006,0-2.263-4.861-5.532-2.849-1.927-2.933-4.358-4.442-3.855-1.173.419-.838,2.431,0,3.939.168.252.336.503.503.671-1.676-.252-4.526-1.09-4.526-1.09s-3.268-1.257-5.028-1.676c-1.341-.335-2.515.335-2.431,1.089-1.341-.586-2.347-.838-3.352-.586-1.006.251-1.258,1.257-.084,2.179.503.335,2.263,1.676,3.017,2.179-.503-.168-.922-.419-1.425-.419-1.844-.252-2.849,1.257-.754,2.514c1.006.587,1.928,1.09,2.598,1.593-.167,0-.335-.084-.419-.084-1.341-.252-3.017.922-.838,2.263c2.095,1.257,3.436,2.095,4.61,2.598c5.196,2.095,10.392,3.436,12.32,3.017c10.644,7.459,19.78,12.572,30.088,17.684c7.543,3.688,13.746.839,14.668-6.034.419-2.766-2.599-15.338-3.94-20.199Z" fill="#ffcbca"/><path d="M390.312,177.43c0,0,6.956,2.347,9.974,4.023c0,0-4.694-4.778-10.728-6.202l.754,2.179Z" fill="#1c1c23"/></g><path d="M397.687,143.737c-1.173-2.095-16.427-5.95-16.427-5.95l-5.867,8.8l5.867,11.985l5.7,16.679c1.927-.252,13.996-3.604,19.779-5.7-3.269-11.147-7.962-23.802-9.052-25.814Z" fill="#34379e"/><g id="ePNTJuR2F7H89" transform="translate(.000001 0.000001)"><path d="M406.236,117.253c-4.274,13.745-20.617,20.785-36.542,15.924-15.924-4.945-25.395-20.031-21.204-33.6923c4.274-13.7451,20.618-20.7853,36.542-15.9242c15.924,4.861,25.479,20.0305,21.204,33.6925Z" fill="#fba356"/><path d="M394.503,114.236c-2.431,7.878-12.153,11.901-21.708,8.967-9.554-2.933-15.253-11.733-12.823-19.612c2.431-7.8778,12.153-11.9008,21.707-8.9674c9.555,2.9334,15.254,11.7334,12.824,19.6124Z" opacity="0.5" fill="url(#ePNTJuR2F7H91-fill)"/><path d="M394.251,134.35c-17.265,7.627-32.603-1.257-34.447-4.022c2.012-3.521,7.208-10.226,5.616-13.159-1.593-2.933-5.699-3.269-5.616-10.476c0-.503,0-1.006.084-1.509.838-9.6384,9.136-5.2802,9.974-5.4478l17.265.6708c.754.67,1.676,1.508,2.514,2.598c2.18,2.766,4.107,6.789,3.018,12.069-2.263,7.794-1.341,15.337,1.592,19.276Z" fill="#161836"/><path d="M381.093,125.131c5.95-6.956,5.447-15.254,5.447-15.254.084-13.9124-19.025-13.8285-23.467-4.442-2.933,6.119-3.939,16.847-2.43,20.87c1.508,3.939,4.944,6.118,9.135,5.615l-1.341,3.771c0,0-1.76-.335-2.179-.335-2.263,3.856-2.766,14.667,5.28,14.248s11.063-11.482,11.063-11.482l-2.849-.838l1.341-12.153Z" fill="url(#ePNTJuR2F7H93-fill)"/><path d="M389.306,111.721c-1.927,8.13-4.945,8.801-4.945,8.801s-.251-1.844-1.508-3.604c-1.76-2.515-4.526-5.364-3.856-7.879-.754.419-1.843.838-3.687,1.006-5.113.335-11.231-2.933-13.829-.67c0,0-1.006,0-1.341-1.593c0,0-.252-1.006-.336-2.598c0-.084,0-.251,0-.335c0-2.431.671-6.0348,3.856-9.052c4.693-4.3582,15.84-3.6877,21.372,3.1011c0,0,.838.5028,2.011,1.5089.755.67,1.677,1.508,2.515,2.598.67,2.011.67,4.945-.252,8.716Z" fill="#161836"/><path d="M382.266,116.331c0,0,3.604-2.598,5.532-.671c2.598,2.682-2.766,9.136-5.448,8.046-3.269-1.341-.084-7.375-.084-7.375Z" fill="url(#ePNTJuR2F7H95-fill)"/><path d="M369.862,131.92c0,0,4.107-.754,7.208-4.191c0,0-1.76,4.61-8.13,6.789l.922-2.598Z" fill="#1c1c23"/></g><g id="ePNTJuR2F7H97" transform="translate(.000001 0)"><path d="M313.54,254.872l-14.499,13.41c0,0-8.13-4.023-9.974-10.141c7.459-10.561,12.74-18.02,12.74-18.02" fill="#ffcbca"/><g><path d="M261.996,255.04l25.395,24.389c.922.838,2.347.838,3.185,0c2.095-2.012,5.448-3.772,7.291-7.627.839-1.676,1.174-2.431,1.09-3.52c0,0-2.682-1.509-3.52-3.101-.838-1.676-.084-4.275,0-4.61s4.023-3.017,3.688-5.196c-1.677-4.191-8.046-8.13-8.801-8.549-2.346,3.436-4.023,5.196-5.615,5.951-4.107-1.509-8.297-3.772-15.421-5.532-2.599-.67-5.448-.251-8.382,3.52-.586,1.006.168,3.436,1.09,4.275Z" fill="#fba356"/><path d="M260.906,250.681c.419-.502,30.089,28.413,30.089,28.413c0,.167-1.173,3.101-3.855,4.442c0,0-21.037-23.971-27.323-29.921-.671-.671.587-2.347,1.089-2.934Z" fill="#161836"/><path d="M285.463,253.028c0,0,3.688,3.017,4.275,7.459" fill="none" stroke="#fff" stroke-width="0.75" stroke-linecap="round" stroke-miterlimit="10"/><path d="M285.463,259.314c-1.173-4.442-4.023-7.292-4.023-7.292" fill="none" stroke="#fff" stroke-width="0.75" stroke-linecap="round" stroke-miterlimit="10"/><path d="M276.747,250.179c0,0,3.017,1.76,4.777,7.71" fill="none" stroke="#fff" stroke-width="0.75" stroke-linecap="round" stroke-miterlimit="10"/></g><path id="ePNTJuR2F7H105" d="M393.497,202.07c0,0-2.85,1.09-5.364,1.928-9.974-4.358-34.698-18.858-43.666-15.505-11.147,4.191-45.007,54.31-45.007,54.31c2.514,5.699,11.985,13.661,18.019,14.583c0,0,27.575-28.663,32.687-36.793c0,0,12.153,9.554,18.187,11.063h26.569c0,0,9.135-13.075-1.425-29.586Z" fill="#fd6969"/></g><path d="M396.849,208.775c-3.352-1.843-8.716-4.777-8.716-4.777c2.514-.838,5.364-1.928,5.364-1.928c1.508,2.347,2.598,4.526,3.352,6.705Z"/><path d="M368.437,231.656h10.56c0,0-18.271-21.121-33.105-13.577-1.677.838-3.772,2.682-5.197,5.028-4.106,6.454-7.04,16.26-7.878,18.02c3.772-4.107,7.627-8.381,10.812-12.153v-.084l11.985-7.794l12.823,10.56Z" fill="#161836"/><path d="M354.273,279.345l6.37,19.863c0,0,9.554.503,14.415-4.19-1.341-13.578-2.346-23.216-2.346-23.216" fill="url(#ePNTJuR2F7H108-fill)"/><g transform="translate(.000001 0.000001)"><path d="M379.836,312.283c2.849,3.185,3.687,7.711,3.687,9.89l-25.898,4.107c-.502-1.677-2.095-6.202,3.185-10.058l-.503-16.594c-2.263-1.341-4.19-4.191-5.783-8.298l16.679-4.526c.587,3.939,1.592,7.208,3.855,8.046c0,0,1.341.419,1.844,3.017.168,1.09.168,4.275.168,4.275l2.766,10.141Z" fill="#fba356"/><path d="M384.78,326.196h-27.574c-.251-.335-.67-2.263-.167-3.269c0,0,7.291.168,14.918-.754c8.465-1.006,11.399-2.263,11.399-2.263.502.838,1.843,3.436,1.424,6.286Z" fill="#161836"/><path d="M370.365,311.11c-7.04,2.263-9.555,5.029-9.555,5.029s0-.587-.084-2.599c5.113-2.43,9.639-2.43,9.639-2.43Z" fill="url(#ePNTJuR2F7H112-fill)"/><path d="M362.905,299.292c2.431.922,7.963-.084,9.639-1.844" fill="none" stroke="#fff" stroke-width="0.75" stroke-linecap="round" stroke-miterlimit="10"/><path d="M362.989,303.567c3.437,1.089,8.549.167,10.561-2.096" fill="none" stroke="#fff" stroke-width="0.75" stroke-linecap="round" stroke-miterlimit="10"/><path d="M362.738,307.925c2.933,1.509,9.135.67,12.236-2.179" fill="none" stroke="#fff" stroke-width="0.75" stroke-linecap="round" stroke-miterlimit="10"/></g><path d="M375.226,281.608c-7.627,2.347-18.523,3.604-20.953,3.855-4.275-13.493-14.919-47.772-14.835-54.477.168-9.723,5.867-12.572,9.555-13.578c11.398-3.185,19.779,9.722,22.545,24.641c2.012,11.231,3.185,30.423,3.688,39.559Z" fill="#ff8181"/><path d="M448.394,222.604c2.407,0,4.358-1.951,4.358-4.358s-1.951-4.358-4.358-4.358-4.359,1.951-4.359,4.358s1.952,4.358,4.359,4.358Z" fill="#fff"/><path d="M138.457,86.2424c0,1.8439-1.508,3.3525-3.352,3.3525s-3.353-1.5086-3.353-3.3525s1.509-3.3524,3.353-3.3524c1.927,0,3.352,1.5086,3.352,3.3524Z" fill="#fff"/><path id="ePNTJuR2F7H119" d="M136.278,44.0851c-1.508-2.1791-3.352-3.5201-5.196-4.4421-3.604-1.9276-7.962-2.3467-12.069-1.0057-4.191,1.341-7.376,4.3582-9.136,8.0459-1.005,1.8439-1.592,4.023-1.508,6.705c0,1.5924.251,3.2686.754,4.9449c0,.0838.084.0838.084.1676c4.023,13.2423,21.707,21.2882,23.216,20.7854c1.425-.5029,10.895-17.5167,6.286-30.5076l-.084-.1676c-.587-1.76-1.341-3.1848-2.347-4.5258ZM125.969,59.8417c-3.604,1.1734-7.459-.7543-8.632-4.3582-1.174-3.6039.754-7.3755,4.358-8.5488c3.604-1.1734,7.375.7543,8.549,4.3582c1.257,3.5201-.671,7.3754-4.275,8.5488Z" fill="#88d0e2"/><path id="ePNTJuR2F7H120" d="M460.044,168.546c-1.425-2.934-3.353-5.029-5.364-6.538-4.023-3.017-9.136-4.609-14.5-3.771-5.364.754-9.89,3.688-12.823,7.794-1.593,2.012-2.766,4.526-3.269,7.795-.335,2.011-.419,4.023-.084,6.118c0,.084,0,.168.084.168c2.095,16.93,21.875,30.507,23.803,30.172c1.844-.251,16.93-18.941,14.08-35.788v-.167c-.419-2.012-1.089-3.939-1.927-5.783ZM444.119,185.56c-4.609.67-8.884-2.515-9.554-7.124-.671-4.61,2.514-8.885,7.124-9.555c4.609-.671,8.884,2.514,9.554,7.04.671,4.694-2.514,8.968-7.124,9.639Z" transform="translate(0-4.152443)" fill="#ff8686"/><path d="M135.189,86.2424C145.917,37.883,241.797,-41.4031,323.765,26.9036c34.866,29.0827,29.251,65.8762,2.85,70.8211-46.516,8.7163-49.365-65.5409,18.439-87.91872C400.453,-8.46501,487.701,28.077,492.563,108.955c4.274,71.241-44.169,109.375-44.169,109.375" fill="none" stroke="#fff" stroke-width="0.75" stroke-linecap="round" stroke-linejoin="round" stroke-miterlimit="10" stroke-dasharray="7,7"/><path d="M0.41906,326.447h539.16194" fill="none" stroke="#c5c7ff" stroke-linecap="round" stroke-miterlimit="10"/><path d="M273.059,331.811h166.032" fill="none" stroke="#c5c7ff" stroke-linecap="round" stroke-miterlimit="10"/><path d="M192.6,331.811h69.48" fill="none" stroke="#c5c7ff" stroke-linecap="round" stroke-miterlimit="10"/><path d="M86.4101,331.811h94.7079" fill="none" stroke="#c5c7ff" stroke-linecap="round" stroke-miterlimit="10"/></g><clipPath id="ePNTJuR2F7H126">
<rect width="540" height="332.23" rx="0" ry="0" fill="#fff"/></clipPath></g>

</svg>
