<svg width="540" height="333" viewBox="0 0 540 333" fill="none" xmlns="http://www.w3.org/2000/svg">
<g clip-path="url(#clip0_5_344)">
<path opacity="0.18" d="M48.8623 269.623C-18.271 217.659 6.87258 123.287 52.8015 99.9876C88.673 81.8004 108.285 79.4537 126.975 70.4858C180.112 48.6109 210.535 9.72216 269.455 16.0919C367.264 26.6522 336.086 99.4847 400.369 150.442C418.138 165.528 468.425 197.209 440.599 262.583C412.103 329.632 305.997 317.396 243.893 296.862C144.827 260.823 136.949 337.846 48.8623 269.623Z" fill="url(#paint0_linear_5_344)"/>
<path d="M43.3307 326.364C43.3307 326.364 51.7119 319.994 64.1161 319.826C64.1161 319.826 29.3342 316.055 29.837 309.014C30.3399 302.058 51.8796 305.327 65.7085 314.714C65.7085 314.714 50.0357 303.064 52.8853 297.867C55.6511 292.755 77.9451 303.65 81.8004 326.447L43.3307 326.364Z" fill="#88D0E2"/>
<path d="M417.216 313.121C417.216 313.121 443.952 252.609 458.116 252.358C477.309 252.022 431.547 305.578 431.547 305.578C431.547 305.578 466.413 263.337 479.404 272.053C491.892 280.435 445.46 306.668 445.46 306.668C445.46 306.668 482.673 288.564 487.618 299.46C491.221 307.59 463.564 311.194 446.55 313.121C446.55 313.121 483.176 309.35 480.745 318.234C479.404 323.179 451.662 321.251 451.662 321.251C451.662 321.251 468.676 322.676 470.436 326.615H417.299V313.121H417.216Z" fill="#88D0E2"/>
<path d="M185.979 192.348C185.979 185.057 183.129 179.106 179.693 179.022C179.609 179.022 179.525 179.022 179.441 179.022C176.675 179.274 155.136 180.866 137.2 180.866C111.637 180.866 91.4388 178.938 91.4388 178.938C84.7338 193.941 91.4388 205.591 91.4388 205.591H179.776C183.129 205.591 185.979 199.64 185.979 192.348Z" fill="#FD6969"/>
<path d="M91.5226 205.674C95.0405 205.674 97.8923 199.708 97.8923 192.348C97.8923 184.988 95.0405 179.022 91.5226 179.022C88.0047 179.022 85.1529 184.988 85.1529 192.348C85.1529 199.708 88.0047 205.674 91.5226 205.674Z" fill="#B43737"/>
<path d="M118.594 205.674C118.594 205.674 120.605 202.07 120.605 192.683C120.605 183.38 117.085 180.112 117.085 180.112H112.895C112.895 180.112 116.666 183.38 116.666 192.683C116.666 201.987 114.487 205.674 114.487 205.674H118.594Z" fill="white"/>
<path d="M157.315 205.674C157.315 205.674 159.326 202.07 159.326 192.683C159.326 183.38 155.806 180.112 155.806 180.112H151.616C151.616 180.112 155.387 183.38 155.387 192.683C155.387 201.987 153.208 205.674 153.208 205.674H157.315Z" fill="white"/>
<path d="M154.633 314.63H92.2769C89.0082 314.63 86.3262 311.948 86.3262 308.679V211.625C86.3262 208.356 89.0082 205.674 92.2769 205.674H154.633C157.902 205.674 160.584 208.356 160.584 211.625V308.679C160.584 311.948 157.902 314.63 154.633 314.63Z" fill="#B97840"/>
<path opacity="0.6" d="M102.921 314.63C99.6523 314.63 96.9704 311.948 96.9704 308.679V211.625C96.9704 208.356 99.6523 205.674 102.921 205.674" stroke="black" stroke-width="0.5" stroke-miterlimit="10" stroke-linecap="round"/>
<path d="M175.167 314.63H112.811C109.542 314.63 106.86 311.948 106.86 308.679V211.625C106.86 208.356 109.542 205.674 112.811 205.674H175.167C178.436 205.674 181.118 208.356 181.118 211.625V308.679C181.118 311.948 178.436 314.63 175.167 314.63Z" fill="#FBA356"/>
<path d="M96.9704 316.893C96.7189 316.893 96.4675 316.893 96.2999 316.977V314.63H92.1931V321.67C92.1931 324.268 94.2884 326.363 96.8865 326.363C99.4847 326.363 101.58 324.268 101.58 321.67C101.58 319.072 99.5685 316.893 96.9704 316.893Z" fill="#161836"/>
<path d="M120.27 316.893C120.019 316.893 119.767 316.893 119.6 316.977V314.63H115.577V321.67C115.577 324.268 117.672 326.363 120.27 326.363C122.868 326.363 124.964 324.268 124.964 321.67C124.964 319.072 122.952 316.893 120.27 316.893Z" fill="#161836"/>
<path d="M152.035 316.893C151.783 316.893 151.532 316.893 151.364 316.977V314.63H147.341V321.67C147.341 324.268 149.437 326.363 152.035 326.363C154.633 326.363 156.728 324.268 156.728 321.67C156.728 319.072 154.633 316.893 152.035 316.893Z" fill="#161836"/>
<path d="M175.418 316.893C175.167 316.893 174.915 316.893 174.748 316.977V314.63H170.725V321.67C170.725 324.268 172.82 326.363 175.418 326.363C178.016 326.363 180.112 324.268 180.112 321.67C180.112 319.072 178.016 316.893 175.418 316.893Z" fill="#161836"/>
<g opacity="0.5">
<path d="M119.013 305.075H113.817C112.811 305.075 111.889 304.237 111.889 303.148V218.749C111.889 217.743 112.727 216.821 113.817 216.821H119.013C120.019 216.821 120.941 217.659 120.941 218.749V303.231C120.941 304.237 120.102 305.075 119.013 305.075Z" stroke="black" stroke-width="0.5" stroke-miterlimit="10" stroke-linecap="round"/>
<path d="M137.451 305.075H132.255C131.249 305.075 130.327 304.237 130.327 303.148V218.749C130.327 217.743 131.166 216.821 132.255 216.821H137.451C138.457 216.821 139.379 217.659 139.379 218.749V303.231C139.295 304.237 138.457 305.075 137.451 305.075Z" stroke="black" stroke-width="0.5" stroke-miterlimit="10" stroke-linecap="round"/>
<path d="M155.806 305.075H150.61C149.604 305.075 148.682 304.237 148.682 303.148V218.749C148.682 217.743 149.52 216.821 150.61 216.821H155.806C156.812 216.821 157.734 217.659 157.734 218.749V303.231C157.65 304.237 156.812 305.075 155.806 305.075Z" stroke="black" stroke-width="0.5" stroke-miterlimit="10" stroke-linecap="round"/>
<path d="M174.161 305.075H168.965C167.959 305.075 167.037 304.237 167.037 303.148V218.749C167.037 217.743 167.875 216.821 168.965 216.821H174.161C175.167 216.821 176.089 217.659 176.089 218.749V303.231C176.089 304.237 175.251 305.075 174.161 305.075Z" stroke="black" stroke-width="0.5" stroke-miterlimit="10" stroke-linecap="round"/>
</g>
<path d="M126.975 148.347H124.628V209.949H126.975V148.347Z" fill="#161836"/>
<path d="M163.349 148.347H161.003V209.949H163.349V148.347Z" fill="#161836"/>
<path d="M125.802 151.029V143.989H162.176V151.029" stroke="url(#paint1_linear_5_344)" stroke-width="5" stroke-miterlimit="10" stroke-linejoin="round"/>
<path d="M414.617 326.531H302.729C299.125 326.531 296.191 323.598 296.191 319.994V238.11C296.191 234.506 299.125 231.572 302.729 231.572H414.701C418.305 231.572 421.239 234.506 421.239 238.11V319.994C421.155 323.598 418.221 326.531 414.617 326.531Z" fill="#161848"/>
<path d="M312.115 326.531C308.512 326.531 305.578 323.598 305.578 319.994V238.11C305.578 234.506 308.512 231.572 312.115 231.572" stroke="white" stroke-width="0.5" stroke-miterlimit="10" stroke-linecap="round"/>
<path d="M435.319 326.531H323.346C319.742 326.531 316.809 323.598 316.809 319.994V238.11C316.809 234.506 319.742 231.572 323.346 231.572H435.319C438.923 231.572 441.856 234.506 441.856 238.11V319.994C441.856 323.598 438.923 326.531 435.319 326.531Z" fill="url(#paint2_linear_5_344)"/>
<path d="M435.319 326.531H323.346C319.742 326.531 316.809 323.598 316.809 319.994V238.11C316.809 234.506 319.742 231.572 323.346 231.572H435.319C438.923 231.572 441.856 234.506 441.856 238.11V319.994C441.856 323.598 438.923 326.531 435.319 326.531Z" fill="#34379E"/>
<path d="M323.346 322.341C322.089 322.341 321 321.251 321 319.994V238.11C321 236.852 322.089 235.763 323.346 235.763H435.319C436.576 235.763 437.666 236.852 437.666 238.11V319.994C437.666 321.251 436.576 322.341 435.319 322.341H323.346Z" stroke="white" stroke-width="0.75" stroke-linecap="round" stroke-linejoin="round" stroke-dasharray="5 5"/>
<path d="M311.194 238.361L309.853 237.942C309.182 237.774 308.847 237.02 309.098 236.35L311.026 232.075C311.277 231.572 311.864 231.321 312.367 231.405C312.954 231.572 313.289 232.075 313.205 232.662L312.618 237.355C312.535 238.11 311.864 238.529 311.194 238.361Z" fill="white"/>
<path d="M421.909 293.928L395.508 304.991L395.005 303.65C395.676 303.399 396.011 302.645 395.676 301.974C395.425 301.304 394.67 300.968 394 301.304L393.413 299.879C394.084 299.627 394.419 298.873 394.084 298.203C393.832 297.532 393.078 297.197 392.407 297.532L391.821 296.107C392.491 295.856 392.826 295.102 392.491 294.431C392.24 293.761 391.485 293.425 390.815 293.761L390.228 292.336C390.899 292.084 391.234 291.33 390.899 290.66C390.647 289.989 389.893 289.654 389.222 289.989L388.72 288.648L415.12 277.585L415.623 278.926C414.953 279.177 414.617 279.932 414.953 280.602C415.204 281.273 415.958 281.608 416.629 281.273L417.216 282.697C416.545 282.949 416.21 283.703 416.545 284.374C416.797 285.044 417.551 285.379 418.221 285.044L418.808 286.469C418.138 286.72 417.802 287.475 418.138 288.145C418.389 288.816 419.143 289.151 419.814 288.816L420.4 290.241C419.73 290.492 419.395 291.246 419.73 291.917C419.981 292.587 420.736 292.923 421.406 292.587L421.909 293.928Z" fill="#FBA356"/>
<path d="M418.915 293.494L413.193 279.807L391.697 288.794L397.419 302.48L418.915 293.494Z" stroke="black" stroke-width="0.25" stroke-miterlimit="10" stroke-linecap="round" stroke-linejoin="round"/>
<path opacity="0.5" d="M357.877 267.528L355.446 269.455L357.206 271.97L354.273 273.059L355.111 275.993L352.094 276.076L352.01 279.094L349.077 278.255L347.987 281.189L345.473 279.429L343.629 281.859L341.701 279.429L339.187 281.189L338.097 278.255L335.164 279.094L335.08 276.076L332.063 275.993L332.901 273.059L329.967 271.97L331.727 269.455L329.297 267.528L331.727 265.684L329.967 263.169L332.901 262.08L332.063 259.146L335.08 259.063L335.164 255.962L338.097 256.8L339.187 253.95L341.701 255.71L343.629 253.28L345.473 255.71L347.987 253.95L349.077 256.8L352.01 255.962L352.094 259.063L355.111 259.146L354.273 262.08L357.206 263.169L355.446 265.684L357.877 267.528Z" fill="white"/>
<path d="M404.979 264.846L387.462 261.828L388.552 255.459L406.069 258.476L404.979 264.846Z" fill="#8CD2E4"/>
<path d="M235.763 143.989C235.763 143.989 250.346 148.347 252.693 149.94C255.123 151.532 259.901 173.574 259.398 179.86C258.895 186.062 241.63 191.678 241.63 191.678L235.763 143.989Z" fill="#FBA356"/>
<path d="M259.063 65.8762L261.493 56.4055C261.493 56.4055 247.748 58.0817 245.736 57.7464C243.725 57.3274 242.3 57.3274 241.211 57.495C240.121 57.6626 238.78 58.836 239.702 59.8417C240.624 60.7637 245.988 61.6856 246.323 62.1885C246.658 62.6913 248.921 66.4629 248.921 66.4629L246.826 95.1265L230.818 86.2425L227.968 106.106C227.968 106.106 253.699 117.923 259.482 112.559C265.516 106.86 259.063 65.8762 259.063 65.8762Z" fill="#FBBFB4"/>
<path d="M214.391 279.764L215.899 308.595L234.338 307.59L237.439 279.764H214.391Z" fill="url(#paint3_linear_5_344)"/>
<path d="M214.391 303.567C214.391 303.567 225.789 296.275 240.792 296.694L235.009 311.696C235.009 311.696 243.893 309.434 251.436 309.098C263.169 308.595 258.979 326.447 258.979 326.447H212.463C212.463 326.447 211.374 320.916 214.894 313.959C214.894 310.607 214.391 305.411 214.391 303.567Z" fill="#FD6969"/>
<path d="M259.565 322.76C259.398 324.939 258.979 326.447 258.979 326.447H212.463C212.463 326.447 212.044 324.52 212.463 321.503C214.81 321.67 221.766 322.173 224.951 324.101L259.565 322.76Z" fill="black"/>
<path d="M232.578 312.367C232.578 312.367 226.544 308.428 228.723 305.578C231.069 302.477 234.338 306.835 234.087 311.864C234.087 311.864 234.422 302.896 237.858 302.896C241.965 302.896 235.679 311.948 235.679 311.948C235.679 311.948 237.104 309.853 240.875 308.595C244.647 307.254 247.496 312.199 250.011 312.87" stroke="white" stroke-width="0.5" stroke-miterlimit="10" stroke-linecap="round" stroke-linejoin="round"/>
<path d="M149.939 259.146L132.255 282.362L147.174 293.509L167.708 274.149L149.939 259.146Z" fill="url(#paint4_linear_5_344)"/>
<path d="M132.674 280.686C132.674 280.686 148.682 280.267 157.483 290.995L143.905 296.778L147.174 308.679C147.174 308.679 155.722 307.757 159.662 313.205C164.02 319.24 157.483 326.447 157.483 326.447H136.865L113.984 296.024C113.984 296.024 120.186 287.391 126.891 286.553L132.674 280.686Z" fill="#FD6969"/>
<path d="M143.486 296.61C143.486 296.61 153.543 296.527 153.041 300.382C152.454 304.237 143.486 297.532 143.486 297.532C143.486 297.532 150.526 303.483 148.934 305.075C147.09 306.919 143.067 299.208 143.067 299.208C143.067 299.208 144.156 301.304 144.073 305.578C143.989 309.853 140.972 314.714 140.972 314.714" stroke="white" stroke-width="0.5" stroke-miterlimit="10" stroke-linecap="round" stroke-linejoin="round"/>
<path d="M237.355 139.882C237.355 139.882 241.378 150.359 244.815 177.346C247.832 200.897 247.832 252.861 242.719 273.143C241.965 276.076 240.372 277.836 239.115 278.591C238.612 281.189 236.936 288.983 236.936 288.983L213.804 285.463C213.804 285.463 213.301 281.105 213.134 278.926C204.92 270.21 212.966 239.702 214.307 226.041C209.865 199.389 212.044 141.977 212.044 141.977L237.355 139.882Z" fill="#34379E"/>
<path d="M222.94 174.832L219 180.531C219 180.531 218.246 209.53 213.972 223.526C212.463 213.218 211.876 199.137 211.625 185.643C213.553 181.369 215.061 178.017 215.061 178.017L222.94 174.832Z" fill="black"/>
<path d="M190.504 142.815C190.504 142.815 185.057 148.598 183.716 154.717C181.62 164.104 183.716 175.754 183.716 175.754L179.777 211.457C179.777 211.457 160.416 231.572 152.37 243.976C146.084 253.699 148.934 258.141 148.934 258.141L141.81 267.947L161.841 280.686L167.54 276.914C167.54 276.914 172.066 276.831 176.005 273.73C179.944 270.629 206.68 236.433 212.212 219.922C218.498 201.232 217.66 141.055 217.66 141.055L190.504 142.815Z" fill="#34379E"/>
<path d="M221.263 80.7947C221.263 80.7947 231.069 84.8176 233.081 88.8406C236.098 94.7074 231.656 109.71 232.494 116.582C233.332 123.455 238.529 140.301 237.691 141.139C236.852 141.977 217.911 149.269 190.337 142.983C190.337 142.983 191.51 133.764 191.343 128.4C190.085 120.438 182.878 95.4618 182.039 86.9968C186.23 83.2252 205.172 77.9451 205.172 77.9451L221.263 80.7947Z" fill="#8CD3E4"/>
<path d="M192.6 100.407C192.6 100.407 190.756 107.95 188.325 114.738C186.649 108.201 184.805 100.742 183.548 94.7913L192.6 100.407Z" fill="black"/>
<path d="M201.819 49.7005C201.819 49.7005 199.64 52.9692 197.796 57.5788C195.785 62.6075 195.282 66.3791 200.143 66.8819C206.429 67.0496 211.709 63.4456 211.709 63.4456L215.983 51.4606" fill="#999BCF"/>
<path d="M203.663 49.449C203.663 49.449 195.114 60.9313 197.712 65.4571C199.472 68.642 210.955 66.2114 214.056 64.7028C218.246 62.6913 220.509 55.5673 220.509 55.5673" fill="#161836"/>
<path d="M219.587 71.9107C219.587 71.9107 223.945 72.9164 226.879 71.324C231.069 68.9772 235.428 44.8394 226.124 40.0621C216.821 35.3687 202.825 40.0621 204.501 52.2987C204.92 55.4835 206.932 64.8705 206.932 64.8705L205.255 77.9451C205.255 77.9451 209.949 82.5548 221.263 80.8785L219.587 71.9107Z" fill="#FBBFB4"/>
<path d="M159.41 323.514C158.404 325.274 157.399 326.447 157.399 326.447H136.781L113.984 296.024C113.984 296.024 115.996 293.258 118.51 291.079C118.51 291.079 121.36 295.605 122.868 301.388L138.29 323.514H159.41Z" fill="black"/>
<path d="M149.52 259.146C149.52 259.146 156.142 267.528 166.953 275.657" stroke="black" stroke-width="0.5" stroke-miterlimit="10" stroke-linecap="round" stroke-linejoin="round"/>
<path d="M213.888 278.926C213.888 278.926 228.806 280.77 237.774 278.926" stroke="black" stroke-width="0.5" stroke-miterlimit="10" stroke-linecap="round" stroke-linejoin="round"/>
<path d="M196.706 155.555L178.855 123.539C178.855 123.539 189.247 107.279 191.845 102.167C196.287 93.6179 189.499 83.4767 182.123 86.9129C182.123 86.9129 179.357 89.1759 174.664 97.2218C169.216 106.609 160.584 124.377 162.176 127.394C164.69 132.339 188.996 160.919 188.996 160.919C188.912 164.774 191.594 170.138 191.594 170.138L201.568 158.153C200.227 157.063 196.706 155.555 196.706 155.555Z" fill="#FBBFB4"/>
<path d="M202.322 156.393L189.499 171.479L192.013 173.91L204.333 157.818L202.322 156.393Z" fill="#161836"/>
<path d="M213.385 47.6052C213.385 47.6052 222.604 43.2469 230.231 46.0127C230.231 46.0127 231.237 48.6947 231.405 51.0414C231.405 51.0414 238.11 46.0127 236.769 43.1631C235.847 41.1516 233.332 41.9898 233.332 41.9898C233.332 41.9898 238.612 35.0334 234.589 31.6809C230.734 28.5799 225.035 33.5248 225.035 33.5248C225.035 33.5248 214.558 32.8543 207.434 36.2067C200.394 39.4754 202.741 50.4548 202.741 50.4548L205.842 57.1597L210.452 55.9863L210.2 54.1425C210.368 54.1425 213.888 52.8853 213.385 47.6052Z" fill="#161836"/>
<path d="M225.203 33.6086C225.203 33.6086 214.139 34.782 202.322 51.4605C202.322 51.4605 191.426 41.9898 202.573 31.0942C206.764 26.9875 217.743 23.2997 225.203 33.6086Z" fill="#999BCF"/>
<path d="M209.53 54.6454C209.027 53.2206 207.183 49.4491 203.663 51.2929C199.556 53.472 203.495 62.4399 207.434 61.937C211.29 61.4342 210.116 56.4055 209.53 54.6454Z" fill="#FBBFB4"/>
<path d="M215.983 32.6867C215.816 32.7705 215.648 32.8543 215.564 32.9381C213.972 33.86 213.469 35.9553 214.558 37.4639C214.558 37.4639 218.33 34.6981 221.431 33.86C220.09 32.2676 217.827 31.6809 215.983 32.6867Z" fill="black"/>
<path d="M219.587 71.9106C219.587 71.9106 214.223 70.4858 211.374 66.1276C211.374 66.1276 212.212 73.5869 220.341 75.8498L219.587 71.9106Z" fill="black"/>
<path d="M246.91 95.0427L251.519 97.7247L247.077 92.0255L246.91 95.0427Z" fill="url(#paint5_linear_5_344)"/>
<path d="M190.923 82.5547C190.923 82.5547 228.052 99.9876 245.485 155.22L250.765 153.543C250.765 153.543 237.858 105.854 198.299 78.867L190.923 82.5547Z" fill="#343434"/>
<path d="M244.312 154.382L251.184 152.454L252.609 156.98L245.82 158.991L244.312 154.382Z" fill="#161836"/>
<path d="M248.586 185.895C247.748 179.022 245.485 166.199 244.731 162.092L254.788 158.907C254.788 158.907 257.135 171.228 257.638 176.34C258.392 182.71 250.849 185.224 248.586 185.895Z" stroke="black" stroke-width="0.25" stroke-miterlimit="10" stroke-linecap="round" stroke-linejoin="round" stroke-dasharray="2 2"/>
<path d="M266.857 41.1517C266.689 41.1517 266.522 41.2355 266.354 41.2355L238.193 47.7728C236.517 48.0242 235.511 50.4548 235.847 53.2206C236.182 56.0702 237.858 58.1655 239.534 57.914L268.366 57.1597C268.533 57.1597 268.701 57.1597 268.869 57.1597C271.467 56.8245 273.143 52.9691 272.556 48.5271C272.053 44.1689 269.455 40.8164 266.857 41.1517Z" fill="#FD6969"/>
<path d="M271.718 48.6947C272.221 52.4662 270.796 55.6511 268.533 55.9863C266.27 56.2378 264.091 53.472 263.588 49.7005C263.086 45.9289 264.51 42.7441 266.773 42.4088C269.036 42.1574 271.299 45.007 271.718 48.6947Z" fill="#313490"/>
<path d="M253.363 42.9117C253.196 42.9117 253.028 42.9955 252.86 42.9955L224.784 49.449C223.107 49.7005 222.102 52.131 222.437 54.8968C222.772 57.7464 224.448 59.8417 226.124 59.5903L254.956 58.836C255.123 58.836 255.291 58.836 255.459 58.836C258.057 58.5007 259.733 54.6454 259.146 50.2033C258.56 45.7613 255.962 42.5765 253.363 42.9117Z" fill="#FF8181"/>
<path d="M258.308 50.4548C258.811 54.2263 257.386 57.4112 255.123 57.7464C252.86 57.9978 250.681 55.232 250.178 51.4605C249.676 47.689 251.1 44.5041 253.363 44.1689C255.626 43.9174 257.805 46.6832 258.308 50.4548Z" fill="#313490"/>
<path d="M231.237 54.2263C231.237 54.2263 232.829 59.5903 232.829 79.0346C232.829 87.6673 230.231 103.508 241.378 102.502C253.028 101.412 256.381 75.2631 253.363 59.0874L251.603 59.1712C251.603 59.1712 253.531 68.2229 252.358 77.6098C251.268 86.9968 250.514 100.826 241.462 101.831C232.829 102.837 235.092 83.9795 235.26 79.2023C235.428 72.7488 235.763 59.3388 234.422 53.7234L231.237 54.2263Z" fill="black"/>
<path d="M342.707 147.76C339.606 151.951 332.063 159.913 332.063 159.913C330.638 160.5 311.445 140.804 312.032 140.133C312.032 137.703 310.774 135.189 309.936 132.758C309.266 130.914 308.847 127.813 307.841 126.472C307.171 125.634 305.662 125.55 305.075 128.316C304.824 129.573 305.159 131.836 304.991 132.507C304.824 133.177 303.818 131.836 302.393 130.16C300.968 128.484 296.275 122.449 295.353 121.862C293.844 120.857 292.42 123.203 294.85 126.556C296.359 128.651 298.203 130.747 299.125 132.088C296.862 131.836 296.61 133.931 296.526 134.099C295.605 134.183 295.102 134.602 294.766 134.853C294.431 135.189 294.096 135.943 294.599 136.613C293.09 137.619 293.677 139.212 293.928 139.714C294.18 140.217 296.024 141.894 297.365 141.642C299.46 145.414 300.466 146.252 303.734 147.09C304.824 147.341 311.864 163.768 327.285 176.173C328.543 177.178 331.308 179.776 334.158 178.771C341.282 176.34 357.458 160.5 357.458 160.5C352.261 155.722 345.975 150.359 342.707 147.76Z" fill="url(#paint6_linear_5_344)"/>
<path d="M299.711 134.602C300.214 135.356 301.136 136.446 301.304 137.452C301.388 138.122 300.801 138.793 300.13 138.625C299.292 138.457 298.454 137.452 297.867 136.949C297.197 136.278 296.526 135.524 296.359 134.602C296.359 135.608 297.029 136.446 297.616 137.2C298.119 137.787 298.957 138.625 299.711 139.044C299.795 139.631 299.879 141.055 298.37 140.469C296.526 139.798 294.515 136.949 294.515 136.949C294.683 137.452 295.94 139.295 297.365 140.301C297.532 140.553 297.7 141.223 297.197 141.642C297.197 141.642 297.784 141.474 297.784 140.553C298.119 140.72 298.454 140.888 298.789 140.888C300.298 141.055 300.214 139.714 300.13 139.128C300.633 139.212 301.052 139.128 301.388 138.541C302.31 137.116 300.633 135.524 299.711 134.602Z" fill="url(#paint7_linear_5_344)"/>
<path d="M371.538 136.613C371.538 136.613 358.799 133.261 355.949 134.015C353.435 134.602 345.64 143.654 338.013 152.538C340.025 154.968 347.568 162.93 351.926 167.121L371.538 136.613Z" fill="#34379E"/>
<path d="M346.981 204.333C369.443 212.547 393.497 202.07 393.497 202.07C393.497 202.07 389.725 193.773 389.39 192.432C389.139 191.426 390.731 165.026 390.731 165.026C390.731 165.026 385.032 149.018 380.422 145.246C375.813 141.474 364.833 140.804 364.833 140.804C364.833 140.804 351.507 153.124 349.915 157.315C348.406 161.505 348.574 167.037 347.652 178.771C346.395 194.444 346.981 204.333 346.981 204.333Z" fill="#34379E"/>
<path d="M381.679 159.829L385.451 180.028L394 179.525L393.497 170.976L381.679 159.829Z" fill="#1C1C23"/>
<path d="M353.854 139.882L331.56 154.214L306.752 153.041L287.391 164.271L309.35 209.195L325.693 197.461L347.987 197.796L368.94 183.632L353.854 139.882Z" fill="white"/>
<path opacity="0.3" d="M290.66 165.277L307.841 155.471L332.482 156.812L352.513 143.737L365.923 182.626L347.065 195.282L324.687 195.03L310.272 205.423L290.66 165.277Z" fill="#6E74FF"/>
<path d="M306.752 153.041L325.693 197.461" stroke="white" stroke-width="0.5" stroke-miterlimit="10" stroke-linecap="round" stroke-linejoin="round"/>
<path d="M331.56 154.214L347.987 197.796" stroke="white" stroke-width="0.5" stroke-miterlimit="10" stroke-linecap="round" stroke-linejoin="round"/>
<path d="M405.733 168.713C398.442 170.473 392.491 170.809 387.714 170.725C387.714 170.725 389.809 175.586 390.396 177.43C387.379 176.424 376.483 171.479 370.029 168.462C369.946 167.456 370.029 166.199 365.168 162.93C362.319 161.003 362.235 158.572 360.726 159.075C359.553 159.494 359.888 161.506 360.726 163.014C360.894 163.266 361.062 163.517 361.229 163.685C359.553 163.433 356.703 162.595 356.703 162.595C356.703 162.595 353.435 161.338 351.675 160.919C350.334 160.584 349.16 161.254 349.244 162.008C347.903 161.422 346.897 161.17 345.892 161.422C344.886 161.673 344.634 162.679 345.808 163.601C346.311 163.936 348.071 165.277 348.825 165.78C348.322 165.612 347.903 165.361 347.4 165.361C345.556 165.109 344.551 166.618 346.646 167.875C347.652 168.462 348.574 168.965 349.244 169.468C349.077 169.468 348.909 169.384 348.825 169.384C347.484 169.132 345.808 170.306 347.987 171.647C350.082 172.904 351.423 173.742 352.597 174.245C357.793 176.34 362.989 177.681 364.917 177.262C375.561 184.721 384.697 189.834 395.005 194.946C402.548 198.634 408.751 195.785 409.673 188.912C410.092 186.146 407.074 173.574 405.733 168.713Z" fill="#FFCBCA"/>
<path d="M397.687 143.737C396.514 141.642 381.26 137.787 381.26 137.787L375.393 146.587L381.26 158.572L386.96 175.251C388.887 174.999 400.956 171.647 406.739 169.551C403.47 158.404 398.777 145.749 397.687 143.737Z" fill="#34379E"/>
<path d="M406.236 117.253C401.962 130.998 385.619 138.038 369.694 133.177C353.77 128.232 344.299 113.146 348.49 99.4847C352.764 85.7396 369.108 78.6994 385.032 83.5605C400.956 88.4215 410.511 103.591 406.236 117.253Z" fill="#FBA356"/>
<path opacity="0.5" d="M394.503 114.236C392.072 122.114 382.35 126.137 372.795 123.203C363.241 120.27 357.542 111.47 359.972 103.591C362.403 95.7132 372.125 91.6902 381.679 94.6236C391.234 97.557 396.933 106.357 394.503 114.236Z" fill="url(#paint8_linear_5_344)"/>
<path d="M394.251 134.35C376.986 141.977 361.648 133.093 359.804 130.328C361.816 126.807 367.012 120.102 365.42 117.169C363.827 114.236 359.721 113.9 359.804 106.693C359.804 106.19 359.804 105.687 359.888 105.184C360.726 95.5456 369.024 99.9038 369.862 99.7362L387.127 100.407C387.881 101.077 388.803 101.915 389.641 103.005C391.821 105.771 393.748 109.794 392.659 115.074C390.396 122.868 391.318 130.411 394.251 134.35Z" fill="#161836"/>
<path d="M381.093 125.131C387.043 118.175 386.54 109.877 386.54 109.877C386.624 95.9646 367.515 96.0485 363.073 105.435C360.14 111.554 359.134 122.282 360.643 126.305C362.151 130.244 365.587 132.423 369.778 131.92L368.437 135.691C368.437 135.691 366.677 135.356 366.258 135.356C363.995 139.212 363.492 150.023 371.538 149.604C379.584 149.185 382.601 138.122 382.601 138.122L379.752 137.284L381.093 125.131Z" fill="url(#paint9_linear_5_344)"/>
<path d="M389.306 111.721C387.379 119.851 384.361 120.522 384.361 120.522C384.361 120.522 384.11 118.678 382.853 116.918C381.093 114.403 378.327 111.554 378.997 109.039C378.243 109.458 377.154 109.877 375.31 110.045C370.197 110.38 364.079 107.112 361.481 109.375C361.481 109.375 360.475 109.375 360.14 107.782C360.14 107.782 359.888 106.776 359.804 105.184C359.804 105.1 359.804 104.933 359.804 104.849C359.804 102.418 360.475 98.8142 363.66 95.797C368.353 91.4388 379.5 92.1093 385.032 98.8981C385.032 98.8981 385.87 99.4009 387.043 100.407C387.798 101.077 388.72 101.915 389.558 103.005C390.228 105.016 390.228 107.95 389.306 111.721Z" fill="#161836"/>
<path d="M382.266 116.331C382.266 116.331 385.87 113.733 387.798 115.66C390.396 118.342 385.032 124.796 382.35 123.706C379.081 122.365 382.266 116.331 382.266 116.331Z" fill="url(#paint10_linear_5_344)"/>
<path d="M390.312 177.43C390.312 177.43 397.268 179.777 400.286 181.453C400.286 181.453 395.592 176.675 389.558 175.251L390.312 177.43Z" fill="#1C1C23"/>
<path d="M369.862 131.92C369.862 131.92 373.969 131.166 377.07 127.729C377.07 127.729 375.31 132.339 368.94 134.518L369.862 131.92Z" fill="#1C1C23"/>
<path d="M313.54 254.872L299.041 268.282C299.041 268.282 290.911 264.259 289.067 258.141C296.526 247.58 301.807 240.121 301.807 240.121" fill="#FFCBCA"/>
<path d="M261.996 255.04L287.391 279.429C288.313 280.267 289.738 280.267 290.576 279.429C292.671 277.417 296.024 275.657 297.867 271.802C298.706 270.126 299.041 269.371 298.957 268.282C298.957 268.282 296.275 266.773 295.437 265.181C294.599 263.505 295.353 260.906 295.437 260.571C295.521 260.236 299.46 257.554 299.125 255.375C297.448 251.184 291.079 247.245 290.324 246.826C287.978 250.262 286.301 252.022 284.709 252.777C280.602 251.268 276.412 249.005 269.288 247.245C266.689 246.575 263.84 246.994 260.906 250.765C260.32 251.771 261.074 254.201 261.996 255.04Z" fill="#FBA356"/>
<path d="M260.906 250.681C261.325 250.179 290.995 279.094 290.995 279.094C290.995 279.261 289.822 282.195 287.14 283.536C287.14 283.536 266.103 259.565 259.817 253.615C259.146 252.944 260.404 251.268 260.906 250.681Z" fill="#161836"/>
<path d="M285.463 253.028C285.463 253.028 289.151 256.045 289.738 260.487" stroke="white" stroke-width="0.75" stroke-miterlimit="10" stroke-linecap="round"/>
<path d="M285.463 259.314C284.29 254.872 281.44 252.022 281.44 252.022" stroke="white" stroke-width="0.75" stroke-miterlimit="10" stroke-linecap="round"/>
<path d="M276.747 250.179C276.747 250.179 279.764 251.939 281.524 257.889" stroke="white" stroke-width="0.75" stroke-miterlimit="10" stroke-linecap="round"/>
<path d="M393.497 202.07C393.497 202.07 390.647 203.16 388.133 203.998C378.159 199.64 353.435 185.14 344.467 188.493C333.32 192.684 299.46 242.803 299.46 242.803C301.974 248.502 311.445 256.464 317.479 257.386C317.479 257.386 345.054 228.723 350.166 220.593C350.166 220.593 362.319 230.147 368.353 231.656H394.922C394.922 231.656 404.057 218.581 393.497 202.07Z" fill="#FD6969"/>
<path d="M396.849 208.775C393.497 206.932 388.133 203.998 388.133 203.998C390.647 203.16 393.497 202.07 393.497 202.07C395.005 204.417 396.095 206.596 396.849 208.775Z" fill="black"/>
<path d="M368.437 231.656H378.997C378.997 231.656 360.726 210.535 345.892 218.079C344.215 218.917 342.12 220.761 340.695 223.107C336.589 229.561 333.655 239.367 332.817 241.127C336.589 237.02 340.444 232.746 343.629 228.974V228.89L355.614 221.096L368.437 231.656Z" fill="#161836"/>
<path d="M354.273 279.345L360.643 299.208C360.643 299.208 370.197 299.711 375.058 295.018C373.717 281.44 372.712 271.802 372.712 271.802" fill="url(#paint11_linear_5_344)"/>
<path d="M379.836 312.283C382.685 315.468 383.523 319.994 383.523 322.173L357.625 326.28C357.123 324.603 355.53 320.078 360.81 316.222L360.307 299.628C358.044 298.287 356.117 295.437 354.524 291.33L371.203 286.804C371.79 290.743 372.795 294.012 375.058 294.85C375.058 294.85 376.399 295.269 376.902 297.867C377.07 298.957 377.07 302.142 377.07 302.142L379.836 312.283Z" fill="#FBA356"/>
<path d="M384.78 326.196H357.206C356.955 325.861 356.536 323.933 357.039 322.927C357.039 322.927 364.33 323.095 371.957 322.173C380.422 321.167 383.356 319.91 383.356 319.91C383.858 320.748 385.199 323.346 384.78 326.196Z" fill="#161836"/>
<path d="M370.365 311.11C363.325 313.373 360.81 316.139 360.81 316.139C360.81 316.139 360.81 315.552 360.726 313.54C365.839 311.11 370.365 311.11 370.365 311.11Z" fill="url(#paint12_linear_5_344)"/>
<path d="M362.905 299.292C365.336 300.214 370.868 299.208 372.544 297.448" stroke="white" stroke-width="0.75" stroke-miterlimit="10" stroke-linecap="round"/>
<path d="M362.989 303.567C366.426 304.656 371.538 303.734 373.55 301.471" stroke="white" stroke-width="0.75" stroke-miterlimit="10" stroke-linecap="round"/>
<path d="M362.738 307.925C365.671 309.434 371.873 308.595 374.974 305.746" stroke="white" stroke-width="0.75" stroke-miterlimit="10" stroke-linecap="round"/>
<path d="M375.226 281.608C367.599 283.955 356.703 285.212 354.273 285.463C349.998 271.97 339.354 237.691 339.438 230.986C339.606 221.263 345.305 218.414 348.993 217.408C360.391 214.223 368.772 227.13 371.538 242.049C373.55 253.28 374.723 272.472 375.226 281.608Z" fill="#FF8181"/>
<path d="M448.394 222.604C450.801 222.604 452.752 220.653 452.752 218.246C452.752 215.839 450.801 213.888 448.394 213.888C445.987 213.888 444.035 215.839 444.035 218.246C444.035 220.653 445.987 222.604 448.394 222.604Z" fill="white"/>
<path d="M138.457 86.2424C138.457 88.0863 136.949 89.5949 135.105 89.5949C133.261 89.5949 131.752 88.0863 131.752 86.2424C131.752 84.3986 133.261 82.89 135.105 82.89C137.032 82.89 138.457 84.3986 138.457 86.2424Z" fill="white"/>
<path d="M136.278 44.0851C134.77 41.906 132.926 40.565 131.082 39.643C127.478 37.7154 123.12 37.2963 119.013 38.6373C114.822 39.9783 111.637 42.9955 109.877 46.6832C108.872 48.5271 108.285 50.7062 108.369 53.3882C108.369 54.9806 108.62 56.6568 109.123 58.3331C109.123 58.4169 109.207 58.4169 109.207 58.5007C113.23 71.743 130.914 79.7889 132.423 79.2861C133.848 78.7832 143.318 61.7694 138.709 48.7785L138.625 48.6109C138.038 46.8509 137.284 45.4261 136.278 44.0851ZM125.969 59.8417C122.365 61.0151 118.51 59.0874 117.337 55.4835C116.163 51.8796 118.091 48.108 121.695 46.9347C125.299 45.7613 129.07 47.689 130.244 51.2929C131.501 54.813 129.573 58.6683 125.969 59.8417Z" fill="#88D0E2"/>
<path d="M460.044 168.546C458.619 165.612 456.691 163.517 454.68 162.008C450.657 158.991 445.544 157.399 440.18 158.237C434.816 158.991 430.29 161.925 427.357 166.031C425.764 168.043 424.591 170.557 424.088 173.826C423.753 175.837 423.669 177.849 424.004 179.944C424.004 180.028 424.004 180.112 424.088 180.112C426.183 197.042 445.963 210.619 447.891 210.284C449.735 210.033 464.821 191.343 461.971 174.496V174.329C461.552 172.317 460.882 170.39 460.044 168.546ZM444.119 185.56C439.51 186.23 435.235 183.045 434.565 178.436C433.894 173.826 437.079 169.551 441.689 168.881C446.298 168.21 450.573 171.395 451.243 175.921C451.914 180.615 448.729 184.889 444.119 185.56Z" fill="#FF8686"/>
<path d="M135.189 86.2424C145.917 37.883 241.797 -41.4031 323.765 26.9036C358.631 55.9863 353.016 92.7798 326.615 97.7247C280.099 106.441 277.25 32.1838 345.054 9.80598C400.453 -8.46501 487.701 28.077 492.563 108.955C496.837 180.196 448.394 218.33 448.394 218.33" stroke="white" stroke-width="0.75" stroke-miterlimit="10" stroke-linecap="round" stroke-linejoin="round" stroke-dasharray="7 7"/>
<path d="M0.41906 326.447H539.581" stroke="#C5C7FF" stroke-miterlimit="10" stroke-linecap="round"/>
<path d="M273.059 331.811H439.091" stroke="#C5C7FF" stroke-miterlimit="10" stroke-linecap="round"/>
<path d="M192.6 331.811H262.08" stroke="#C5C7FF" stroke-miterlimit="10" stroke-linecap="round"/>
<path d="M86.4101 331.811H181.118" stroke="#C5C7FF" stroke-miterlimit="10" stroke-linecap="round"/>
</g>
<defs>
<linearGradient id="paint0_linear_5_344" x1="7.77674" y1="164.269" x2="448.801" y2="164.269" gradientUnits="userSpaceOnUse">
<stop stop-color="#D5D6FF"/>
<stop offset="1" stop-color="#363BA6"/>
</linearGradient>
<linearGradient id="paint1_linear_5_344" x1="123.732" y1="146.45" x2="164.274" y2="146.45" gradientUnits="userSpaceOnUse">
<stop stop-color="#E6832C"/>
<stop offset="1" stop-color="#E9A347"/>
</linearGradient>
<linearGradient id="paint2_linear_5_344" x1="379.337" y1="232.303" x2="379.337" y2="318.148" gradientUnits="userSpaceOnUse">
<stop stop-color="#E4816F"/>
<stop offset="1" stop-color="#E25E52"/>
</linearGradient>
<linearGradient id="paint3_linear_5_344" x1="228.264" y1="262.014" x2="223.93" y2="297.001" gradientUnits="userSpaceOnUse">
<stop stop-color="#FFCBCA"/>
<stop offset="1" stop-color="#E994A8"/>
</linearGradient>
<linearGradient id="paint4_linear_5_344" x1="149.995" y1="250.64" x2="149.995" y2="289.157" gradientUnits="userSpaceOnUse">
<stop stop-color="#FFCBCA"/>
<stop offset="1" stop-color="#E994A8"/>
</linearGradient>
<linearGradient id="paint5_linear_5_344" x1="246.892" y1="94.8731" x2="251.537" y2="94.8731" gradientUnits="userSpaceOnUse">
<stop stop-color="#FFCBCA"/>
<stop offset="1" stop-color="#E994A8"/>
</linearGradient>
<linearGradient id="paint6_linear_5_344" x1="331.646" y1="88.7709" x2="322.184" y2="168.918" gradientUnits="userSpaceOnUse">
<stop stop-color="#FFCBCA"/>
<stop offset="1" stop-color="#E994A8"/>
</linearGradient>
<linearGradient id="paint7_linear_5_344" x1="294.6" y1="138.002" x2="301.734" y2="138.002" gradientUnits="userSpaceOnUse">
<stop stop-color="#FFCBCA"/>
<stop offset="1" stop-color="#E994A8"/>
</linearGradient>
<linearGradient id="paint8_linear_5_344" x1="354.992" y1="180.852" x2="381.501" y2="95.0235" gradientUnits="userSpaceOnUse">
<stop stop-color="#E6832C"/>
<stop offset="1" stop-color="#E9A347"/>
</linearGradient>
<linearGradient id="paint9_linear_5_344" x1="374.465" y1="104.719" x2="366.28" y2="174.051" gradientUnits="userSpaceOnUse">
<stop stop-color="#FFCBCA"/>
<stop offset="1" stop-color="#E994A8"/>
</linearGradient>
<linearGradient id="paint10_linear_5_344" x1="386.222" y1="106.107" x2="378.037" y2="175.439" gradientUnits="userSpaceOnUse">
<stop stop-color="#FFCBCA"/>
<stop offset="1" stop-color="#E994A8"/>
</linearGradient>
<linearGradient id="paint11_linear_5_344" x1="362.398" y1="267.705" x2="368.149" y2="308.515" gradientUnits="userSpaceOnUse">
<stop stop-color="#FFCBCA"/>
<stop offset="1" stop-color="#E994A8"/>
</linearGradient>
<linearGradient id="paint12_linear_5_344" x1="365.214" y1="311.716" x2="365.864" y2="315.403" gradientUnits="userSpaceOnUse">
<stop stop-color="#E6832C"/>
<stop offset="1" stop-color="#E9A347"/>
</linearGradient>
<clipPath id="clip0_5_344">
<rect width="540" height="332.23" fill="white"/>
</clipPath>
</defs>
</svg>
