<svg width="80" height="37" viewBox="0 0 80 37" fill="none" xmlns="http://www.w3.org/2000/svg">
<path d="M66.4823 0.201327L61.2994 0.197021L57.6218 0.876642L57.3304 3.70263L61.5263 3.21658L66.4814 3.22088C71.4447 3.22088 75.4825 7.23404 75.4825 12.1698C75.4825 17.1035 71.4447 21.1166 66.4814 21.1166H63.4162C62.5774 21.1166 61.8977 21.7941 61.8977 22.6264C61.8977 23.4609 62.5774 24.1362 63.4162 24.1362H66.4814C73.1195 24.1362 78.52 18.7681 78.52 12.1698C78.52 5.56942 73.1195 0.201327 66.4823 0.201327Z" fill="white"/>
<path d="M79.9546 33.5756C77.4424 23.5814 75.1815 17.0476 63.8351 13.8582C63.3824 13.7313 62.8958 13.8195 62.5173 14.099C62.1393 14.3765 61.9125 14.8152 61.9035 15.2819L61.8979 15.5766L61.8977 15.6067V22.6265C61.8977 23.4609 62.5773 24.1363 63.4162 24.1363C64.2551 24.1363 64.9351 23.4609 64.9351 22.6265V17.3874C73.3438 20.478 73.9758 25.0073 76.4591 32.4335H69.3697C68.5308 32.4335 67.851 33.1089 67.851 33.9433C67.851 34.7778 68.5308 35.4531 69.3697 35.4531H78.4817C78.9491 35.4531 79.3904 35.238 79.6784 34.8724C79.966 34.5046 80.0681 34.0272 79.9546 33.5756Z" fill="#FF8686"/>
<path d="M59.112 1.09762C58.7166 0.811578 58.2091 0.734158 57.7463 0.886856L57.5467 0.951387C50.5948 3.27197 44.6205 7.7131 40.27 13.7931C35.9403 19.8451 33.6519 26.9079 33.6519 34.218C33.6519 35.0525 34.3317 35.7278 35.1708 35.7278C36.0095 35.7278 36.6896 35.0525 36.6896 34.218C36.6896 21.2537 44.829 9.29599 56.7033 4.48278L59.7407 2.31921C59.7407 1.83531 59.5069 1.38151 59.112 1.09762Z" fill="white"/>
<path d="M32.1723 6.74739C29.9348 4.87415 27.4955 6.98181 29.7356 8.6873C37.1452 14.3242 41.8502 23.0495 42.296 32.7082H35.1708C34.3317 32.7082 33.6519 33.3857 33.6519 34.218C33.6519 35.0524 34.3317 35.7277 35.1708 35.7277H43.8495C44.6884 35.7277 45.3685 35.0524 45.3685 34.218C45.3685 23.2624 40.1883 13.4575 32.1723 6.74739Z" fill="white"/>
<path fill-rule="evenodd" clip-rule="evenodd" d="M56.7651 2.1232C58.3809 1.64145 59.8025 1.99417 59.8025 1.99417V34.1962C59.8025 35.0307 59.1225 35.706 58.2838 35.706H50.234C49.3951 35.706 48.7151 35.0307 48.7151 34.1962V16.0746C48.7151 15.2402 49.3951 14.5649 50.234 14.5649C51.0729 14.5649 51.7528 15.2402 51.7528 16.0746V32.6864H56.7651V2.1232Z" fill="#767AF6"/>
<path d="M58.2881 3.65134C59.1252 3.65134 59.8038 2.97232 59.8038 2.1347C59.8038 1.29708 59.1252 0.618042 58.2881 0.618042C57.451 0.618042 56.7724 1.29708 56.7724 2.1347C56.7724 2.97232 57.451 3.65134 58.2881 3.65134Z" fill="#767AF6"/>
<path fill-rule="evenodd" clip-rule="evenodd" d="M41.7068 27.8735H41.7029C41.2335 25.525 40.5096 23.2582 39.5544 21.1118C39.5553 21.1097 39.5561 21.1075 39.5572 21.1053C40.5135 23.256 41.2382 25.5228 41.7068 27.8735Z" fill="#333333"/>
<path d="M19.3915 36.0805C12.6565 36.0805 7.57776 30.7597 7.57776 23.7012C7.57776 22.8689 8.25738 22.1915 9.09628 22.1915C9.93517 22.1915 10.6152 22.8689 10.6152 23.7012C10.6152 29.0371 14.3882 33.061 19.3915 33.061C23.0471 33.061 27.3161 30.6092 27.3161 23.7012V17.4406C27.3161 16.6062 27.9962 15.9287 28.8351 15.9287C29.674 15.9287 30.3538 16.6062 30.3538 17.4406V23.7012C30.3538 30.9899 25.8458 36.0805 19.3915 36.0805Z" fill="#FF8686"/>
<path d="M12.1825 36.0805C5.44754 36.0805 0.368835 30.7597 0.368835 23.7012C0.368835 22.8689 1.04846 22.1915 1.88735 22.1915C2.72625 22.1915 3.4063 22.8689 3.4063 23.7012C3.4063 29.037 7.17928 33.061 12.1825 33.061C15.8382 33.061 20.1072 30.6092 20.1072 23.7012V16.4083C20.1072 15.5738 20.7873 14.8964 21.6262 14.8964C22.465 14.8964 23.1449 15.5738 23.1449 16.4083V23.7012C23.1449 30.9899 18.6368 36.0805 12.1825 36.0805Z" fill="white"/>
<path d="M34.8432 0.897583H21.6285C20.7927 0.897583 20.1137 1.56859 20.1096 2.39875L20.0034 23.8926C20.0034 29.2134 23.0409 30.9059 23.0409 23.9012L23.1398 3.91711H34.8432C35.6819 3.91711 36.3619 3.24182 36.3619 2.40736C36.3619 1.5729 35.6821 0.897583 34.8432 0.897583Z" fill="white"/>
<path d="M21.6319 11.3004C15.6526 11.3004 10.2259 8.26365 7.11604 3.17946C6.68015 2.46758 6.90776 1.53849 7.62457 1.1062C8.34074 0.671765 9.27549 0.897581 9.71116 1.6116C12.2657 5.78607 16.7221 8.28085 21.6319 8.28085C26.537 8.28085 30.9908 5.79038 33.5462 1.62237C33.9827 0.910495 34.9175 0.684679 35.6334 1.11697C36.3498 1.5514 36.5768 2.48047 36.14 3.19235C33.0286 8.27009 27.605 11.3004 21.6319 11.3004Z" fill="#767AF6"/>
</svg>
