<svg width="24" height="25" viewBox="0 0 24 25" fill="none" xmlns="http://www.w3.org/2000/svg">
<g clip-path="url(#clip0_6_816)">
<path d="M12 2.24357C15.204 2.24357 15.584 2.25557 16.85 2.31357C20.102 2.46157 21.621 4.00457 21.769 7.23257C21.827 8.49757 21.838 8.87757 21.838 12.0816C21.838 15.2866 21.826 15.6656 21.769 16.9306C21.62 20.1556 20.105 21.7016 16.85 21.8496C15.584 21.9076 15.206 21.9196 12 21.9196C8.796 21.9196 8.416 21.9076 7.151 21.8496C3.891 21.7006 2.38 20.1506 2.232 16.9296C2.174 15.6646 2.162 15.2856 2.162 12.0806C2.162 8.87657 2.175 8.49757 2.232 7.23157C2.381 4.00457 3.896 2.46057 7.151 2.31257C8.417 2.25557 8.796 2.24357 12 2.24357ZM12 0.0805664C8.741 0.0805664 8.333 0.0945664 7.053 0.152566C2.695 0.352566 0.273 2.77057 0.073 7.13257C0.014 8.41357 0 8.82157 0 12.0806C0 15.3396 0.014 15.7486 0.072 17.0286C0.272 21.3866 2.69 23.8086 7.052 24.0086C8.333 24.0666 8.741 24.0806 12 24.0806C15.259 24.0806 15.668 24.0666 16.948 24.0086C21.302 23.8086 23.73 21.3906 23.927 17.0286C23.986 15.7486 24 15.3396 24 12.0806C24 8.82157 23.986 8.41357 23.928 7.13357C23.732 2.77957 21.311 0.353566 16.949 0.153566C15.668 0.0945664 15.259 0.0805664 12 0.0805664ZM12 5.91857C8.597 5.91857 5.838 8.67757 5.838 12.0806C5.838 15.4836 8.597 18.2436 12 18.2436C15.403 18.2436 18.162 15.4846 18.162 12.0806C18.162 8.67757 15.403 5.91857 12 5.91857ZM12 16.0806C9.791 16.0806 8 14.2906 8 12.0806C8 9.87157 9.791 8.08057 12 8.08057C14.209 8.08057 16 9.87157 16 12.0806C16 14.2906 14.209 16.0806 12 16.0806ZM18.406 4.23557C17.61 4.23557 16.965 4.88057 16.965 5.67557C16.965 6.47057 17.61 7.11557 18.406 7.11557C19.201 7.11557 19.845 6.47057 19.845 5.67557C19.845 4.88057 19.201 4.23557 18.406 4.23557Z" fill="#BBBDFF"/>
</g>
<defs>
<clipPath id="clip0_6_816">
<rect width="24" height="24" fill="white" transform="translate(0 0.0805664)"/>
</clipPath>
</defs>
</svg>
