<svg width="15" height="20" viewBox="0 0 15 20" fill="none" xmlns="http://www.w3.org/2000/svg">
<path fill-rule="evenodd" clip-rule="evenodd" d="M15 7.5C15 9.04179 14.5348 10.4749 13.737 11.6667H13.75L13.5524 11.9302C13.5202 11.974 13.4876 12.0175 13.4546 12.0606L7.5 20L1.54545 12.0606C1.51238 12.0175 1.47978 11.974 1.44764 11.9302L1.25 11.6667H1.26296C0.465226 10.4749 0 9.04179 0 7.5C0 3.35786 3.35786 0 7.5 0C11.6421 0 15 3.35786 15 7.5ZM7.5 10.8333C9.34095 10.8333 10.8333 9.34095 10.8333 7.5C10.8333 5.65905 9.34095 4.16667 7.5 4.16667C5.65905 4.16667 4.16667 5.65905 4.16667 7.5C4.16667 9.34095 5.65905 10.8333 7.5 10.8333Z" fill="#E5656A"/>
</svg>
