<svg width="505" height="305" viewBox="0 0 505 305" fill="none" xmlns="http://www.w3.org/2000/svg">
<path opacity="0.18" d="M318.171 24.0953C228.035 8.75394 112.975 45.177 113.629 137.225C10.7039 161.514 1.75573 241.408 26.0467 293.172H458.789C510.558 135.305 408.287 39.4367 318.171 24.0953Z" fill="url(#paint0_linear_137_2339)"/>
<path d="M342.906 47.4756H65.1763V244.723H342.906V47.4756Z" fill="black" fill-opacity="0.15"/>
<path d="M350.846 55.0229H73.1168V252.271H350.846V55.0229Z" fill="white"/>
<path d="M343.49 244.913L343.49 62.3896L80.4865 62.3896L80.4865 244.913L343.49 244.913Z" fill="#898DFF"/>
<path d="M343.471 87.6566C343.177 87.6076 342.859 87.5586 342.491 87.5341C337.419 87.2646 331.833 85.4026 331.833 85.4026C326.516 85.1331 330.24 90.9885 324.629 91.258C319.043 91.5275 312.917 89.6655 310.516 92.8505C308.115 96.0355 308.384 100.053 305.199 102.185C302.014 104.316 298.535 102.185 295.619 106.178C292.679 110.172 293.757 113.381 288.954 112.573C284.152 111.764 283.637 108.31 278.026 113.626C272.44 118.943 271.901 122.152 266.56 118.698C261.243 115.243 257.224 109.363 250.584 109.633C243.92 109.902 237.255 111.225 235.932 118.159C234.609 125.092 229.537 128.277 228.729 132.271C227.92 136.264 231.669 139.988 234.045 140.527C236.447 141.066 240.171 147.461 242.033 143.467C243.895 139.474 242.303 135.211 243.626 132.026C244.949 128.841 250.021 129.625 248.428 134.157C246.836 138.69 245.757 139.743 246.566 143.222C247.375 146.677 243.381 152.018 241.249 149.886C239.117 147.755 236.447 145.354 233.531 147.485C230.591 149.617 231.399 148.294 228.214 152.287C225.029 156.28 219.957 154.688 220.496 157.358C221.035 160.029 226.891 163.483 223.951 165.615C221.01 167.746 215.694 165.615 214.885 167.207C214.076 168.8 220.202 172.793 222.089 173.063C223.951 173.332 229.292 169.069 230.346 167.991C231.399 166.938 235.663 164.537 237.28 166.399C238.872 168.261 241.813 163.728 241.813 163.728C241.813 163.728 247.13 157.603 247.13 162.92C247.13 168.236 245.806 169.584 246.86 171.985C247.914 174.386 248.183 178.11 250.045 174.655C251.907 171.201 248.453 167.722 252.716 166.668C256.979 165.615 259.92 160.813 261.782 161.082C263.644 161.352 266.045 163.753 266.584 165.884C267.123 168.016 269.524 170.686 262.86 170.956C256.195 171.225 251.417 170.417 253.28 172.818C255.142 175.219 258.866 174.68 260.214 177.081C261.537 179.482 261.537 178.673 260.753 182.152C259.944 185.607 260.483 185.876 264.207 189.086C267.932 192.271 270.063 196.019 270.063 198.151C270.063 200.282 278.32 201.091 280.452 199.474C282.584 197.881 292.164 197.342 286.847 193.888C281.53 190.433 273.518 190.164 276.997 186.17C280.452 182.177 291.11 187.493 291.919 188.302C292.728 189.11 292.728 190.433 295.374 192.295C298.045 194.157 300.96 193.888 300.96 196.019C300.96 198.151 300.691 201.605 302.553 201.875C304.415 202.144 302.822 207.191 306.816 200.013C310.81 192.81 310.81 191.756 314.534 192.81C318.259 193.863 322.522 194.402 324.654 196.264C326.785 198.126 336.096 194.941 336.905 193.863C337.664 192.859 338.644 192.81 343.471 190.556V87.6566Z" fill="#6569DF"/>
<path d="M275.919 204.202C272.195 203.149 267.932 201.262 265.8 197.269C263.668 193.275 261.267 188.743 257.004 184.749C252.741 180.756 240.22 179.678 238.897 178.625C237.574 177.571 235.173 177.302 235.173 177.302C231.987 174.901 220.52 175.979 216.796 178.894C213.072 181.834 204.815 182.888 206.677 190.335C208.539 197.783 200.282 203.908 207.485 206.848C214.689 209.788 232.796 201.777 233.85 202.585C234.903 203.394 233.041 217.775 236.79 220.691C240.514 223.631 235.467 226.007 235.981 230.809C236.52 235.611 243.43 235.342 244.508 243.868C244.557 244.211 244.606 244.553 244.655 244.872H258.841C263.056 238.674 267.148 230.932 267.148 227.894C267.148 223.361 263.962 221.23 271.141 215.913C278.321 210.597 279.644 205.28 275.919 204.202Z" fill="#6569DF"/>
<path d="M274.841 224.978C274.057 225.076 265.775 227.379 268.177 230.834C270.578 234.288 264.452 243.622 270.039 240.682C275.625 237.743 277.487 236.15 277.487 231.348C277.512 226.571 279.644 224.439 274.841 224.978Z" fill="#6569DF"/>
<path d="M343.471 227.6C342.638 226.424 342.026 225.076 341.388 222.92C339.796 217.604 339.526 214.664 334.993 214.664C333.401 219.736 338.718 226.105 327.79 223.459C316.862 220.789 316.862 218.388 313.677 223.729C310.492 229.045 304.097 227.992 306.743 232.524C309.413 237.057 303.557 239.458 311.545 241.859C319.533 244.26 327.251 237.326 331 243.451C331.294 243.941 331.563 244.431 331.833 244.921H343.471V227.6Z" fill="#6569DF"/>
<path d="M328.696 203.296C323.894 204.349 319.361 209.69 323.625 211.013C327.888 212.336 327.079 214.468 332.151 215.276C337.223 216.085 345.235 204.888 328.696 203.296Z" fill="#6569DF"/>
<path d="M294.908 208.637C289.591 208.637 291.453 218.486 294.908 219.025C298.363 219.564 297.824 208.637 294.908 208.637Z" fill="#6569DF"/>
<path d="M286.651 229.633C286.651 233.7 294.369 237.081 291.723 232.818C289.052 228.58 286.651 227.502 286.651 229.633Z" fill="#6569DF"/>
<path d="M162.108 62.373C161.52 63.745 161.03 65.3375 160.319 67.028C158.457 71.291 149.391 76.8769 148.607 79.5474C147.799 82.2179 143.535 88.8818 151.547 89.6658C159.535 90.4743 162.99 94.9823 164.068 98.4612C165.122 101.916 178.181 109.658 176.049 113.382C173.918 117.106 162.99 113.112 169.924 125.362C176.858 137.612 180.043 146.946 181.366 141.066C182.689 135.211 182.959 129.355 184.552 126.955C186.144 124.554 192.539 122.961 196.803 118.968C201.066 114.974 192.27 120.291 200.796 105.125C209.323 89.9353 206.922 88.8818 206.922 80.6254C206.922 72.369 207.73 71.83 210.646 69.184C212.729 67.2975 218.266 64.3575 219.246 62.3975H162.108V62.373Z" fill="#6569DF"/>
<path d="M232.134 87.853C226.548 84.3985 227.332 82.7815 224.147 87.853C220.961 92.9245 224.686 95.5704 225.2 96.3789C225.739 97.1874 225.2 103.043 227.601 103.582C230.003 104.121 233.188 97.1874 233.188 97.1874C233.188 97.1874 233.996 100.127 236.643 100.372C239.313 100.642 236.912 95.0559 236.643 94.2474C236.373 93.439 235.834 89.4455 238.235 88.931C240.636 88.392 236.912 79.3516 236.104 79.3516C235.295 79.3516 230.787 80.1601 230.787 82.806C230.811 85.452 232.134 87.853 232.134 87.853Z" fill="#6569DF"/>
<path d="M137.655 89.1269C139.787 90.1804 144.858 87.8039 145.103 84.5944C145.373 81.4095 149.097 73.6675 153.361 69.1351C155.541 66.8321 155.909 64.4556 156.35 62.3486H129.496C126.531 66.9056 123.762 70.9971 123.272 70.9971C122.219 70.9971 121.68 80.062 119.548 80.3315C117.416 80.601 116.877 83.2715 115.554 85.1334C114.231 86.9954 113.692 85.6724 111.56 84.08C109.429 82.4875 105.704 81.9485 104.112 81.9485C102.519 81.9485 99.3094 85.6724 98.2558 88.3429C97.2022 91.0134 106.782 95.2764 107.052 97.4078C107.322 99.5393 113.717 101.132 114.256 101.94C114.795 102.749 119.572 112.598 119.327 115.268C119.058 117.939 110.262 117.13 107.346 116.591C104.406 116.052 95.095 112.059 95.095 112.059L86.8379 115.244L80.5409 113.284V134.427C86.1028 137.686 93.5514 150.499 95.095 150.94C96.9572 151.479 96.1486 165.591 96.1486 168.261C96.1486 170.932 103.867 182.912 105.998 183.451C108.13 183.99 110.531 185.852 111.315 186.636C112.124 187.445 116.387 194.893 119.033 196.485C121.704 198.077 129.422 199.425 131.823 200.478C134.225 201.532 138.757 201.017 140.62 201.801C142.482 202.61 143.29 204.741 144.344 207.657C145.398 210.597 141.404 216.452 140.62 219.907C139.811 223.361 142.751 226.84 145.692 232.157C148.166 236.64 147.799 240.928 148.583 244.872H175.535C176.686 241.638 177.226 238.306 180.313 237.204C184.037 235.881 185.115 235.342 183.768 231.618C182.444 227.894 187.492 222.283 189.623 219.907C191.755 217.506 185.899 216.183 181.636 214.59C177.373 212.998 175.241 211.136 173.109 207.657C170.978 204.202 161.128 201.532 159.266 201.532C157.403 201.532 151.817 204.202 148.607 204.717C145.422 205.256 142.751 198.861 141.943 198.323C141.134 197.784 135.817 194.06 128.883 190.336C121.949 186.612 126.212 183.941 133.686 182.888C141.134 181.834 138.218 186.881 140.889 188.743C143.56 190.605 140.62 186.073 142.212 177.302C143.805 168.506 145.937 171.716 147.284 169.315C148.607 166.914 156.35 165.052 157.134 164.782C157.942 164.513 161.936 161.597 160.319 160.789C158.727 159.98 160.858 156.526 161.642 155.717C162.451 154.909 166.959 150.646 166.445 144.79C165.906 138.935 159.241 141.605 156.056 141.605C152.871 141.605 150.984 133.08 145.128 135.481C139.272 137.882 146.182 143.467 146.99 150.67C147.799 157.873 142.727 150.67 140.865 149.347C139.002 148.024 139.811 143.492 128.075 138.151C116.363 132.835 132.068 129.086 133.147 128.033C134.2 126.979 138.733 127.224 138.733 126.44C138.733 125.632 137.924 125.117 139.542 124.039C141.134 122.986 140.865 120.046 140.865 117.375C140.865 114.705 145.667 114.705 147.26 115.244C148.852 115.783 148.313 124.309 149.391 127.494C150.445 130.679 153.385 129.895 157.918 129.895C162.451 129.895 158.188 125.093 158.457 124.309C158.727 123.5 160.858 118.723 159.78 115.244C158.727 111.789 150.2 110.172 147.799 104.856C145.397 99.5393 141.404 99.7843 137.949 103.263C134.494 106.718 129.692 108.065 126.752 105.125C123.811 102.185 120.626 99.2698 120.626 99.2698C120.626 99.2698 127.021 97.1383 130.745 98.4613C134.47 99.7843 133.931 98.7308 137.679 94.7374C141.404 90.7439 132.362 90.2049 133.147 87.2894C133.931 84.3494 135.523 88.0734 137.655 89.1269Z" fill="#6569DF"/>
<g opacity="0.2">
<path d="M45.391 106.189L50.1511 128.251L54.1757 126.453L57.1381 104.248L59.4262 103.86L83.7376 93.2985L92.3793 135.237L96.7717 133.276L98.3857 99.9784L106.21 96.4648L103.514 90.4794L98.733 92.6243L99.019 86.6798L114.464 79.959C120.593 77.2012 132.871 72.2781 130.419 66.8238L130.256 66.4561C127.804 61.0019 115.976 66.9056 109.847 69.6633L94.6675 76.711L89.8461 72.8297L94.6266 70.6847L91.9299 64.6789L84.1053 68.1925L58.1391 47.2743L53.7467 49.2354L79.4882 83.7178L55.4015 94.8918L53.6037 96.3422L35.0127 83.7995L30.988 85.5971L44.3286 103.839L43.3276 104.636C42.5512 105.269 43.1028 106.536 44.1039 106.372L45.391 106.189Z" fill="#1E1E1E"/>
<path d="M50.3758 94.565L27.5149 79.1419L23 81.1643L38.6287 102.511L50.3758 94.565Z" fill="#1E1E1E"/>
<path d="M52.7048 99.7946L49.0887 127.127L44.5533 129.15L38.976 103.288L52.7048 99.7946Z" fill="#1E1E1E"/>
<path d="M94.6 64.339L91.5693 57.5933L78.0023 63.6877L81.033 70.4333L94.6 64.339Z" fill="#1E1E1E"/>
<path d="M96.8739 72.8909L53.522 38L48.578 40.2266L80.857 83.4522L96.8739 72.8909Z" fill="#1E1E1E"/>
<path d="M91.0345 92.6906L94.0652 99.4362L107.632 93.3419L104.601 86.5962L91.0345 92.6906Z" fill="#1E1E1E"/>
<path d="M99.7136 79.2236L96.9965 134.788L92.0729 137.014L81.1838 84.1876L99.7136 79.2236Z" fill="#1E1E1E"/>
<path d="M134.914 59.9805L134.73 59.5719C131.972 53.4231 118.652 60.0622 111.747 63.1672L50.4575 91.6234L36.8922 102.593C36.0137 103.308 36.647 104.738 37.7707 104.534L54.9725 101.674L116.936 74.7499C123.862 71.6653 137.672 66.1293 134.914 59.9805Z" fill="#1E1E1E"/>
<path d="M132.442 61.2879C132.524 61.5534 132.503 61.7986 132.401 62.105C132.299 62.3706 132.136 62.6565 131.931 62.9221L133.423 63.1468C133.525 62.963 133.627 62.7791 133.688 62.5953C133.933 61.9416 133.954 61.3287 133.709 60.7159L132.442 61.2879Z" fill="#1E1E1E"/>
<path d="M130.665 59.8579C130.951 59.8988 131.237 59.96 131.461 60.0418C131.829 60.1848 132.013 60.3482 132.156 60.6546L133.423 60.0826C133.116 59.4289 132.646 58.9999 131.952 58.7344C131.809 58.6731 131.645 58.6322 131.461 58.5914L130.665 59.8579Z" fill="#1E1E1E"/>
<path d="M131.421 63.5554C131.012 64.0048 130.501 64.4542 129.909 64.9036L130.889 65.8842C131.747 65.1896 132.483 64.4951 132.994 63.8005L131.421 63.5554Z" fill="#1E1E1E"/>
<path d="M127.008 58.7752C126.027 58.9795 124.985 59.2655 123.923 59.6128L124.495 60.8997C125.394 60.6137 126.272 60.3686 127.089 60.1848L127.008 58.7752Z" fill="#1E1E1E"/>
<path d="M129.357 65.3122C128.683 65.8024 127.927 66.2723 127.13 66.7626L127.702 68.0495C128.642 67.498 129.541 66.9056 130.338 66.3131L129.357 65.3122Z" fill="#1E1E1E"/>
<path d="M127.784 60.0418C128.54 59.8988 129.255 59.8171 129.868 59.8171L130.726 58.4892C129.847 58.3871 128.806 58.4688 127.682 58.6731L127.784 60.0418Z" fill="#1E1E1E"/>
</g>
<path d="M52.391 110.189L57.1511 132.251L61.1757 130.453L64.1381 108.248L66.4262 107.86L90.7376 97.2986L99.3793 139.237L103.772 137.276L105.386 103.979L113.21 100.465L110.514 94.4795L105.733 96.6245L106.019 90.6799L121.464 83.9591C127.593 81.2014 139.871 76.2782 137.419 70.824L137.256 70.4563C134.804 65.002 122.976 70.9057 116.847 73.6635L101.667 80.7111L96.8461 76.8298L101.627 74.6849L98.9299 68.679L91.1053 72.1926L65.1391 51.2744L60.7467 53.2355L86.4882 87.7179L62.4015 98.892L60.6037 100.342L42.0127 87.7996L37.988 89.5973L51.3286 107.839L50.3276 108.636C49.5512 109.269 50.1028 110.536 51.1039 110.372L52.391 110.189Z" fill="#D4D5FF"/>
<path d="M57.3758 98.5652L34.5149 83.1421L30 85.1645L45.6287 106.512L57.3758 98.5652Z" fill="#C7C9FF"/>
<path d="M59.7048 103.794L56.0887 131.127L51.5533 133.149L45.976 107.288L59.7048 103.794Z" fill="#C7C9FF"/>
<path d="M101.6 68.3389L98.5693 61.5933L85.0023 67.6876L88.033 74.4333L101.6 68.3389Z" fill="#A6A8ED"/>
<path d="M103.874 76.8909L60.522 42L55.578 44.2266L87.857 87.4522L103.874 76.8909Z" fill="#C7C9FF"/>
<path d="M98.0345 96.6904L101.065 103.436L114.632 97.3417L111.601 90.596L98.0345 96.6904Z" fill="#A6A8ED"/>
<path d="M106.714 83.2236L103.996 138.788L99.0729 141.014L88.1838 88.1876L106.714 83.2236Z" fill="#C7C9FF"/>
<path d="M141.914 63.9805L141.73 63.572C138.972 57.4232 125.652 64.0622 118.747 67.1673L57.4575 95.6234L43.8922 106.593C43.0137 107.308 43.647 108.738 44.7707 108.534L61.9725 105.674L123.936 78.75C130.862 75.6653 144.672 70.1294 141.914 63.9805Z" fill="white"/>
<path d="M139.442 65.2878C139.524 65.5534 139.503 65.7985 139.401 66.1049C139.299 66.3705 139.136 66.6565 138.931 66.922L140.423 67.1468C140.525 66.9629 140.627 66.779 140.688 66.5952C140.933 65.9415 140.954 65.3287 140.709 64.7158L139.442 65.2878Z" fill="#A6A8ED"/>
<path d="M137.665 63.8578C137.951 63.8987 138.237 63.96 138.461 64.0417C138.829 64.1847 139.013 64.3481 139.156 64.6545L140.423 64.0825C140.116 63.4289 139.646 62.9999 138.952 62.7343C138.809 62.673 138.645 62.6322 138.461 62.5913L137.665 63.8578Z" fill="#A6A8ED"/>
<path d="M138.421 67.5552C138.012 68.0046 137.501 68.454 136.909 68.9034L137.889 69.884C138.747 69.1894 139.483 68.4949 139.994 67.8003L138.421 67.5552Z" fill="#A6A8ED"/>
<path d="M134.008 62.7754C133.027 62.9797 131.985 63.2657 130.923 63.6129L131.495 64.8999C132.394 64.6139 133.272 64.3688 134.089 64.1849L134.008 62.7754Z" fill="#A6A8ED"/>
<path d="M136.357 69.312C135.683 69.8023 134.927 70.2721 134.13 70.7624L134.702 72.0494C135.642 71.4978 136.541 70.9054 137.338 70.313L136.357 69.312Z" fill="#A6A8ED"/>
<path d="M134.784 64.0418C135.54 63.8988 136.255 63.8171 136.868 63.8171L137.726 62.4893C136.847 62.3871 135.806 62.4689 134.682 62.6731L134.784 64.0418Z" fill="#A6A8ED"/>
<path d="M351.104 207.457C351.104 207.457 341.972 215.628 341.972 216.588C345.588 227.17 347.263 231.746 355.19 238.467C363.117 245.208 362.402 261.55 362.402 261.55H422.996C422.996 261.55 422.506 241.837 427.327 228.375C432.128 214.913 430.369 208.05 430.369 208.05C430.124 207.09 408.553 172.586 407.592 171.381C406.632 170.176 381.871 172.341 381.871 172.341L351.104 207.457Z" fill="#FBA356"/>
<path opacity="0.1" d="M280.152 119.071C278.252 116.189 276.044 114.284 273.871 113.019C269.525 110.487 264.434 109.658 259.578 111.461C254.705 113.174 251.037 117.065 249.085 121.937C247.983 124.349 247.371 127.226 247.532 130.792C247.606 132.991 247.916 135.148 248.634 137.322C248.65 137.411 248.667 137.501 248.745 137.487C253.974 155.162 275.1 166.267 276.839 165.584C278.516 165.003 289.022 142.54 283.104 125.082L283.072 124.903C282.291 122.832 281.292 120.893 280.152 119.071ZM268.538 139.891C264.354 141.387 259.74 138.72 258.223 133.925C256.706 129.129 258.861 124.037 263.044 122.541C267.227 121.045 271.841 123.712 273.342 128.418C274.875 133.303 272.721 138.396 268.538 139.891Z" fill="black"/>
<path d="M299.856 130.129C299.116 127.136 297.742 124.815 296.173 123.019C293.035 119.426 288.6 116.931 283.448 116.628C278.312 116.249 273.521 118.048 269.977 121.251C268.096 122.788 266.504 124.874 265.386 127.79C264.673 129.579 264.194 131.419 264.089 133.421C264.072 133.498 264.055 133.575 264.133 133.592C262.707 149.64 278.386 166.142 280.244 166.219C282.008 166.357 299.753 152.131 300.462 136.009L300.495 135.854C300.506 133.913 300.267 131.999 299.856 130.129ZM281.665 142.64C277.247 142.334 273.909 138.536 274.204 134.147C274.5 129.757 278.311 126.451 282.729 126.756C287.147 127.062 290.485 130.86 290.207 135.172C289.895 139.639 286.083 142.946 281.665 142.64Z" fill="#FF6A85"/>
<path opacity="0.2" d="M160.685 138.387C160.051 136.815 159.123 135.658 158.131 134.801C156.145 133.089 153.538 132.073 150.711 132.307C147.886 132.497 145.417 133.847 143.735 135.864C142.83 136.846 142.125 138.104 141.742 139.778C141.493 140.807 141.374 141.846 141.471 142.944C141.468 142.987 141.465 143.03 141.509 143.033C141.973 151.879 151.783 159.648 152.8 159.547C153.771 159.486 162.33 150.371 161.469 141.54L161.476 141.454C161.332 140.396 161.054 139.373 160.685 138.387ZM151.751 146.603C149.323 146.778 147.212 144.969 147.033 142.557C146.855 140.145 148.674 138.05 151.102 137.875C153.531 137.7 155.641 139.509 155.823 141.878C155.998 144.333 154.179 146.428 151.751 146.603Z" fill="black"/>
<path d="M161.345 139.656C160.734 138.14 159.84 137.025 158.883 136.199C156.969 134.548 154.456 133.569 151.73 133.795C149.007 133.978 146.627 135.279 145.006 137.224C144.134 138.171 143.454 139.383 143.085 140.997C142.844 141.989 142.73 142.99 142.824 144.048C142.821 144.09 142.818 144.132 142.86 144.135C143.308 152.661 152.764 160.151 153.744 160.053C154.68 159.994 162.931 151.207 162.101 142.695L162.107 142.612C161.968 141.593 161.7 140.606 161.345 139.656ZM152.733 147.575C150.392 147.744 148.358 146 148.185 143.675C148.013 141.35 149.767 139.331 152.108 139.162C154.448 138.994 156.483 140.737 156.658 143.02C156.827 145.387 155.074 147.406 152.733 147.575Z" fill="#FBA356"/>
<path opacity="0.2" d="M198.289 88.9727C197.722 87.5666 196.893 86.5319 196.005 85.766C194.229 84.2344 191.898 83.3261 189.369 83.5351C186.843 83.7053 184.635 84.9126 183.131 86.7165C182.322 87.5949 181.691 88.7201 181.348 90.217C181.125 91.1374 181.019 92.0661 181.106 93.0477C181.103 93.0865 181.101 93.1253 181.14 93.1281C181.555 101.039 190.328 107.987 191.238 107.896C192.106 107.841 199.761 99.6898 198.991 91.7929L198.996 91.7153C198.868 90.7697 198.619 89.8546 198.289 88.9727ZM190.299 96.3201C188.128 96.4767 186.24 94.8589 186.08 92.7018C185.921 90.5446 187.548 88.6714 189.719 88.5149C191.891 88.3583 193.779 89.9761 193.941 92.0944C194.098 94.2904 192.471 96.1636 190.299 96.3201Z" fill="black"/>
<path d="M199.289 89.9727C198.722 88.5666 197.893 87.5319 197.005 86.766C195.229 85.2344 192.898 84.3261 190.369 84.5351C187.843 84.7053 185.635 85.9126 184.131 87.7165C183.322 88.5949 182.691 89.7201 182.348 91.217C182.125 92.1374 182.019 93.0661 182.106 94.0477C182.103 94.0865 182.101 94.1253 182.14 94.1281C182.555 102.039 191.328 108.987 192.238 108.896C193.106 108.841 200.761 100.69 199.991 92.7929L199.996 92.7153C199.868 91.7697 199.619 90.8546 199.289 89.9727ZM191.299 97.3201C189.128 97.4767 187.24 95.8589 187.08 93.7018C186.921 91.5446 188.548 89.6714 190.719 89.5149C192.891 89.3583 194.779 90.9761 194.941 93.0944C195.098 95.2904 193.471 97.1636 191.299 97.3201Z" fill="#FBA356"/>
<path opacity="0.2" d="M227.289 179.088C226.722 177.682 225.893 176.647 225.005 175.881C223.229 174.35 220.898 173.441 218.369 173.65C215.843 173.82 213.635 175.028 212.131 176.832C211.322 177.71 210.691 178.835 210.348 180.332C210.125 181.253 210.019 182.181 210.106 183.163C210.103 183.202 210.101 183.241 210.14 183.243C210.555 191.154 219.328 198.102 220.238 198.012C221.106 197.957 228.761 189.805 227.991 181.908L227.996 181.831C227.868 180.885 227.619 179.97 227.289 179.088ZM219.299 186.435C217.128 186.592 215.24 184.974 215.08 182.817C214.921 180.66 216.548 178.787 218.719 178.63C220.891 178.474 222.779 180.091 222.941 182.21C223.098 184.406 221.471 186.279 219.299 186.435Z" fill="black"/>
<path d="M228.289 180.088C227.722 178.682 226.893 177.647 226.005 176.881C224.229 175.35 221.898 174.441 219.369 174.65C216.843 174.82 214.635 176.028 213.131 177.832C212.322 178.71 211.691 179.835 211.348 181.332C211.125 182.253 211.019 183.181 211.106 184.163C211.103 184.202 211.101 184.241 211.14 184.243C211.555 192.154 220.328 199.102 221.238 199.012C222.106 198.957 229.761 190.805 228.991 182.908L228.996 182.831C228.868 181.885 228.619 180.97 228.289 180.088ZM220.299 187.435C218.128 187.592 216.24 185.974 216.08 183.817C215.921 181.66 217.548 179.787 219.719 179.63C221.891 179.474 223.779 181.091 223.941 183.21C224.098 185.406 222.471 187.279 220.299 187.435Z" fill="#FBA356"/>
<path opacity="0.2" d="M322.289 83.088C321.722 81.6819 320.893 80.6471 320.005 79.8813C318.229 78.3496 315.898 77.4414 313.369 77.6503C310.843 77.8205 308.635 79.0278 307.131 80.8317C306.322 81.7101 305.691 82.8353 305.348 84.3323C305.125 85.2526 305.019 86.1814 305.106 87.1629C305.103 87.2017 305.101 87.2405 305.14 87.2433C305.555 95.1538 314.328 102.102 315.238 102.012C316.106 101.957 323.761 93.805 322.991 85.9081L322.996 85.8305C322.868 84.885 322.619 83.9699 322.289 83.088ZM314.299 90.4353C312.128 90.5919 310.24 88.9742 310.08 86.817C309.921 84.6598 311.548 82.7867 313.719 82.6301C315.891 82.4736 317.779 84.0913 317.941 86.2097C318.098 88.4057 316.471 90.2788 314.299 90.4353Z" fill="black"/>
<path d="M323.289 84.088C322.722 82.6819 321.893 81.6471 321.005 80.8813C319.229 79.3496 316.898 78.4414 314.369 78.6503C311.843 78.8205 309.635 80.0278 308.131 81.8317C307.322 82.7101 306.691 83.8353 306.348 85.3323C306.125 86.2526 306.019 87.1814 306.106 88.1629C306.103 88.2017 306.101 88.2405 306.14 88.2433C306.555 96.1538 315.328 103.102 316.238 103.012C317.106 102.957 324.761 94.805 323.991 86.9081L323.996 86.8305C323.868 85.885 323.619 84.9699 323.289 84.088ZM315.299 91.4353C313.128 91.5919 311.24 89.9742 311.08 87.817C310.921 85.6598 312.548 83.7867 314.719 83.6301C316.891 83.4736 318.779 85.0913 318.941 87.2097C319.098 89.4057 317.471 91.2788 315.299 91.4353Z" fill="#FBA356"/>
<path opacity="0.2" d="M335.289 170.088C334.722 168.682 333.893 167.647 333.005 166.881C331.229 165.35 328.898 164.441 326.369 164.65C323.843 164.82 321.635 166.028 320.131 167.832C319.322 168.71 318.691 169.835 318.348 171.332C318.125 172.253 318.019 173.181 318.106 174.163C318.103 174.202 318.101 174.241 318.14 174.243C318.555 182.154 327.328 189.102 328.238 189.012C329.106 188.957 336.761 180.805 335.991 172.908L335.996 172.831C335.868 171.885 335.619 170.97 335.289 170.088ZM327.299 177.435C325.128 177.592 323.24 175.974 323.08 173.817C322.921 171.66 324.548 169.787 326.719 169.63C328.891 169.474 330.779 171.091 330.941 173.21C331.098 175.406 329.471 177.279 327.299 177.435Z" fill="black"/>
<path d="M336.289 171.088C335.722 169.682 334.893 168.647 334.005 167.881C332.229 166.35 329.898 165.441 327.369 165.65C324.843 165.82 322.635 167.028 321.131 168.832C320.322 169.71 319.691 170.835 319.348 172.332C319.125 173.253 319.019 174.181 319.106 175.163C319.103 175.202 319.101 175.241 319.14 175.243C319.555 183.154 328.328 190.102 329.238 190.012C330.106 189.957 337.761 181.805 336.991 173.908L336.996 173.831C336.868 172.885 336.619 171.97 336.289 171.088ZM328.299 178.435C326.128 178.592 324.24 176.974 324.08 174.817C323.921 172.66 325.548 170.787 327.719 170.63C329.891 170.474 331.779 172.091 331.941 174.21C332.098 176.406 330.471 178.279 328.299 178.435Z" fill="#FBA356"/>
<path opacity="0.2" d="M279.289 215.088C278.722 213.682 277.893 212.647 277.005 211.881C275.229 210.35 272.898 209.441 270.369 209.65C267.843 209.82 265.635 211.028 264.131 212.832C263.322 213.71 262.691 214.835 262.348 216.332C262.125 217.253 262.019 218.181 262.106 219.163C262.103 219.202 262.101 219.241 262.14 219.243C262.555 227.154 271.328 234.102 272.238 234.012C273.106 233.957 280.761 225.805 279.991 217.908L279.996 217.831C279.868 216.885 279.619 215.97 279.289 215.088ZM271.299 222.435C269.128 222.592 267.24 220.974 267.08 218.817C266.921 216.66 268.548 214.787 270.719 214.63C272.891 214.474 274.779 216.091 274.941 218.21C275.098 220.406 273.471 222.279 271.299 222.435Z" fill="black"/>
<path d="M280.289 216.088C279.722 214.682 278.893 213.647 278.005 212.881C276.229 211.35 273.898 210.441 271.369 210.65C268.843 210.82 266.635 212.028 265.131 213.832C264.322 214.71 263.691 215.835 263.348 217.332C263.125 218.253 263.019 219.181 263.106 220.163C263.103 220.202 263.101 220.241 263.14 220.243C263.555 228.154 272.328 235.102 273.238 235.012C274.106 234.957 281.761 226.805 280.991 218.908L280.996 218.831C280.868 217.885 280.619 216.97 280.289 216.088ZM272.299 223.435C270.128 223.592 268.24 221.974 268.08 219.817C267.921 217.66 269.548 215.787 271.719 215.63C273.891 215.474 275.779 217.091 275.941 219.21C276.098 221.406 274.471 223.279 272.299 223.435Z" fill="#FBA356"/>
<path d="M364.491 205.358C364.491 205.358 343.508 216.566 342.596 216.516C341.684 216.466 300.23 186.734 300.308 181.836C300.387 176.939 297.28 167.483 294.51 164.794C291.741 162.105 289.665 158.401 289.104 158.56C288.543 158.719 287.036 161.657 286.502 161.628C284.354 161.148 271.076 154.604 268.689 155.008C266.301 155.429 265.751 158.851 268.171 160.986C266.278 165.611 267.224 168.2 268.626 169.382C268.769 173.394 270.829 182.413 274.666 185.16C278.52 187.909 292.722 193.968 293.945 194.95C296.276 198.72 335.199 248.49 344.339 247.713C353.478 246.937 384.039 226.623 384.039 226.623L364.491 205.358Z" fill="#FBBFB4"/>
<path d="M370.773 200.058C361.069 204.652 350.977 209.427 350.977 209.427L381.765 231.516C400.274 222.506 417.353 222.506 421.194 210.133C425.035 197.76 417.823 187.865 416.393 187.505C414.943 187.144 402.215 186.799 400.764 186.979C399.314 187.159 370.773 200.058 370.773 200.058Z" fill="#D78C4C"/>
<path d="M346.651 287.841C349.287 280.63 350.369 268.066 362.402 261.57H422.996C434.049 269.027 434.186 287.841 434.186 287.841H346.651Z" fill="#6569DF"/>
<path d="M466.246 298H18.5898C17.0576 298 15.8318 297.271 15.8318 296.361V289.378C15.8318 288.467 17.0576 287.738 18.5898 287.738H466.266C467.799 287.738 469.024 288.467 469.024 289.378V296.361C469.004 297.259 467.778 298 466.246 298Z" fill="#FFA3B4"/>
<path d="M370.944 92.7189C370.944 92.7189 404.831 55.706 420.672 81.1232C420.672 81.1232 433.106 87.0016 436.675 108.734C440.313 130.979 424.929 146.998 417.554 142.505C412.868 139.61 408.768 147.975 408.768 147.975L370.944 92.7189Z" fill="#312020"/>
<path d="M417.291 77.0635C417.291 77.0635 422.395 59.989 447.509 66.552C447.509 66.552 435.427 64.4846 431.905 68.9673C431.905 68.9673 441.728 65.0275 447.545 68.9714C453.361 72.9153 453.796 85.3949 452.752 89.1048C451.708 92.8147 444.536 103.752 440.079 103.563C435.703 103.39 430.671 99.2632 430.671 99.2632L417.291 77.0635Z" fill="#312020"/>
<path d="M411.169 177.97C409.977 171.169 407.724 163.832 408.743 142.896L407.111 143.165L379.694 147.309C379.694 147.309 379.89 155.832 379.585 163.927C379.451 167.229 378.68 172.988 377.967 178.009C377.222 183.191 382.105 184.626 387.287 185.37C400.971 187.329 409.404 183.705 411.169 177.97Z" fill="#FBBFB4"/>
<path d="M379.775 147.324C379.775 147.324 379.97 155.847 379.666 163.942C394.843 164.19 403.502 150.709 407.192 143.18L379.775 147.324Z" fill="#EA98AA"/>
<path d="M374.368 154.69C374.368 154.69 410.297 156.921 411.337 134.575C412.378 112.228 417.709 97.4435 394.871 95.0608C372.033 92.6781 367.116 100.97 364.947 108.374C362.778 115.779 365.017 153.562 374.368 154.69Z" fill="#FBBFB4"/>
<path d="M378.484 93.7483C378.484 93.7483 387.092 120.441 402.016 125.05C416.939 129.658 423.655 125.871 423.655 125.871C423.655 125.871 412.537 116.169 410.822 99.9495C410.902 99.9649 386.479 81.5544 378.484 93.7483Z" fill="#312020"/>
<path d="M380.889 95.9569C380.889 95.9569 373.257 101.482 371.186 107.075C369.115 112.668 367.782 124.392 364.397 123.826C364.397 123.826 357.811 105.675 366.579 95.9583C375.952 85.6924 380.889 95.9569 380.889 95.9569Z" fill="#312020"/>
<path d="M379.47 96.8493C379.47 96.8493 385.203 124.654 403.805 134.378C403.805 134.378 385.588 116.575 384.754 98.3618C384.016 80.0838 379.47 96.8493 379.47 96.8493Z" fill="#312020"/>
<path d="M112.515 235.572C112.515 235.572 121.005 225.667 113.029 219.364C113.029 219.364 107.204 215.835 102.462 216.13C102.462 216.13 109.188 227.413 107.02 228.534C104.851 229.655 100.441 215.431 100.441 215.431C100.441 215.431 87.1914 214.145 82.9279 216.203C82.9279 216.203 94.2481 225.465 91.8591 226.016C89.4701 226.568 77.2495 217.471 77.2495 217.471C77.2495 217.471 64.9187 219.566 65.5802 227.082C66.2418 234.598 70.4868 236.932 72.3613 236.73C74.2357 236.528 85.1515 232.356 85.3904 233.882C85.6293 235.407 79.0504 240.405 74.4562 240.644C74.4562 240.644 83.1485 250.237 88.9188 247.462C94.6891 244.687 95.1853 240.313 98.7871 238.659C102.389 237.006 105.458 237.024 103.969 238.696C102.481 240.369 95.9571 242.004 93.8989 245.643C91.8407 249.281 89.9846 251.744 95.9755 250.843C101.948 249.943 111.669 245.569 112.092 240.571C112.515 235.572 112.515 235.572 112.515 235.572Z" fill="#4CAFAF"/>
<path d="M71.6262 227.284C71.6262 227.284 105.109 225.998 112.515 235.572C112.515 235.572 114.15 240.479 119.185 244.926L119.976 247.058C119.976 247.058 114.168 240.938 112.092 240.571C112.074 240.571 115.326 228.718 71.6262 227.284Z" fill="#4CAFAF"/>
<path d="M119.185 244.926C119.185 244.926 126.371 250.237 126.867 259.738L125.562 259.848C125.562 259.848 123.265 250.035 119.112 246.194C114.959 242.353 119.185 244.926 119.185 244.926Z" fill="#4CAFAF"/>
<path d="M139.795 223.113C139.795 223.113 126.288 215.542 132.591 205.288C132.591 205.288 137.626 198.985 143.029 197.367C143.029 197.367 140.144 212.675 143.029 213.043C145.914 213.41 145.014 195.75 145.014 195.75C145.014 195.75 159.237 188.914 164.824 189.447C164.824 189.447 156.003 204.406 158.888 204.038C161.773 203.671 171.678 188.547 171.678 188.547C171.678 188.547 186.269 185.845 188.603 194.482C190.937 203.119 187.17 207.456 185.001 207.989C182.833 208.522 168.977 208.357 169.326 210.158C169.694 211.959 179.047 214.844 184.285 213.227C184.285 213.227 178.514 227.45 170.962 226.734C163.39 226.017 161.056 221.331 156.37 220.963C151.684 220.596 148.266 221.864 150.6 223.132C152.934 224.4 160.873 223.536 164.658 226.752C168.444 229.968 171.495 231.953 164.475 233.386C157.455 234.819 144.848 233.919 142.312 228.516C139.795 223.113 139.795 223.113 139.795 223.113Z" fill="#88D0E2"/>
<path d="M181.951 197.166C181.951 197.166 144.132 209.423 139.795 223.095C139.795 223.095 139.978 229.215 136.193 236.253V238.954C136.193 238.954 140.162 229.766 142.312 228.498C142.331 228.516 133.859 216.627 181.951 197.166Z" fill="#4CAFAF"/>
<path d="M136.193 236.253C136.193 236.253 130.367 245.11 133.693 255.897L135.2 255.493C135.2 255.493 133.749 243.622 136.799 237.649C139.831 231.677 136.193 236.253 136.193 236.253Z" fill="#4CAFAF"/>
<path d="M118.312 212.675C118.312 212.675 136.119 202.696 127.813 189.171C127.813 189.171 121.161 180.865 114.049 178.715C114.049 178.715 117.853 198.892 114.049 199.37C110.245 199.848 111.439 176.583 111.439 176.583C111.439 176.583 92.6765 167.56 85.3258 168.277C85.3258 168.277 96.9583 187.977 93.1543 187.517C89.3503 187.039 76.3028 167.1 76.3028 167.1C76.3028 167.1 57.0623 163.535 53.975 174.929C50.8877 186.323 55.8678 192.019 58.7162 192.736C61.5646 193.453 79.8495 193.214 79.3717 195.585C78.8939 197.955 66.5447 201.759 59.6718 199.627C59.6718 199.627 67.2614 218.39 77.24 217.435C87.2186 216.479 90.3059 210.304 96.4805 209.845C102.655 209.367 107.157 211.039 104.07 212.693C100.983 214.347 90.5448 213.245 85.5463 217.471C80.5662 221.716 76.5233 224.326 85.7852 226.219C95.0471 228.111 111.66 226.935 114.986 219.805C118.312 212.675 118.312 212.675 118.312 212.675Z" fill="#88D0E2"/>
<path d="M62.759 178.476C62.759 178.476 112.615 194.629 118.312 212.675C118.312 212.675 118.073 220.742 123.053 230.004V233.569C123.053 233.569 117.834 221.459 114.986 219.805C114.986 219.805 126.141 204.13 62.759 178.476Z" fill="#4CAFAF"/>
<path d="M123.053 230.004C123.053 230.004 130.735 241.674 126.361 255.897L124.376 255.364C124.376 255.364 126.306 239.707 122.281 231.842C118.257 223.959 123.053 230.004 123.053 230.004Z" fill="#4CAFAF"/>
<path d="M127.317 286.715C108.058 286.715 92.4379 271.095 92.4379 251.836H162.196C162.196 271.113 146.576 286.715 127.317 286.715Z" fill="#FBA356"/>
<path opacity="0.4" d="M118.717 286.458C120.132 286.642 121.583 286.734 123.054 286.734C142.312 286.734 157.933 271.113 157.933 251.854H149.259C149.277 269.643 135.954 284.326 118.717 286.458Z" fill="#D78C4C"/>
<path d="M91.9417 288.498H162.674C162.674 286.127 160.744 284.198 158.374 284.198H96.2603C93.8713 284.198 91.9417 286.127 91.9417 288.498Z" fill="#FBA356"/>
<path d="M91.6363 252.916H163.343V251.85H91.6363V252.916Z" fill="#5F9AA8"/>
<defs>
<linearGradient id="paint0_linear_137_2339" x1="14.8086" y1="156.951" x2="472.739" y2="156.951" gradientUnits="userSpaceOnUse">
<stop stop-color="#FFA7B7"/>
<stop offset="1" stop-color="#E31C41"/>
</linearGradient>
</defs>
</svg>
