<svg width="140" height="129" viewBox="0 0 140 129" fill="none" xmlns="http://www.w3.org/2000/svg">
<mask id="mask0_137_3886" style="mask-type:alpha" maskUnits="userSpaceOnUse" x="0" y="0" width="140" height="129">
<path d="M0 64.8019C0 29.4718 28.6407 0.831055 63.9708 0.831055H76.0292C111.359 0.831055 140 29.4718 140 64.8019C140 100.132 111.359 128.773 76.0292 128.773H63.9708C28.6407 128.773 0 100.132 0 64.8019Z" fill="#6268F7"/>
</mask>
<g mask="url(#mask0_137_3886)">
<rect x="7.77774" y="2.91406" width="127.273" height="127.273" rx="63.6364" fill="#EDEDED"/>
<g opacity="0.5">
<path opacity="0.5" d="M65.2525 41.9837C65.2525 41.9837 60.9104 29.1163 52.488 22.6547C51.3678 21.7945 49.7852 22.8221 50.1106 24.1968C50.1151 24.218 50.121 24.2464 50.1255 24.2677C50.7042 26.603 60.3643 34.9435 65.2525 41.9837Z" fill="#989AD9"/>
<path opacity="0.5" d="M66.8675 45.5889C66.8675 45.5889 56.6654 30.5026 43.6247 25.624C42.8293 25.3247 41.9138 25.6869 41.5831 26.4741C41.372 26.9845 41.376 27.7089 41.9523 28.7275C43.4748 31.4346 58.3669 38.5073 66.8675 45.5889Z" fill="#989AD9"/>
</g>
<path d="M47.536 46.6525C47.536 46.6525 46.9719 59.7604 44.4896 59.5051C42.0074 59.2497 46.1908 44.9416 46.1908 44.9416C46.1908 44.9416 35.6195 36.6173 30.8372 35.9959C30.8372 35.9959 35.3157 49.938 32.9723 49.0953C30.6289 48.2527 25.2826 33.9531 25.2826 33.9531C25.2826 33.9531 13.6004 28.9568 9.96377 35.6044C6.32719 42.252 8.65321 46.5163 10.3543 47.376C12.0555 48.2357 23.6943 50.7296 23.0433 52.134C22.3924 53.5469 13.9996 54.1257 9.94642 51.802C9.94642 51.802 12.0034 64.5695 18.4694 65.4207C24.9354 66.2718 27.8082 62.8757 31.792 63.4715C35.7757 64.0673 38.3968 65.7526 36.1923 66.3399C33.9878 66.9272 27.5218 64.7227 23.7377 66.6378C19.9449 68.5529 17.0026 69.5999 22.6007 72.1193C28.1988 74.6388 38.9176 76.307 42.0768 72.3491C42.2157 72.1789 42.3459 72.0087 42.4761 71.8555C42.2591 72.1959 42.0768 72.3491 42.0768 72.3491C43.0142 73.2173 43.9428 76.5454 44.533 79.0733C44.6025 79.4989 44.7326 80.0862 44.9323 80.9033C45.0104 81.2693 45.0625 81.5587 45.1059 81.7715C45.9738 87.3296 42.7972 95.8498 42.7972 95.8498L43.9776 96.4626C48.8553 88.2489 45.696 79.8734 45.696 79.8734C43.8994 73.3876 45.236 68.3997 45.236 68.3997C45.236 68.3997 58.0031 64.7653 54.7311 55.1471C54.7398 55.1471 51.7454 49.0102 47.536 46.6525Z" fill="#BBD3DA"/>
<path opacity="0.5" d="M48.252 74.1648C48.5272 68.3349 58.1882 68.009 58.1882 68.009C58.1882 68.009 66.6107 76.2433 68.4937 76.0695C70.3766 75.8957 62.671 67.6252 62.671 67.6252C66.1473 66.5027 76.1558 68.8563 76.1558 68.8563C76.1558 68.8563 78.0533 80.212 79.8421 79.5746C81.6236 78.9446 77.6477 69.6095 77.6477 69.6095C81.3122 69.8847 85.404 73.1871 85.404 73.1871C90.8501 78.836 83.3183 85.5421 83.3183 85.5421C83.3183 85.5421 84.0642 89.4601 87.4535 93.3998C87.4535 93.3998 88.1777 94.1023 89.0396 95.3842L88.1053 95.5942C87.975 95.3624 87.8374 95.1379 87.6925 94.9207C87.6925 94.9207 87.6925 94.9207 87.6925 94.9134L87.6853 94.9062C87.5911 94.7758 87.4535 94.5875 87.2797 94.363C86.8669 93.8633 86.5845 93.494 86.3962 93.2188C85.1505 91.6472 83.4124 89.6267 82.4782 89.3298C82.4782 89.3298 82.5506 89.1632 82.5868 88.859C82.5506 89.0111 82.5144 89.1704 82.4782 89.3298C81.6309 93.1174 73.737 95.4566 69.0658 95.529C64.3947 95.5942 66.0676 93.9068 68.023 91.3286C69.9783 88.7504 75.1419 88.1855 76.4528 87.0485C77.7636 85.9187 75.4099 85.5928 72.4841 86.4836C69.5583 87.3672 68.7254 90.6768 64.0108 92.1976C59.2962 93.7185 53.6401 85.4697 53.6401 85.4697C57.1888 85.7667 62.7435 82.6236 62.7217 81.4286C62.7 80.2337 53.9008 82.2904 52.4524 82.247C50.9823 82.2108 47.9696 79.9947 48.252 74.1648Z" fill="#A0BEF1"/>
<path opacity="0.3" d="M130.419 77.6957C128.735 71.1884 117.76 73.0895 117.76 73.0895C117.76 73.0895 110.195 84.3667 108.03 84.6093C105.864 84.8519 112.616 73.7119 112.616 73.7119C108.428 73.2556 97.6886 78.2727 97.6886 78.2727C97.6886 78.2727 98.212 91.5312 96.0521 91.2333C93.8923 90.9355 96.1859 79.466 96.1859 79.466C92.1171 80.6402 88.2761 85.3259 88.2761 85.3259C83.4586 92.9769 93.536 98.7753 93.536 98.7753C93.536 98.7753 93.6235 103.373 90.7188 108.618C90.7188 108.618 90.0665 109.585 89.3953 111.235L90.5023 111.247C90.5996 110.951 90.6984 110.665 90.8149 110.392C90.8149 110.392 90.8149 110.392 90.8191 110.386C90.8234 110.38 90.8234 110.38 90.8276 110.374C90.9041 110.206 91.0154 109.965 91.1589 109.667C91.5086 109.008 91.7413 108.524 91.8867 108.174C92.9208 106.107 94.4096 103.422 95.3928 102.863C95.3928 102.863 95.2706 102.686 95.16 102.356C95.2326 102.515 95.3127 102.689 95.3928 102.863C97.2379 106.942 106.698 107.725 111.979 106.702C117.267 105.683 114.986 104.164 112.171 101.716C109.356 99.2679 103.4 99.8406 101.655 98.8684C99.9051 97.9021 102.485 96.9852 106.001 97.2964C109.517 97.6075 111.227 101.143 116.908 101.746C122.578 102.351 127.026 91.7199 127.026 91.7199C123.092 92.8929 116.086 90.6475 115.83 89.2936C115.574 87.9396 125.986 88.1947 127.615 87.8059C129.222 87.4203 132.099 84.2089 130.419 77.6957Z" fill="#439BB2"/>
<path d="M71.0831 111.804L104.129 111.804C105.867 111.804 107.357 110.529 107.672 108.773L111.981 84.6804C112.387 82.4088 110.688 80.3137 108.438 80.3137L75.3926 80.3137C73.6542 80.3137 72.1644 81.5888 71.8508 83.3444L67.5402 107.437C67.1342 109.709 68.8329 111.804 71.0831 111.804Z" fill="#5E61D4"/>
<path d="M69.4721 107.57L73.9287 83.9644C74.2537 82.2443 75.7948 80.9954 77.5928 80.9954L111.619 80.9954C112.333 81.8244 112.691 82.9601 112.473 84.1421L107.953 108.754C107.624 110.547 106.061 111.849 104.237 111.849L73.135 111.849C70.8087 111.849 69.0522 109.797 69.4721 107.57Z" fill="#8285F3"/>
<path d="M77.5454 115.077L83.9021 115.077C85.0354 115.077 85.9545 114.067 85.9545 112.822L85.9545 101.201C85.9545 99.2188 87.4177 97.612 89.2217 97.612L92.5413 97.612C94.3466 97.612 95.8085 99.2188 95.8085 101.201L95.8085 114.216C95.8085 116.441 94.1603 118.242 92.1335 118.227L74.787 118.108C74.787 116.434 76.0225 115.077 77.5454 115.077Z" fill="#5E61D4"/>
<path d="M95.5565 101.461L95.5565 114.277C95.5565 116.363 93.9388 118.069 91.8925 118.216L74.9635 118.11C74.9647 117.832 76.2988 117.327 77.9483 117.327L84.8236 117.327C86.0494 117.327 87.0439 116.333 87.0439 115.107L87.0439 101.461C87.0439 99.5095 88.6264 97.927 90.5778 97.927L92.0215 97.927C93.9741 97.927 95.5565 99.5095 95.5565 101.461Z" fill="#8285F3"/>
<path d="M4.14426 120.422L138.853 120.422C139.476 120.422 139.981 119.917 139.981 119.294C139.981 118.671 139.476 118.165 138.853 118.165L4.14426 118.165C3.521 118.165 3.0146 118.671 3.0146 119.294C3.0146 119.917 3.521 120.422 4.14426 120.422Z" fill="#D4D5FF" fill-opacity="0.8"/>
<path d="M53.2441 115.874L75.0663 112.338C75.1092 112.331 75.1526 112.328 75.196 112.328C76.1154 112.328 76.326 113.615 75.4545 113.908L63.4893 117.93C63.1941 118.029 62.8847 118.079 62.5732 118.079L53.4216 118.079C52.8087 118.079 52.3119 117.583 52.3119 116.97C52.3119 116.425 52.7068 115.961 53.2441 115.874Z" fill="#5E61D4"/>
<path d="M53.1338 65.9262C53.5129 75.0231 53.418 79.9508 50.1015 83.7402C46.7851 87.5309 37.4988 86.5839 37.4988 86.5839C37.4988 86.5839 36.5827 99.9754 23.601 100.544C10.619 101.112 8.75546 83.8668 18.9261 79.4444C28.608 75.2349 31.6869 74.0116 35.0349 63.589C38.0937 54.0661 47.6379 55.8811 49.9121 59.8616C52.1862 63.841 53.1338 65.9262 53.1338 65.9262Z" fill="#161836"/>
<path d="M48.8697 112.358C48.8697 112.358 54.9973 113.558 55.3132 113.495C55.6291 113.432 62.3254 110.463 63.0202 110.904C63.7152 111.346 67.7582 113.053 68.6426 113.432C69.5269 113.81 68.1371 113.937 67.4423 113.937C66.7474 113.937 62.7676 112.295 62.3254 112.61C61.8831 112.926 65.7998 113.558 65.7998 113.81C65.7998 114.063 55.3132 116.464 54.6816 116.464C54.0498 116.464 49.1856 116.022 49.1856 116.022L48.8697 112.358Z" fill="#F3B5AA"/>
<path d="M43.7843 78.8918C47.0852 79.5394 49.0277 83.0331 49.6594 86.0922C50.2911 89.1525 43.7843 78.8918 43.7843 78.8918Z" fill="#E0526C"/>
<path d="M38.2568 76.5383C38.2568 76.5383 31.9081 80.8025 28.4967 82.8877C25.0855 84.9717 29.7286 107.43 30.8657 115.768C32.0028 124.107 51.7125 116.527 51.7125 116.527C51.7125 116.527 50.3859 109.514 52.0914 98.2379C53.3132 90.1611 48.8381 85.0983 46.2797 81.5925C39.8224 72.7439 38.2568 76.5383 38.2568 76.5383Z" fill="#FF6D87"/>
<path d="M32.0028 82.9819C39.2992 91.8901 41.7655 93.5553 39.9625 99.5652C38.5412 104.303 38.0673 106.008 37.783 107.62C37.4988 109.231 51.3334 106.577 51.3334 106.577L51.2387 111.789C51.2387 111.789 40.3415 117.001 35.035 118.043C29.7286 119.086 26.4121 117.854 26.4121 117.854L32.0028 82.9819Z" fill="#E0526C"/>
<path d="M40.5941 67.5685L37.3092 77.2971C37.3092 77.2971 40.91 87.0575 43.9423 84.8773C44.9775 84.1335 43.5632 78.2442 43.5632 78.2442L45.7742 70.3476L40.5941 67.5685Z" fill="#FBBFB4"/>
<path d="M30.1075 82.6034C25.5714 83.1073 25.1801 89.2365 23.0955 99.4703C21.0108 109.704 21.6373 116.459 22.6217 117.759C24.9906 120.886 51.6176 109.989 54.9343 110.084C57.2232 110.148 55.3132 106.293 55.3132 106.293L29.918 110.178C29.918 110.178 33.5189 98.3334 33.5189 92.2688C33.5189 86.2042 31.8132 82.4135 30.1075 82.6034Z" fill="#FBBFB4"/>
<path d="M53.7024 106.482C56.3556 105.819 60.2407 104.303 60.9987 104.966C61.7568 105.63 64.8838 110.367 65.9262 111.694C66.9684 113.021 65.4524 111.978 64.3153 110.936C63.1783 109.894 62.2306 109.325 62.2306 109.325C62.2306 109.325 60.8093 110.652 59.4826 111.409C58.156 112.168 57.6823 110.652 55.4081 110.272C53.1338 109.894 47.4484 111.884 47.4484 111.884L53.7024 106.482Z" fill="#FBBFB4"/>
<path d="M30.6129 81.8448C27.8333 81.9714 25.6855 84.3087 24.9275 87.9094C24.1694 91.5102 21.9583 102.944 21.9583 102.944C21.9583 102.944 21.5162 103.261 26.1277 104.082C30.7393 104.903 34.5296 103.956 34.5296 103.956C34.5296 103.956 35.4772 97.4482 35.2244 92.9637C34.9718 88.4779 33.961 84.2454 32.3186 82.7931C30.6761 81.3397 30.6129 81.8448 30.6129 81.8448Z" fill="#FF6D87"/>
<path d="M43.5632 78.2439L45.7742 70.3473L40.5941 67.5682L39.8029 69.9115C39.6308 77.757 41.6403 80.3803 42.9946 81.3395C43.4177 81.639 43.7814 81.4077 44.0863 80.9183C43.8638 79.4965 43.5632 78.2439 43.5632 78.2439Z" fill="#F3B5AA"/>
<path d="M54.0815 68.4853C54.0815 72.7105 53.577 77.8926 49.9121 77.7708C44.2266 77.5822 40.6439 73.1621 40.6439 68.9357C40.6439 64.7092 43.6166 61.2825 47.2836 61.2825C50.9505 61.2825 54.0815 64.2588 54.0815 68.4853Z" fill="#FBBFB4"/>
<path d="M47.8273 59.8142C51.8546 59.5293 54.2393 63.2092 54.9343 66.4314C55.4356 68.7564 55.1869 69.2105 55.1869 69.2105C55.1869 69.2105 54.7446 69.8423 51.5861 70.0322C48.4274 70.2221 48.0485 70.1588 48.0485 70.1588L47.859 66.4947L46.9113 70.0322C46.9113 70.0322 46.406 70.7273 44.4477 69.779C42.4893 68.8319 41.6048 65.673 41.6048 65.673C41.6048 65.673 41.1627 63.589 42.6789 62.1989C44.1949 60.8087 47.8273 59.8142 47.8273 59.8142Z" fill="#161836"/>
<path d="M12.23 86.3506L12.216 86.3506C12.1357 86.3421 12.0769 86.2715 12.0845 86.1911C12.2505 84.454 13.1188 82.6682 14.5295 81.1624C16.1245 79.4607 18.3945 78.1192 21.094 77.2841C27.1092 75.4241 32.3566 73.0589 35.6541 62.9127C35.679 62.836 35.7614 62.7934 35.8382 62.8189C35.9149 62.8433 35.9569 62.926 35.932 63.0027C34.4165 67.665 32.3537 71.0601 29.6259 73.3814C27.2199 75.4289 24.5095 76.533 21.1803 77.5629C18.5293 78.3833 16.3031 79.6968 14.7426 81.3621C13.3758 82.8204 12.5352 84.5453 12.3753 86.2191C12.368 86.2946 12.3045 86.3506 12.23 86.3506Z" fill="#161836"/>
<path d="M14.9464 79.3384C14.9028 79.3384 14.8596 79.3189 14.8309 79.2812C14.7814 79.2179 14.793 79.1266 14.8568 79.0767C14.8824 79.0572 17.4526 77.0888 21.1689 76.2696C28.3036 74.698 33.0937 70.407 35.0212 63.8628C35.0441 63.7861 35.125 63.7411 35.2026 63.7642C35.28 63.7873 35.3243 63.8689 35.3015 63.9456C34.1108 67.9883 31.8706 71.1788 28.6434 73.4284C26.5652 74.8782 24.0716 75.9299 21.2317 76.5556C17.5825 77.359 15.0607 79.2885 15.0358 79.3079C15.0092 79.3286 14.9776 79.3384 14.9464 79.3384Z" fill="#161836"/>
</g>
<path d="M27.6337 106.009C23.0976 106.513 24.6941 94.7701 22.6094 105.004C20.5247 115.238 21.0325 117.262 22.0169 118.562C24.3858 121.689 51.0128 110.792 54.3294 110.887C56.6183 110.951 54.7084 107.096 54.7084 107.096L29.3132 110.98C29.3132 110.98 27.6337 113.581 27.6337 107.516C27.6337 101.451 29.3394 105.819 27.6337 106.009Z" fill="#FBBFB4"/>
<path d="M72.9748 42.9302L125.87 42.9302C126.447 42.9302 126.913 42.4638 126.913 41.8865L126.913 19.1248C126.913 18.5498 126.447 18.0834 125.87 18.0834L72.9748 18.0834C72.3975 18.0834 71.9311 18.5498 71.9311 19.1248L71.9311 41.8865C71.9311 42.4638 72.3975 42.9302 72.9748 42.9302Z" fill="#AFB2FF"/>
<path d="M74.2765 41.7651L124.568 41.7651C125.032 41.7651 125.41 41.3871 125.41 40.9229L125.41 25.4534C125.41 24.9893 125.032 24.6112 124.568 24.6112L74.2765 24.6112C73.8124 24.6112 73.4343 24.9893 73.4343 25.4534L73.4343 40.9229C73.4343 41.3871 73.8124 41.7651 74.2765 41.7651Z" fill="#EAEAFF"/>
<path d="M122.958 21.8511L124.178 21.8511C124.436 21.8511 124.647 21.6405 124.647 21.3824L124.647 20.3772C124.647 20.1214 124.436 19.9108 124.178 19.9108L122.958 19.9108C122.702 19.9108 122.492 20.1214 122.492 20.3772L122.492 21.3824C122.492 21.6405 122.702 21.8511 122.958 21.8511Z" fill="#EAEAFF"/>
<path d="M119.044 21.8511L120.264 21.8511C120.52 21.8511 120.73 21.6405 120.73 21.3824L120.73 20.3772C120.73 20.1214 120.52 19.9108 120.264 19.9108L119.044 19.9108C118.786 19.9108 118.575 20.1214 118.575 20.3772L118.575 21.3824C118.575 21.6405 118.786 21.8511 119.044 21.8511Z" fill="#EAEAFF"/>
<path d="M115.127 21.8511L116.347 21.8511C116.605 21.8511 116.814 21.6405 116.814 21.3824L116.814 20.3772C116.814 20.1214 116.605 19.9108 116.347 19.9108L115.127 19.9108C114.869 19.9108 114.658 20.1214 114.658 20.3772L114.658 21.3824C114.658 21.6405 114.869 21.8511 115.127 21.8511Z" fill="#EAEAFF"/>
<path d="M75.5488 28.3711L103.042 28.3711C103.493 28.3711 103.864 27.9998 103.864 27.5493C103.864 27.0965 103.493 26.7252 103.042 26.7252L75.5488 26.7252C75.096 26.7252 74.727 27.0965 74.727 27.5493C74.727 27.9998 75.096 28.3711 75.5488 28.3711Z" fill="#AFB2FF"/>
<path d="M96.2277 41.0581L123.719 41.0581C124.172 41.0581 124.543 40.6891 124.543 40.2363C124.543 39.7835 124.172 39.4145 123.719 39.4145L96.2277 39.4145C95.7749 39.4145 95.4059 39.7835 95.4059 40.2363C95.4059 40.6891 95.7749 41.0581 96.2277 41.0581Z" fill="#AFB2FF"/>
<path d="M91.1633 41.0581L94.0068 41.0581C94.163 41.0581 94.2876 40.9336 94.2876 40.7774L94.2876 39.6952C94.2876 39.5413 94.163 39.4145 94.0068 39.4145L91.1633 39.4145C91.0071 39.4145 90.8826 39.5413 90.8826 39.6952L90.8826 40.7774C90.8826 40.9336 91.0071 41.0581 91.1633 41.0581Z" fill="#AFB2FF"/>
<path d="M86.8754 41.0581L89.7189 41.0581C89.8728 41.0581 89.9996 40.9336 89.9996 40.7774L89.9996 39.6952C89.9996 39.5413 89.8728 39.4145 89.7189 39.4145L86.8754 39.4145C86.7191 39.4145 86.5924 39.5413 86.5924 39.6952L86.5924 40.7774C86.5924 40.9336 86.7191 41.0581 86.8754 41.0581Z" fill="#AFB2FF"/>
<path d="M75.2862 31.9551L120.812 31.9551C121.118 31.9551 121.369 31.7038 121.369 31.3959C121.369 31.0903 121.118 30.839 120.812 30.839L75.2862 30.839C74.9783 30.839 74.7271 31.0903 74.7271 31.3959C74.7271 31.7038 74.9783 31.9551 75.2862 31.9551Z" fill="#AFB2FF"/>
<path d="M75.2862 34.3613L120.812 34.3613C121.118 34.3613 121.369 34.11 121.369 33.8044C121.369 33.4965 121.118 33.2452 120.812 33.2452L75.2862 33.2452C74.9783 33.2452 74.7271 33.4965 74.7271 33.8044C74.7271 34.11 74.9783 34.3613 75.2862 34.3613Z" fill="#AFB2FF"/>
<path d="M60.5502 60.376L113.447 60.376C114.022 60.376 114.489 59.9096 114.489 59.3346L114.489 36.5706C114.489 35.9956 114.022 35.5292 113.447 35.5292L60.5502 35.5292C59.9752 35.5292 59.5066 35.9956 59.5066 36.5706L59.5066 59.3346C59.5066 59.9096 59.9752 60.376 60.5502 60.376Z" fill="#AFB2FF"/>
<path d="M61.852 59.2114L112.143 59.2114C112.61 59.2114 112.986 58.8333 112.986 58.3692L112.986 42.8997C112.986 42.4356 112.61 42.0575 112.143 42.0575L61.852 42.0575C61.3879 42.0575 61.0098 42.4356 61.0098 42.8997L61.0098 58.3692C61.0098 58.8333 61.3879 59.2114 61.852 59.2114Z" fill="#EAEAFF"/>
<path d="M110.536 39.2964L111.756 39.2964C112.014 39.2964 112.222 39.0858 112.222 38.83L112.222 37.8248C112.222 37.5667 112.014 37.3562 111.756 37.3562L110.536 37.3562C110.278 37.3562 110.069 37.5667 110.069 37.8248L110.069 38.83C110.069 39.0858 110.278 39.2964 110.536 39.2964Z" fill="#EAEAFF"/>
<path d="M106.619 39.2964L107.839 39.2964C108.098 39.2964 108.306 39.0858 108.306 38.83L108.306 37.8248C108.306 37.5667 108.098 37.3562 107.839 37.3562L106.619 37.3562C106.361 37.3562 106.153 37.5667 106.153 37.8248L106.153 38.83C106.153 39.0858 106.361 39.2964 106.619 39.2964Z" fill="#EAEAFF"/>
<path d="M102.703 39.2964L103.923 39.2964C104.181 39.2964 104.389 39.0858 104.389 38.83L104.389 37.8248C104.389 37.5667 104.181 37.3562 103.923 37.3562L102.703 37.3562C102.444 37.3562 102.236 37.5667 102.236 37.8248L102.236 38.83C102.236 39.0858 102.444 39.2964 102.703 39.2964Z" fill="#EAEAFF"/>
<path d="M63.1266 45.8169L90.6177 45.8169C91.0705 45.8169 91.4395 45.4456 91.4395 44.9951C91.4395 44.5423 91.0705 44.171 90.6177 44.171L63.1266 44.171C62.6738 44.171 62.3025 44.5423 62.3025 44.9951C62.3025 45.4456 62.6738 45.8169 63.1266 45.8169Z" fill="#AFB2FF"/>
<path d="M83.8031 58.5039L111.296 58.5039C111.747 58.5039 112.118 58.1349 112.118 57.6821C112.118 57.2316 111.747 56.8603 111.296 56.8603L83.8031 56.8603C83.3504 56.8603 82.9813 57.2316 82.9813 57.6821C82.9813 58.1349 83.3504 58.5039 83.8031 58.5039Z" fill="#AFB2FF"/>
<path d="M78.7388 58.5039L81.5846 58.5039C81.7385 58.5039 81.8653 58.3794 81.8653 58.2232L81.8653 57.141C81.8653 56.9871 81.7385 56.8603 81.5846 56.8603L78.7388 56.8603C78.5848 56.8603 78.458 56.9871 78.458 57.141L78.458 58.2232C78.458 58.3794 78.5848 58.5039 78.7388 58.5039Z" fill="#AFB2FF"/>
<path d="M74.4508 58.5039L77.2944 58.5039C77.4506 58.5039 77.5774 58.3794 77.5774 58.2232L77.5774 57.141C77.5774 56.9871 77.4506 56.8603 77.2944 56.8603L74.4508 56.8603C74.2969 56.8603 74.1702 56.9871 74.1702 57.141L74.1702 58.2232C74.1702 58.3794 74.2969 58.5039 74.4508 58.5039Z" fill="#AFB2FF"/>
<path d="M62.8617 49.4009L108.387 49.4009C108.695 49.4009 108.947 49.1496 108.947 48.8417C108.947 48.536 108.695 48.2848 108.387 48.2848L62.8617 48.2848C62.5538 48.2848 62.3025 48.536 62.3025 48.8417C62.3025 49.1496 62.5538 49.4009 62.8617 49.4009Z" fill="#AFB2FF"/>
<path d="M62.8617 51.8091L108.387 51.8091C108.695 51.8091 108.947 51.5578 108.947 51.2499C108.947 50.942 108.695 50.693 108.387 50.693L62.8617 50.693C62.5538 50.693 62.3025 50.942 62.3025 51.2499C62.3025 51.5578 62.5538 51.8091 62.8617 51.8091Z" fill="#AFB2FF"/>
</svg>
