<svg width="357" height="316" viewBox="0 0 357 316" fill="none" xmlns="http://www.w3.org/2000/svg">
<mask id="mask0_69_894" style="mask-type:alpha" maskUnits="userSpaceOnUse" x="0" y="0" width="314" height="314">
<rect width="313.314" height="313.314" rx="156.657" fill="#6268F7"/>
</mask>
<g mask="url(#mask0_69_894)">
<rect width="313.314" height="313.314" rx="156.657" fill="#F6F6F6"/>
<path d="M162.701 156.893L150.057 307.233C150.057 307.233 148.735 316.066 155.505 316.088C166.647 316.111 210.969 316.245 210.969 316.245C210.969 316.245 202.584 314.474 202.674 310.215C202.786 305.193 217.448 155.481 217.448 155.481L162.701 156.893Z" fill="#596A7F"/>
<path d="M159.204 313.623C170.054 313.757 212.403 313.623 214.6 313.623C213.771 313.623 207.404 313.466 206.507 308.668C206.44 308.287 206.395 307.884 206.395 307.458C206.395 306.516 206.91 300.575 207.74 291.518C208.48 283.38 209.489 272.753 210.632 260.984C215.004 215.384 221.169 152.746 221.169 152.746L166.4 154.159L157.41 260.984L155.661 281.833L154.092 300.597L153.756 304.498C153.756 304.498 152.209 313.533 159.204 313.623Z" fill="#C1CCDB"/>
<path d="M29.6914 75.0879L60.4722 198.794L64.687 215.743L79.0349 273.359H345.526L292.662 75.0879H29.6914Z" fill="#C1CCDB"/>
<path d="M29.6911 75.0879L25.4092 76.5003L73.3627 277.663L79.0346 273.359L29.6911 75.0879Z" fill="#728398"/>
<path d="M73.3625 277.663H338.217L345.525 273.359H79.0345L73.3625 277.663Z" fill="#728398"/>
<path d="M31.6863 77.7109L69.6859 234.44H331.962L289.389 77.7109H31.6863Z" fill="#EDEDED"/>
<path d="M85.6926 183.504C130.956 175.994 140.843 137.927 223.724 161.669C260.356 172.161 286.967 156.624 305.239 136.044L289.389 77.7332H31.686L61.5701 200.991C67.3317 191.867 75.1334 185.253 85.6926 183.504Z" fill="white"/>
</g>
<mask id="mask1_69_894" style="mask-type:luminance" maskUnits="userSpaceOnUse" x="122" y="67" width="228" height="121">
<path d="M122.083 96.9626L274.718 83.6691L344.017 67.1713L349.5 87.9995L339 98.9998L288.616 119.88L308.019 174.302L152.675 187.832L122.083 96.9626Z" fill="white"/>
</mask>
<g mask="url(#mask1_69_894)">
<path d="M134.75 87.684L153.694 121.475L154.124 121.344L200.71 107.667C200.71 107.667 178.359 108.504 175.803 106.96C173.401 105.497 147.546 87.5997 140.575 86.5211C140.141 86.4519 139.794 86.4554 139.518 86.5195C134.75 87.684 134.75 87.684 134.75 87.684Z" fill="#8C90F6"/>
<path d="M152.874 128.959C154.003 129.021 157.348 129.171 161.933 129.28C175.111 129.591 198.478 129.67 208.439 127.13C217.365 124.854 264.565 112.702 297.176 104.015C287.714 94.9123 276.949 90.9798 267.404 89.5366C229.392 99.4966 179.68 112.616 173.437 114.819C163.155 118.43 149.403 122.438 149.403 122.438C149.403 122.438 149.352 122.777 149.332 123.314C149.282 125.044 149.551 128.753 152.874 128.959Z" fill="#E58638"/>
<path d="M152.873 128.959C154.003 129.021 157.347 129.171 161.932 129.28C175.111 129.591 198.478 129.67 208.438 127.13C217.365 124.854 264.565 112.702 297.176 104.016C313.547 99.6598 326.247 96.1589 328.561 95.2348C335.491 92.4639 349.563 84.6022 347.444 81.7765C345.325 78.9507 339.476 79.5404 337.581 78.6752C337.553 78.6643 337.526 78.6533 337.498 78.6423C337.052 78.4403 336.327 78.1021 335.292 77.7374C331.581 76.4551 323.964 74.8708 311.594 78.0085C311.594 78.0085 291.93 83.1061 267.404 89.5368C229.392 99.4968 179.68 112.616 173.437 114.819C163.155 118.431 149.402 122.438 149.402 122.438C149.402 122.438 149.352 122.777 149.331 123.314C149.281 125.044 149.551 128.753 152.873 128.959Z" fill="#C9CBFF"/>
<path d="M152.873 128.958C153.99 129.035 157.347 129.171 161.932 129.28C162.751 124.245 167.26 121.323 167.26 121.323L149.343 123.299C149.281 125.043 149.551 128.753 152.873 128.958Z" fill="#8C90F6"/>
<path d="M279.892 93.4398C280.18 93.3612 280.489 93.5349 280.569 93.8357L280.712 94.3986C280.79 94.6861 280.617 94.9956 280.316 95.0753C280.028 95.1538 279.719 94.9801 279.639 94.6793L279.496 94.1164C279.431 93.8278 279.605 93.5183 279.892 93.4398Z" fill="#A1A3DC"/>
<path d="M274.532 94.8699C274.819 94.7914 275.128 94.9651 275.208 95.2659L275.351 95.8288C275.429 96.1163 275.256 96.4257 274.955 96.5054C274.667 96.584 274.358 96.4103 274.278 96.1095L274.136 95.5466C274.069 95.2447 274.244 94.9485 274.532 94.8699Z" fill="#A1A3DC"/>
<path d="M282.639 92.7185C282.927 92.6399 283.236 92.8137 283.316 93.1145L283.459 93.6773C283.537 93.9648 283.363 94.2743 283.063 94.354C282.775 94.4326 282.466 94.2588 282.386 93.9581L282.243 93.3952C282.164 93.0944 282.338 92.7982 282.639 92.7185Z" fill="#A1A3DC"/>
<path d="M285.371 91.9861C285.659 91.9076 285.968 92.0813 286.048 92.3821L286.19 92.945C286.269 93.2325 286.095 93.5419 285.795 93.6217C285.507 93.7002 285.198 93.5265 285.118 93.2257L284.975 92.6628C284.91 92.3742 285.084 92.0647 285.371 91.9861Z" fill="#A1A3DC"/>
<path d="M288.118 91.2649C288.406 91.1864 288.715 91.3601 288.795 91.6609L288.938 92.2238C289.016 92.5113 288.842 92.8207 288.542 92.9005C288.254 92.979 287.945 92.8053 287.865 92.5045L287.722 91.9416C287.656 91.6397 287.831 91.3435 288.118 91.2649Z" fill="#A1A3DC"/>
<path d="M290.865 90.5439C291.153 90.4654 291.462 90.6391 291.542 90.9399L291.685 91.5028C291.763 91.7903 291.589 92.0997 291.289 92.1795C291.001 92.258 290.692 92.0843 290.612 91.7835L290.469 91.2206C290.39 90.9198 290.563 90.6104 290.865 90.5439Z" fill="#A1A3DC"/>
<path d="M293.598 89.8111C293.885 89.7325 294.195 89.9063 294.274 90.207L294.417 90.7699C294.496 91.0574 294.322 91.3669 294.021 91.4466C293.734 91.5252 293.424 91.3514 293.344 91.0506L293.202 90.4878C293.135 90.1858 293.31 89.8896 293.598 89.8111Z" fill="#A1A3DC"/>
<path d="M296.343 89.0901C296.631 89.0116 296.94 89.1853 297.02 89.4861L297.163 90.0489C297.241 90.3364 297.068 90.6459 296.767 90.7256C296.479 90.8042 296.17 90.6304 296.09 90.3297L295.947 89.7668C295.868 89.466 296.056 89.1687 296.343 89.0901Z" fill="#A1A3DC"/>
<path d="M299.089 88.3564C299.377 88.2779 299.686 88.4516 299.766 88.7524L299.909 89.3153C299.987 89.6028 299.814 89.9122 299.513 89.992C299.225 90.0705 298.916 89.8968 298.836 89.596L298.693 89.0331C298.615 88.7456 298.789 88.4362 299.089 88.3564Z" fill="#A1A3DC"/>
<path d="M301.824 87.6365C302.112 87.558 302.421 87.7317 302.501 88.0325L302.644 88.5954C302.722 88.8829 302.548 89.1923 302.248 89.272C301.96 89.3506 301.651 89.1769 301.571 88.8761L301.428 88.3132C301.362 88.0113 301.537 87.7151 301.824 87.6365Z" fill="#A1A3DC"/>
<path d="M304.517 86.9199C304.804 86.8414 305.114 87.0151 305.193 87.3159L305.336 87.8787C305.415 88.1662 305.241 88.4757 304.94 88.5554C304.653 88.634 304.343 88.4603 304.263 88.1595L304.121 87.5966C304.041 87.2958 304.216 86.9996 304.517 86.9199Z" fill="#A1A3DC"/>
<path d="M307.25 86.1871C307.538 86.1085 307.847 86.2822 307.927 86.583L308.07 87.1459C308.148 87.4334 307.974 87.7429 307.674 87.8226C307.386 87.9011 307.077 87.7274 306.997 87.4266L306.854 86.8637C306.789 86.5751 306.963 86.2656 307.25 86.1871Z" fill="#A1A3DC"/>
<path d="M309.997 85.4661C310.284 85.3875 310.594 85.5612 310.673 85.862L310.816 86.4249C310.895 86.7124 310.721 87.0219 310.42 87.1016C310.133 87.1801 309.823 87.0064 309.743 86.7056L309.601 86.1427C309.521 85.842 309.696 85.5458 309.997 85.4661Z" fill="#A1A3DC"/>
<path d="M332.349 78.9706L335.294 77.7509C336.329 78.1156 337.067 78.4527 337.5 78.6559L332.994 80.5334C332.903 80.568 332.825 80.5882 332.732 80.5963C332.387 80.6264 332.034 80.4163 331.897 80.0803C331.725 79.6404 331.924 79.1549 332.349 78.9706Z" fill="#A1A3DC"/>
<path d="M261.548 102.637C261.614 102.631 261.667 102.626 261.733 102.607L262.57 102.387C262.844 102.31 263.084 102.142 263.222 101.889C263.361 101.636 263.403 101.351 263.339 101.076L262.42 97.5971C262.263 97.0221 261.671 96.6724 261.096 96.8295L260.259 97.0495C259.984 97.1269 259.745 97.295 259.606 97.5479C259.468 97.8008 259.426 98.0854 259.49 98.3608L260.408 101.84C260.547 102.363 261.043 102.681 261.548 102.637ZM261.712 102.529C261.176 102.669 260.64 102.355 260.5 101.818L259.583 98.3527C259.521 98.1038 259.551 97.8336 259.691 97.594C259.818 97.3689 260.044 97.202 260.292 97.1269L261.129 96.9068C261.652 96.7676 262.201 97.081 262.342 97.6173L263.26 101.096C263.322 101.345 263.292 101.615 263.152 101.855C263.025 102.08 262.798 102.247 262.551 102.322L261.712 102.529Z" fill="#A1A3DC"/>
<path d="M256.109 104.087C256.176 104.081 256.229 104.076 256.294 104.057L257.131 103.837C257.706 103.68 258.043 103.089 257.899 102.513L256.98 99.0339C256.823 98.4589 256.231 98.1091 255.656 98.2663L254.819 98.4863C254.244 98.6434 253.907 99.2347 254.051 99.8108L254.969 103.29C255.108 103.799 255.591 104.132 256.109 104.087ZM256.273 103.966C255.75 104.105 255.2 103.791 255.06 103.255L254.142 99.7762C254.002 99.2531 254.316 98.7041 254.852 98.5637L255.689 98.3436C256.212 98.2044 256.761 98.5178 256.902 99.0541L257.82 102.533C257.959 103.056 257.646 103.605 257.11 103.745L256.273 103.966Z" fill="#A1A3DC"/>
<path d="M193.125 116.45C193.413 116.371 193.722 116.545 193.802 116.846L193.944 117.409C194.023 117.696 193.849 118.006 193.548 118.085C193.261 118.164 192.951 117.99 192.872 117.689L192.729 117.126C192.663 116.825 192.838 116.528 193.125 116.45Z" fill="#A1A3DC"/>
<path d="M195.87 115.716C196.158 115.637 196.467 115.811 196.547 116.112L196.69 116.675C196.768 116.962 196.595 117.272 196.294 117.351C196.006 117.43 195.697 117.256 195.617 116.955L195.474 116.392C195.396 116.105 195.57 115.796 195.87 115.716Z" fill="#A1A3DC"/>
<path d="M198.604 114.996C198.891 114.917 199.2 115.091 199.28 115.392L199.423 115.955C199.501 116.242 199.328 116.552 199.027 116.631C198.739 116.71 198.43 116.536 198.35 116.235L198.208 115.673C198.141 115.371 198.316 115.074 198.604 114.996Z" fill="#A1A3DC"/>
<path d="M201.35 114.262C201.637 114.183 201.947 114.357 202.027 114.658L202.169 115.221C202.248 115.508 202.074 115.818 201.773 115.897C201.486 115.976 201.176 115.802 201.097 115.501L200.954 114.938C200.889 114.65 201.062 114.34 201.35 114.262Z" fill="#A1A3DC"/>
<path d="M204.097 113.541C204.384 113.462 204.693 113.636 204.773 113.937L204.916 114.5C204.994 114.787 204.821 115.097 204.52 115.176C204.232 115.255 203.923 115.081 203.843 114.78L203.701 114.217C203.621 113.917 203.796 113.62 204.097 113.541Z" fill="#A1A3DC"/>
<path d="M206.829 112.808C207.116 112.73 207.426 112.904 207.506 113.204L207.648 113.767C207.727 114.055 207.553 114.364 207.252 114.444C206.965 114.522 206.655 114.349 206.576 114.048L206.433 113.485C206.368 113.196 206.541 112.887 206.829 112.808Z" fill="#A1A3DC"/>
<path d="M209.576 112.087C209.863 112.009 210.173 112.182 210.253 112.483L210.395 113.046C210.474 113.334 210.3 113.643 209.999 113.723C209.712 113.801 209.402 113.628 209.323 113.327L209.18 112.764C209.1 112.463 209.288 112.166 209.576 112.087Z" fill="#A1A3DC"/>
<path d="M212.322 111.353C212.61 111.275 212.919 111.448 212.999 111.749L213.141 112.312C213.22 112.6 213.046 112.909 212.746 112.989C212.458 113.067 212.149 112.894 212.069 112.593L211.926 112.03C211.848 111.742 212.021 111.433 212.322 111.353Z" fill="#A1A3DC"/>
<path d="M215.056 110.633C215.343 110.554 215.653 110.728 215.733 111.029L215.875 111.592C215.954 111.879 215.78 112.189 215.479 112.268C215.192 112.347 214.882 112.173 214.803 111.872L214.66 111.31C214.594 111.008 214.768 110.711 215.056 110.633Z" fill="#A1A3DC"/>
<path d="M247.356 102.067C247.644 101.988 247.953 102.162 248.033 102.463L248.176 103.026C248.254 103.313 248.08 103.623 247.78 103.702C247.492 103.781 247.183 103.607 247.103 103.306L246.96 102.743C246.895 102.455 247.069 102.145 247.356 102.067Z" fill="#A1A3DC"/>
<path d="M250.103 101.346C250.39 101.267 250.7 101.441 250.78 101.742L250.922 102.305C251.001 102.592 250.827 102.902 250.526 102.981C250.239 103.06 249.929 102.886 249.85 102.585L249.707 102.023C249.627 101.722 249.802 101.426 250.103 101.346Z" fill="#A1A3DC"/>
<path d="M252.834 100.613C253.122 100.535 253.431 100.709 253.511 101.009L253.654 101.572C253.732 101.86 253.559 102.169 253.258 102.249C252.97 102.327 252.661 102.154 252.581 101.853L252.439 101.29C252.373 101.001 252.547 100.692 252.834 100.613Z" fill="#A1A3DC"/>
<path d="M255.582 99.8924C255.869 99.8138 256.179 99.9876 256.258 100.288L256.401 100.851C256.479 101.139 256.306 101.448 256.005 101.528C255.717 101.606 255.408 101.433 255.328 101.132L255.186 100.569C255.119 100.267 255.294 99.9709 255.582 99.8924Z" fill="#A1A3DC"/>
<path d="M258.328 99.158C258.615 99.0794 258.925 99.2531 259.004 99.5539L259.147 100.117C259.226 100.404 259.052 100.714 258.751 100.793C258.464 100.872 258.154 100.698 258.074 100.398L257.932 99.8346C257.853 99.5471 258.027 99.2377 258.328 99.158Z" fill="#A1A3DC"/>
<path d="M261.061 98.4383C261.348 98.3597 261.658 98.5335 261.737 98.8342L261.88 99.3971C261.959 99.6846 261.785 99.9941 261.484 100.074C261.197 100.152 260.887 99.9786 260.808 99.6778L260.665 99.115C260.598 98.813 260.773 98.5168 261.061 98.4383Z" fill="#A1A3DC"/>
<path d="M263.807 97.7039C264.094 97.6253 264.404 97.799 264.484 98.0998L264.626 98.6627C264.705 98.9502 264.531 99.2597 264.23 99.3394C263.943 99.4179 263.633 99.2442 263.554 98.9434L263.411 98.3805C263.332 98.093 263.506 97.7836 263.807 97.7039Z" fill="#A1A3DC"/>
<path d="M266.54 96.9842C266.828 96.9056 267.137 97.0794 267.217 97.3801L267.36 97.943C267.438 98.2305 267.264 98.54 266.964 98.6197C266.676 98.6983 266.367 98.5245 266.287 98.2237L266.144 97.6609C266.078 97.3589 266.253 97.0627 266.54 96.9842Z" fill="#A1A3DC"/>
<path d="M269.287 96.2637C269.575 96.1852 269.884 96.3589 269.964 96.6597L270.107 97.2226C270.185 97.5101 270.012 97.8195 269.711 97.8992C269.423 97.9778 269.114 97.8041 269.034 97.5033L268.891 96.9404C268.825 96.6385 268.999 96.329 269.287 96.2637Z" fill="#A1A3DC"/>
<path d="M223.111 108.5C223.399 108.422 223.708 108.595 223.788 108.896L223.931 109.459C224.009 109.747 223.836 110.056 223.535 110.136C223.247 110.214 222.938 110.041 222.858 109.74L222.715 109.177C222.649 108.875 222.824 108.579 223.111 108.5Z" fill="#A1A3DC"/>
<path d="M225.856 107.766C226.144 107.687 226.453 107.861 226.533 108.162L226.676 108.724C226.754 109.012 226.581 109.321 226.28 109.401C225.992 109.48 225.683 109.306 225.603 109.005L225.46 108.442C225.382 108.155 225.569 107.844 225.856 107.766Z" fill="#A1A3DC"/>
<path d="M228.603 107.044C228.891 106.966 229.2 107.14 229.28 107.44L229.423 108.003C229.501 108.291 229.328 108.6 229.027 108.68C228.739 108.758 228.43 108.585 228.35 108.284L228.207 107.721C228.128 107.42 228.303 107.124 228.603 107.044Z" fill="#A1A3DC"/>
<path d="M231.336 106.312C231.624 106.233 231.933 106.407 232.013 106.708L232.156 107.271C232.234 107.558 232.06 107.868 231.76 107.947C231.472 108.026 231.163 107.852 231.083 107.551L230.94 106.989C230.875 106.7 231.049 106.39 231.336 106.312Z" fill="#A1A3DC"/>
<path d="M234.083 105.591C234.371 105.513 234.68 105.686 234.76 105.987L234.902 106.55C234.981 106.838 234.807 107.147 234.506 107.227C234.219 107.305 233.91 107.132 233.83 106.831L233.687 106.268C233.607 105.967 233.782 105.671 234.083 105.591Z" fill="#A1A3DC"/>
<path d="M236.815 104.858C237.102 104.779 237.412 104.953 237.491 105.254L237.634 105.817C237.713 106.104 237.539 106.414 237.238 106.493C236.951 106.572 236.641 106.398 236.561 106.097L236.419 105.534C236.353 105.246 236.527 104.936 236.815 104.858Z" fill="#A1A3DC"/>
<path d="M239.562 104.137C239.849 104.058 240.159 104.232 240.238 104.533L240.381 105.096C240.46 105.383 240.286 105.693 239.985 105.773C239.698 105.851 239.388 105.677 239.309 105.377L239.166 104.814C239.099 104.512 239.274 104.216 239.562 104.137Z" fill="#A1A3DC"/>
<path d="M242.308 103.403C242.595 103.325 242.905 103.498 242.984 103.799L243.127 104.362C243.206 104.649 243.032 104.959 242.731 105.039C242.444 105.117 242.134 104.943 242.054 104.643L241.912 104.08C241.833 103.792 242.007 103.483 242.308 103.403Z" fill="#A1A3DC"/>
<path d="M245.042 102.683C245.329 102.605 245.639 102.779 245.718 103.079L245.861 103.642C245.94 103.93 245.766 104.239 245.465 104.319C245.178 104.397 244.868 104.224 244.788 103.923L244.646 103.36C244.579 103.058 244.754 102.762 245.042 102.683Z" fill="#A1A3DC"/>
<path d="M259.476 114.483C257.816 114.32 257.104 112.295 258.287 111.122C259.483 109.961 261.152 108.691 263.168 108.181C267.304 107.125 266.519 113.937 265.164 114.349C264.367 114.579 261.688 114.692 259.476 114.483Z" fill="#8C90F6"/>
<path d="M262.02 106.823L264.31 115.454C264.31 115.454 268.903 115.803 275.782 114.147C279.989 113.138 282.715 111.871 284.195 111.046C285.127 110.524 285.564 110.164 285.564 110.164L283.17 101.115C282.74 100.938 282.172 100.867 281.502 100.858C275.883 100.866 262.816 106.286 262.816 106.286L262.02 106.823Z" fill="#8C90F6"/>
<path d="M281.491 100.886L284.183 111.06C285.114 110.538 285.551 110.179 285.551 110.179L283.158 101.129C282.742 100.964 282.173 100.88 281.491 100.886Z" fill="#5F64DF"/>
<path d="M206.741 98.5789C206.741 98.5789 214.274 107.649 215.647 108.975C217.021 110.3 219.7 110.803 219.7 110.803L219.713 110.802L236.556 112.626C236.556 112.626 256.508 107.45 260.843 106.216C261.234 106.102 261.495 106.025 261.612 105.988C262.909 105.514 263.472 104.917 263.163 104.596C262.854 104.275 231.511 107.54 228.052 107.921C228.025 107.924 227.985 107.927 227.959 107.929C224.579 108.291 224.147 107.485 224.147 107.485L209.814 98.8331C209.625 98.6623 209.335 98.5538 209.009 98.5019C208.019 98.3473 206.741 98.5789 206.741 98.5789Z" fill="#8C90F6"/>
<path d="M208.984 98.5178C212.867 101.016 223.597 107.922 224.583 108.344C225.64 108.801 253.89 106.728 260.831 106.231C261.222 106.116 261.483 106.04 261.6 106.003C262.897 105.529 263.46 104.932 263.151 104.611C262.842 104.29 231.498 107.555 228.04 107.936C224.568 108.319 224.135 107.5 224.135 107.5L209.802 98.8479C209.599 98.665 209.309 98.5697 208.984 98.5178Z" fill="#5F64DF"/>
<path d="M206.741 98.5789C206.741 98.5789 214.274 107.649 215.647 108.975C217.021 110.3 219.7 110.803 219.7 110.803L219.713 110.802C223.206 110.042 226.072 108.843 227.932 107.932C224.552 108.293 224.121 107.488 224.121 107.488L209.787 98.8354C209.599 98.6646 209.308 98.5561 208.983 98.5042C208.019 98.3473 206.741 98.5789 206.741 98.5789Z" fill="#5F64DF"/>
<path d="M154.137 121.343L200.723 107.666C200.723 107.666 178.373 108.502 175.817 106.959C173.415 105.496 147.559 87.5984 140.589 86.5198C147.383 91.8684 163.202 104.833 163.274 109.496C163.326 113.933 157.216 119.055 154.137 121.343Z" fill="#5F64DF"/>
<path d="M167.424 119.972C167.238 119.827 151.163 118.993 141.263 122.678L151.686 125.45L167.248 121.325C167.262 121.337 168.395 120.676 167.424 119.972Z" fill="#5F64DF"/>
</g>
<path d="M136.1 125.866H58.7136L78.059 234.333H155.445L136.1 125.866Z" fill="#DCDDFF"/>
<path d="M145.36 141.603H138.886L138.937 141.893H145.411L145.36 141.603Z" fill="#233862"/>
<path d="M150.86 172.795H144.386L144.437 173.085H150.911L150.86 172.795Z" fill="#233862"/>
<path d="M159.156 180.964H154.764C153.227 180.964 151.745 179.73 151.476 178.206L144.564 139.005C144.297 137.492 145.331 136.247 146.879 136.247H151.272C152.808 136.247 154.29 137.481 154.559 139.005L161.471 178.206C161.727 179.719 160.693 180.964 159.156 180.964Z" fill="#FF8181"/>
<path d="M148.377 141.346H149.052L149.331 142.924H151.162L150.884 141.346H151.559L152.227 145.135H151.552L151.27 143.535H149.439L149.721 145.135H149.045L148.377 141.346Z" fill="white"/>
<path d="M149.606 150.662C149.419 149.6 150.101 148.709 151.278 148.709C152.455 148.709 153.439 149.589 153.628 150.662C153.815 151.725 153.133 152.616 151.956 152.616C150.768 152.616 149.795 151.736 149.606 150.662ZM152.908 150.662C152.778 149.922 152.127 149.321 151.364 149.321C150.601 149.321 150.173 149.922 150.304 150.662C150.432 151.392 151.085 152.004 151.848 152.004C152.624 152.015 153.041 151.414 152.908 150.662Z" fill="white"/>
<path d="M152.359 156.813H151.138L151.03 156.201H154.147L154.255 156.813H153.034L153.593 159.979H152.917L152.359 156.813Z" fill="white"/>
<path d="M152.555 163.618H155.4L155.504 164.209H153.335L153.509 165.196H155.439L155.543 165.786H153.614L153.793 166.806H155.995L156.099 167.396H153.222L152.555 163.618Z" fill="white"/>
<path d="M154.007 171.046H154.683L155.243 174.223H157.259L157.365 174.824H154.673L154.007 171.046Z" fill="white"/>
<path d="M130.19 137.48H115.367L119.096 158.626H133.919L130.19 137.48Z" fill="#C9CBFF"/>
<path d="M122.19 137.48C122.19 137.48 123.597 144.533 117.574 149.996L115.367 137.48H122.19Z" fill="#BCBFFF"/>
<path d="M123.651 137.48C123.651 137.48 124.742 144.533 132.387 149.996L130.18 137.48H123.651Z" fill="#BCBFFF"/>
<path d="M123.152 137.48H122.781L126.51 158.626H126.88L123.152 137.48Z" fill="white"/>
<path d="M131.295 143.739H116.472L116.523 144.028H131.346L131.295 143.739Z" fill="white"/>
<path d="M132.646 151.402H117.823L117.874 151.692H132.697L132.646 151.402Z" fill="white"/>
<path d="M134.306 158.959H118.807L114.961 137.148H130.46L134.306 158.959ZM119.376 158.294H133.523L129.912 137.813H115.765L119.376 158.294Z" fill="white"/>
<path d="M106.868 137.48H92.0444L95.773 158.626H110.596L106.868 137.48Z" fill="#C9CBFF"/>
<path d="M98.8783 137.48C98.8783 137.48 100.285 144.533 94.262 149.996L92.0552 137.48H98.8783Z" fill="#BCBFFF"/>
<path d="M100.338 137.48C100.338 137.48 101.429 144.533 109.074 149.996L106.867 137.48H100.338Z" fill="#BCBFFF"/>
<path d="M99.8266 137.48H99.4561L103.185 158.626H103.555L99.8266 137.48Z" fill="white"/>
<path d="M107.971 143.737H93.1479L93.1991 144.027H108.022L107.971 143.737Z" fill="white"/>
<path d="M109.323 151.401H94.4993L94.5504 151.691H109.374L109.323 151.401Z" fill="white"/>
<path d="M110.993 158.959H95.4939L91.6479 137.148H107.147L110.993 158.959ZM96.0523 158.294H110.2L106.589 137.813H92.4411L96.0523 158.294Z" fill="white"/>
<path d="M83.5526 137.48H68.7292L72.4578 158.626H87.2811L83.5526 137.48Z" fill="#C9CBFF"/>
<path d="M75.5523 137.48C75.5523 137.48 76.9593 144.532 70.9361 149.996L68.7292 137.48H75.5523Z" fill="#BCBFFF"/>
<path d="M77.0247 137.48C77.0247 137.48 78.1156 144.533 85.7604 149.996L83.5535 137.48H77.0247Z" fill="#BCBFFF"/>
<path d="M76.5119 137.48H76.1414L79.8699 158.626H80.2405L76.5119 137.48Z" fill="white"/>
<path d="M84.6556 143.738H69.8323L69.8834 144.027H84.7067L84.6556 143.738Z" fill="white"/>
<path d="M86.0074 151.402H71.1841L71.2352 151.692H86.0585L86.0074 151.402Z" fill="white"/>
<path d="M87.6783 158.959H72.1792L68.3333 137.147H83.8323L87.6783 158.959ZM72.7376 158.293H86.8851L83.2739 137.813H69.1264L72.7376 158.293Z" fill="white"/>
<path d="M135.789 169.231H120.966L124.694 190.377H139.517L135.789 169.231Z" fill="#C9CBFF"/>
<path d="M127.789 169.231C127.789 169.231 129.196 176.283 123.172 181.747L120.966 169.231H127.789Z" fill="#BCBFFF"/>
<path d="M129.249 169.231C129.249 169.231 130.34 176.283 137.984 181.747L135.778 169.231H129.249Z" fill="#BCBFFF"/>
<path d="M128.748 169.231H128.378L132.106 190.377H132.477L128.748 169.231Z" fill="white"/>
<path d="M136.892 175.489H122.068L122.119 175.779H136.943L136.892 175.489Z" fill="white"/>
<path d="M138.243 183.153H123.42L123.471 183.443H138.294L138.243 183.153Z" fill="white"/>
<path d="M139.9 190.699H124.401L120.557 168.899H136.056L139.9 190.699ZM124.971 190.034H139.118L135.509 169.564H121.361L124.971 190.034Z" fill="white"/>
<path d="M112.466 169.23H97.6428L101.371 190.376H116.195L112.466 169.23Z" fill="#C9CBFF"/>
<path d="M104.477 169.23C104.477 169.23 105.884 176.282 99.8609 181.746L97.6541 169.23H104.477Z" fill="#BCBFFF"/>
<path d="M105.936 169.231C105.936 169.231 107.027 176.283 114.672 181.747L112.465 169.231H105.936Z" fill="#BCBFFF"/>
<path d="M105.424 169.232H105.053L108.782 190.377H109.152L105.424 169.232Z" fill="white"/>
<path d="M113.569 175.489H98.7461L98.7972 175.779H113.621L113.569 175.489Z" fill="white"/>
<path d="M114.921 183.153H100.097L100.149 183.443H114.972L114.921 183.153Z" fill="white"/>
<path d="M116.589 190.699H101.09L97.2458 168.898H112.745L116.589 190.699ZM101.648 190.033H115.796L112.187 169.564H98.039L101.648 190.033Z" fill="white"/>
<path d="M89.1517 169.23H74.3284L78.0569 190.376H92.8803L89.1517 169.23Z" fill="#C9CBFF"/>
<path d="M81.1515 169.23C81.1515 169.23 82.5584 176.283 76.5352 181.746L74.3284 169.23H81.1515Z" fill="#BCBFFF"/>
<path d="M82.6241 169.23C82.6241 169.23 83.715 176.282 91.3597 181.746L89.1529 169.23H82.6241Z" fill="#BCBFFF"/>
<path d="M82.1113 169.231H81.7407L85.4693 190.377H85.8399L82.1113 169.231Z" fill="white"/>
<path d="M90.2557 175.489H75.4324L75.4835 175.779H90.3068L90.2557 175.489Z" fill="white"/>
<path d="M91.6055 183.153H76.7822L76.8333 183.443H91.6566L91.6055 183.153Z" fill="white"/>
<path d="M93.2755 190.699H77.7764L73.9324 168.899H89.4315L93.2755 190.699ZM78.3348 190.034H92.4824L88.873 169.564H74.7255L78.3348 190.034Z" fill="white"/>
<path d="M118.061 200.97H103.238L106.967 222.116H121.79L118.061 200.97Z" fill="#C9CBFF"/>
<path d="M110.073 200.971C110.073 200.971 111.48 208.023 105.457 213.486L103.25 200.971H110.073Z" fill="#BCBFFF"/>
<path d="M111.531 200.97C111.531 200.97 112.622 208.022 120.267 213.486L118.06 200.97H111.531Z" fill="#BCBFFF"/>
<path d="M111.02 200.971H110.649L114.378 222.117H114.749L111.02 200.971Z" fill="white"/>
<path d="M119.169 207.24H104.345L104.396 207.529H119.22L119.169 207.24Z" fill="white"/>
<path d="M120.519 214.903H105.696L105.747 215.193H120.57L120.519 214.903Z" fill="white"/>
<path d="M122.188 222.449H106.689L102.843 200.638H118.342L122.188 222.449ZM107.247 221.784H121.395L117.784 201.303H103.636L107.247 221.784Z" fill="white"/>
<path d="M94.7457 200.971H79.9224L83.6509 222.117H98.4743L94.7457 200.971Z" fill="#C9CBFF"/>
<path d="M86.7454 200.971C86.7454 200.971 88.1524 208.023 82.1292 213.487L79.9224 200.971H86.7454Z" fill="#BCBFFF"/>
<path d="M88.2178 200.971C88.2178 200.971 89.3087 208.024 96.9535 213.487L94.7466 200.971H88.2178Z" fill="#BCBFFF"/>
<path d="M87.7063 200.971H87.3357L91.0643 222.117H91.4349L87.7063 200.971Z" fill="white"/>
<path d="M95.8524 207.24H81.0291L81.0802 207.53H95.9035L95.8524 207.24Z" fill="white"/>
<path d="M97.2034 214.904H82.3801L82.4312 215.193H97.2545L97.2034 214.904Z" fill="white"/>
<path d="M98.8721 222.45H83.373L79.5271 200.639H95.0262L98.8721 222.45ZM83.9314 221.784H98.079L94.4678 201.304H80.3202L83.9314 221.784Z" fill="white"/>
<path d="M139.801 130.353H56.9974L58.0049 111.032H131.98L139.801 130.353Z" fill="#FF9334"/>
<path d="M77.2508 116.764H69.6538L70.973 124.246H78.57L77.2508 116.764Z" fill="white"/>
<path d="M69.2319 116.42L70.6723 124.589H78.9668L77.5265 116.42H69.2319ZM78.1462 123.891H71.2577L70.0615 117.107H76.95L78.1462 123.891Z" fill="#233862"/>
<path d="M75.108 124.249L73.7888 116.768H73.1022L74.4213 124.249H75.108Z" fill="#233862"/>
<path d="M78.479 115.015H67.4814L67.7578 116.582H78.7554L78.479 115.015Z" fill="#233862"/>
<path d="M99.8452 116.764H92.2483L93.5675 124.246H101.164L99.8452 116.764Z" fill="white"/>
<path d="M91.8384 116.421L93.2787 124.589H101.573L100.133 116.421H91.8384ZM100.753 123.891H93.8641L92.668 117.108H99.5565L100.753 123.891Z" fill="#233862"/>
<path d="M97.7093 124.24L96.3901 116.759H95.7035L97.0227 124.24H97.7093Z" fill="#233862"/>
<path d="M100.997 115.015H89.9993L90.2756 116.582H101.273L100.997 115.015Z" fill="#233862"/>
<path d="M122.364 116.764H114.767L116.086 124.246H123.683L122.364 116.764Z" fill="white"/>
<path d="M114.358 116.419L115.798 124.588H124.093L122.653 116.419H114.358ZM123.272 123.89H116.384L115.188 117.106H122.076L123.272 123.89Z" fill="#233862"/>
<path d="M120.229 124.239L118.91 116.758H118.223L119.542 124.239H120.229Z" fill="#233862"/>
<path d="M123.516 115.014H112.519L112.795 116.581H123.792L123.516 115.014Z" fill="#233862"/>
<path d="M291.621 199.368C287.003 199.368 283.281 203.112 283.281 207.707C283.281 212.326 287.025 216.047 291.621 216.047C296.239 216.047 299.961 212.303 299.961 207.707C299.983 203.089 296.239 199.368 291.621 199.368ZM291.621 215.33C287.406 215.33 283.999 211.922 283.999 207.707C283.999 203.493 287.406 200.085 291.621 200.085C295.836 200.085 299.243 203.493 299.243 207.707C299.243 211.922 295.836 215.33 291.621 215.33Z" fill="#AFCDFB"/>
<path d="M302.83 209.792C302.382 209.949 301.933 210.106 301.485 210.263C300.969 209.949 300.162 209.994 299.378 210.151C299.333 209.972 299.221 209.792 298.996 209.748C297.763 209.501 296.53 210.129 295.409 210.577C294.266 211.048 293.168 211.541 292.047 212.079C292.383 211.676 292.697 211.25 293.033 210.846C293.437 210.33 293.818 209.815 294.221 209.277C294.445 209.254 294.625 209.299 294.804 209.366C294.871 209.523 295.028 209.658 295.185 209.703C295.208 209.703 295.253 209.725 295.275 209.725C295.522 209.792 295.768 209.68 295.903 209.479C295.925 209.456 295.925 209.434 295.948 209.411C296.06 209.232 296.037 209.053 295.97 208.896C296.149 208.358 296.62 207.73 296.844 207.259C297.158 206.631 297.45 206.004 297.786 205.398C298.526 204.031 299.602 203.067 300.812 202.125C301.373 201.699 300.902 200.802 300.252 201.161C297.696 202.551 295.813 205.241 294.064 207.618C293.997 207.394 293.773 207.214 293.526 207.214C291.621 207.326 289.85 208.089 287.989 208.358C288.123 207.954 288.28 207.528 288.437 207.125C288.639 206.654 288.303 206.228 287.81 206.295C284.693 206.788 281.981 208.627 280.344 211.294C279.963 211.9 280.927 212.483 281.308 211.855C282.631 209.703 284.671 208.223 287.07 207.595C286.913 207.999 286.778 208.425 286.666 208.828C286.576 209.165 286.846 209.568 287.204 209.546C288.975 209.434 290.634 208.761 292.383 208.447C292.428 208.739 292.697 208.963 293.055 208.896H293.078C292.047 210.263 291.015 211.608 289.85 212.864C289.715 213.021 289.558 213.155 289.424 213.312C287.765 214.164 286.195 215.15 284.85 216.473C284.514 216.809 284.761 217.46 285.254 217.437C286.823 217.37 288.213 216.002 289.289 215.016C289.558 214.769 289.827 214.5 290.096 214.231C290.5 214.03 290.926 213.805 291.352 213.626C292.383 213.133 293.437 212.64 294.49 212.169C295.118 211.9 296.015 211.407 296.912 211.07C296.755 211.451 297.113 212.012 297.584 211.855C298.145 211.653 298.683 211.474 299.265 211.362C299.4 211.339 300.812 211.048 300.88 211.16C301.014 211.362 301.283 211.496 301.507 211.407C302.045 211.205 302.583 211.025 303.099 210.824C303.816 210.644 303.525 209.546 302.83 209.792Z" fill="#AFCDFB"/>
<path d="M304.685 223.154H182.515L168.834 175.009H291.003L304.685 223.154Z" fill="white"/>
<path d="M289.539 181.949H202.977L202.175 179.421H288.737L289.539 181.949Z" fill="#B4CBD0"/>
<path d="M291.003 187.366H204.422L203.619 184.838H290.181L291.003 187.366Z" fill="#B4CBD0"/>
<path d="M292.508 192.782H205.926L205.124 190.254H291.685L292.508 192.782Z" fill="#B4CBD0"/>
<path d="M294.313 198.198H180.83L180.027 195.671H293.49L294.313 198.198Z" fill="#B4CBD0"/>
<path d="M296.219 203.615H182.736L181.934 201.087H295.397L296.219 203.615Z" fill="#B4CBD0"/>
<path d="M200.23 183.895C199.969 183.514 199.548 183.293 199.107 183.293H176.037L177.923 184.517C178.645 184.978 179.507 185.239 180.37 185.239H197.662C198.063 185.239 198.364 185.62 198.244 186.021L196.619 191.458L200.27 185.339C200.531 184.878 200.511 184.316 200.23 183.895Z" fill="#B4CBD0"/>
<path d="M196.98 187.907L197.382 186.362C197.442 186.162 197.281 185.961 197.081 185.961H181.273L182.938 187.064C183.76 187.606 184.743 187.907 185.726 187.907H196.98Z" fill="#B4CBD0"/>
<path d="M185.686 188.649L186.709 189.552C187.452 190.214 188.394 190.575 189.397 190.575H196.318L196.84 188.509L185.686 188.649Z" fill="#B4CBD0"/>
<path d="M191.683 218.72H187.21L184.782 210.435H189.256L191.683 218.72Z" fill="#B4CBD0"/>
<path d="M197.4 218.72H192.907L190.479 210.435H194.953L197.4 218.72Z" fill="#B4CBD0"/>
<path d="M207.371 218.72H202.877L200.45 210.435H204.943L207.371 218.72Z" fill="#B4CBD0"/>
<path d="M213.068 218.72H208.575L206.147 210.435H210.641L213.068 218.72Z" fill="#B4CBD0"/>
<path d="M222.737 218.72H218.263L215.836 210.435H220.309L222.737 218.72Z" fill="#B4CBD0"/>
<path d="M228.434 218.72H223.96L221.533 210.435H226.006L228.434 218.72Z" fill="#B4CBD0"/>
<path d="M234.251 218.72H229.758L227.331 210.435H231.824L234.251 218.72Z" fill="#B4CBD0"/>
<path d="M239.949 218.72H235.456L233.028 210.435H237.522L239.949 218.72Z" fill="#B4CBD0"/>
<path d="M219.025 303.696C219.025 303.696 219.56 312.43 217.956 312.559C217.754 312.578 209.886 312.578 209.886 312.578L199.862 312.523C199.862 312.523 199.935 309.924 202.865 309.372C205.795 308.819 210.954 306.81 211.82 302.333C212.686 297.855 219.025 303.696 219.025 303.696Z" fill="#2E308E"/>
<path d="M199.935 303.696C199.935 303.696 200.469 312.43 198.866 312.559C198.663 312.578 190.795 312.578 190.795 312.578L180.771 312.523C180.771 312.523 180.845 309.924 183.775 309.372C186.704 308.819 191.864 306.81 192.73 302.333C193.596 297.855 199.935 303.696 199.935 303.696Z" fill="#2E308E"/>
<path d="M241.818 240.42L250.608 243.442C250.608 243.442 256.191 232.054 257.554 230.506C259.102 228.737 260.226 215.176 260.926 202.903C261.534 192.161 261.848 182.432 261.848 182.432C261.848 182.432 258.863 183.113 256.909 188.162C253.556 196.823 253.593 213.72 251.732 222.436C250.644 227.466 243.642 239.72 241.818 240.42Z" fill="#FFAB56"/>
<path d="M250.607 243.46C253.961 239.554 256.19 232.073 257.554 230.525C259.102 228.756 266.454 218.732 259.599 202.977C256.227 212.946 259.047 218.382 257.978 224.26C256.927 230.101 250.92 239.554 250.607 243.46Z" fill="#FF9334"/>
<path d="M275.981 308.708C275.981 308.708 276.81 309.445 278.745 309.445C280.956 309.445 281.509 308.708 281.509 308.708V277.715H275.981V308.708Z" fill="#96BEC8"/>
<path d="M245.522 265.13C245.522 265.148 245.522 265.185 245.54 265.203C245.725 266.585 246.001 267.875 246.333 269.036C246.959 271.321 247.789 273.182 248.562 274.472C251.566 279.521 257.241 285.159 270.877 287.002C271.54 287.094 272.222 287.168 272.922 287.242C274.194 287.37 275.539 287.463 276.939 287.536C277.031 287.536 277.124 287.536 277.216 287.555C277.308 287.555 277.4 287.555 277.492 287.573C281.454 287.481 285.895 286.744 290.851 285.565C301.004 283.151 307.638 278.194 311.821 272.15C312.171 271.634 312.521 271.118 312.834 270.584C313.663 269.22 314.4 267.802 315.008 266.346C317.33 260.91 318.215 255.069 318.307 249.633C318.233 244.474 317.422 239.83 316.538 236.532C315.838 233.952 314.769 231.501 313.313 229.345C312.926 228.774 312.521 228.221 312.079 227.705C310.678 226.029 309.02 224.591 307.067 223.486C302.22 220.722 286.245 217.958 272.72 225.107C247.825 238.227 244.066 254.442 245.522 265.13Z" fill="#C0DBE2"/>
<path d="M249.705 276.241C253.667 280.866 257.241 285.602 270.877 287.113C271.54 287.187 272.222 287.26 272.922 287.316C274.194 287.426 275.539 287.5 276.939 287.555C277.032 287.555 277.124 287.555 277.216 287.555C277.308 287.555 277.4 287.555 277.492 287.573C281.454 287.481 285.895 286.744 290.851 285.565C301.004 283.151 307.638 278.194 311.821 272.151C312.171 271.635 312.521 271.119 312.834 270.584C305.132 268.742 288.659 265.517 272.296 266.844C263.414 267.562 254.22 268.355 246.333 269.036C246.057 269.073 248.397 274.712 249.705 276.241Z" fill="#96BEC8"/>
<path d="M296.398 195.219C296.269 194.703 296.14 194.187 295.992 193.671C294.039 186.78 290.87 181.786 285.876 180.957C285.25 182.671 279.132 185.49 273.788 185.214C273.199 185.177 272.333 184.384 272.314 184.384C268.094 183.795 266.086 181.528 266.289 181.215C266.104 181.233 261.848 182.413 261.848 182.413C258.163 198.554 257.72 207.528 262.161 230.561C263.783 238.982 261.295 243.552 261.848 244.086C262.806 245.044 273.457 245.321 282.006 245.653C283.038 245.689 284.052 245.726 285.028 245.763C291.275 245.966 296.434 246.039 296.434 246.039C296.858 245.505 297.632 240.622 298.167 233.749C299.033 222.822 299.254 206.773 296.398 195.219Z" fill="#FFAB56"/>
<path d="M282.928 181.75L277.842 185.951L270.103 184.753C270.176 184.016 270.563 180.773 270.895 178.009C271.172 175.761 271.411 173.826 271.411 173.826L280.661 170.123L280.938 170.012C280.938 170.067 280.938 170.104 280.938 170.16C280.919 170.528 280.901 170.897 280.882 171.247C280.716 177.567 282.928 181.75 282.928 181.75Z" fill="#FEC797"/>
<path d="M261.59 268.742C235.701 270.603 227.648 270.271 226.745 271.506C221.033 279.337 220.462 280.682 208.853 296.381C206.642 299.366 204.025 302.886 200.911 307.069H188.805C188.805 307.069 201.87 282.156 212.299 265.277C216.427 258.607 220.13 253.208 222.47 251.071C230.56 243.7 262.788 243.866 262.788 243.866C262.788 243.866 290.777 243.184 292.97 247.33C293.449 248.233 281.067 267.323 261.59 268.742Z" fill="#4449C5"/>
<path d="M261.59 268.742C235.7 270.603 227.648 270.271 226.745 271.506C221.033 279.337 220.462 280.682 208.853 296.381L212.299 265.277C216.426 258.607 220.13 253.208 222.47 251.071C230.559 243.7 262.787 243.866 262.787 243.866C262.787 243.866 290.777 243.184 292.97 247.33C293.449 248.233 281.067 267.323 261.59 268.742Z" fill="#2E308E"/>
<path d="M295.366 251.623C295.366 251.623 294.5 267.304 275.005 268.705C249.115 270.566 243.772 269.958 242.077 271.524C233.748 279.3 239.257 280.958 219.744 307.05H207.49C207.49 307.05 222.452 257.52 229.215 251.586C237.433 244.382 270.417 244.326 270.417 244.326C270.417 244.326 293.45 242.133 295.642 246.279C296.14 247.182 295.366 251.623 295.366 251.623Z" fill="#4449C5"/>
<path d="M270.877 287.002C270.877 287.076 273.567 287.463 275.023 287.537C275.613 287.555 276.221 287.574 276.829 287.574C276.884 287.574 276.939 287.574 276.995 287.574C277.16 287.574 277.308 287.574 277.474 287.555C281.435 287.463 285.876 286.726 290.833 285.547C304.1 282.396 311.342 274.896 314.99 266.346C317.312 260.91 318.196 255.069 318.288 249.633C318.215 244.474 317.404 239.83 316.519 236.532C315.819 233.952 314.75 231.502 313.295 229.346C313 228.922 312.705 228.498 312.373 228.093C312.263 227.964 312.171 227.835 312.06 227.706C302.902 237.251 275.281 267.654 270.877 287.002Z" fill="#C0DBE2"/>
<path d="M271.577 287.002C271.577 287.076 274.267 287.463 275.723 287.536C276.091 287.555 276.46 287.555 276.847 287.573C276.902 287.573 276.957 287.573 277.013 287.573C277.179 287.573 277.326 287.573 277.492 287.555C281.454 287.463 285.894 286.726 290.851 285.546C304.118 282.395 311.36 274.896 315.008 266.346C317.33 260.91 318.214 255.069 318.307 249.633C318.233 244.474 317.422 239.83 316.538 236.532C315.837 233.952 314.769 231.501 313.313 229.346C313.018 228.922 312.723 228.498 312.392 228.093C302.865 238.061 275.907 267.912 271.577 287.002Z" fill="#C0DBE2"/>
<path d="M270.712 179.612C270.712 179.612 271.357 183.463 273.586 185.306L270.269 189.102C270.269 189.102 266.639 184.882 266.289 181.252C266.289 181.234 269.606 179.741 270.712 179.612Z" fill="#FFAB56"/>
<path d="M281.933 179.41C281.933 179.41 277.031 184.901 273.586 185.288L275.502 190.429C275.502 190.429 285.839 184.606 285.876 180.957C285.876 180.976 283.038 179.447 281.933 179.41Z" fill="#FFAB56"/>
<path d="M298.167 233.805C297.633 240.678 297.78 244.271 295.661 246.298C295.661 246.298 291.368 247.919 285.029 245.819C282.873 244.713 281.178 243.184 280.349 241.12C276.166 230.746 284.126 222.122 284.532 215.268C284.937 208.395 291.239 203.383 291.239 203.383C291.239 203.383 299.033 222.823 298.167 233.805Z" fill="#FF9334"/>
<path d="M310.089 312.541H249.521C252.396 306.239 264.87 301.503 279.796 301.503C294.74 301.503 307.196 306.239 310.089 312.541Z" fill="#C0DBE2"/>
<path d="M278.929 235.168C278.929 235.168 274.82 236.237 273.475 236.993C272.13 237.73 269.421 241.286 270.029 241.839C273.069 244.621 273.53 241.544 277.271 240.531C277.952 240.346 281.067 236.864 281.067 236.864L278.929 235.168Z" fill="#FEC797"/>
<path d="M275.594 243.773L269.421 222.436H234.189L240.547 244.639H240.657H275.833H286.816V243.773H275.594Z" fill="#6D7176"/>
<path d="M285.876 180.976C285.876 180.976 292.878 182.119 296.379 185.749C299.88 189.379 305.814 219.156 304.321 223.32C302.847 227.503 290.98 235.979 282.504 239.48C282.504 239.48 278.321 237.601 278.063 234.358C278.063 234.358 292.473 222.233 293.155 219.008C293.818 215.784 285.876 180.976 285.876 180.976Z" fill="#FFAB56"/>
<path d="M280.92 170.16C280.901 170.528 280.883 170.897 280.865 171.247C279.077 173.182 274.858 177.291 270.877 178.028C271.154 175.78 271.393 173.845 271.393 173.845L280.643 170.141L280.92 170.16Z" fill="#F3B47C"/>
<path d="M270.435 174.582C270.435 174.582 281.528 175.098 281.73 168.169C281.933 161.26 283.518 156.671 276.442 156.045C269.366 155.437 267.91 158.016 267.284 160.32C266.657 162.623 267.56 174.269 270.435 174.582Z" fill="#FEC797"/>
<path d="M281.73 168.17C281.73 168.17 280.901 158.938 271.024 159.27C261.148 159.601 265.423 150.259 273.917 148.877C273.917 148.877 273.033 152.175 278.377 152.691C289.58 153.797 282.744 166.714 281.73 168.17Z" fill="#233862"/>
<path d="M257.683 304.208L257.668 289.331C257.668 284.858 254.002 281.206 249.543 281.22L215.231 281.234C210.758 281.234 207.106 284.9 207.12 289.359L207.134 304.236C207.134 308.709 210.843 312.546 215.301 312.546L249.571 312.333C254.03 312.333 257.683 308.681 257.683 304.208Z" fill="#E35656"/>
<path d="M262.211 304.378L262.197 289.331C262.197 284.843 258.531 281.177 254.043 281.191L242.252 281.205V277.992C242.252 276.506 241.049 275.303 239.562 275.303H238.883H232.74H229.3C228.578 275.303 227.913 275.586 227.403 276.095C226.893 276.605 226.61 277.284 226.61 277.992V281.205H219.773C219.504 281.205 219.25 281.22 218.995 281.248C218.995 281.248 218.995 281.248 218.981 281.248C218.966 281.248 218.952 281.248 218.938 281.248C214.847 281.658 211.62 285.155 211.62 289.359L211.634 304.406C211.634 308.285 214.38 311.555 218.032 312.361C218.598 312.489 219.179 312.56 219.788 312.56H219.802L254.043 312.545C258.545 312.531 262.211 308.851 262.211 304.378ZM228.295 281.191V277.978C228.295 277.426 228.748 276.973 229.3 276.973H232.641H238.345H239.548C239.647 276.973 239.747 276.987 239.846 277.016C240.256 277.143 240.553 277.525 240.553 277.978V281.191H228.295Z" fill="#FF8181"/>
<path d="M50.1698 305.949H54.1155V311.329H50.1698V305.949Z" fill="#2E308E"/>
<path d="M54.9446 312.136C54.9446 310.589 53.6891 309.334 52.1422 309.334C50.5954 309.334 49.3399 310.589 49.3399 312.136C49.3399 313.683 50.5954 314.939 52.1422 314.939C53.6891 314.939 54.9446 313.683 54.9446 312.136Z" fill="#4449C5"/>
<path d="M53.8464 312.136C53.8464 311.194 53.0842 310.432 52.1426 310.432C51.201 310.432 50.4388 311.194 50.4388 312.136C50.4388 313.078 51.201 313.84 52.1426 313.84C53.0842 313.84 53.8464 313.078 53.8464 312.136Z" fill="#2E308E"/>
<path d="M11.8634 305.949H15.8091V311.329H11.8634V305.949Z" fill="#2E308E"/>
<path d="M16.6609 312.136C16.6609 310.589 15.4054 309.334 13.8586 309.334C12.3117 309.334 11.0562 310.589 11.0562 312.136C11.0562 313.683 12.3117 314.939 13.8586 314.939C15.4054 314.939 16.6609 313.683 16.6609 312.136Z" fill="#4449C5"/>
<path d="M15.5403 312.136C15.5403 311.194 14.7781 310.432 13.8365 310.432C12.8949 310.432 12.1326 311.194 12.1326 312.136C12.1326 313.078 12.8949 313.84 13.8365 313.84C14.7781 313.84 15.5403 313.078 15.5403 312.136Z" fill="#2E308E"/>
<path d="M12.3752 308.952H53.1996C57.1229 308.952 60.2839 305.769 60.2839 301.868V300.949H5.82899V302.406C5.82899 306.016 8.74342 308.952 12.3752 308.952Z" fill="#2E308E"/>
<path d="M3.94597 233.671V298.662C3.94597 299.447 4.03564 300.209 4.19257 300.949H11.8149C13.0031 300.949 14.1016 301.285 15.0208 301.891C15.6037 302.249 16.0969 302.72 16.5228 303.258C17.3075 304.267 17.7783 305.545 17.7783 306.935V308.952H47.6848V306.935C47.6848 304.85 48.7609 303.012 50.375 301.935C50.8234 301.644 51.339 301.397 51.8771 301.218C52.4375 301.039 53.0428 300.949 53.6706 300.949H61.9206C62.0776 300.209 62.1672 299.447 62.1672 298.662V233.671C62.1672 227.976 57.5714 223.38 51.8771 223.38H14.2586C8.56422 223.358 3.94597 227.976 3.94597 233.671Z" fill="#4449C5"/>
<path d="M22.1048 223.336C29.1443 220.556 35.018 220.69 38.6946 221.295C42.6852 221.946 45.0391 223.291 45.0839 223.291L45.5771 222.439C45.4875 222.372 43.0663 221.026 38.9188 220.331C35.1076 219.704 29.0322 219.547 21.7461 222.416L22.1048 223.336Z" fill="#2E308E"/>
<path d="M50.3749 223.358V301.913C50.8233 301.622 51.3389 301.375 51.877 301.196V223.358H50.3749Z" fill="#2E308E"/>
<path d="M38.3588 223.358H39.8608V308.953H38.3588V223.358Z" fill="#2E308E"/>
<path d="M27.1498 223.358H28.6519V308.953H27.1498V223.358Z" fill="#2E308E"/>
<path d="M15.0436 223.358V301.868C15.6265 302.227 16.1197 302.698 16.5457 303.236V223.358H15.0436Z" fill="#2E308E"/>
<path d="M94.6523 189.708C94.6523 189.596 93.0157 186.211 93.5313 185.942C94.047 185.673 94.9886 185.718 95.1007 186.323C95.2127 186.906 94.6523 189.708 94.6523 189.708Z" fill="#FFB27D"/>
<path d="M94.0461 191.748C94.0461 191.412 94.4272 186.345 95.2791 185.314C96.131 184.305 97.8797 182.87 98.4401 182.915C99.0006 182.96 101.153 185.83 100.503 188.004C99.8525 190.201 97.1174 193.161 97.1174 193.161L94.0461 191.748Z" fill="#FFB27D"/>
<path d="M90.7738 185.584L95.7731 187.086C95.93 187.13 96.1094 187.041 96.1542 186.884L99.0014 177.378C99.0462 177.221 98.9566 177.042 98.7996 176.997L93.8003 175.495C93.6433 175.45 93.464 175.54 93.4192 175.697L90.572 185.202C90.5047 185.359 90.6168 185.539 90.7738 185.584Z" fill="#728398"/>
<path d="M92.0738 185.964L96.6024 187.332C96.8938 187.421 97.2077 187.242 97.2973 186.95L100.01 177.893C100.1 177.602 99.9203 177.288 99.6289 177.198L95.1003 175.831C94.8089 175.741 94.495 175.92 94.4053 176.212L91.6927 185.269C91.603 185.583 91.7823 185.874 92.0738 185.964Z" fill="#8CA2BF"/>
<path d="M98.9563 183.274C98.9563 183.274 96.8714 180.068 96.3782 180.247C95.6608 180.494 98.2613 184.551 98.2613 184.551C98.2613 184.551 96.3333 181.525 96.0195 181.749C95.3245 182.265 96.423 184.17 97.5215 185.627C97.5215 185.627 95.5711 183.856 95.5038 184.17C95.2796 185.291 97.6336 188.004 97.6336 188.004L98.9563 185V183.274Z" fill="#FFB27D"/>
<path d="M100.503 186.256C100.413 185.875 99.8974 178.23 99.6732 178.947C99.449 179.665 98.9334 183.678 98.9334 183.678L100.503 186.256Z" fill="#FFB27D"/>
<path d="M67.3463 184.149C67.3463 184.149 67.5705 192.443 69.9468 199.147C71.83 204.437 75.0807 208.719 80.663 207.15C81.2234 206.993 81.7839 206.814 82.3219 206.634C93.6434 202.689 97.2976 193.654 97.2976 193.654C96.4457 192.264 94.0021 191.748 94.0021 191.748C91.7154 191.861 81.6942 196.12 81.0665 196.255C78.7574 196.725 76.8742 183.992 75.3722 179.575C73.8701 175.159 67.705 173.186 67.705 173.186L67.3463 184.149Z" fill="#FF8181"/>
<path d="M69.7442 193.16L69.9684 199.146C71.8516 204.437 75.1023 208.719 80.6845 207.15C81.245 206.993 81.8055 206.813 82.3435 206.634C82.1642 206.657 78.7565 207.127 77.3217 205.693C75.8645 204.213 75.999 199.348 73.3088 196.12C70.5961 192.847 69.7442 193.16 69.7442 193.16Z" fill="#E35656"/>
<path d="M69.4312 302.541C69.4312 302.541 66.6513 305.074 67.1893 306.89C67.7274 308.706 70.2383 309.894 70.597 312.114C70.9332 314.333 72.3008 315.522 73.5114 315.522C74.7444 315.522 79.3402 315.522 79.3402 315.522C79.3402 315.522 80.237 313.975 78.0624 313.504C75.8878 313.033 75.0583 310.433 75.1928 308.034C75.3273 305.635 74.991 302.407 74.991 302.407L70.3728 301.331L69.4312 302.541Z" fill="#2E308E"/>
<path d="M100.144 315.073H82.9713C82.2988 315.073 81.7383 314.535 81.7159 313.863C81.6935 312.854 81.7832 311.397 82.3212 310.164C83.2404 308.123 83.8233 307.765 79.9448 301.869C81.1106 303.057 84.2492 302.519 86.8946 302.16C87.2085 302.676 92.1406 310.276 93.2167 311.06C94.4273 311.912 99.7629 311.598 100.144 315.073Z" fill="#2E308E"/>
<path d="M73.376 219.839C73.376 219.839 85.8184 243.334 89.2036 256.269C91.8266 266.313 75.7972 305.164 75.7972 305.164C75.7972 305.164 74.4969 305.075 72.3447 304.245C70.2374 303.416 69.4527 301.219 69.4527 301.219C69.4527 301.219 70.3943 273.442 73.645 259.991C74.3624 256.964 70.1253 247.235 62.9289 241.921C55.7549 236.586 52.7508 219.435 57.0328 218.292C61.3372 217.104 73.376 219.839 73.376 219.839Z" fill="#4CA2B5"/>
<path d="M62.7271 213.158C62.7271 213.158 75.8196 261.134 79.7877 271.918C83.7558 282.701 90.0554 305.568 90.0554 305.568C90.0554 305.568 86.0649 307.429 80.9759 306.554C80.9759 306.554 61.8303 278.509 61.0008 266.133C60.6197 260.394 41.3621 237.707 43.5143 222.888L62.7271 213.158Z" fill="#75C4D5"/>
<path d="M43.537 228.134C43.537 228.134 46.317 229.546 51.2491 229.95C56.8761 230.42 65.328 229.591 75.6181 223.874C75.6181 223.874 78.4877 221.52 74.968 211.454C72.3002 203.854 70.9999 187.803 67.7492 173.186C67.7492 173.186 57.19 169.868 48.7157 172.737C42.2367 174.934 42.8869 184.866 41.6987 195.201C41.5866 196.165 41.4521 197.129 41.3176 198.093C39.5241 209.437 43.537 228.134 43.537 228.134Z" fill="#FF8181"/>
<path d="M58.4232 162.358C58.4232 162.358 56.7418 158.636 56.6521 155.632C56.5849 153.502 58.7595 145.902 66.3819 148.144C66.3819 148.144 68.6013 148.682 70.5293 150.431C72.0538 151.821 74.1387 154.623 70.4396 160.99L69.4084 163.165L58.4232 162.358Z" fill="#233862"/>
<path d="M71.448 151.53C71.448 151.53 64.2292 139.805 58.6469 145.835C58.6469 145.835 54.9927 146.777 52.9078 152.449C50.778 158.255 54.096 163.367 56.3154 162.537C57.7278 161.999 58.4003 164.465 58.4003 164.465L71.448 151.53Z" fill="#2E308E"/>
<path d="M59.7681 144.916C59.7681 144.916 59.2749 140.051 52.1681 140.522C52.1681 140.522 55.5309 140.589 56.2483 141.979C56.2483 141.979 53.8047 140.41 52.0336 141.172C50.2626 141.934 49.5003 145.275 49.59 146.329C49.6797 147.382 51.0472 150.7 52.2578 150.88C53.446 151.059 55.0153 150.207 55.0153 150.207L59.7681 144.916Z" fill="#2E308E"/>
<path d="M56.2035 172.424C56.8761 170.653 57.8625 168.792 58.6696 163.098L59.0956 163.255L66.2695 165.788C66.2695 165.788 65.7763 168.075 65.44 170.272C65.3055 171.168 65.2159 172.76 65.1486 174.15C65.0813 175.585 63.6914 175.719 62.2566 175.652C58.4678 175.473 56.3829 174.06 56.2035 172.424Z" fill="#FFD7B4"/>
<path d="M66.2471 165.788C66.2471 165.788 65.7539 168.075 65.4176 170.272C61.315 169.554 59.6784 165.474 59.0731 163.255L66.2471 165.788Z" fill="#EFB583"/>
<path d="M67.3233 168.052C67.3233 168.052 57.5263 166.797 58.4007 160.721C59.275 154.646 58.6024 150.386 64.8797 150.924C71.1569 151.462 72.0536 153.951 72.2554 156.058C72.4572 158.165 69.9014 168.231 67.3233 168.052Z" fill="#FFD7B4"/>
<path d="M69.3633 151.417C69.3633 151.417 65.6642 158.165 61.4047 158.636C57.1451 159.107 55.531 157.74 55.531 157.74C55.531 157.74 59.0283 155.699 60.3286 151.417C60.3061 151.417 67.8388 147.718 69.3633 151.417Z" fill="#2E308E"/>
<path d="M68.6012 151.888C68.6012 151.888 70.3723 153.771 70.6413 155.385C70.9104 157 70.6638 160.228 71.6053 160.25C71.6053 160.25 74.318 155.699 72.4572 152.628C70.462 149.377 68.6012 151.888 68.6012 151.888Z" fill="#2E308E"/>
<path d="M68.9373 152.202C68.9373 152.202 65.9556 159.399 60.4406 161.058C60.4406 161.058 66.2694 157.202 67.4352 152.337C68.5786 147.45 68.9373 152.202 68.9373 152.202Z" fill="#2E308E"/>
<path d="M43.5371 228.134C43.5371 228.134 46.3171 229.546 51.2492 229.95C51.2492 229.95 55.2845 224.883 50.7784 219.189C46.2722 213.494 51.1371 203.025 47.6622 197.308C45.241 193.34 42.887 194.259 41.6764 195.201C41.5643 196.165 41.4298 197.129 41.2953 198.093C39.5242 209.437 43.5371 228.134 43.5371 228.134Z" fill="#E35656"/>
<path d="M25.7812 219.705C25.7812 219.705 25.1759 221.095 24.3464 221.184C22.9789 221.341 20.3783 222.485 19.9524 222.731C18.8538 223.381 18.9211 226.341 20.0196 226.61C21.1181 226.879 21.6786 224.413 25.1535 223.762C26.3193 223.538 28.0455 224.345 28.7405 221.543L25.7812 219.705Z" fill="#FFB27D"/>
<path d="M48.693 172.737C38.6046 176.436 38.2459 194.304 33.7398 202.173C29.0991 210.289 24.593 220.96 24.593 220.96C24.593 220.96 24.6826 221.274 26.4089 221.767C27.6195 222.126 28.8974 221.969 28.8974 221.969C28.8974 221.969 38.4253 213.36 41.0034 209.952C43.5816 206.545 49.7019 190.784 49.7019 190.784C49.7019 190.784 52.706 171.258 48.693 172.737Z" fill="#FF8181"/>
<path d="M28.4944 222.238C28.4944 222.238 28.2478 223.448 26.7681 224.412C25.2885 225.376 24.1003 226.363 23.9434 225.757C23.8089 225.152 24.7729 224.502 24.9971 223.403C25.2213 222.282 28.4944 222.238 28.4944 222.238Z" fill="#FFB27D"/>
</svg>
