<svg width="315" height="310" viewBox="0 0 315 310" fill="none" xmlns="http://www.w3.org/2000/svg">
<mask id="mask0_53_1813" style="mask-type:alpha" maskUnits="userSpaceOnUse" x="0" y="3" width="304" height="304">
<rect y="3.15698" width="303.523" height="303.523" rx="151.762" fill="#6268F7"/>
</mask>
<g mask="url(#mask0_53_1813)">
<rect y="3.15698" width="303.523" height="303.523" rx="151.762" fill="#F6F6F6"/>
<path d="M257.184 47.9817C257.184 47.9817 283.244 46.6971 269.434 126.161C269.434 126.161 260.121 153.138 271.866 170.504H98.9909V47.9817H257.184Z" fill="#575BD3"/>
<path d="M240.042 254.532C240.042 254.532 252.108 240.447 240.776 231.5C240.776 231.5 232.495 226.5 225.75 226.89C225.75 226.89 235.316 242.925 232.22 244.53C229.123 246.136 222.86 225.88 222.86 225.88C222.86 225.88 204.026 224.045 197.97 226.958C197.97 226.958 214.074 240.126 210.679 240.929C207.284 241.709 189.895 228.771 189.895 228.771C189.895 228.771 172.369 231.753 173.287 242.443C174.205 253.133 180.261 256.436 182.922 256.161C185.583 255.886 201.113 249.944 201.457 252.123C201.801 254.303 192.442 261.414 185.904 261.735C185.904 261.735 198.269 275.361 206.481 271.439C214.693 267.493 215.405 261.276 220.52 258.937C225.636 256.597 230.017 256.597 227.907 258.982C225.796 261.368 216.529 263.685 213.592 268.869C210.656 274.054 208.041 277.541 216.529 276.256C225.039 274.972 238.849 268.755 239.446 261.643C240.042 254.532 240.042 254.532 240.042 254.532Z" fill="#5DA9BD"/>
<path d="M181.913 242.741C181.913 242.741 229.536 240.906 240.042 254.532C240.042 254.532 242.359 261.506 249.516 267.837L250.64 270.888C250.64 270.888 242.382 262.194 239.446 261.666C239.446 261.666 244.057 244.782 181.913 242.741Z" fill="#5DA9BD"/>
<path d="M249.539 267.837C249.539 267.837 259.77 275.407 260.481 288.896L258.623 289.056C258.623 289.056 255.366 275.086 249.447 269.626C243.552 264.19 249.539 267.837 249.539 267.837Z" fill="#5DA9BD"/>
<path d="M251.718 221.98C251.718 221.98 277.044 207.804 265.23 188.557C265.23 188.557 255.779 176.743 245.639 173.692C245.639 173.692 251.053 202.39 245.639 203.078C240.226 203.743 241.923 170.664 241.923 170.664C241.923 170.664 215.244 157.841 204.784 158.85C204.784 158.85 221.323 186.882 215.932 186.194C210.518 185.529 191.96 157.152 191.96 157.152C191.96 157.152 164.616 152.083 160.211 168.301C155.83 184.52 162.918 192.617 166.956 193.627C170.993 194.636 197.007 194.292 196.342 197.687C195.676 201.059 178.104 206.473 168.309 203.422C168.309 203.422 179.114 230.101 193.291 228.748C207.467 227.394 211.872 218.608 220.635 217.943C229.421 217.278 235.821 219.641 231.44 222.003C227.058 224.366 212.193 222.783 205.105 228.816C198.016 234.85 192.281 238.566 205.449 241.25C218.616 243.957 242.244 242.259 246.993 232.143C251.718 221.98 251.718 221.98 251.718 221.98Z" fill="#C0DBE2"/>
<path d="M172.69 173.348C172.69 173.348 243.597 196.311 251.695 221.98C251.695 221.98 251.351 233.45 258.439 246.641V251.711C258.439 251.711 251.007 234.483 246.97 232.12C246.992 232.097 262.844 209.822 172.69 173.348Z" fill="#C0DBE2"/>
<path d="M258.463 246.618C258.463 246.618 269.405 263.226 263.165 283.436L260.344 282.679C260.344 282.679 263.074 260.405 257.362 249.21C251.65 238.038 258.463 246.618 258.463 246.618Z" fill="#C0DBE2"/>
<path d="M252.568 327.274C225.178 327.274 202.949 305.069 202.949 277.656H302.164C302.164 305.069 279.958 327.274 252.568 327.274Z" fill="#EFCBAB"/>
<path d="M240.363 326.907C242.382 327.16 244.447 327.297 246.534 327.297C273.924 327.297 296.13 305.092 296.13 277.678H283.811C283.811 302.981 264.84 323.879 240.363 326.907Z" fill="#FFEBDC"/>
<path d="M201.848 277.678H303.815V279.192H201.848V277.678Z" fill="#EFCDAF"/>
<path d="M72.4485 89.0441C72.4485 89.0441 81.1427 72.6421 68.1128 66.4024C68.1128 66.4024 58.9369 63.3285 52.4449 65.2095C52.4449 65.2095 65.2912 78.767 62.6302 80.9922C59.9692 83.2173 49.3939 64.8654 49.3939 64.8654C49.3939 64.8654 30.6062 67.2282 25.3529 71.3804C25.3529 71.3804 43.9572 80.6939 40.8144 82.208C37.6716 83.722 17.8745 74.9131 17.8745 74.9131C17.8745 74.9131 1.42664 81.6804 4.6841 91.9115C7.94156 102.143 14.5712 104.047 17.0946 103.175C19.618 102.303 33.4736 93.1274 34.2765 95.169C35.0794 97.2106 27.5322 106.203 21.2008 107.969C21.2008 107.969 36.2494 118.545 43.4066 112.924C50.5639 107.281 49.8756 101.042 54.3489 97.6465C58.8222 94.2514 63.089 93.2879 61.552 96.0866C60.0151 98.8853 51.4814 103.175 49.7609 108.864C48.0405 114.553 46.2511 118.545 54.2572 115.425C62.2632 112.305 74.3754 103.221 73.412 96.1325C72.4485 89.0441 72.4485 89.0441 72.4485 89.0441Z" fill="#CBDAF3"/>
<path d="M13.1261 90.3286C13.1261 90.3286 59.1893 78.0787 72.4256 89.0669C72.4256 89.0669 76.2336 95.3525 84.6067 99.9634L86.373 102.693C86.373 102.693 76.4171 96.0177 73.412 96.1554C73.412 96.1324 74.2149 78.6522 13.1261 90.3286Z" fill="#CBDAF3"/>
<path d="M84.6068 99.9636C84.6068 99.9636 96.2373 105.102 99.8848 118.109L98.1184 118.683C98.1184 118.683 91.8788 105.767 84.905 101.73C77.9772 97.7155 84.6068 99.9636 84.6068 99.9636Z" fill="#CBDAF3"/>
</g>
<path d="M130.752 63.3633C130.752 63.3633 154.87 50.7882 144.337 32.4306C144.337 32.4306 135.803 21.1023 126.41 17.9639C126.41 17.9639 130.666 45.0058 125.593 45.4787C120.52 45.9516 123.013 15.0189 123.013 15.0189C123.013 15.0189 98.3789 2.25031 88.5553 2.91668C88.5553 2.91668 103.28 29.6362 98.2284 28.8408C93.1769 28.067 76.582 0.982045 76.582 0.982045C76.582 0.982045 51.1093 -4.52092 46.5307 10.5263C41.9735 25.5949 48.3793 33.3765 52.1411 34.4298C55.9029 35.4831 80.2793 35.8915 79.5484 39.0514C78.8176 42.1898 62.2227 46.7684 53.1299 43.6515C53.1299 43.6515 62.5022 68.9308 75.8297 68.0709C89.1571 67.2111 93.4993 59.1071 101.754 58.7202C109.987 58.3333 115.941 60.7193 111.771 62.8259C107.601 64.9325 93.7143 63.0194 86.9216 68.4579C80.1073 73.8963 74.6259 77.2282 86.9001 80.1302C99.1528 83.0321 121.337 82.1078 126.066 72.757C130.752 63.3633 130.752 63.3633 130.752 63.3633Z" fill="#C0DBE2"/>
<path d="M58.0958 15.6208C58.0958 15.6208 123.873 39.1159 130.752 63.3634C130.752 63.3634 130.107 74.1114 136.384 86.6435L136.234 91.3941C136.234 91.3941 129.763 75.0572 126.023 72.7356C126.044 72.7141 141.522 52.293 58.0958 15.6208Z" fill="#C0DBE2"/>
<path d="M136.384 86.6436C136.384 86.6436 146.165 102.508 139.759 121.252L137.136 120.457C137.136 120.457 140.318 99.6702 135.266 89.0297C130.236 78.4107 136.384 86.6436 136.384 86.6436Z" fill="#C0DBE2"/>
<path d="M266.79 240.688C266.79 240.688 253.659 233.33 259.777 223.353C259.777 223.353 264.688 217.219 269.943 215.65C269.943 215.65 267.135 230.538 269.943 230.883C272.752 231.228 271.873 214.065 271.873 214.065C271.873 214.065 285.71 207.413 291.138 207.931C291.138 207.931 282.557 222.474 285.365 222.113C288.173 221.768 297.806 207.053 297.806 207.053C297.806 207.053 311.988 204.433 314.278 212.842C316.553 221.251 312.882 225.455 310.78 225.988C308.678 226.506 295.186 226.333 295.547 228.091C295.892 229.848 305.007 232.64 310.09 231.071C310.09 231.071 304.489 244.908 297.131 244.202C289.773 243.496 287.499 238.947 282.933 238.602C278.384 238.257 275.058 239.48 277.333 240.704C279.607 241.928 287.31 241.112 290.997 244.234C294.668 247.356 297.649 249.285 290.825 250.697C284 252.094 271.732 251.231 269.285 245.975C266.79 240.688 266.79 240.688 266.79 240.688Z" fill="#C0DBE2"/>
<path d="M307.783 215.462C307.783 215.462 270.994 227.369 266.79 240.688C266.79 240.688 265.403 248.79 261.732 255.614L262.412 257.653C262.412 257.653 267.151 247.183 269.253 245.944C269.237 245.944 261.017 234.382 307.783 215.462Z" fill="#C0DBE2"/>
<path d="M68.7269 95.0088H243.218C244.875 95.0088 246.218 96.3519 246.218 98.0088V302.921C246.218 304.578 244.875 305.921 243.218 305.921H68.7269C67.07 305.921 65.7269 304.578 65.7269 302.921V98.0088C65.7269 96.3519 67.07 95.0088 68.7269 95.0088Z" fill="#575BD3"/>
<path d="M65.8594 95.0088H237.322C238.979 95.0088 240.322 96.3519 240.322 98.0088V302.921C240.322 304.578 238.979 305.921 237.322 305.921H65.8594C64.2026 305.921 62.8594 304.578 62.8594 302.921V98.0088C62.8594 96.3519 64.2026 95.0088 65.8594 95.0088Z" fill="#F2F2FF"/>
<path d="M62.8827 95.0087H240.346C239.359 81.5888 240.85 71.8394 243.213 64.8427C247.755 51.377 255.601 47.9819 255.601 47.9819H88.2542C73.9627 47.9819 62.9057 56.5844 59.8776 68.0084C59.7629 68.4443 59.6712 68.8572 59.5794 69.2931C56.689 82.3688 62.7451 94.7563 62.8827 95.0087Z" fill="#F2F2FF"/>
<path d="M62.8826 95.0087H240.345C239.359 81.5889 240.85 71.8394 243.213 64.8428C225.067 68.1691 180.174 75.2345 132.092 74.0417C100.986 73.2617 76.4171 71.1971 59.5792 69.2931C56.6888 82.3688 62.745 94.7564 62.8826 95.0087Z" fill="#C9CBFF"/>
<path d="M215.525 149.284H121.426C120.462 149.284 119.659 148.504 119.659 147.518V146.623C119.659 145.66 120.439 144.857 121.426 144.857H215.525C216.489 144.857 217.292 145.637 217.292 146.623V147.518C217.269 148.481 216.489 149.284 215.525 149.284Z" fill="#575BD3"/>
<path d="M203.688 156.717H145.627C144.87 156.717 144.25 156.097 144.25 155.34V153.689C144.25 152.932 144.87 152.312 145.627 152.312H203.688C204.445 152.312 205.064 152.932 205.064 153.689V155.34C205.087 156.074 204.445 156.717 203.688 156.717Z" fill="#575BD3"/>
<path d="M110.598 155.983V146.968H109.405C108.694 146.968 108.327 146.669 108.327 146.073C108.327 145.637 108.602 145.339 109.176 145.155C109.474 145.064 109.933 144.995 110.552 144.949C111.194 144.903 111.699 144.88 112.066 144.88C112.433 144.88 112.663 144.949 112.777 145.11C112.869 145.27 112.915 145.637 112.915 146.257V156.006H114.131C114.934 156.006 115.324 156.35 115.324 157.038C115.324 157.749 114.934 158.116 114.131 158.116H109.199C108.855 158.116 108.556 158.025 108.327 157.841C108.098 157.658 107.983 157.382 107.983 157.061C107.983 156.373 108.396 156.006 109.199 156.006H110.598V155.983Z" fill="#575BD3"/>
<path d="M215.777 195.761H121.678C120.714 195.761 119.911 194.981 119.911 193.994V193.1C119.911 192.136 120.691 191.333 121.678 191.333H215.777C216.74 191.333 217.543 192.113 217.543 193.1V193.994C217.52 194.981 216.74 195.761 215.777 195.761Z" fill="#C9CBFF"/>
<path d="M179.348 203.193H121.288C120.531 203.193 119.911 202.574 119.911 201.817V200.165C119.911 199.408 120.531 198.789 121.288 198.789H179.348C180.105 198.789 180.725 199.408 180.725 200.165V201.817C180.748 202.574 180.105 203.193 179.348 203.193Z" fill="#C9CBFF"/>
<path d="M115.782 202.299C115.782 202.895 115.369 203.193 114.52 203.193H109.29C108.533 203.193 108.166 202.895 108.166 202.276C108.166 202.092 108.258 201.863 108.464 201.61C108.762 201.266 109.198 200.762 109.772 200.073C110.644 198.972 111.378 198.032 111.951 197.229C112.158 196.954 112.433 196.564 112.823 196.013C113.121 195.462 113.282 195.004 113.282 194.637C113.282 194.224 113.144 193.88 112.892 193.604C112.616 193.329 112.295 193.191 111.882 193.191C111.469 193.191 111.125 193.329 110.827 193.581C110.621 193.742 110.46 194.063 110.345 194.545C110.208 195.141 110.093 195.508 110.047 195.6C109.887 195.944 109.634 196.105 109.267 196.105C108.946 196.105 108.694 195.99 108.51 195.761C108.35 195.554 108.258 195.302 108.258 194.958C108.258 194.591 108.327 194.201 108.441 193.834C108.694 193.008 109.152 192.388 109.795 191.953C110.414 191.54 111.171 191.333 112.043 191.333C113.006 191.333 113.809 191.631 114.474 192.205C115.14 192.824 115.484 193.604 115.484 194.568C115.484 195.279 115.254 196.013 114.773 196.77C114.497 197.183 113.97 197.917 113.121 198.972C112.685 199.523 112.02 200.303 111.102 201.335H114.543C115.369 201.358 115.782 201.679 115.782 202.299Z" fill="#C9CBFF"/>
<path d="M215.777 234.552H121.678C120.714 234.552 119.911 233.772 119.911 232.785V231.891C119.911 230.927 120.691 230.124 121.678 230.124H215.777C216.74 230.124 217.543 230.904 217.543 231.891V232.785C217.52 233.749 216.74 234.552 215.777 234.552Z" fill="#C9CBFF"/>
<path d="M179.348 241.984H121.288C120.531 241.984 119.911 241.365 119.911 240.608V238.956C119.911 238.199 120.531 237.58 121.288 237.58H179.348C180.105 237.58 180.725 238.199 180.725 238.956V240.608C180.748 241.342 180.105 241.984 179.348 241.984Z" fill="#C9CBFF"/>
<path d="M115.782 238.268C115.782 239.392 115.392 240.31 114.589 240.998C113.832 241.64 112.892 241.984 111.745 241.984C110.85 241.984 110.093 241.778 109.474 241.342C108.464 240.677 107.982 239.851 107.982 238.911C107.982 238.635 108.074 238.406 108.235 238.199C108.418 237.993 108.625 237.901 108.9 237.901C109.175 237.901 109.451 238.085 109.703 238.475C110.116 239.094 110.345 239.461 110.414 239.507C110.781 239.897 111.24 240.08 111.79 240.08C112.547 240.08 113.098 239.805 113.419 239.232C113.58 238.956 113.649 238.589 113.649 238.153C113.649 237.098 113.029 236.502 111.768 236.387C111.056 236.318 110.712 236.02 110.712 235.492C110.712 235.102 110.919 234.827 111.332 234.667C112.089 234.391 112.479 234.231 112.502 234.231C112.914 233.956 113.121 233.497 113.121 232.809C113.121 232.396 113.006 232.097 112.754 231.845C112.525 231.616 112.203 231.501 111.79 231.501C111.286 231.501 110.896 231.616 110.621 231.868C110.391 232.074 110.185 232.419 110.024 232.923C109.886 233.313 109.634 233.497 109.267 233.497C109.015 233.497 108.785 233.382 108.625 233.153C108.464 232.923 108.372 232.671 108.372 232.396C108.372 232.051 108.464 231.73 108.648 231.386C108.946 230.813 109.428 230.377 110.047 230.056C110.621 229.758 111.263 229.62 111.928 229.62C112.846 229.62 113.626 229.895 114.222 230.469C114.841 231.019 115.14 231.753 115.14 232.671C115.14 233.772 114.681 234.644 113.763 235.286C115.117 235.837 115.782 236.823 115.782 238.268Z" fill="#C9CBFF"/>
<path d="M120.714 110.631H179.349C180.358 110.631 181.184 109.805 181.184 108.796V107.328C181.184 106.318 180.358 105.492 179.349 105.492H120.714C119.705 105.492 118.879 106.318 118.879 107.328V108.796C118.879 109.828 119.705 110.631 120.714 110.631Z" fill="#C9CBFF"/>
<path d="M105.436 118.545H194.627C195.865 118.545 196.875 117.536 196.875 116.297V115.655C196.875 114.416 195.865 113.407 194.627 113.407H105.436C104.198 113.407 103.188 114.416 103.188 115.655V116.297C103.188 117.536 104.198 118.545 105.436 118.545Z" fill="#C9CBFF"/>
<path d="M156.89 173.073C176.229 173.073 194.558 170.642 208.253 167.178C222.063 163.668 229.518 157.956 229.518 152.863C229.518 148.252 223.462 144.031 211.969 140.613C222.957 143.871 228.853 148.665 228.853 152.863C228.853 157.497 221.237 162.108 207.932 165.48C194.305 168.944 176.183 170.848 156.89 170.848C137.598 170.848 119.475 168.944 105.849 165.48C92.567 162.108 84.9281 157.52 84.9281 152.863C84.9281 147.954 92.957 141.829 105.872 136.92C120.554 131.323 138.676 129.258 156.867 129.258C191.025 129.258 205.087 133.25 217.291 138.251C205.041 133.227 191.14 127.538 156.867 127.538C138.607 127.538 120.416 130.634 105.643 136.255C92.4523 141.279 84.2628 147.656 84.2628 152.886C84.2628 157.956 91.8788 162.681 105.689 166.191C119.384 169.655 137.575 173.073 156.89 173.073Z" fill="#FF7E7E"/>
<path d="M103.119 265.597H212.221C212.955 265.597 213.552 265 213.552 264.266C213.552 263.532 212.955 262.936 212.221 262.936H103.096C102.362 262.936 101.766 263.532 101.766 264.266C101.789 265 102.385 265.597 103.119 265.597Z" fill="#DADAFD"/>
<path d="M103.119 270.918H212.221C212.955 270.918 213.552 270.322 213.552 269.588C213.552 268.854 212.955 268.257 212.221 268.257H103.096C102.362 268.257 101.766 268.854 101.766 269.588C101.789 270.322 102.385 270.918 103.119 270.918Z" fill="#DADAFD"/>
<path d="M103.119 276.814H212.221C212.955 276.814 213.552 276.217 213.552 275.483C213.552 274.749 212.955 274.153 212.221 274.153H103.096C102.362 274.153 101.766 274.749 101.766 275.483C101.789 276.217 102.385 276.814 103.119 276.814Z" fill="#DADAFD"/>
<path d="M117.434 282.686H212.313C213.001 282.686 213.552 282.136 213.552 281.448V281.264C213.552 280.576 213.001 280.025 212.313 280.025H117.434C116.746 280.025 116.195 280.576 116.195 281.264V281.448C116.195 282.136 116.746 282.686 117.434 282.686Z" fill="#DADAFD"/>
<path d="M108.011 154.886L109.284 152.484C109.284 152.484 108.647 148.212 114.007 145.502C114.007 145.502 115.958 144.701 117.067 146.303C118.094 147.781 115.116 147.514 115.28 150.019C115.445 152.545 114.254 154.024 112.57 154.845L111.194 156.447L108.011 154.886Z" fill="#FFD7B4"/>
<path d="M60.5595 151.084C60.5595 151.084 64.7693 168.857 87.9794 174.668C95.215 176.476 111.678 156.007 111.678 156.007C111.678 156.007 111.096 154.119 107.468 154.554C107.468 154.554 91.4563 163.659 89.4266 164.66C87.6412 165.531 75.8763 153.376 70.5014 151.407C65.1452 149.437 60.5595 151.084 60.5595 151.084Z" fill="#4449C5"/>
<path d="M124.758 144.68L125.478 149.369L101.934 152.985L101.214 148.296L124.758 144.68Z" fill="#FFADAD"/>
<path d="M130.599 146.2L125.486 149.383L124.767 144.701L130.599 146.2Z" fill="#FF7E7E"/>
<path d="M98.7291 150.286L98.955 151.765C99.0988 152.668 99.9407 153.305 100.865 153.161L101.953 152.997L101.234 148.315L100.043 148.5C99.1809 148.623 98.5854 149.424 98.7291 150.286Z" fill="#FF7E7E"/>
<ellipse cx="54.386" cy="305.921" rx="32.6316" ry="4.07895" fill="#F9F7F7"/>
<path d="M27.0412 291.259C27.0412 291.259 23.8993 294.134 24.5154 296.167C25.1314 298.2 27.9653 299.555 28.3554 302.06C28.7456 304.545 30.2652 305.921 31.6615 305.921C33.0374 305.921 38.2533 305.921 38.2533 305.921C38.2533 305.921 39.2595 304.175 36.8158 303.641C34.3516 303.108 33.4276 300.192 33.5918 297.46C33.7356 294.75 33.366 291.115 33.366 291.115L28.1501 289.904L27.0412 291.259Z" fill="#E07171"/>
<path d="M65.6267 298.672C65.6267 298.672 65.0722 305.202 66.4481 305.88L84.1082 305.839C84.1082 305.839 84.1081 303.806 81.2743 303.354C78.4405 302.902 73.4505 301.239 72.6086 297.543C71.7666 293.847 65.6267 298.672 65.6267 298.672Z" fill="#E07171"/>
<path d="M80.5352 206.429C80.5352 206.429 79.6111 217.867 78.5022 231.646C77.0237 250.333 75.2166 273.291 75.0523 277.644C74.7443 285.201 73.5122 297.276 73.5122 297.276C73.5122 297.276 70.5962 300.151 64.7643 298.939C64.7643 298.939 59.5689 281.69 58.0904 263.434C58.0699 263.126 58.0493 262.838 58.0288 262.53C56.653 243.946 54.4968 204.827 54.4968 204.827L80.5352 206.429Z" fill="#FFAB56"/>
<path d="M80.5352 206.429C80.5352 206.429 79.6111 217.867 78.5022 231.646L58.0904 263.455C58.0699 263.147 58.0493 262.859 58.0288 262.551C56.653 243.967 54.4968 204.848 54.4968 204.848L80.5352 206.429Z" fill="#FF9334"/>
<path d="M76.2844 207.785C76.2844 207.785 59.4868 249.245 48.439 268.732C37.3912 288.22 33.9413 293.662 33.9413 293.662C33.9413 293.662 27.6165 291.177 27.0415 289.473C27.0415 289.473 31.2717 251.853 38.6643 242.694C42.8534 237.519 47.7613 221.974 47.9872 216.532C48.2131 211.091 49.4863 200.33 49.4863 200.33L76.2844 207.785Z" fill="#FFAB56"/>
<path d="M70.3521 122.802C74.2313 132.948 75.9931 138.558 73.6789 144.103C71.3653 149.648 60.5019 152.099 60.5019 152.099C60.5019 152.099 64.5451 167.594 50.0764 173.161C35.6076 178.728 26.9585 159.928 36.7856 151.068C46.1406 142.634 49.1593 140.082 48.9932 127.023C48.8411 115.091 60.3254 113.524 64.4077 117.164C68.4894 120.803 70.3521 122.802 70.3521 122.802Z" fill="#2E308E"/>
<path d="M56.7909 129.415L56.7652 141.666C56.7652 141.666 64.5402 151.341 67.1433 147.724C68.0321 146.49 64.1986 140.365 64.1986 140.365L63.7044 130.594L56.7909 129.415Z" fill="#FFD7B4"/>
<path d="M64.1977 140.365L63.7035 130.594L56.7899 129.416L56.7837 132.366C59.5647 141.306 62.8328 143.511 64.7286 144.083C65.3207 144.261 65.6444 143.861 65.8037 143.192C65.0127 141.668 64.1977 140.365 64.1977 140.365Z" fill="#EFB583"/>
<path d="M72.7878 126.223C73.8089 131.159 74.4628 137.337 70.0858 138.094C63.2956 139.269 57.9775 134.984 56.9562 130.046C55.9348 125.109 58.633 120.376 62.9831 119.476C67.333 118.576 71.7664 121.285 72.7878 126.223Z" fill="#FFD7B4"/>
<path d="M62.0304 116.453C66.4779 114.603 70.5711 117.861 72.5793 121.242C74.0282 123.682 73.9191 124.29 73.9191 124.29C73.9191 124.29 73.6585 125.172 70.1578 126.585C66.6569 127.998 66.2043 128.07 66.2043 128.07L64.6001 123.997L64.8699 128.358C64.8699 128.358 64.562 129.336 61.9872 129.006C59.4128 128.678 57.2141 125.44 57.2141 125.44C57.2141 125.44 55.9236 123.251 57.1113 121.103C58.2988 118.956 62.0304 116.453 62.0304 116.453Z" fill="#2E308E"/>
<path d="M31.8301 161.419L31.8143 161.424C31.7202 161.445 31.6269 161.387 31.6051 161.293C31.1339 159.266 31.4387 156.916 32.4633 154.678C33.6221 152.148 35.681 149.77 38.4178 147.801C44.5163 143.416 49.5548 138.75 49.4363 126.022C49.4354 125.926 49.5125 125.847 49.609 125.846C49.705 125.845 49.7839 125.923 49.7848 126.019C49.839 131.867 48.7934 136.49 46.5882 140.151C44.6433 143.379 41.9963 145.656 38.6211 148.084C35.9336 150.017 33.9136 152.347 32.7801 154.823C31.7872 156.991 31.4906 159.261 31.9446 161.215C31.965 161.303 31.9144 161.39 31.8301 161.419Z" fill="#2E308E"/>
<path d="M32.2433 152.457C32.194 152.474 32.1377 152.468 32.0909 152.437C32.0109 152.384 31.9894 152.276 32.0427 152.195C32.0642 152.164 34.2249 148.962 38.1178 146.626C45.5922 142.142 49.3829 135.472 49.081 127.338C49.0778 127.243 49.1523 127.161 49.2488 127.158C49.3451 127.155 49.4262 127.23 49.4295 127.325C49.6159 132.35 48.2921 136.809 45.4949 140.577C43.6941 143.005 41.2723 145.141 38.2974 146.926C34.4743 149.219 32.3536 152.358 32.3328 152.389C32.3106 152.423 32.2785 152.446 32.2433 152.457Z" fill="#2E308E"/>
<path d="M39.9374 205.977C39.9374 205.977 40.5123 211.522 41.1284 212.569C41.7444 213.616 44.414 216.964 45.5434 217.621C46.6728 218.278 44.8452 213.206 45.0916 212.22C45.3175 211.234 46.0157 214.027 46.5291 214.089C47.0425 214.15 46.8987 211.645 46.9193 210.741C46.9398 209.838 44.4961 207.579 43.6337 205.628C42.7507 203.677 39.9374 205.977 39.9374 205.977Z" fill="#FFD7B4"/>
<path d="M48.1925 202.425C48.172 203.123 49.6505 203.903 50.3076 204.211C55.1744 206.347 59.7126 207.825 64.8464 208.339C70.9247 208.955 78.0915 207.599 80.5762 207.641C80.8226 207.641 81.0485 207.538 81.2539 207.374C81.4387 207.25 78.9539 205.817 78.954 191.821C78.954 191.451 77.5989 185.735 77.5989 185.735C78.2074 180.258 77.7631 182.211 77.5989 178.432C83.0759 163.218 78.9539 157.638 78.9539 157.638C73.9476 150.439 76.3818 148.613 71.8488 146.467L67.2535 144.353C64.9946 144.805 64.9285 144.803 62.5259 143.633C59.8975 142.36 57.0842 141.004 56.6324 141.354C53.203 143.859 50.8826 149.485 49.6505 156.693C48.9523 160.841 48.5827 165.482 48.6237 170.349C48.6237 172.136 48.6648 173.963 48.7675 175.791C49.363 185.606 48.7675 194.149 48.4184 199.098C48.2952 200.515 48.2336 201.644 48.1925 202.425Z" fill="#5F64DF"/>
<path d="M48.3976 201.973C88.1945 201.891 55.7286 158.788 55.7286 158.788L49.2807 156.693C48.7673 161.129 48.5209 166.078 48.5414 171.273C48.5414 173.183 48.5825 175.134 48.6441 177.085C49.0958 187.578 48.6646 196.716 48.3976 201.973Z" fill="#4449C5"/>
<path d="M56.612 141.312C56.612 141.312 49.7533 144.557 46.4677 149.547C41.375 157.289 35.461 185.524 35.3378 188.132C35.2351 190.74 39.6501 209.201 39.6501 209.201C39.6501 209.201 44.1473 208.914 45.2972 206.634C45.2972 206.634 44.3937 187.681 44.9687 186.448C45.5437 185.237 63.676 161.006 61.6431 155.851C59.6101 150.697 56.612 141.312 56.612 141.312Z" fill="#5F64DF"/>
<path d="M109.305 152.36C109.305 152.36 108.935 150.882 109.962 150.225C110.989 149.568 111.933 147.761 112.365 148.007C113.248 148.52 111.872 150.081 112.139 152.052C112.2 152.73 110.599 154.537 109.305 152.36Z" fill="#FFD7B4"/>
</svg>
