<svg width="327" height="314" viewBox="0 0 327 314" fill="none" xmlns="http://www.w3.org/2000/svg">
<mask id="mask0_223_1658" style="mask-type:alpha" maskUnits="userSpaceOnUse" x="0" y="0" width="314" height="314">
<rect width="313.314" height="313.314" rx="156.657" fill="#6268F7"/>
</mask>
<g mask="url(#mask0_223_1658)">
<rect width="313.314" height="313.314" rx="156.657" fill="#F6F6F6"/>
<path d="M78.6152 290.648C78.6152 290.648 97.201 294.288 98.1592 294.096C99.1173 293.904 119.428 284.899 121.535 286.239C123.643 287.58 135.906 292.756 138.588 293.904C141.271 295.053 137.055 295.437 134.948 295.437C132.84 295.437 120.769 290.456 119.428 291.412C118.086 292.372 129.966 294.288 129.966 295.053C129.966 295.821 98.1592 303.102 96.2433 303.102C94.327 303.102 79.5734 301.761 79.5734 301.761L78.6152 290.648Z" fill="#FFCB9E"/>
<path d="M62.4619 189.317C72.4737 191.281 78.3657 201.878 80.2816 211.157C82.1975 220.439 62.4619 189.317 62.4619 189.317Z" fill="#E35656"/>
<path d="M45.7009 182.181C45.7009 182.181 26.4446 195.115 16.0976 201.44C5.75089 207.761 19.8341 275.878 23.283 301.17C26.7318 326.461 86.5134 303.47 86.5134 303.47C86.5134 303.47 82.4896 282.199 87.6628 247.998C91.3686 223.5 77.795 208.145 70.0351 197.511C50.4494 170.672 45.7009 182.181 45.7009 182.181Z" fill="#FF8181"/>
<path d="M26.7282 201.723C48.8589 228.743 56.3396 233.794 50.8708 252.022C46.5597 266.392 45.1224 271.565 44.2602 276.454C43.3981 281.338 85.36 273.289 85.36 273.289L85.0727 289.099C85.0727 289.099 52.0205 304.906 35.9251 308.066C19.8304 311.23 9.771 307.494 9.771 307.494L26.7282 201.723Z" fill="#E35656"/>
<path d="M52.7876 154.971L42.8242 184.48C42.8242 184.48 53.7457 214.084 62.943 207.471C66.0829 205.215 61.7933 187.352 61.7933 187.352L68.4994 163.401L52.7876 154.971Z" fill="#FFD7B4"/>
<path d="M20.9788 200.574C7.22017 202.102 6.0335 220.692 -0.289395 251.733C-6.61266 282.773 -4.71228 303.261 -1.7264 307.204C5.45863 316.69 86.2211 283.637 96.2809 283.925C103.223 284.121 97.4303 272.427 97.4303 272.427L20.4039 284.209C20.4039 284.209 31.3258 248.284 31.3258 229.89C31.3258 211.495 26.1523 199.998 20.9788 200.574Z" fill="#FFD7B4"/>
<path d="M92.5506 273C100.598 270.991 112.382 266.391 114.681 268.403C116.98 270.415 126.465 284.786 129.627 288.81C132.788 292.835 128.19 289.67 124.741 286.51C121.292 283.349 118.417 281.625 118.417 281.625C118.417 281.625 114.106 285.65 110.083 287.946C106.059 290.246 104.622 285.649 97.7241 284.498C90.826 283.349 73.5815 289.386 73.5815 289.386L92.5506 273Z" fill="#FFD7B4"/>
<path d="M22.5151 198.273C14.0844 198.657 7.56985 205.746 5.27071 216.668C2.97121 227.589 -3.7353 262.27 -3.7353 262.27C-3.7353 262.27 -5.07632 263.23 8.91085 265.723C22.8984 268.211 34.3948 265.339 34.3948 265.339C34.3948 265.339 37.2688 245.6 36.5023 231.998C35.7362 218.392 32.6702 205.554 27.6887 201.15C22.7068 196.741 22.5151 198.273 22.5151 198.273Z" fill="#FF8181"/>
<path d="M80.1558 130.384C80.1558 130.384 60.1675 97.9182 44.7107 114.616C44.7107 114.616 34.5924 117.224 28.8194 132.929C22.9223 149.006 32.1094 163.159 38.2549 160.863C42.1656 159.373 44.0279 166.201 44.0279 166.201L80.1558 130.384Z" fill="#2E308E"/>
<path d="M47.813 112.071C47.813 112.071 46.4473 98.601 26.7694 99.9045C26.7694 99.9045 36.0807 100.091 38.0671 103.939C38.0671 103.939 31.3009 99.5942 26.397 101.705C21.493 103.815 19.3825 113.065 19.6308 115.982C19.8791 118.9 23.6657 128.087 27.0177 128.583C30.3077 129.08 34.653 126.721 34.653 126.721L47.813 112.071Z" fill="#2E308E"/>
<path d="M65.7505 169.864C65.7505 169.864 64.3848 176.196 63.4537 182.279C52.0939 180.293 47.5624 168.995 45.8864 162.849L65.7505 169.864Z" fill="#EFB583"/>
<path d="M68.7347 176.133C68.7347 176.133 41.6078 172.657 44.0288 155.835C46.4497 139.012 44.5875 127.218 61.9686 128.708C79.3497 130.198 81.8326 137.088 82.3913 142.923C82.95 148.758 75.8734 176.63 68.7347 176.133Z" fill="#FFD7B4"/>
<path d="M74.3823 130.074C74.3823 130.074 64.1399 148.759 52.3456 150.062C40.5513 151.366 36.0818 147.579 36.0818 147.579C36.0818 147.579 45.7656 141.93 49.366 130.074C49.3039 130.074 70.1612 119.831 74.3823 130.074Z" fill="#2E308E"/>
<path d="M72.2712 131.377C72.2712 131.377 77.1752 136.592 77.9201 141.061C78.665 145.53 77.9822 154.469 80.5894 154.531C80.5894 154.531 88.1005 141.93 82.9482 133.426C77.4235 124.425 72.2712 131.377 72.2712 131.377Z" fill="#2E308E"/>
<path d="M73.1992 132.246C73.1992 132.246 64.9432 152.172 49.6727 156.766C49.6727 156.766 65.8122 146.089 69.0402 132.619C72.206 119.086 73.1992 132.246 73.1992 132.246Z" fill="#2E308E"/>
<path d="M304.573 311.4H42.4266C40.5344 311.4 39 309.699 39 307.6C39 305.501 40.5344 303.8 42.4266 303.8H304.573C306.466 303.8 308 305.501 308 307.6C308 309.699 306.466 311.4 304.573 311.4Z" fill="#242888"/>
<path d="M222.97 302.902H103.71C103.71 298.748 107.078 295.381 111.233 295.381H222.97V302.902Z" fill="#D9D9D9"/>
<path d="M222.915 298.74H158.269L184.86 240.241C185.636 238.535 187.338 237.438 189.213 237.438H247.881C249.24 237.438 250.141 238.841 249.58 240.078L222.915 298.74Z" fill="#D9D9D9"/>
<path d="M247.881 237.438H196.179C194.304 237.438 192.601 238.535 191.825 240.241L165.235 298.74H222.914L249.579 240.078C250.14 238.841 249.239 237.438 247.881 237.438Z" fill="#F6F6F6"/>
</g>
<path d="M323.707 311.4H148.293C147.027 311.4 146 309.699 146 307.6C146 305.501 147.027 303.8 148.293 303.8H323.707C324.974 303.8 326 305.501 326 307.6C326 309.699 324.974 311.4 323.707 311.4Z" fill="#242888"/>
<path d="M321.844 218H104.317C101.832 218 99.8169 215.985 99.8169 213.5V87.549C99.8169 85.0639 101.832 83.0403 104.317 83.0403H321.844C324.33 83.0403 326.344 85.0639 326.344 87.549V213.5C326.344 215.985 324.33 218 321.844 218Z" fill="#C9CBFF"/>
<path d="M315.482 213.864H110.682C108.516 213.864 106.759 212.106 106.759 209.941V108.672C106.759 106.506 108.516 104.749 110.682 104.749H315.482C317.648 104.749 319.405 106.506 319.405 108.672V209.941C319.405 212.106 317.648 213.864 315.482 213.864Z" fill="white"/>
<path d="M115.793 98.261H111.009C109.997 98.261 109.171 97.4445 109.171 96.4327V92.492C109.171 91.4802 109.997 90.6637 111.009 90.6637H115.793C116.795 90.6637 117.621 91.4802 117.621 92.492V96.4327C117.621 97.4445 116.795 98.261 115.793 98.261Z" fill="white"/>
<path d="M131.14 98.261H126.356C125.353 98.261 124.527 97.4445 124.527 96.4327V92.492C124.527 91.4802 125.353 90.6637 126.356 90.6637H131.14C132.151 90.6637 132.977 91.4802 132.977 92.492V96.4327C132.977 97.4445 132.151 98.261 131.14 98.261Z" fill="white"/>
<path d="M146.495 98.261H141.711C140.699 98.261 139.883 97.4445 139.883 96.4327V92.492C139.883 91.4802 140.699 90.6637 141.711 90.6637H146.495C147.507 90.6637 148.323 91.4802 148.323 92.492V96.4327C148.323 97.4445 147.507 98.261 146.495 98.261Z" fill="white"/>
<path d="M114.683 206.718H311.487V111.885H114.683V206.718ZM312.197 207.428H113.973V111.174H312.197V207.428Z" fill="#C9CBFF"/>
<path d="M311.842 188.32H114.329V187.61H311.842V188.32Z" fill="#C9CBFF"/>
<path d="M311.842 169.212H114.329V168.502H311.842V169.212Z" fill="#C9CBFF"/>
<path d="M311.842 150.103H114.329V149.393H311.842V150.103Z" fill="#C9CBFF"/>
<path d="M226.884 131.065H114.825V130.065H226.884V131.065Z" fill="#C9CBFF"/>
<path d="M311.928 131.065H283.914V130.065H311.928V131.065Z" fill="#C9CBFF"/>
<path d="M283.974 207.074H283.272V111.53H283.974V207.074Z" fill="#C9CBFF"/>
<path d="M255.899 207.105H254.898V150.075H255.899V207.105Z" fill="#C9CBFF"/>
<path d="M227.543 207.074H226.833V111.53H227.543V207.074Z" fill="#C9CBFF"/>
<path d="M199.329 207.074H198.619V111.53H199.329V207.074Z" fill="#C9CBFF"/>
<path d="M171.112 207.074H170.402V111.53H171.112V207.074Z" fill="#C9CBFF"/>
<path d="M142.899 207.074H142.189V111.53H142.899V207.074Z" fill="#C9CBFF"/>
<path d="M304.448 123.601H297.81C295.271 123.601 293.203 121.524 293.203 118.994C293.203 116.456 295.271 114.388 297.81 114.388H304.448C306.978 114.388 309.055 116.456 309.055 118.994C309.055 121.524 306.978 123.601 304.448 123.601Z" fill="#FBA356"/>
<path d="M302.575 165.282H291.108C289.901 165.282 288.916 164.297 288.916 163.09V158.271C288.916 157.064 289.901 156.079 291.108 156.079H302.575C303.782 156.079 304.768 157.064 304.768 158.271V163.09C304.768 164.297 303.782 165.282 302.575 165.282Z" fill="#FBA356"/>
<path d="M161.502 182.291H150.035C148.827 182.291 147.842 181.306 147.842 180.099V175.28C147.842 174.073 148.827 173.087 150.035 173.087H161.502C162.709 173.087 163.694 174.073 163.694 175.28V180.099C163.694 181.306 162.709 182.291 161.502 182.291Z" fill="#FBA356"/>
<path d="M164.112 146.952H148.527C146.796 146.952 145.394 145.541 145.394 143.819V136.479C145.394 134.757 146.796 133.346 148.527 133.346H164.112C165.834 133.346 167.245 134.757 167.245 136.479V143.819C167.245 145.541 165.834 146.952 164.112 146.952Z" fill="#C9CBFF"/>
<path d="M161.91 145.035H150.718C149.476 145.035 148.464 144.023 148.464 142.781V137.509C148.464 136.275 149.476 135.263 150.718 135.263H161.91C163.153 135.263 164.165 136.275 164.165 137.509V142.781C164.165 144.023 163.153 145.035 161.91 145.035Z" fill="white"/>
<path d="M277.22 204.145H261.635C259.913 204.145 258.501 202.733 258.501 201.012V193.672C258.501 191.95 259.913 190.539 261.635 190.539H277.22C278.942 190.539 280.353 191.95 280.353 193.672V201.012C280.353 202.733 278.942 204.145 277.22 204.145Z" fill="#C9CBFF"/>
<path d="M275.02 202.228H263.828C262.595 202.228 261.583 201.216 261.583 199.983V194.711C261.583 193.468 262.595 192.456 263.828 192.456H275.02C276.263 192.456 277.275 193.468 277.275 194.711V199.983C277.275 201.216 276.263 202.228 275.02 202.228Z" fill="white"/>
<path d="M222.51 137.313H210.298C209.472 137.313 208.798 136.63 208.798 135.813C208.798 134.988 209.472 134.313 210.298 134.313H222.51C223.336 134.313 224.01 134.988 224.01 135.813C224.01 136.63 223.336 137.313 222.51 137.313Z" fill="#C9CBFF"/>
<path d="M222.51 142.017H210.298C209.472 142.017 208.798 141.351 208.798 140.526C208.798 139.7 209.472 139.026 210.298 139.026H222.51C223.336 139.026 224.01 139.7 224.01 140.526C224.01 141.351 223.336 142.017 222.51 142.017Z" fill="#C9CBFF"/>
<path d="M195.52 194.187H183.307C182.482 194.187 181.807 193.513 181.807 192.687C181.807 191.862 182.482 191.187 183.307 191.187H195.52C196.345 191.187 197.02 191.862 197.02 192.687C197.02 193.513 196.345 194.187 195.52 194.187Z" fill="#C9CBFF"/>
<path d="M195.52 198.9H183.307C182.482 198.9 181.807 198.226 181.807 197.4C181.807 196.575 182.482 195.9 183.307 195.9H195.52C196.345 195.9 197.02 196.575 197.02 197.4C197.02 198.226 196.345 198.9 195.52 198.9Z" fill="#C9CBFF"/>
<path d="M132.211 158.517H119.998C119.173 158.517 118.499 157.843 118.499 157.017C118.499 156.192 119.173 155.517 119.998 155.517H132.211C133.036 155.517 133.711 156.192 133.711 157.017C133.711 157.843 133.036 158.517 132.211 158.517Z" fill="#C9CBFF"/>
<path d="M132.211 163.229H119.998C119.173 163.229 118.499 162.555 118.499 161.73C118.499 160.904 119.173 160.23 119.998 160.23H132.211C133.036 160.23 133.711 160.904 133.711 161.73C133.711 162.555 133.036 163.229 132.211 163.229Z" fill="#C9CBFF"/>
<rect x="227.917" y="112.138" width="55.3592" height="36.9062" rx="2" fill="#4CA2B5"/>
<path d="M251.691 140.303H251.589C250.841 140.286 250.143 139.942 249.65 139.374L243.155 131.926C242.168 130.791 242.288 129.037 243.41 128.039C244.532 127.042 246.25 127.145 247.253 128.297L251.827 133.56L263.628 121.882C264.699 120.815 266.433 120.833 267.488 121.933C268.525 123.017 268.508 124.754 267.437 125.82L253.595 139.529C253.085 140.028 252.405 140.303 251.691 140.303Z" fill="white"/>
<path d="M247.258 178.442C247.258 181.992 244.373 184.868 240.823 184.868C237.282 184.868 234.397 181.992 234.397 178.442C234.397 174.892 237.282 172.016 240.823 172.016C244.373 172.016 247.258 174.892 247.258 178.442Z" fill="#C9CBFF"/>
<path d="M164.022 198.039C164.022 201.589 161.146 204.465 157.596 204.465C154.046 204.465 151.17 201.589 151.17 198.039C151.17 194.489 154.046 191.613 157.596 191.613C161.146 191.613 164.022 194.489 164.022 198.039Z" fill="#C9CBFF"/>
<path d="M257.308 260.911C257.308 260.911 264.19 252.885 257.726 247.777C257.726 247.777 253.004 244.918 249.161 245.156C249.161 245.156 254.612 254.299 252.855 255.208C251.097 256.116 247.522 244.591 247.522 244.591C247.522 244.591 236.783 243.548 233.327 245.216C233.327 245.216 242.503 252.721 240.566 253.168C238.63 253.614 228.724 246.243 228.724 246.243C228.724 246.243 218.73 247.941 219.266 254.031C219.802 260.122 223.243 262.013 224.762 261.849C226.282 261.685 235.129 258.305 235.323 259.541C235.517 260.777 230.184 264.827 226.46 265.021C226.46 265.021 233.506 272.794 238.183 270.545C242.86 268.297 243.262 264.753 246.182 263.413C249.101 262.072 251.589 262.087 250.382 263.442C249.176 264.797 243.888 266.123 242.22 269.071C240.551 272.019 239.047 274.015 243.903 273.285C248.744 272.555 256.623 269.011 256.966 264.961C257.308 260.911 257.308 260.911 257.308 260.911Z" fill="#4CAFAF"/>
<path d="M224.167 254.195C224.167 254.195 251.306 253.153 257.308 260.911C257.308 260.911 258.634 264.887 262.715 268.49L263.356 270.217C263.356 270.217 258.649 265.259 256.966 264.961C256.951 264.961 259.587 255.356 224.167 254.195Z" fill="#4CAFAF"/>
<path d="M262.715 268.49C262.715 268.49 268.539 272.794 268.941 280.492L267.884 280.582C267.884 280.582 266.022 272.63 262.656 269.518C259.289 266.406 262.715 268.49 262.715 268.49Z" fill="#4CAFAF"/>
<path d="M279.421 250.815C279.421 250.815 268.473 244.68 273.582 236.371C273.582 236.371 277.663 231.264 282.042 229.953C282.042 229.953 279.704 242.357 282.042 242.655C284.381 242.953 283.651 228.643 283.651 228.643C283.651 228.643 295.18 223.103 299.708 223.535C299.708 223.535 292.558 235.656 294.897 235.359C297.235 235.061 305.264 222.806 305.264 222.806C305.264 222.806 317.091 220.617 318.982 227.615C320.874 234.614 317.821 238.128 316.063 238.56C314.305 238.992 303.074 238.858 303.357 240.317C303.655 241.777 311.237 244.114 315.482 242.804C315.482 242.804 310.805 254.329 304.683 253.749C298.546 253.168 296.654 249.371 292.856 249.073C289.058 248.775 286.287 249.803 288.179 250.83C290.071 251.858 296.505 251.158 299.574 253.764C302.642 256.37 305.115 257.978 299.425 259.139C293.735 260.301 283.517 259.571 281.461 255.193C279.421 250.815 279.421 250.815 279.421 250.815Z" fill="#88D0E2"/>
<path d="M313.591 229.79C313.591 229.79 282.937 239.722 279.421 250.801C279.421 250.801 279.57 255.759 276.502 261.462V263.651C276.502 263.651 279.719 256.206 281.462 255.178C281.477 255.193 274.61 245.559 313.591 229.79Z" fill="#4CAFAF"/>
<path d="M276.501 261.462C276.501 261.462 271.78 268.639 274.476 277.38L275.697 277.053C275.697 277.053 274.52 267.433 276.993 262.594C279.451 257.754 276.501 261.462 276.501 261.462Z" fill="#4CAFAF"/>
<path d="M262.008 242.357C262.008 242.357 276.441 234.272 269.709 223.312C269.709 223.312 264.317 216.581 258.552 214.839C258.552 214.839 261.636 231.189 258.552 231.576C255.469 231.963 256.437 213.112 256.437 213.112C256.437 213.112 241.229 205.8 235.271 206.381C235.271 206.381 244.7 222.344 241.616 221.972C238.533 221.585 227.957 205.428 227.957 205.428C227.957 205.428 212.362 202.539 209.86 211.772C207.357 221.004 211.394 225.62 213.703 226.201C216.011 226.781 230.832 226.588 230.445 228.509C230.058 230.43 220.048 233.512 214.477 231.785C214.477 231.785 220.629 246.988 228.717 246.214C236.805 245.44 239.308 240.436 244.312 240.064C249.317 239.677 252.966 241.032 250.464 242.372C247.962 243.712 239.501 242.819 235.45 246.244C231.413 249.684 228.136 251.798 235.643 253.332C243.151 254.866 256.616 253.913 259.312 248.135C262.008 242.357 262.008 242.357 262.008 242.357Z" fill="#88D0E2"/>
<path d="M216.979 214.646C216.979 214.646 257.39 227.735 262.008 242.357C262.008 242.357 261.814 248.894 265.851 256.399V259.288C265.851 259.288 261.621 249.475 259.312 248.135C259.312 248.135 268.353 235.433 216.979 214.646Z" fill="#4CAFAF"/>
<path d="M265.85 256.4C265.85 256.4 272.076 265.855 268.531 277.381L266.923 276.949C266.923 276.949 268.487 264.262 265.225 257.889C261.963 251.501 265.85 256.4 265.85 256.4Z" fill="#4CAFAF"/>
<path d="M269.306 302.352C253.696 302.352 241.035 289.695 241.035 274.09H297.578C297.578 289.71 284.917 302.352 269.306 302.352Z" fill="#FBA356"/>
<path opacity="0.4" d="M262.335 302.144C263.482 302.293 264.659 302.367 265.851 302.367C281.461 302.367 294.122 289.71 294.122 274.104H287.091C287.106 288.519 276.307 300.417 262.335 302.144Z" fill="#D78C4C"/>
<path d="M240.634 303.797H297.966C297.966 301.876 296.402 300.313 294.48 300.313H244.134C242.198 300.313 240.634 301.876 240.634 303.797Z" fill="#FBA356"/>
<path d="M240.386 274.965H298.507V274.101H240.386V274.965Z" fill="#5F9AA8"/>
</svg>
