<svg width="328" height="303" viewBox="0 0 328 303" fill="none" xmlns="http://www.w3.org/2000/svg">
<mask id="mask0_61_3548" style="mask-type:alpha" maskUnits="userSpaceOnUse" x="0" y="0" width="318" height="301">
<path d="M0.136414 150.302C0.136414 67.2923 67.4288 0 150.438 0H167.438C250.447 0 317.74 67.2923 317.74 150.302V150.302C317.74 233.311 250.447 300.603 167.438 300.603H150.438C67.4287 300.603 0.136414 233.311 0.136414 150.302V150.302Z" fill="#6268F7"/>
</mask>
<g mask="url(#mask0_61_3548)">
<rect x="17.781" y="2.49536" width="288.73" height="301.458" rx="144.365" fill="#F6F6F6"/>
<g opacity="0.5">
<path opacity="0.5" d="M102.576 137.877C102.576 137.877 92.725 107.399 73.6182 92.0943C71.0768 90.0569 67.4866 92.4908 68.2248 95.7469C68.2349 95.7973 68.2484 95.8644 68.2585 95.9148C69.5714 101.446 91.4862 121.201 102.576 137.877Z" fill="#989AD9"/>
<path opacity="0.5" d="M106.239 146.417C106.239 146.417 83.0949 110.683 53.5109 99.1278C51.7065 98.4188 49.6294 99.2769 48.8793 101.141C48.4004 102.35 48.4094 104.066 49.7168 106.479C53.1707 112.891 86.9549 129.643 106.239 146.417Z" fill="#989AD9"/>
</g>
<g opacity="0.5">
<path opacity="0.5" d="M155.617 115.09C155.617 115.09 151.263 97.7994 155.634 84.5911C156.209 82.8414 158.591 82.8243 159.215 84.5568C159.232 84.5911 159.232 84.6083 159.248 84.6426C160.25 87.6445 155.88 103.82 155.617 115.09Z" fill="#989AD9"/>
<path opacity="0.5" d="M156.422 120.219C156.422 120.219 156.701 96.2383 167.035 81.4347C167.659 80.5256 168.875 80.2683 169.762 80.8858C170.337 81.2975 170.83 82.1037 170.945 83.6304C171.225 87.7129 160.447 106.273 156.422 120.219Z" fill="#989AD9"/>
</g>
<path d="M157.188 47.2441C157.188 47.2441 155.999 76.3904 150.763 75.8226C145.528 75.2548 154.351 43.44 154.351 43.44C154.351 43.44 132.055 24.9302 121.969 23.5486C121.969 23.5486 131.415 54.5496 126.472 52.6759C121.53 50.8022 110.254 19.0063 110.254 19.0063C110.254 19.0063 85.6151 7.89664 77.9452 22.678C70.2754 37.4593 75.1811 46.9413 78.769 48.8529C82.3568 50.7644 106.904 56.3098 105.531 59.4326C104.158 62.5743 86.4572 63.8613 77.9086 58.6945C77.9086 58.6945 82.247 87.0837 95.8843 88.9763C109.522 90.8689 115.581 83.3174 123.983 84.6422C132.385 85.967 137.913 89.7144 133.264 91.0203C128.614 92.3262 114.977 87.4244 106.996 91.6828C98.9962 95.9411 92.7908 98.2691 104.598 103.871C116.404 109.473 139.011 113.183 145.674 104.382C145.967 104.004 146.242 103.625 146.517 103.284C146.059 104.042 145.674 104.382 145.674 104.382C147.651 106.313 149.61 113.713 150.855 119.334C151.001 120.28 151.276 121.586 151.697 123.403C151.862 124.217 151.971 124.86 152.063 125.333C153.893 137.692 147.194 156.637 147.194 156.637L149.683 158C159.971 139.736 153.308 121.113 153.308 121.113C149.519 106.691 152.338 95.6005 152.338 95.6005C152.338 95.6005 179.265 87.519 172.363 66.1324C172.382 66.1324 166.066 52.4867 157.188 47.2441Z" fill="#D7F0F3"/>
<path opacity="0.5" d="M31.1716 158.947C31.796 145.138 53.7128 144.366 53.7128 144.366C53.7128 144.366 72.8202 163.87 77.0918 163.458C81.3635 163.047 63.8826 143.457 63.8826 143.457C71.7687 140.798 94.4742 146.373 94.4742 146.373C94.4742 146.373 98.7787 173.27 102.837 171.761C106.878 170.268 97.8586 148.157 97.8586 148.157C106.172 148.809 115.455 156.631 115.455 156.631C127.809 170.011 110.723 185.895 110.723 185.895C110.723 185.895 112.415 195.175 120.104 204.507C120.104 204.507 121.747 206.171 123.702 209.207L121.583 209.704C121.287 209.156 120.975 208.624 120.646 208.109C120.646 208.109 120.646 208.109 120.646 208.092L120.63 208.075C120.416 207.766 120.104 207.32 119.71 206.788C118.773 205.605 118.133 204.73 117.705 204.078C114.879 200.356 110.936 195.57 108.817 194.867C108.817 194.867 108.981 194.472 109.063 193.752C108.981 194.112 108.899 194.489 108.817 194.867C106.895 203.838 88.9867 209.379 78.3898 209.55C67.7928 209.704 71.588 205.708 76.0239 199.601C80.4599 193.494 92.174 192.156 95.1478 189.463C98.1215 186.787 92.7819 186.015 86.1445 188.125C79.507 190.218 77.6176 198.057 66.9221 201.659C56.2265 205.262 43.3951 185.724 43.3951 185.724C51.4455 186.427 64.0469 178.982 63.9976 176.152C63.9483 173.322 43.9866 178.193 40.7007 178.09C37.3655 178.005 30.5309 172.756 31.1716 158.947Z" fill="#A0BEF1"/>
<path opacity="0.3" d="M297.587 229.512C306.016 217.848 288.699 201.741 288.699 201.741C288.699 201.741 260.523 204.108 257.319 200.763C254.115 197.401 281.027 193.833 281.027 193.833C276.344 186.097 254.247 174.604 254.247 174.604C254.247 174.604 233.316 193.438 230.999 189.356C228.683 185.273 250.353 173.677 250.353 173.677C243.173 168.325 230.556 168.137 230.556 168.137C211.842 170.281 215.44 195.274 215.44 195.274C215.44 195.274 208.047 201.638 195.758 203.782C195.758 203.782 193.343 203.988 189.778 205.068L191.191 206.973C191.799 206.732 192.39 206.527 192.981 206.338C192.981 206.338 192.981 206.338 192.998 206.338C193.014 206.338 193.014 206.338 193.031 206.338C193.409 206.235 193.951 206.098 194.608 205.943C196.119 205.635 197.22 205.377 197.992 205.154C202.708 204.125 209.017 203.027 211.185 203.936C211.185 203.936 211.317 203.49 211.711 202.856C211.547 203.199 211.366 203.559 211.185 203.936C206.93 212.599 217.905 229.753 226.415 237.369C234.926 244.985 234.433 239.05 234.778 230.953C235.123 222.857 226.481 213.491 225.791 209.202C225.101 204.914 229.948 208.07 233.989 214.469C238.031 220.867 234.499 228.569 240.857 239.05C247.215 249.531 270.315 242.721 270.315 242.721C263.299 237.609 257.894 222.651 259.767 220.387C261.64 218.122 274.718 236.185 277.461 238.432C280.189 240.628 289.159 241.177 297.587 229.512Z" fill="#92B0E1"/>
<path opacity="0.3" d="M267.871 69.0595C264.05 53.6463 239.152 58.1492 239.152 58.1492C239.152 58.1492 221.991 84.8603 217.078 85.435C212.165 86.0096 227.482 59.6234 227.482 59.6234C217.981 58.5427 193.618 70.426 193.618 70.426C193.618 70.426 194.805 101.83 189.906 101.125C185.006 100.419 190.209 73.2526 190.209 73.2526C180.979 76.0337 172.265 87.1323 172.265 87.1323C161.336 105.254 184.197 118.988 184.197 118.988C184.197 118.988 184.396 129.879 177.807 142.301C177.807 142.301 176.327 144.592 174.804 148.5L177.315 148.529C177.536 147.828 177.76 147.151 178.025 146.504C178.025 146.504 178.025 146.504 178.034 146.49C178.044 146.476 178.044 146.476 178.053 146.462C178.227 146.064 178.479 145.493 178.805 144.786C179.598 143.226 180.126 142.08 180.456 141.25C182.802 136.355 186.179 129.995 188.41 128.67C188.41 128.67 188.133 128.25 187.882 127.47C188.046 127.847 188.228 128.259 188.41 128.67C192.596 138.332 214.057 140.187 226.038 137.763C238.033 135.349 232.86 131.753 226.474 125.954C220.087 120.155 206.575 121.512 202.616 119.209C198.647 116.92 204.5 114.749 212.476 115.486C220.453 116.223 224.332 124.597 237.218 126.025C250.082 127.458 260.172 102.277 260.172 102.277C251.247 105.055 235.355 99.7371 234.774 96.5301C234.193 93.323 257.814 93.9274 261.508 93.0064C265.156 92.0932 271.682 84.4865 267.871 69.0595Z" fill="#439BB2"/>
<path d="M229.151 300.112H93.2629V103.789H229.397C234.539 103.789 238.712 108.146 238.712 113.515V290.129C238.712 295.635 234.424 300.112 229.151 300.112Z" fill="#FF8181"/>
<path d="M122.39 131.273V136.497H120.049V122.456H125.191C125.971 122.456 126.668 122.572 127.267 122.79C127.881 123.009 128.382 123.329 128.8 123.722C129.218 124.115 129.539 124.595 129.762 125.133C129.985 125.686 130.096 126.268 130.096 126.923C130.096 127.607 129.985 128.218 129.762 128.756C129.539 129.294 129.218 129.745 128.8 130.124C128.382 130.502 127.867 130.779 127.267 130.982C126.654 131.186 125.971 131.288 125.191 131.288H122.39V131.273ZM122.39 129.309H125.191C125.637 129.309 126.027 129.251 126.348 129.134C126.668 129.018 126.933 128.858 127.142 128.64C127.351 128.421 127.504 128.174 127.602 127.883C127.699 127.592 127.741 127.272 127.741 126.923C127.741 126.588 127.699 126.283 127.602 125.977C127.504 125.671 127.351 125.41 127.142 125.177C126.933 124.944 126.668 124.755 126.348 124.624C126.027 124.493 125.637 124.42 125.191 124.42H122.39V129.309Z" fill="#FFC0C0" fill-opacity="0.7"/>
<path d="M138.027 133.208H132.815L131.728 136.482H129.303L134.376 122.441H136.466L141.553 136.482H139.114L138.027 133.208ZM133.47 131.244H137.372L135.421 125.424L133.47 131.244Z" fill="#FFC0C0" fill-opacity="0.7"/>
<path d="M150.109 132.874C150.109 132.597 150.067 132.335 149.984 132.117C149.9 131.899 149.761 131.695 149.552 131.506C149.342 131.317 149.05 131.142 148.674 130.967C148.297 130.793 147.823 130.618 147.238 130.429C146.597 130.225 146.012 130.007 145.468 129.745C144.925 129.483 144.465 129.192 144.075 128.843C143.685 128.508 143.378 128.116 143.155 127.665C142.932 127.228 142.82 126.719 142.82 126.137C142.82 125.569 142.932 125.045 143.169 124.58C143.406 124.1 143.726 123.692 144.144 123.343C144.562 122.994 145.064 122.732 145.649 122.528C146.235 122.339 146.876 122.237 147.587 122.237C148.339 122.237 149.022 122.354 149.621 122.587C150.22 122.819 150.736 123.125 151.154 123.518C151.572 123.911 151.893 124.362 152.116 124.885C152.339 125.409 152.45 125.948 152.45 126.544H150.123C150.123 126.21 150.067 125.889 149.97 125.598C149.872 125.307 149.719 125.06 149.51 124.856C149.301 124.653 149.036 124.478 148.715 124.376C148.395 124.26 148.019 124.202 147.573 124.202C147.155 124.202 146.806 124.245 146.5 124.347C146.193 124.449 145.942 124.58 145.747 124.754C145.552 124.929 145.399 125.133 145.301 125.366C145.204 125.598 145.162 125.86 145.162 126.137C145.162 126.661 145.399 127.097 145.872 127.432C146.346 127.781 147.057 128.101 148.033 128.392C148.785 128.625 149.44 128.887 149.997 129.163C150.555 129.44 151.015 129.76 151.377 130.124C151.739 130.487 152.018 130.88 152.199 131.331C152.381 131.782 152.464 132.277 152.464 132.844C152.464 133.441 152.353 133.965 152.13 134.445C151.907 134.911 151.586 135.318 151.168 135.653C150.75 135.987 150.248 136.235 149.663 136.409C149.078 136.584 148.409 136.671 147.684 136.671C147.043 136.671 146.402 136.584 145.775 136.395C145.148 136.206 144.59 135.929 144.089 135.565C143.587 135.202 143.183 134.736 142.89 134.183C142.584 133.63 142.43 132.975 142.43 132.233H144.772C144.772 132.67 144.841 133.063 144.994 133.383C145.148 133.703 145.357 133.965 145.608 134.168C145.872 134.372 146.179 134.518 146.541 134.605C146.904 134.692 147.28 134.75 147.698 134.75C148.506 134.75 149.12 134.576 149.538 134.241C149.914 133.892 150.109 133.426 150.109 132.874Z" fill="#FFC0C0" fill-opacity="0.7"/>
<path d="M161.522 132.874C161.522 132.597 161.48 132.335 161.397 132.117C161.313 131.899 161.174 131.695 160.965 131.506C160.756 131.317 160.463 131.142 160.087 130.967C159.711 130.793 159.237 130.618 158.651 130.429C158.01 130.225 157.425 130.007 156.882 129.745C156.338 129.483 155.878 129.192 155.488 128.843C155.098 128.508 154.791 128.116 154.568 127.665C154.345 127.228 154.234 126.719 154.234 126.137C154.234 125.569 154.345 125.045 154.582 124.58C154.819 124.1 155.14 123.692 155.558 123.343C155.976 122.994 156.477 122.732 157.063 122.528C157.648 122.339 158.289 122.237 159 122.237C159.752 122.237 160.435 122.354 161.034 122.587C161.634 122.819 162.149 123.125 162.567 123.518C162.985 123.911 163.306 124.362 163.529 124.885C163.752 125.409 163.863 125.948 163.863 126.544H161.536C161.536 126.21 161.48 125.889 161.383 125.598C161.285 125.307 161.132 125.06 160.923 124.856C160.714 124.653 160.449 124.478 160.129 124.376C159.808 124.26 159.432 124.202 158.986 124.202C158.568 124.202 158.219 124.245 157.913 124.347C157.606 124.449 157.355 124.58 157.16 124.754C156.965 124.929 156.812 125.133 156.714 125.366C156.617 125.598 156.575 125.86 156.575 126.137C156.575 126.661 156.812 127.097 157.286 127.432C157.759 127.781 158.47 128.101 159.446 128.392C160.198 128.625 160.853 128.887 161.411 129.163C161.968 129.44 162.428 129.76 162.79 130.124C163.153 130.487 163.431 130.88 163.613 131.331C163.794 131.782 163.877 132.277 163.877 132.844C163.877 133.441 163.766 133.965 163.543 134.445C163.32 134.911 162.999 135.318 162.581 135.653C162.163 135.987 161.662 136.235 161.076 136.409C160.491 136.584 159.822 136.671 159.097 136.671C158.456 136.671 157.815 136.584 157.188 136.395C156.561 136.206 156.004 135.929 155.502 135.565C155 135.202 154.596 134.736 154.303 134.183C153.997 133.63 153.843 132.975 153.843 132.233H156.185C156.185 132.67 156.254 133.063 156.408 133.383C156.561 133.703 156.77 133.965 157.021 134.168C157.286 134.372 157.592 134.518 157.955 134.605C158.317 134.692 158.693 134.75 159.111 134.75C159.92 134.75 160.533 134.576 160.951 134.241C161.327 133.892 161.522 133.426 161.522 132.874Z" fill="#FFC0C0" fill-opacity="0.7"/>
<path d="M168.253 131.273V136.497H165.912V122.456H171.054C171.835 122.456 172.532 122.572 173.131 122.79C173.744 123.008 174.246 123.329 174.664 123.721C175.082 124.114 175.402 124.594 175.625 125.133C175.848 125.686 175.96 126.268 175.96 126.922C175.96 127.606 175.848 128.217 175.625 128.756C175.402 129.294 175.082 129.745 174.664 130.124C174.246 130.502 173.73 130.778 173.131 130.982C172.518 131.186 171.835 131.288 171.054 131.288H168.253V131.273ZM168.253 129.309H171.054C171.5 129.309 171.89 129.251 172.211 129.134C172.532 129.018 172.796 128.858 173.005 128.639C173.214 128.421 173.368 128.174 173.465 127.883C173.563 127.592 173.605 127.272 173.605 126.922C173.605 126.588 173.563 126.282 173.465 125.977C173.368 125.671 173.214 125.409 173.005 125.176C172.796 124.944 172.532 124.755 172.211 124.624C171.89 124.493 171.5 124.42 171.054 124.42H168.253V129.309Z" fill="#FFC0C0" fill-opacity="0.7"/>
<path d="M188.739 129.832C188.739 130.894 188.6 131.855 188.335 132.699C188.07 133.543 187.694 134.256 187.206 134.852C186.719 135.434 186.133 135.885 185.45 136.205C184.768 136.525 184.015 136.671 183.179 136.671C182.357 136.671 181.604 136.511 180.921 136.205C180.238 135.885 179.653 135.434 179.151 134.852C178.65 134.27 178.273 133.543 177.995 132.699C177.716 131.855 177.591 130.894 177.591 129.832V129.119C177.591 128.057 177.73 127.097 177.995 126.253C178.273 125.409 178.65 124.682 179.137 124.1C179.625 123.503 180.21 123.052 180.893 122.746C181.576 122.426 182.329 122.281 183.151 122.281C183.987 122.281 184.74 122.441 185.423 122.746C186.105 123.066 186.691 123.518 187.192 124.1C187.68 124.696 188.056 125.409 188.335 126.253C188.6 127.097 188.739 128.057 188.739 129.119V129.832ZM186.398 129.09C186.398 128.305 186.328 127.621 186.175 127.01C186.036 126.413 185.813 125.904 185.548 125.496C185.269 125.089 184.935 124.783 184.531 124.58C184.126 124.376 183.667 124.26 183.165 124.26C182.663 124.26 182.217 124.361 181.813 124.58C181.409 124.783 181.075 125.089 180.796 125.496C180.517 125.904 180.294 126.398 180.155 127.01C180.001 127.606 179.932 128.305 179.932 129.09V129.818C179.932 130.603 180.001 131.302 180.155 131.898C180.308 132.51 180.517 133.004 180.81 133.412C181.088 133.819 181.437 134.125 181.841 134.343C182.245 134.547 182.691 134.663 183.193 134.663C184.224 134.663 185.018 134.256 185.576 133.426C186.133 132.597 186.412 131.404 186.412 129.818V129.09H186.398Z" fill="#FFC0C0" fill-opacity="0.7"/>
<path d="M195.999 131.069H193.393V136.482H191.052V122.441H195.776C196.543 122.441 197.225 122.528 197.839 122.718C198.438 122.907 198.954 123.169 199.372 123.532C199.79 123.896 200.096 124.333 200.319 124.856C200.528 125.38 200.64 125.991 200.64 126.69C200.64 127.636 200.417 128.421 199.985 129.047C199.553 129.687 198.94 130.167 198.173 130.502L201.197 136.351V136.482H198.689L195.999 131.069ZM193.393 129.12H195.79C196.208 129.12 196.571 129.062 196.891 128.945C197.212 128.829 197.462 128.669 197.671 128.465C197.88 128.261 198.034 128.014 198.145 127.737C198.257 127.461 198.299 127.141 198.299 126.806C198.299 126.442 198.243 126.122 198.145 125.831C198.048 125.54 197.894 125.293 197.699 125.075C197.49 124.871 197.239 124.711 196.919 124.595C196.598 124.478 196.222 124.42 195.776 124.42H193.379V129.12H193.393Z" fill="#FFC0C0" fill-opacity="0.7"/>
<path d="M212.122 124.405H207.927V136.482H205.613V124.405H201.461V122.441H212.122V124.405Z" fill="#FFC0C0" fill-opacity="0.7"/>
<path d="M177.018 279.047H155.167C154.46 279.047 153.885 278.447 153.885 277.709C153.885 276.972 154.46 276.371 155.167 276.371H177.018C177.724 276.371 178.299 276.972 178.299 277.709C178.283 278.447 177.724 279.047 177.018 279.047Z" fill="#FFC0C0"/>
<path d="M192.592 285.394H139.574C138.868 285.394 138.293 284.793 138.293 284.056C138.293 283.318 138.868 282.718 139.574 282.718H192.576C193.282 282.718 193.857 283.318 193.857 284.056C193.857 284.793 193.299 285.394 192.592 285.394Z" fill="#FFC0C0"/>
<path d="M166.09 259.647C152.24 259.647 139.228 254.02 129.436 243.797C119.644 233.573 114.255 219.97 114.255 205.527C114.255 191.084 119.644 177.481 129.436 167.257C139.228 157.034 152.257 151.407 166.09 151.407C179.94 151.407 192.952 157.034 202.744 167.257C212.536 177.481 217.925 191.084 217.925 205.527C217.925 219.97 212.536 233.573 202.744 243.797C192.952 254.02 179.924 259.647 166.09 259.647ZM166.09 151.973C152.388 151.973 139.524 157.548 129.831 167.652C120.154 177.755 114.814 191.204 114.814 205.51C114.814 219.816 120.154 233.247 129.831 243.368C139.507 253.471 152.388 259.046 166.09 259.046C179.792 259.046 192.657 253.471 202.35 243.368C212.027 233.264 217.366 219.816 217.366 205.51C217.366 191.204 212.027 177.772 202.35 167.652C192.657 157.548 179.776 151.973 166.09 151.973Z" fill="#FFC0C0"/>
<path d="M207.659 205.526C207.659 208.185 207.429 210.81 206.985 213.349C205.917 219.438 203.65 225.082 200.43 230.005C192.938 241.429 180.353 248.942 166.092 248.942C149.121 248.942 134.531 238.324 128.075 223.109C127.22 221.102 126.514 219.026 125.955 216.865C125.019 213.246 124.526 209.455 124.526 205.544C124.526 202.37 124.854 199.283 125.462 196.315C125.462 196.281 125.479 196.246 125.479 196.212C127.204 187.978 131.163 180.637 136.667 174.89C138.228 173.261 139.904 171.751 141.711 170.396C142.565 169.744 143.453 169.126 144.356 168.56C150.682 164.495 158.124 162.162 166.109 162.162C167.16 162.162 168.212 162.196 169.247 162.282C170.709 162.402 172.155 162.591 173.568 162.848C179.532 163.98 185.052 166.433 189.833 169.916C192.823 172.077 195.517 174.65 197.85 177.532C199.083 179.041 200.216 180.654 201.235 182.335C201.876 183.381 202.467 184.462 203.026 185.577C204.356 188.236 205.424 191.066 206.196 194.016C207.133 197.653 207.659 201.53 207.659 205.526Z" fill="#FFC0C0"/>
<path opacity="0.5" d="M151.966 186.092C150.306 188.836 152.656 193.605 147.678 192.301C142.699 190.998 139.66 190.432 139.381 193.314C139.101 196.195 143.11 196.195 143.11 199.232C143.11 202.268 141.319 203.263 138.543 201.822C135.783 200.381 134.978 198.288 131.774 199.592C128.554 200.895 126.697 200.021 125.974 197.43C125.843 196.967 125.662 196.607 125.465 196.298C125.465 196.264 125.481 196.23 125.481 196.195C127.206 187.962 131.166 180.62 136.67 174.873C138.231 173.244 139.906 171.734 141.714 170.379C142.568 169.727 143.455 169.11 144.359 168.544C145.657 168.595 147.201 169.11 148.532 170.808C151.44 174.565 153.362 172.678 152.672 177.018C151.982 181.34 153.083 181.924 155.432 181.786C157.782 181.649 160.542 181.649 160.821 183.519C161.084 185.371 153.625 183.347 151.966 186.092Z" fill="#FD6969"/>
<path opacity="0.5" d="M169.181 212.063C169.181 212.063 165.518 213.298 164.548 210.622C163.579 207.946 164.68 207.38 161.443 206.574C158.207 205.767 157.911 203.469 155.841 203.761C153.771 204.052 154.806 204.91 152.391 206.797C149.975 208.666 147.757 207.809 147.823 211.274C147.889 214.739 151.487 215.288 152.21 217.552C152.933 219.833 151.684 220.794 153.245 222.527C154.806 224.259 157.697 223.504 156.35 225.889C155.003 228.273 152.933 230.108 153.968 233.796C155.003 237.485 154.28 237.69 156.038 240.298C157.796 242.888 161.23 243.763 161.739 242.03C162.265 240.298 159.357 238.033 160.293 236.301C161.23 234.568 162.774 235.752 163.398 233.162C164.023 230.572 166.536 230.572 166.75 228.753C166.963 226.952 163.71 224.208 164.959 223.058C166.208 221.909 168.689 225.151 170.627 222.269C172.566 219.387 171.252 217.072 173.256 214.327C175.26 211.565 170.562 210.485 169.181 212.063Z" fill="#FD6969"/>
<path opacity="0.5" d="M207.658 205.527C207.658 208.186 207.428 210.811 206.984 213.349C205.917 219.439 203.649 225.082 200.429 230.005C199.328 230.383 198.211 230.366 197.11 229.92C191.919 227.758 195.763 221.909 197.833 218.993C199.903 216.077 194.613 217.363 190.785 214.67C186.957 211.96 191.196 204.704 187.253 205.905C183.31 207.088 178.545 208.615 176.261 204.601C173.978 200.587 178.332 199.952 176.36 196.59C174.389 193.228 177.494 191.29 181.437 190.964C185.38 190.638 184.854 187.722 189.734 187.276C194.613 186.847 194.498 193.331 199.887 192.902C205.276 192.473 205.029 193.76 205.029 193.76C205.424 193.743 205.802 193.828 206.163 194C207.132 197.654 207.658 201.53 207.658 205.527Z" fill="#FD6969"/>
<path opacity="0.5" d="M203.012 185.543C198.527 187.825 196.736 181.632 192.892 183.485C189.031 185.355 189.705 181.752 186.665 179.437C183.626 177.121 177.547 181.306 177.81 177.704C178.089 174.102 182.64 175.114 183.609 172.215C184.579 169.333 188.998 170.054 188.998 170.054C189.245 169.951 189.524 169.882 189.803 169.865C192.793 172.026 195.488 174.599 197.821 177.481C199.053 178.991 200.187 180.603 201.205 182.284C201.862 183.365 202.454 184.446 203.012 185.543Z" fill="#FD6969"/>
<path opacity="0.5" d="M165.238 173.09C165.238 173.09 167.588 169.556 163.858 168.51C160.129 167.464 160.194 168.836 157.286 168.51C154.378 168.184 153.245 170.534 155.413 173.09C157.598 175.646 159.356 180.569 161.328 177.944C163.299 175.32 162.922 173.347 165.238 173.09Z" fill="#FD6969"/>
</g>
<path d="M246.976 141.736C246.893 140.028 246.624 136.764 245.672 134.774C244.346 132.007 240.598 128.958 239.024 129.975C237.451 130.991 241.323 135.661 240.722 137.434C240.122 139.207 242.42 142.212 244.284 144.374L246.997 142.861C246.997 142.861 246.997 142.428 246.976 141.736Z" fill="#7E4A26"/>
<path d="M282.014 145.499C279.571 150.234 276.527 155.012 273.4 158.904C270.128 162.969 266.794 166.082 263.957 167.12H263.936C263.791 167.163 263.646 167.228 263.501 167.271H263.481C262.901 167.444 262.362 167.509 261.845 167.487C252.588 167.055 242.814 146.299 242.814 146.299C242.814 146.299 243.063 143.834 244.864 142.105C246.438 140.591 247.639 140.202 247.639 140.202C247.639 140.202 257.62 150.904 260.064 151.661C261.596 152.137 263.605 144.678 266.504 135.294C269.403 125.911 279.55 123.597 279.55 123.597C279.55 123.597 289.821 130.408 282.014 145.499Z" fill="#FFAB56"/>
<path d="M273.4 158.903C270.128 162.989 266.794 166.081 263.957 167.119H263.937L263.502 167.27H263.481C263.584 167.205 266.608 165.562 267.084 162.535C267.56 159.422 264.433 156.892 272.323 152.092C276.941 149.303 273.4 158.903 273.4 158.903Z" fill="#FF9334"/>
<path d="M266.174 301.232H287.897C289.45 300.13 287.483 289.363 287.483 289.363C287.483 289.363 281.56 287.006 280.525 291.784C279.49 296.562 272.967 298.076 269.529 298.66C267.168 299.049 266.423 300.411 266.174 301.232Z" fill="#24406D"/>
<path d="M299.283 189.583C299.283 189.583 298.6 202.815 297.751 218.144C297.13 229.128 296.426 241.192 295.825 250.251C295.742 251.44 295.66 252.608 295.597 253.689C295.577 254.035 295.556 254.359 295.535 254.683C293.982 274.942 288.785 292.714 288.785 292.714C282.676 294.055 279.922 291.59 279.922 291.59C279.922 291.59 275.718 240.111 274.165 219.355C273.026 204.069 272.032 181.822 272.032 181.822L299.283 189.583Z" fill="#34379E"/>
<path d="M297.753 218.144C297.132 229.127 296.428 241.192 295.827 250.251C291.831 240.413 283.672 202.101 283.672 202.101L297.753 218.144Z" fill="black"/>
<path d="M298.374 301.232H320.096C321.649 300.13 319.682 289.363 319.682 289.363C319.682 289.363 313.76 287.006 312.724 291.784C311.689 296.562 305.166 298.076 301.728 298.66C299.368 299.049 298.622 300.411 298.374 301.232Z" fill="#24406D"/>
<path d="M277.914 186.967C277.914 186.967 293.425 227.268 298.374 242.532C301.915 253.407 311.855 291.59 311.855 291.59C311.855 291.59 316.183 292.973 319.827 290.314C319.827 290.314 323.534 251.31 316.058 240.327C312.083 234.489 315.064 179.681 298.974 179.205C282.884 178.729 277.914 186.967 277.914 186.967Z" fill="#34379E"/>
<path d="M309.657 173.994C309.595 179.724 309.533 183.94 309.554 184.999C309.595 188.459 307.483 189.258 305.288 189.777C305.288 189.777 303.259 190.231 300.712 190.685C298.206 191.118 295.203 191.55 293.07 191.529C282.178 191.442 273.066 188.091 273.066 188.091C271.016 188.091 270.085 184.783 269.753 180.156C269.525 177.021 270.457 145.844 270.561 138.061C270.644 132.482 273.584 127.315 274.392 126.558C281.992 119.532 304.439 120.418 308.456 125.261C309.45 126.45 309.74 137.996 309.782 150.644C309.823 158.817 309.74 167.422 309.657 173.994Z" fill="#FFAB56"/>
<path d="M296.199 122.516C293.341 125.759 283.712 125.283 284.002 122.451C284.043 122.105 284.105 120.029 284.126 119.705C284.147 119.445 284.167 119.186 284.188 118.948C284.25 118.256 284.312 117.629 284.354 117.11C284.478 115.554 284.52 114.711 284.52 114.711C284.789 114.624 290.98 112.786 294.066 112.03C295.101 111.77 295.785 111.64 295.764 111.727C294.832 118.97 297.131 121.456 296.199 122.516Z" fill="#7E4A26"/>
<path d="M294.398 114.17C294.398 114.17 291.81 116.916 284.355 117.11C284.479 115.553 284.521 114.71 284.521 114.71C284.79 114.624 290.981 112.786 294.067 112.029C294.626 112.267 293.901 113.781 294.398 114.17Z" fill="#5A3217"/>
<path d="M282.635 114.343C282.635 114.343 284.519 115.057 286.921 115.381C290.442 115.878 295.08 115.576 296.53 111.143C298.973 103.663 302.1 99.1654 294.894 96.1169C291.042 94.4737 288.557 94.3872 286.88 95.0142C285.43 95.5548 284.561 96.6358 283.919 97.6952C282.531 99.987 279.715 113.024 282.635 114.343Z" fill="#7E4A26"/>
<path d="M284.478 91.9007C281.91 93.6736 282.739 97.8032 285.783 98.3653C287.605 98.6896 289.137 98.7761 290.007 99.1653C291.809 99.9869 293.341 100.873 292.927 103.792C292.782 104.787 292.326 105.976 294.749 105.392C295.143 105.284 295.433 105.327 295.64 105.457C296.654 106.084 295.35 109.111 294.977 109.781C294.977 109.781 294.418 111.943 295.66 113.003C295.805 113.132 298.249 114.235 304.13 104.83C305.062 103.36 305.932 100.03 304.503 96.8303C303.074 93.6304 299.098 89.5873 291.602 89.5873C289.655 89.5441 286.715 90.3657 284.478 91.9007Z" fill="#161836"/>
<path d="M309.661 173.995C308.564 179.314 306.783 181.151 305.789 179.162C302.289 172.222 302.331 169.303 303.843 164.374C305.354 159.444 300.032 151.747 303.843 148.461C307.57 145.261 309.703 150.428 309.806 150.666C309.827 158.817 309.744 167.422 309.661 173.995Z" fill="#FF9334"/>
<path d="M309.493 173.324C309.493 173.324 306.904 177.735 305.227 177.584C303.529 177.432 301.251 176.762 299.926 178.081C298.601 179.4 296.488 182.773 297.068 183.681C297.669 184.589 300.05 183.789 301.769 182.794C303.488 181.8 306.18 183.292 307.629 182.167C309.079 181.043 312.516 176.589 312.516 176.589L309.493 173.324Z" fill="#7E4A26"/>
<path d="M305.231 177.563C305.231 177.563 302.973 176.525 302.247 176.092C301.522 175.66 301.688 176.373 301.895 176.72C302.123 177.087 302.724 177.888 303.615 177.952C304.506 178.017 305.231 177.563 305.231 177.563Z" fill="#FFB27D"/>
<path d="M81.5537 195.419C82.3068 213.491 82.1184 223.281 75.5294 230.81C68.9407 238.341 50.4916 236.459 50.4916 236.459C50.4916 236.459 48.6717 263.064 22.8808 264.193C-2.91034 265.323 -6.61269 231.061 13.5934 222.275C32.8282 213.912 38.9451 211.482 45.5967 190.775C51.6735 171.856 70.635 175.462 75.1531 183.37C79.6712 191.276 81.5537 195.419 81.5537 195.419Z" fill="#34379E"/>
<path d="M73.558 287.549C73.558 287.549 85.7318 289.934 86.3594 289.808C86.9869 289.683 100.29 283.784 101.671 284.662C103.052 285.54 111.084 288.93 112.841 289.683C114.598 290.435 111.837 290.686 110.456 290.686C109.076 290.686 101.169 287.424 100.29 288.05C99.4118 288.679 107.193 289.934 107.193 290.435C107.193 290.938 86.3594 295.707 85.1045 295.707C83.8493 295.707 74.1856 294.829 74.1856 294.829L73.558 287.549Z" fill="#EFB583"/>
<path d="M62.9786 221.177C69.5364 222.464 73.3957 229.404 74.6506 235.482C75.9055 241.562 62.9786 221.177 62.9786 221.177Z" fill="#5DA9BD"/>
<path d="M52.0004 216.503C52.0004 216.503 39.3875 224.975 32.6101 229.118C25.833 233.258 35.0575 277.875 37.3166 294.441C39.5756 311.007 78.7329 295.948 78.7329 295.948C78.7329 295.948 76.0973 282.016 79.4857 259.614C81.9131 243.568 73.0223 233.509 67.9395 226.544C55.1108 208.965 52.0004 216.503 52.0004 216.503Z" fill="#8CD2E4"/>
<path d="M39.5725 229.304C54.0682 247.001 58.9682 250.31 55.386 262.25C52.5623 271.662 51.6208 275.05 51.0561 278.252C50.4914 281.452 77.9767 276.18 77.9767 276.18L77.7885 286.535C77.7885 286.535 56.1391 296.889 45.5965 298.959C35.0544 301.031 28.4655 298.584 28.4655 298.584L39.5725 229.304Z" fill="#5DA9BD"/>
<path d="M56.6417 198.681L50.1156 218.009C50.1156 218.009 57.2693 237.399 63.2935 233.068C65.3501 231.59 62.5404 219.89 62.5404 219.89L66.933 204.202L56.6417 198.681Z" fill="#FFD7B4"/>
<path d="M35.8058 228.55C26.7938 229.551 26.0165 241.728 21.875 262.06C17.7332 282.391 18.978 295.811 20.9337 298.394C25.64 304.607 78.5398 282.957 85.1291 283.146C89.6764 283.274 85.8819 275.615 85.8819 275.615L35.4292 283.332C35.4292 283.332 42.5831 259.801 42.5831 247.752C42.5831 235.704 39.1944 228.173 35.8058 228.55Z" fill="#FFD7B4"/>
<path d="M82.6859 275.99C87.9571 274.675 95.6755 271.661 97.1814 272.979C98.6876 274.297 104.9 283.71 106.971 286.346C109.042 288.982 106.03 286.909 103.771 284.839C101.512 282.769 99.6289 281.64 99.6289 281.64C99.6289 281.64 96.8051 284.276 94.1695 285.78C91.534 287.287 90.5927 284.276 86.0746 283.521C81.5563 282.769 70.2611 286.723 70.2611 286.723L82.6859 275.99Z" fill="#FFD7B4"/>
<path d="M36.8123 227.044C31.2901 227.295 27.0231 231.939 25.5172 239.092C24.011 246.246 19.6182 268.962 19.6182 268.962C19.6182 268.962 18.7398 269.591 27.9015 271.223C37.0634 272.853 44.5936 270.972 44.5936 270.972C44.5936 270.972 46.4761 258.043 45.974 249.134C45.4722 240.222 43.464 231.813 40.201 228.928C36.9379 226.04 36.8123 227.044 36.8123 227.044Z" fill="#8CD2E4"/>
<path d="M62.539 219.89L66.9316 204.202L56.6403 198.68L55.0683 203.336C54.7263 218.923 58.7187 224.134 61.4094 226.04C62.2498 226.635 62.9724 226.175 63.5782 225.203C63.1361 222.378 62.539 219.89 62.539 219.89Z" fill="#EFB583"/>
<path d="M83.4371 200.502C83.4371 208.896 82.4349 219.192 75.1538 218.95C63.8584 218.575 56.7408 209.794 56.7408 201.397C56.7408 193 62.6465 186.192 69.9317 186.192C77.2167 186.192 83.4371 192.105 83.4371 200.502Z" fill="#FFD7B4"/>
<path d="M71.0104 183.275C79.0115 182.709 83.7492 190.02 85.1298 196.422C86.1257 201.041 85.6317 201.943 85.6317 201.943C85.6317 201.943 84.753 203.198 78.478 203.575C72.2027 203.953 71.4498 203.827 71.4498 203.827L71.0733 196.548L69.1906 203.575C69.1906 203.575 68.1867 204.956 64.2962 203.072C60.4054 201.191 58.6482 194.915 58.6482 194.915C58.6482 194.915 57.7698 190.775 60.782 188.013C63.7939 185.251 71.0104 183.275 71.0104 183.275Z" fill="#34379E"/>
<path d="M0.290213 235.994H0.262404C0.102789 235.977 -0.0140219 235.837 0.00121408 235.677C0.330844 232.226 2.0559 228.678 4.8586 225.687C8.02744 222.306 12.5373 219.641 17.9004 217.982C29.8507 214.286 40.2758 209.587 46.8268 189.43C46.8763 189.277 47.0401 189.193 47.1927 189.244C47.345 189.292 47.4285 189.456 47.3789 189.609C44.3682 198.871 40.27 205.616 34.8505 210.228C30.0705 214.296 24.6859 216.489 18.0718 218.535C12.805 220.165 8.38222 222.775 5.28206 226.083C2.56666 228.98 0.896508 232.407 0.57897 235.733C0.56446 235.883 0.43822 235.994 0.290213 235.994Z" fill="#34379E"/>
<path d="M5.68598 222.064C5.5994 222.064 5.51354 222.026 5.45647 221.951C5.35804 221.825 5.38126 221.643 5.50798 221.544C5.55877 221.506 10.665 217.595 18.0482 215.967C32.2227 212.845 41.7392 204.32 45.5685 191.319C45.614 191.167 45.7748 191.077 45.9289 191.123C46.0827 191.169 46.1707 191.331 46.1255 191.483C43.7598 199.515 39.3092 205.854 32.8977 210.323C28.769 213.203 23.8149 215.293 18.173 216.536C10.9231 218.132 5.91307 221.965 5.86349 222.004C5.81077 222.045 5.74789 222.064 5.68598 222.064Z" fill="#34379E"/>
<path d="M221.564 300.067H50.0557C48.8177 300.067 47.8138 299.063 47.8138 297.825C47.8138 296.587 48.8177 295.583 50.0557 295.583H221.564C222.803 295.583 223.806 296.587 223.806 297.825C223.806 299.063 222.803 300.067 221.564 300.067Z" fill="#242888"/>
<path d="M168.112 295.576H89.9961C89.9961 292.855 92.2024 290.65 94.9239 290.65H168.112V295.576Z" fill="#D9D9D9"/>
<path d="M168.076 292.85H125.732L143.15 254.533C143.658 253.415 144.773 252.697 146.001 252.697H184.429C185.319 252.697 185.909 253.616 185.542 254.426L168.076 292.85Z" fill="#D9D9D9"/>
<path d="M184.429 252.697H150.564C149.336 252.697 148.221 253.415 147.713 254.533L130.296 292.85H168.076L185.542 254.426C185.909 253.616 185.319 252.697 184.429 252.697Z" fill="#F6F6F6"/>
<path d="M308.279 125.283C308.279 125.283 330.634 146.32 327.737 160.33C326.418 166.708 322.31 172.092 311.37 180.805C311.37 180.805 306.203 177.238 305.057 174.319C305.057 174.319 314.981 160.33 314.614 157.952C314.138 155.033 307.371 147.725 304.927 146.579C302.484 145.455 302.701 127.726 308.279 125.283Z" fill="#FFAB56"/>
</svg>
