<svg width="314" height="310" viewBox="0 0 314 310" fill="none" xmlns="http://www.w3.org/2000/svg">
<mask id="mask0_50_748" style="mask-type:alpha" maskUnits="userSpaceOnUse" x="3" y="0" width="311" height="310">
<rect width="309.388" height="309.388" rx="154.694" transform="matrix(-1 0 0 1 313.055 0)" fill="#6268F7"/>
</mask>
<g mask="url(#mask0_50_748)">
<rect width="309.388" height="309.388" rx="154.694" transform="matrix(-1 0 0 1 313.055 0)" fill="#F6F6F6"/>
<path d="M205.888 147.7H132.096C130.204 147.7 128.658 146.15 128.658 144.261V84.7616C128.658 82.8693 130.204 81.3231 132.096 81.3231H205.888C207.78 81.3231 209.326 82.8693 209.326 84.7616V144.261C209.326 146.15 207.78 147.7 205.888 147.7Z" fill="#8CA2BF"/>
<path d="M138.399 142.682V161.027L159.534 139.891C159.534 139.891 138.83 142.682 138.399 142.682Z" fill="#8CA2BF"/>
<mask id="mask1_50_748" style="mask-type:alpha" maskUnits="userSpaceOnUse" x="132" y="85" width="74" height="60">
<path d="M202.239 144.405H135.745C134.14 144.405 132.829 143.091 132.829 141.489V88.086C132.829 86.4845 134.14 85.1702 135.745 85.1702H202.239C203.844 85.1702 205.155 86.4845 205.155 88.086V141.489C205.155 143.091 203.844 144.405 202.239 144.405Z" fill="white"/>
</mask>
<g mask="url(#mask1_50_748)">
<path d="M202.239 144.405H135.745C134.14 144.405 132.829 143.091 132.829 141.489V88.086C132.829 86.4845 134.14 85.1702 135.745 85.1702H202.239C203.844 85.1702 205.155 86.4845 205.155 88.086V141.489C205.155 143.091 203.844 144.405 202.239 144.405Z" fill="white"/>
<path d="M158.978 119.382C155.539 126.36 151.23 145.428 150.054 146.473C148.878 147.518 142.087 151.567 140.911 153.526C139.736 155.485 140.259 154.832 140.781 154.963C141.304 155.094 170.82 155.223 170.82 155.223C170.82 155.223 167.425 134.98 167.033 134.849C166.641 134.719 158.978 119.382 158.978 119.382Z" fill="#FF8181"/>
<path d="M154.089 155.129C159.511 155.167 165.231 155.197 168.38 155.213L164.068 129.427C161.769 124.968 158.977 119.381 158.977 119.381C158.543 120.261 158.096 121.333 157.643 122.536C157.196 141.904 159.986 147.332 157.89 150.783C156.255 153.475 154.763 154.681 154.089 155.129Z" fill="#E35656"/>
<path d="M177.079 110.959C181.981 115.484 192.894 119.775 192.894 119.775C192.894 119.775 194.551 135.095 193.42 143.768C192.289 152.442 192.918 154.202 192.918 154.202H170.417C170.417 154.202 167.396 150.011 161.868 136.981C158.349 128.683 158.977 119.381 158.977 119.381L172.679 113.221L177.079 110.959Z" fill="#FF8181"/>
<path d="M170.417 154.202H192.918C192.918 154.202 192.29 152.442 193.421 143.768C194.352 136.626 193.392 124.979 193.026 121.088L190.978 120.212C185.842 121.692 182.88 129.355 182.01 136.843C181.427 141.853 173.126 146.785 167.696 149.502C169.481 152.902 170.417 154.202 170.417 154.202Z" fill="#E35656"/>
<path d="M164.899 95.2348C162.188 101.277 165.443 106.872 165.344 106.636C165.246 106.4 169.45 96.4366 169.45 96.4366L164.899 95.2348Z" fill="#2E5B9A"/>
<path d="M175.178 99.7026L178.618 112.277C178.715 112.632 178.633 113.009 178.401 113.294C177.593 114.289 176.445 116.334 174.127 116.99C173.677 117.117 173.122 117.151 172.673 117.152C172.2 117.154 171.793 116.821 171.703 116.357L169.399 104.432L175.178 99.7026Z" fill="#EFB583"/>
<path d="M174.521 100.754L173.264 101.269L169.399 104.432L171.473 115.005C174.993 112.811 175.506 111.331 174.521 100.754Z" fill="#E38540"/>
<path d="M175.052 105.265C174.291 109.401 171.195 112.199 168.139 111.512C165.082 110.827 163.625 108.15 163.983 102.782C164.265 98.5714 166.341 93.994 169.398 94.6793C172.455 95.3645 175.814 101.128 175.052 105.265Z" fill="#EFB583"/>
<path d="M192.895 119.775C197.447 120.804 198.293 130.05 199.773 139.803C199.944 140.926 200.818 150.426 200.818 150.426C200.818 150.426 200.905 152.168 199.163 153.039C197.676 153.783 197.073 154.344 188.453 154.432C180.175 154.515 169.5 154.171 169.5 154.171C169.5 154.171 169.405 151.09 170.254 149.584C171.532 147.321 184.622 144.07 185.842 143.896C186.015 141.458 184.639 132.636 186.538 126.655C187.844 122.54 189.248 120.385 191.008 119.822C191.594 119.634 192.22 119.623 192.895 119.775Z" fill="#FF8181"/>
<path d="M174.181 154.359C178.262 154.42 183.863 154.478 188.453 154.432C197.073 154.345 197.676 153.783 199.163 153.039C200.905 152.169 200.992 150.688 200.992 150.688C200.992 150.688 200.112 140.578 199.947 139.455C198.99 132.925 197.954 125.451 195.546 121.844C197.81 128.481 198.175 134.08 198.215 136.471C198.236 137.683 198.124 139.341 197.77 140.5C197.379 141.785 196.377 142.59 194.81 142.154C191.675 141.284 187.757 143.113 187.757 143.113C187.757 143.113 190.717 142.067 193.503 143.026C196.29 143.983 202.037 150.339 195.767 152.691C193.849 153.41 182.357 153.997 174.181 154.359Z" fill="#E35656"/>
<path d="M163.981 105.2C163.853 110.255 165.575 111.11 166.779 111.797C167.985 112.483 173.174 111.348 173.936 110.098C175.885 106.9 174.244 103.918 174.68 103.963C175.117 104.008 175.516 105.253 176.651 106.869C176.757 107.019 177.496 108.018 177.535 107.686C178.062 103.16 180.42 101.754 179.858 97.1751C179.444 93.7996 177.302 94.0673 177.302 94.0673C177.302 94.0673 175.92 91.2438 171.617 91.5646C168.735 91.7792 166.165 92.9021 163.194 93.6675C160.222 94.4318 166.709 101.168 170.563 98.706C174.417 96.2458 172.515 101.666 173.122 102.086C173.731 102.506 173.415 102.142 173.694 104.916C173.973 107.69 170.451 109.5 169.441 109.737C166.213 110.497 165.673 109.965 164.967 108.749C164.353 107.695 163.981 105.2 163.981 105.2Z" fill="#161836"/>
<path d="M177.342 103.635C176.972 104.908 176.066 105.732 175.321 105.472C174.574 105.214 174.553 104.178 174.64 102.697C174.719 101.362 175.915 100.6 176.662 100.859C177.407 101.118 177.713 102.361 177.342 103.635Z" fill="#EFB583"/>
<path d="M155.855 104.24L157.787 106.863L153.508 104.24H139.702V94.3003H157.787V104.24H155.855Z" fill="#F2F2F2"/>
</g>
<path d="M345.349 310.605H-27.0797C-28.9647 310.605 -30.4924 309.077 -30.4924 307.192C-30.4924 305.307 -28.9647 303.78 -27.0797 303.78H345.349C347.234 303.78 348.761 305.307 348.761 307.192C348.761 309.077 347.234 310.605 345.349 310.605Z" fill="#2E5B9A"/>
<path d="M61.1982 303.121C61.1982 303.121 47.1608 303.301 46.9804 304.542C46.8037 305.786 47.5142 306.32 52.4916 307.211C57.4652 308.098 113.446 308.455 113.979 308.098C114.513 307.745 130.863 303.831 130.863 303.831L91.5888 303.121H61.1982Z" fill="#DBE5EB"/>
<path d="M68.8446 293.777C68.8446 293.777 78.9097 289.359 81.8549 291.321C84.8 293.283 93.3116 302.288 93.3116 302.288L68.8446 293.777Z" fill="#FFD7B4"/>
<path d="M92.7561 303.087C92.5646 303.327 92.2774 303.426 92.1191 303.308L71.4072 287.89C70.2917 287.058 69.7616 285.788 70.2991 285.118C70.8366 284.448 72.1914 284.687 73.2443 285.593L92.8297 302.417C92.9806 302.55 92.9475 302.848 92.7561 303.087Z" fill="#2E5B9A"/>
<g opacity="0.5">
<path d="M322.656 201.913H219.965C218.792 201.913 217.841 200.962 217.841 199.789V140.33C217.841 139.157 218.792 138.202 219.965 138.202H322.656C323.829 138.202 324.78 139.157 324.78 140.33V199.789C324.78 200.962 323.829 201.913 322.656 201.913Z" fill="#8CA2BF"/>
<path d="M319.651 199.961H222.969C221.947 199.961 221.118 199.131 221.118 198.109V150.302C221.118 149.28 221.947 148.45 222.969 148.45H319.651C320.674 148.45 321.503 149.28 321.503 150.302V198.109C321.503 199.131 320.674 199.961 319.651 199.961Z" fill="white"/>
<path d="M225.383 145.387H223.124C222.647 145.387 222.257 145.002 222.257 144.524V142.664C222.257 142.186 222.647 141.801 223.124 141.801H225.383C225.856 141.801 226.246 142.186 226.246 142.664V144.524C226.246 145.002 225.856 145.387 225.383 145.387Z" fill="white"/>
<path d="M232.627 145.387H230.369C229.895 145.387 229.506 145.002 229.506 144.524V142.664C229.506 142.186 229.895 141.801 230.369 141.801H232.627C233.105 141.801 233.495 142.186 233.495 142.664V144.524C233.495 145.002 233.105 145.387 232.627 145.387Z" fill="white"/>
<path d="M239.875 145.387H237.617C237.14 145.387 236.754 145.002 236.754 144.524V142.664C236.754 142.186 237.14 141.801 237.617 141.801H239.875C240.353 141.801 240.739 142.186 240.739 142.664V144.524C240.739 145.002 240.353 145.387 239.875 145.387Z" fill="white"/>
<path d="M224.859 196.588H317.766V151.819H224.859V196.588ZM318.101 196.923H224.524V151.484H318.101V196.923Z" fill="#8CA2BF"/>
<path d="M317.933 187.902H224.692V187.567H317.933V187.902Z" fill="#8CA2BF"/>
<path d="M317.933 178.881H224.692V178.546H317.933V178.881Z" fill="#8CA2BF"/>
<path d="M317.933 169.86H224.692V169.525H317.933V169.86Z" fill="#8CA2BF"/>
<path d="M317.933 160.84H224.692V160.505H317.933V160.84Z" fill="#8CA2BF"/>
<path d="M304.777 196.755H304.446V151.651H304.777V196.755Z" fill="#8CA2BF"/>
<path d="M291.458 196.755H291.122V151.651H291.458V196.755Z" fill="#8CA2BF"/>
<path d="M278.138 196.755H277.803V151.651H278.138V196.755Z" fill="#8CA2BF"/>
<path d="M264.818 196.755H264.483V151.651H264.818V196.755Z" fill="#8CA2BF"/>
<path d="M251.499 196.755H251.163V151.651H251.499V196.755Z" fill="#8CA2BF"/>
<path d="M238.179 196.755H237.844V151.651H238.179V196.755Z" fill="#8CA2BF"/>
<path d="M314.443 157.349H311.309C310.111 157.349 309.135 156.369 309.135 155.175C309.135 153.977 310.111 153 311.309 153H314.443C315.637 153 316.618 153.977 316.618 155.175C316.618 156.369 315.637 157.349 314.443 157.349Z" fill="#F39892"/>
<path d="M315.583 175.55H310.169C309.6 175.55 309.135 175.085 309.135 174.515V172.24C309.135 171.67 309.6 171.205 310.169 171.205H315.583C316.153 171.205 316.618 171.67 316.618 172.24V174.515C316.618 175.085 316.153 175.55 315.583 175.55Z" fill="#F39892"/>
<path d="M248.193 168.373H240.835C240.018 168.373 239.356 167.707 239.356 166.894V163.429C239.356 162.616 240.018 161.95 240.835 161.95H248.193C249.006 161.95 249.672 162.616 249.672 163.429V166.894C249.672 167.707 249.006 168.373 248.193 168.373Z" fill="#8CA2BF"/>
<path d="M247.154 167.468H241.87C241.284 167.468 240.806 166.99 240.806 166.404V163.915C240.806 163.333 241.284 162.855 241.87 162.855H247.154C247.74 162.855 248.218 163.333 248.218 163.915V166.404C248.218 166.99 247.74 167.468 247.154 167.468Z" fill="white"/>
<path d="M301.589 195.373H294.231C293.418 195.373 292.752 194.707 292.752 193.894V190.429C292.752 189.616 293.418 188.95 294.231 188.95H301.589C302.401 188.95 303.068 189.616 303.068 190.429V193.894C303.068 194.707 302.401 195.373 301.589 195.373Z" fill="#8CA2BF"/>
<path d="M300.55 194.468H295.266C294.684 194.468 294.206 193.99 294.206 193.408V190.919C294.206 190.332 294.684 189.855 295.266 189.855H300.55C301.136 189.855 301.614 190.332 301.614 190.919V193.408C301.614 193.99 301.136 194.468 300.55 194.468Z" fill="white"/>
<path d="M275.762 163.823H269.997C269.607 163.823 269.289 163.5 269.289 163.115C269.289 162.725 269.607 162.407 269.997 162.407H275.762C276.152 162.407 276.47 162.725 276.47 163.115C276.47 163.5 276.152 163.823 275.762 163.823Z" fill="#8CA2BF"/>
<path d="M275.762 166.043H269.997C269.607 166.043 269.289 165.729 269.289 165.34C269.289 164.95 269.607 164.631 269.997 164.631H275.762C276.152 164.631 276.47 164.95 276.47 165.34C276.47 165.729 276.152 166.043 275.762 166.043Z" fill="#8CA2BF"/>
<path d="M263.021 190.672H257.256C256.866 190.672 256.547 190.353 256.547 189.964C256.547 189.574 256.866 189.255 257.256 189.255H263.021C263.411 189.255 263.729 189.574 263.729 189.964C263.729 190.353 263.411 190.672 263.021 190.672Z" fill="#8CA2BF"/>
<path d="M263.021 192.896H257.256C256.866 192.896 256.547 192.578 256.547 192.188C256.547 191.799 256.866 191.48 257.256 191.48H263.021C263.411 191.48 263.729 191.799 263.729 192.188C263.729 192.578 263.411 192.896 263.021 192.896Z" fill="#8CA2BF"/>
<path d="M233.134 173.833H227.369C226.979 173.833 226.661 173.514 226.661 173.124C226.661 172.735 226.979 172.416 227.369 172.416H233.134C233.524 172.416 233.842 172.735 233.842 173.124C233.842 173.514 233.524 173.833 233.134 173.833Z" fill="#8CA2BF"/>
<path d="M233.134 176.057H227.369C226.979 176.057 226.661 175.739 226.661 175.349C226.661 174.96 226.979 174.641 227.369 174.641H233.134C233.524 174.641 233.842 174.96 233.842 175.349C233.842 175.739 233.524 176.057 233.134 176.057Z" fill="#8CA2BF"/>
<path d="M288.805 163.823H283.044C282.655 163.823 282.336 163.5 282.336 163.115C282.336 162.725 282.655 162.407 283.044 162.407H288.805C289.195 162.407 289.513 162.725 289.513 163.115C289.513 163.5 289.195 163.823 288.805 163.823Z" fill="#8CA2BF"/>
<path d="M288.805 166.043H283.044C282.655 166.043 282.336 165.729 282.336 165.34C282.336 164.95 282.655 164.631 283.044 164.631H288.805C289.195 164.631 289.513 164.95 289.513 165.34C289.513 165.729 289.195 166.043 288.805 166.043Z" fill="#8CA2BF"/>
<path d="M249.085 186.725H240.546C239.809 186.725 239.201 186.122 239.201 185.384V181.546C239.201 180.809 239.809 180.205 240.546 180.205H249.085C249.822 180.205 250.43 180.809 250.43 181.546V185.384C250.43 186.122 249.822 186.725 249.085 186.725Z" fill="#A6E6EE"/>
<path d="M244.212 185.652H244.187C244.003 185.644 243.831 185.56 243.709 185.422L242.113 183.607C241.866 183.331 241.895 182.908 242.172 182.661C242.448 182.418 242.872 182.443 243.119 182.723L244.25 184.005L247.154 181.161C247.418 180.901 247.845 180.905 248.105 181.173C248.36 181.437 248.356 181.86 248.092 182.12L244.682 185.459C244.556 185.581 244.388 185.652 244.212 185.652Z" fill="white"/>
<path d="M288.981 159.268H280.442C279.705 159.268 279.097 158.665 279.097 157.928V154.09C279.097 153.352 279.705 152.749 280.442 152.749H288.981C289.719 152.749 290.322 153.352 290.322 154.09V157.928C290.322 158.665 289.719 159.268 288.981 159.268Z" fill="#A6E6EE"/>
<path d="M284.108 158.192H284.083C283.899 158.187 283.727 158.104 283.606 157.965L282.005 156.151C281.762 155.875 281.791 155.447 282.068 155.204C282.345 154.961 282.768 154.986 283.015 155.267L284.142 156.549L287.05 153.704C287.314 153.444 287.741 153.449 288.001 153.717C288.256 153.981 288.252 154.404 287.988 154.664L284.578 158.003C284.452 158.125 284.284 158.192 284.108 158.192Z" fill="white"/>
<path d="M287.443 183.239C287.443 184.915 286.082 186.272 284.406 186.272C282.734 186.272 281.372 184.915 281.372 183.239C281.372 181.563 282.734 180.205 284.406 180.205C286.082 180.205 287.443 181.563 287.443 183.239Z" fill="#8CA2BF"/>
<path d="M248.151 192.49C248.151 194.166 246.793 195.524 245.117 195.524C243.441 195.524 242.084 194.166 242.084 192.49C242.084 190.814 243.441 189.457 245.117 189.457C246.793 189.457 248.151 190.814 248.151 192.49Z" fill="#8CA2BF"/>
</g>
<path d="M38.403 291.896C38.403 291.896 55.0984 298.522 57.0606 298.522C59.0265 298.522 69.99 291.159 73.6715 292.139C77.3529 293.122 95.3553 302.204 94.8656 302.94C94.376 303.676 89.2183 305.396 73.9991 304.906C58.7799 304.413 33.9852 302.204 33.9852 302.204L38.403 291.896Z" fill="#FFD7B4"/>
<path d="M187.332 298.209C191.323 276.313 190.449 268.48 179.759 250.605C169.07 232.73 168.049 199.467 164.021 209.223C159.991 218.979 160.533 243.48 173.162 255.368C185.789 267.258 187.489 272.582 188.24 277.42C188.99 282.26 186.435 297.133 186.435 297.133L187.332 298.209Z" fill="#A6E6EE"/>
<path d="M189.331 284.098C189.337 284.013 189.344 283.93 189.35 283.848C189.116 282.051 187.847 272.81 186.092 269.165C184.144 265.118 175.599 258.074 173.202 249.231C170.802 240.385 167.002 233.531 164.507 227.944C161.214 220.569 163.015 210.763 165.737 207.579C165.671 207.534 165.605 207.505 165.538 207.486L164.634 208.033C164.435 208.316 164.232 208.71 164.021 209.223C159.991 218.979 160.533 243.48 173.16 255.368C185.789 267.258 187.489 272.583 188.24 277.42C188.441 278.726 188.404 280.763 188.24 283.04L189.331 284.098Z" fill="#8CD2E4"/>
<path d="M181.877 294.347C184.846 268.612 183.856 259.705 178.116 239.116C172.376 218.53 209.79 171.615 208.602 179.731C207.413 187.846 203.453 208.039 193.161 220.708C182.867 233.376 182.076 243.671 184.055 254.559C186.034 265.445 183.66 290.784 183.66 290.784L182.472 295.336L181.877 294.347Z" fill="#A6E6EE"/>
<path d="M183.243 283.653H183.235C183.096 283.647 182.991 283.533 182.995 283.394C182.999 283.316 183.293 275.383 183.146 268.871C182.997 262.352 181.231 251.185 180.157 247.349C179.178 243.855 177.948 232.138 183.92 220.041C186.895 214.015 189.269 210.204 192.557 204.932C195.804 199.72 199.847 193.234 206.26 181.808C206.326 181.687 206.477 181.644 206.598 181.712C206.718 181.779 206.761 181.93 206.693 182.05C200.274 193.487 196.229 199.978 192.977 205.195C189.698 210.455 187.33 214.257 184.365 220.26C178.462 232.219 179.671 243.772 180.635 247.214C181.716 251.075 183.494 262.307 183.641 268.861C183.79 275.387 183.494 283.334 183.492 283.415C183.488 283.548 183.376 283.653 183.243 283.653Z" fill="#8CD2E4"/>
<path d="M182.867 303.592C184.649 286.369 184.947 294.862 177.547 271.463C169.08 244.681 199.296 220.904 204.246 230.605C209.195 240.305 214.936 270.79 212.758 269.801C210.58 268.811 196.129 240.503 195.734 241.692C195.339 242.878 176.137 252.777 176.928 262.872C177.721 272.968 185.044 289.002 185.044 289.002L184.846 303.791L182.867 303.592Z" fill="#A6E6EE"/>
<path d="M183.14 302.919L184.601 303.066L184.796 289.054C184.339 288.044 177.445 272.632 176.682 262.891C176.058 254.946 187.41 247.245 192.867 243.544C194.163 242.664 195.388 241.834 195.5 241.605C195.537 241.497 195.633 241.418 195.749 241.408C196.229 241.362 197.177 242.925 202.54 252.557C206.391 259.469 211.651 268.917 212.835 269.56C212.926 269.413 213.195 268.602 212.671 264.42C212.292 261.398 211.599 257.422 210.717 253.224C208.616 243.225 206.113 234.813 204.025 230.718C202.876 228.464 200.127 228.027 196.485 229.52C186.618 233.565 171.498 251.51 177.785 271.388C179.768 277.662 181.171 281.533 182.196 284.361C184.504 290.735 184.504 290.735 183.662 298.162C183.508 299.518 183.335 301.046 183.14 302.919ZM184.846 303.59L184.821 303.588L182.842 303.389C182.776 303.383 182.716 303.349 182.674 303.3C182.633 303.248 182.612 303.182 182.62 303.118C182.825 301.126 183.016 299.452 183.169 298.106C183.997 290.793 183.997 290.793 181.728 284.529C180.702 281.699 179.298 277.822 177.311 271.539C175.825 266.838 175.442 261.967 176.17 257.062C176.812 252.737 178.296 248.473 180.581 244.389C184.502 237.384 190.671 231.366 196.297 229.06C200.207 227.458 203.186 227.98 204.468 230.493C206.569 234.61 209.08 243.039 211.185 253.044C212.402 258.817 214.188 268.871 213.172 269.931C213.035 270.076 212.843 270.111 212.655 270.026C211.466 269.486 207.533 262.545 202.108 252.799C199.386 247.912 196.579 242.869 195.821 242C195.515 242.339 194.745 242.871 193.147 243.956C187.767 247.604 176.576 255.194 177.176 262.853C177.955 272.788 185.198 288.739 185.27 288.899C185.287 288.932 185.293 288.969 185.293 289.006L185.094 303.343C185.094 303.414 185.063 303.48 185.011 303.525C184.966 303.567 184.908 303.59 184.846 303.59Z" fill="#8CD2E4"/>
<path d="M189.09 304.306H180.106C179.489 304.306 178.936 303.954 178.878 303.517L175.86 280.826C175.719 279.778 176.413 278.896 177.402 278.896H191.793C192.783 278.896 193.474 279.778 193.335 280.826L190.317 303.517C190.259 303.954 189.707 304.306 189.09 304.306Z" fill="#FFAB56"/>
<path d="M178.447 271.763L178.607 271.488C178.025 269.387 177.538 267.294 177.228 265.338C177.549 269.037 178.447 271.763 178.447 271.763Z" fill="#8CD2E4"/>
<path d="M178.447 255.176C177.863 256.635 177.507 258.157 177.313 259.657C179.965 250.953 194.73 243.095 195.688 241.768L195.86 241.435C190.313 239.887 181.445 247.68 178.447 255.176Z" fill="#8CD2E4"/>
<path d="M212.773 269.264C212.661 269.264 212.559 269.188 212.53 269.074L209.848 258.159C207.753 249.605 205.145 238.959 202.218 234.221C201.735 233.44 199.628 232.383 196.643 232.594C192.608 232.879 184.829 235.668 178.075 251.127C178.021 251.253 177.874 251.311 177.748 251.257C177.623 251.201 177.566 251.054 177.619 250.928C184.479 235.229 192.461 232.393 196.608 232.099C199.833 231.871 202.079 233.049 202.642 233.96C205.608 238.767 208.117 249.005 210.33 258.041L213.013 268.956C213.046 269.088 212.965 269.223 212.833 269.256C212.812 269.262 212.791 269.264 212.773 269.264Z" fill="#8CD2E4"/>
<path d="M204.902 255.025L204.873 255.023C204.739 255.006 204.639 254.884 204.656 254.747C204.666 254.658 205.672 245.685 203.313 236.249C203.279 236.117 203.36 235.982 203.495 235.947C203.627 235.916 203.762 235.997 203.795 236.129C206.178 245.656 205.161 254.714 205.151 254.805C205.134 254.932 205.029 255.025 204.902 255.025Z" fill="#8CD2E4"/>
<path d="M202.131 249.479L202.102 249.477C201.965 249.46 201.868 249.336 201.884 249.202C201.892 249.119 202.847 240.903 202.182 234.115C202.17 233.979 202.269 233.856 202.406 233.844C202.54 233.827 202.663 233.929 202.677 234.066C203.346 240.909 202.387 249.177 202.377 249.26C202.362 249.386 202.255 249.479 202.131 249.479Z" fill="#8CD2E4"/>
<path d="M192.687 205.41C192.594 205.41 192.505 205.358 192.463 205.269C192.403 205.145 192.455 204.998 192.579 204.938C192.65 204.903 199.752 201.429 203.859 193.801C203.925 193.681 204.076 193.636 204.196 193.702C204.316 193.766 204.362 193.917 204.298 194.037C200.11 201.812 192.867 205.35 192.794 205.385C192.759 205.402 192.722 205.41 192.687 205.41Z" fill="#8CD2E4"/>
<path d="M187.44 214.404C187.326 214.404 187.222 214.324 187.197 214.206C187.17 214.071 187.255 213.941 187.39 213.912C187.448 213.899 193.267 212.653 200.174 207.068C200.282 206.981 200.437 206.998 200.524 207.103C200.611 207.211 200.595 207.366 200.487 207.453C193.476 213.121 187.549 214.386 187.491 214.398L187.44 214.404Z" fill="#8CD2E4"/>
<path d="M183.105 223.103C183.003 223.103 182.943 223.098 182.924 223.096C182.788 223.086 182.686 222.968 182.697 222.831C182.705 222.693 182.827 222.591 182.962 222.602C183.001 222.604 187.011 222.823 193.436 218.004C193.548 217.921 193.703 217.944 193.784 218.054C193.867 218.163 193.844 218.319 193.734 218.401C187.835 222.827 183.974 223.103 183.105 223.103Z" fill="#8CD2E4"/>
<path d="M264.604 201.597V292.367C264.604 295.386 261.758 297.83 258.249 297.83H239.19C235.94 297.83 233.304 300.098 233.304 302.896H260.731C266.636 302.896 271.422 298.78 271.422 293.7V201.597H264.604Z" fill="#242888"/>
<path d="M250.666 279.335L247.639 278.757C245.64 278.377 244.37 276.662 244.812 274.943L268.528 182.806C268.973 181.091 270.969 179.994 272.964 180.377L275.99 180.951C277.986 181.334 279.26 183.049 278.818 184.765L255.098 276.901C254.656 278.62 252.661 279.714 250.666 279.335Z" fill="#6268F7"/>
<path d="M251.49 279.493L251.137 279.423C249.594 279.128 248.611 277.803 248.95 276.478L273.034 182.92C273.377 181.591 274.919 180.748 276.462 181.043L276.815 181.109C278.358 181.404 279.341 182.729 278.998 184.054L254.918 277.615C254.575 278.94 253.033 279.783 251.49 279.493Z" fill="#242888"/>
<ellipse cx="144.948" cy="99.2702" rx="0.828331" ry="0.82833" fill="#2E5B9A"/>
<ellipse cx="148.262" cy="99.2702" rx="0.828331" ry="0.82833" fill="#2E5B9A"/>
<ellipse cx="151.575" cy="99.2702" rx="0.828331" ry="0.82833" fill="#2E5B9A"/>
</g>
<path d="M70.8675 127.149C85.6748 113.959 96.5504 121.826 104.65 130.619C111.104 137.629 112.007 139.183 117.34 146.443C118.132 147.522 118.739 148.719 118.767 150.056C118.916 158.086 123.021 192.027 118.458 203.739C113.134 217.391 47.4958 223.641 47.4958 223.641L70.8675 127.149Z" fill="#34379E"/>
<path d="M112.902 211.512C112.545 211.512 112.246 211.231 112.229 210.87C112.208 210.496 112.496 210.18 112.871 210.159C114.818 210.062 116.403 209.187 117.715 207.484C125.075 197.947 120.939 166.115 117.333 148.806C117.257 148.442 117.49 148.084 117.857 148.008C118.222 147.928 118.579 148.164 118.656 148.532C119.443 152.311 122.077 165.727 122.9 179.701C123.743 194.057 122.358 203.68 118.787 208.309C117.24 210.315 115.272 211.394 112.937 211.512H112.902Z" fill="#34379E"/>
<path d="M76.4198 123.214C47.9608 138.951 65.3152 192.17 29.2148 211.145C19.2172 216.402 -11.5078 243.077 8.62272 278.248C21.7921 301.255 61.1475 296.296 74.1052 275.933C87.0629 255.574 76.4198 123.214 76.4198 123.214Z" fill="#34379E"/>
<path d="M0.679123 244.216L0.588911 244.209C0.217601 244.16 -0.0426904 243.82 0.00589227 243.449C0.0336538 243.261 0.651361 238.785 3.48998 232.844C6.1065 227.371 11.1834 219.602 20.5217 213.661C37.2237 203.031 48.311 193.013 61.4213 143.636C61.515 143.275 61.8864 143.06 62.2473 143.157C62.6082 143.25 62.8233 143.622 62.7261 143.983C56.393 167.844 50.112 183.973 42.9634 194.745C36.3214 204.749 29.4921 209.555 21.2504 214.799C3.89949 225.841 1.37319 243.452 1.3489 243.629C1.30378 243.969 1.01226 244.216 0.679123 244.216Z" fill="#34379E"/>
<path d="M1.30059 230.432C1.17913 230.432 1.05072 230.401 0.939675 230.328C0.623888 230.13 0.530193 229.71 0.731464 229.398C4.85752 222.863 10.1149 217.505 16.3543 213.47C39.8093 198.301 43.6924 189.581 63.063 139.631C63.1984 139.284 63.5905 139.11 63.9375 139.246C64.288 139.381 64.458 139.773 64.3261 140.12C54.6374 165.092 48.8492 179.725 42.5195 190.098C35.718 201.237 28.0453 207.518 17.09 214.604C11.0136 218.533 5.89512 223.752 1.87317 230.12C1.74477 230.321 1.52615 230.432 1.30059 230.432Z" fill="#34379E"/>
<path d="M75.4374 156.427C65.6376 176.779 67.1437 195.248 67.1437 195.248C67.1437 195.248 68.275 202.407 72.8001 203.916C77.3217 205.422 83.7277 200.901 83.3529 194.87C82.9747 188.838 84.859 174.142 87.1215 168.864C89.3806 163.589 75.4374 156.427 75.4374 156.427Z" fill="#FFD7B4"/>
<path d="M23.6623 297.841C24.28 303.393 22.8919 302.931 27.8265 303.854C32.7646 304.781 41.558 301.387 41.558 301.387L31.6853 283.03L23.6623 297.841Z" fill="#6791C9"/>
<path d="M68.3272 184.317C65.5511 193.343 44.7265 186.399 37.4391 188.481C30.1517 190.563 23.9019 221.108 22.8608 248.526C21.8198 275.944 23.2079 297.809 25.984 301.279C28.7602 304.75 74.577 306.138 78.7413 304.75C82.9055 303.362 44.0325 286.011 44.0325 286.011C44.0325 286.011 41.6033 254.078 44.7265 237.765C47.8497 221.455 75.9651 199.936 75.9651 199.936L68.3272 184.317Z" fill="#FFD7B4"/>
<path d="M78.0467 187.093C85.3341 198.201 104.424 196.813 111.017 205.835C117.61 214.858 131.495 264.492 131.495 264.492L146.073 214.164C146.073 214.164 157.892 212.179 154.054 220.414C147.225 235.054 144.681 282.298 137.276 289.009C129.041 296.47 120.848 290.397 116.222 277.332C111.749 264.693 100.606 237.418 92.6215 227.007C84.6401 216.593 75.9646 199.936 75.9646 199.936L78.0467 187.093Z" fill="#FFD7B4"/>
<path d="M46.4615 188.481C61.0398 205.488 89.4988 204.794 95.7451 202.712C101.995 200.63 101.995 200.63 101.995 200.63C101.995 200.63 106.853 198.895 111.017 203.753C115.182 208.612 125.249 239.156 126.984 246.097C128.719 253.037 131.495 264.492 131.495 264.492C131.495 264.492 124.048 273.428 124.048 282.454C124.048 291.476 127.209 291.553 127.209 291.553C127.209 291.553 117.958 289.481 115.876 283.929C113.794 278.373 95.0511 228.048 95.0511 228.048L43.3384 229.089L44.0324 286.011C44.0324 286.011 39.5211 281.843 33.2748 286.011C27.025 290.175 24.9429 299.891 25.984 301.28C27.025 302.668 23.9018 302.668 23.9018 301.627C23.9018 300.586 18.0025 275.25 22.1667 233.6C26.331 191.951 34.3159 187.44 38.8271 187.093C43.3384 186.746 46.4615 188.481 46.4615 188.481Z" fill="#FFAB56"/>
<path d="M125.093 290.834C125.19 290.869 125.25 290.869 125.25 290.869C125.25 290.869 125.19 290.858 125.093 290.834Z" fill="#6791C9"/>
<path d="M127.095 265.752C124.086 266.678 118.995 277.321 118.995 277.321C118.995 277.321 107.426 252.1 103.956 217.162L99.826 240.863C105.528 256.17 114.474 280.188 115.876 283.928C117.781 289.005 125.464 291.126 126.515 291.362C126.227 291.264 125.592 290.879 125.065 289.352C124.763 289.078 123.024 288.266 122.698 287.968C119.922 285.421 121.077 279.407 122.931 272.695C124.78 265.984 130.103 264.829 127.095 265.752Z" fill="#FF9334"/>
<path d="M45.8266 229.04L40.0904 202.813C33.8441 211.606 33.15 241.689 35.6971 262.281C37.7827 279.171 40.9059 283.554 43.0505 285.316C43.6855 285.688 44.0326 286.01 44.0326 286.01L43.3385 229.089L45.8266 229.04Z" fill="#FF9334"/>
<path d="M29.2148 202.584C39.8614 231.275 34.5381 237.06 48.5438 270.738C56.3691 289.547 71.4505 303.709 71.4505 303.709C71.4505 303.709 83.5996 306.832 98.8685 305.791C114.141 304.75 125.322 303.702 125.322 303.702C125.322 303.702 109.282 293.992 108.588 287.399C107.894 280.802 104.882 254.647 108.814 236.134C111.889 221.68 99.2189 207.223 99.2189 207.223L78.0473 206.182L29.2148 202.584Z" fill="#FFAB56"/>
<path d="M99.7463 292.038C98.962 292.038 97.3726 291.851 94.7006 291.438C81.2779 289.356 66.9322 273.622 60.6858 263.441C54.4395 253.259 48.3735 248.043 47.9606 246.548C47.4609 244.74 47.801 244.056 48.8802 244.056C51.8021 244.056 60.1306 249.067 71.7939 250.25C76.4335 250.722 81.2293 250.84 85.4838 250.84C87.6561 250.84 89.6862 250.809 91.4838 250.778C93.2813 250.747 94.8429 250.715 96.0748 250.715C99.5103 250.715 100.409 250.955 96.7827 252.1C87.9893 254.876 63.9235 250.712 68.3202 259.505C73.4943 269.853 79.6053 279.868 88.4543 285.886C93.087 289.037 102.915 292.038 99.7463 292.038Z" fill="#FF9334"/>
<path d="M83.3117 192.229C83.454 185.302 85.1439 173.479 87.1219 168.864C88.7425 165.085 82.0416 160.338 78.1133 157.947L74.7924 157.804C74.2857 158.908 73.8103 160.008 73.3661 161.094C69.8577 184.129 80.3585 193.648 85.366 195.564C87.5314 196.389 89.9536 196.483 92.0253 196.296C88.9299 195.196 85.9178 193.946 83.3117 192.229Z" fill="#EFB583"/>
<path d="M76.9577 202.469C75.7536 202.469 74.5008 202.324 73.262 202.022C70.3644 201.317 63.4587 198.635 61.852 188.995C61.8139 188.787 61.9561 188.589 62.1643 188.554C62.3726 188.519 62.5703 188.658 62.605 188.866C64.1389 198.055 70.6941 200.606 73.4425 201.279C77.7143 202.32 82.2428 201.356 83.9814 199.037C85.3764 197.177 84.5401 193.218 84.5297 193.176C84.4846 192.972 84.6165 192.767 84.8247 192.722C85.0294 192.677 85.2341 192.808 85.2793 193.013C85.3174 193.19 86.1989 197.358 84.5957 199.496C83.1729 201.394 80.2405 202.469 76.9577 202.469Z" fill="#FFAB56"/>
<path d="M109.616 165.481C107.263 177.914 101.825 187.943 92.622 186.052C83.4225 184.161 73.7476 171.029 76.2947 158.637C78.8384 146.242 88.364 137.726 97.567 139.617C106.766 141.509 112.753 148.917 109.616 165.481Z" fill="#FFD7B4"/>
<path d="M142.367 226.879C142.367 226.879 125.359 272.578 124.551 277.321C123.739 282.065 125.359 285.074 125.821 285.074C126.286 285.074 140.746 260.317 140.746 260.317L142.367 226.879Z" fill="#FFD7B4"/>
<path d="M143.061 224.873C144.449 220.247 142.291 214.382 142.291 214.382L148.461 215.156L143.061 224.873Z" fill="#FFD7B4"/>
<path d="M149.842 216.982H132.623C131.578 216.982 130.829 215.972 131.127 214.972L141.996 178.529C142.194 177.869 142.801 177.415 143.492 177.415H160.711C161.755 177.415 162.505 178.421 162.206 179.424L151.338 215.864C151.14 216.527 150.533 216.982 149.842 216.982Z" fill="#728398"/>
<path d="M152 216.982H134.785C133.74 216.982 132.987 215.972 133.286 214.972L144.154 178.529C144.352 177.869 144.963 177.415 145.653 177.415H162.869C163.914 177.415 164.667 178.421 164.368 179.424L153.499 215.864C153.302 216.527 152.691 216.982 152 216.982Z" fill="#8CA2BF"/>
<path d="M151.237 227.805C151.747 221.795 156.952 216.163 158.934 214.365C159.534 213.817 159.874 213.043 159.867 212.231C159.84 209.236 159.704 202.164 159.087 201.338C158.299 200.287 156.324 186.746 155.405 187.27C154.485 187.797 155.668 199.627 155.668 199.627C155.668 199.627 153.434 198.576 152.25 198.052C151.067 197.524 146.202 202.914 146.202 202.914C146.202 202.914 143.922 208.677 150.158 206.21C157.563 203.278 152.007 211.454 147.073 216.697C143.006 221.021 146.465 221.975 146.465 221.975L149.752 221.843L151.237 227.805Z" fill="#FFD7B4"/>
<path d="M149.373 232.531C148.828 232.531 148.211 232.448 147.586 232.254C145.986 231.758 143.189 230.144 142.45 224.966C142.419 224.758 142.565 224.564 142.776 224.533C142.985 224.505 143.179 224.647 143.21 224.859C143.842 229.287 145.99 230.901 147.68 231.477C149.061 231.949 150.203 231.73 150.491 231.57C150.508 231.438 150.595 231.32 150.73 231.268C150.924 231.189 151.15 231.282 151.226 231.48C151.303 231.674 151.258 231.89 151.105 232.056C150.838 232.348 150.185 232.531 149.373 232.531Z" fill="#FFAB56"/>
<path d="M148.728 231.046C148.214 231.046 147.683 231.008 147.173 230.932C144.199 230.502 142.204 228.992 141.704 226.792C141.656 226.584 141.788 226.379 141.992 226.33C142.201 226.285 142.405 226.414 142.45 226.622C142.929 228.721 144.838 229.613 146.354 229.991C148.482 230.522 150.48 230.196 150.716 229.919C150.82 229.735 151.049 229.676 151.237 229.78C151.421 229.884 151.483 230.123 151.379 230.307C151.095 230.814 149.977 231.046 148.728 231.046Z" fill="#FFAB56"/>
<path d="M112.055 146.353C76.9611 167.025 75.0316 153.141 75.0316 153.141L77.1137 133.395L97.9384 134.554L112.055 146.353Z" fill="#34379E"/>
<path d="M77.7489 157.728C78.5644 161.223 77.4504 164.471 75.2573 164.984C73.0641 165.494 70.628 163.079 69.8091 159.585C68.9936 156.09 70.1075 152.842 72.3007 152.328C74.4939 151.818 76.9299 154.237 77.7489 157.728Z" fill="#FFD7B4"/>
<path d="M75.344 162.319C75.344 163.082 74.7229 163.7 73.9594 163.7C73.1994 163.7 72.5782 163.082 72.5782 162.319C72.5782 161.556 73.1994 160.938 73.9594 160.938C74.7229 160.938 75.344 161.556 75.344 162.319Z" fill="#F5CE5C"/>
<path d="M217.527 310H6.11369C4.33695 310 2.89685 308.56 2.89685 306.783C2.89685 305.006 4.33695 303.566 6.11369 303.566H217.527C219.303 303.566 220.744 305.006 220.744 306.783C220.744 308.56 219.303 310 217.527 310Z" fill="#728398"/>
<path d="M78.2383 302.945C78.2383 302.945 65.0065 303.115 64.8365 304.285C64.6699 305.458 65.3396 305.961 70.0313 306.801C74.7196 307.637 127.487 307.974 127.99 307.637C128.494 307.304 143.905 303.615 143.905 303.615L106.885 302.945H78.2383Z" fill="white"/>
<path d="M85.4457 294.138C85.4457 294.138 94.9331 289.974 97.7093 291.823C100.485 293.673 108.509 302.161 108.509 302.161L85.4457 294.138Z" fill="#FFD7B4"/>
<path d="M107.984 302.914C107.804 303.14 107.533 303.233 107.384 303.122L87.8608 288.589C86.8094 287.805 86.3097 286.608 86.8163 285.976C87.323 285.344 88.6 285.57 89.5925 286.424L108.054 302.282C108.196 302.407 108.165 302.688 107.984 302.914Z" fill="#2E5B9A"/>
<path d="M56.7507 292.364C56.7507 292.364 72.4879 298.611 74.3375 298.611C76.1906 298.611 86.5249 291.67 89.9951 292.593C93.4653 293.52 110.434 302.081 109.973 302.775C109.511 303.469 104.65 305.09 90.3039 304.628C75.9582 304.163 52.5864 302.081 52.5864 302.081L56.7507 292.364Z" fill="#FFD7B4"/>
</svg>
